<svg width="241" height="93" viewBox="0 0 241 93" fill="none" xmlns="http://www.w3.org/2000/svg">
<g clip-path="url(#clip0_3_93)">
<path d="M87.29 17.02H91.61V44.54H87.29V17.02ZM88.78 17.02H105.6V20.56H88.78V17.02ZM88.78 29.01H104.42V32.55H88.78V29.01Z" fill="#252322"/>
<path d="M112.64 43.81C111.07 42.91 109.83 41.66 108.93 40.08C108.03 38.49 107.57 36.71 107.57 34.71C107.57 32.71 108.02 30.93 108.93 29.34C109.83 27.75 111.07 26.51 112.64 25.61C114.21 24.71 115.99 24.25 117.99 24.25C119.99 24.25 121.76 24.7 123.34 25.61C124.91 26.51 126.15 27.76 127.05 29.34C127.95 30.93 128.41 32.71 128.41 34.71C128.41 36.71 127.96 38.49 127.05 40.08C126.15 41.67 124.91 42.91 123.34 43.81C121.77 44.71 119.98 45.17 117.99 45.17C116 45.17 114.22 44.72 112.64 43.81ZM121.33 41.08C122.33 40.45 123.1 39.58 123.65 38.47C124.2 37.36 124.48 36.11 124.48 34.72C124.48 33.33 124.2 32.08 123.65 30.97C123.1 29.86 122.33 28.98 121.33 28.36C120.33 27.73 119.22 27.42 117.99 27.42C116.76 27.42 115.64 27.73 114.65 28.36C113.65 28.99 112.88 29.86 112.33 30.97C111.78 32.08 111.5 33.34 111.5 34.72C111.5 36.1 111.77 37.36 112.33 38.47C112.88 39.58 113.65 40.46 114.65 41.08C115.65 41.71 116.76 42.02 117.99 42.02C119.22 42.02 120.34 41.71 121.33 41.08Z" fill="#252322"/>
<path d="M146.72 41V44.54H130.13V41H146.72ZM138.98 24.88V28.42H131.31V24.88H138.98ZM136.07 24.88H138.98V30.82H140V44.54H136.07V24.89V24.88ZM139.49 29.13C140.09 27.79 140.93 26.75 142.01 26C143.08 25.25 144.3 24.88 145.67 24.88H149.88V28.42H145.67C143.94 28.42 142.56 29.19 141.54 30.72C140.52 32.25 140.01 34.32 140.01 36.91L138.59 33.65C138.59 31.97 138.89 30.47 139.49 29.13Z" fill="#252322"/>
<path d="M153.17 24.88H170.07V28.02H153.17V24.88ZM161.15 43.85C160.26 43.39 159.56 42.76 159.05 41.94C158.54 41.13 158.28 40.21 158.28 39.19V18.59H162.21V38.79C162.21 39.55 162.5 40.17 163.09 40.66C163.68 41.15 164.43 41.39 165.35 41.39H170.07V44.53H164.17C163.04 44.53 162.03 44.3 161.14 43.84L161.15 43.85Z" fill="#252322"/>
<path d="M178.62 44.28C177.45 43.69 176.55 42.86 175.91 41.8C175.27 40.74 174.95 39.54 174.95 38.2V24.87H178.88V37.41C178.88 38.62 179.31 39.61 180.16 40.4C181.01 41.19 182.11 41.59 183.44 41.62C184.51 41.62 185.49 41.38 186.37 40.89C187.25 40.41 187.94 39.72 188.43 38.83C188.93 37.94 189.18 36.96 189.18 35.88L190.2 38.75C190.2 39.96 189.87 41.05 189.2 42.03C188.53 43.01 187.62 43.78 186.47 44.33C185.32 44.88 184.02 45.16 182.58 45.16C181.14 45.16 179.79 44.87 178.63 44.28H178.62ZM189.18 24.88H193.11V44.53H189.18V24.88Z" fill="#252322"/>
<path d="M196.96 24.88H200.89V44.53H196.96V24.88ZM209.91 29.01C209.06 28.22 207.96 27.82 206.63 27.79C205.55 27.79 204.58 28.03 203.7 28.52C202.82 29.01 202.13 29.69 201.64 30.58C201.14 31.47 200.89 32.45 200.89 33.53L199.87 30.66C199.87 29.45 200.2 28.36 200.87 27.38C201.54 26.4 202.45 25.63 203.6 25.08C204.75 24.53 206.05 24.25 207.49 24.25C208.93 24.25 210.27 24.54 211.44 25.13C212.61 25.72 213.51 26.55 214.15 27.61C214.79 28.67 215.11 29.87 215.11 31.21V44.54H211.18V32C211.18 30.79 210.75 29.8 209.9 29.01H209.91Z" fill="#252322"/>
<path d="M222.69 43.85C221.08 42.97 219.83 41.73 218.94 40.14C218.05 38.54 217.6 36.72 217.6 34.68C217.6 32.64 218.02 30.94 218.86 29.35C219.7 27.76 220.86 26.52 222.34 25.62C223.82 24.72 225.48 24.26 227.31 24.26C229.14 24.26 230.8 24.71 232.26 25.62C233.73 26.52 234.87 27.77 235.7 29.35C236.53 30.94 236.94 32.72 236.94 34.72V35.9H219.17V32.76H234.54L232.89 34.29C232.89 32.27 232.37 30.62 231.32 29.34C230.27 28.06 228.92 27.41 227.27 27.41C226.17 27.41 225.18 27.72 224.3 28.33C223.42 28.95 222.74 29.8 222.26 30.89C221.77 31.98 221.53 33.2 221.53 34.57C221.53 36.8 222.16 38.6 223.42 39.97C224.68 41.35 226.31 42.03 228.33 42.03C229.48 42.03 230.45 41.8 231.22 41.34C231.99 40.88 232.48 40.25 232.69 39.43H236.66C236.37 41.19 235.46 42.58 233.93 43.62C232.4 44.66 230.49 45.17 228.21 45.17C226.14 45.17 224.3 44.73 222.69 43.85Z" fill="#252322"/>
<path d="M88.59 80.54C86.6 78.97 85.5 76.82 85.29 74.09H89.61C89.92 75.74 90.7 77.03 91.93 77.96C93.16 78.89 94.73 79.36 96.65 79.36C98.41 79.36 99.8 78.96 100.84 78.16C101.88 77.36 102.38 76.29 102.35 74.96C102.32 73.78 101.9 72.77 101.09 71.93C100.28 71.09 99.15 70.53 97.71 70.24L93.03 69.26C90.96 68.84 89.35 67.96 88.2 66.61C87.05 65.26 86.47 63.63 86.47 61.72C86.47 60.17 86.86 58.83 87.63 57.69C88.4 56.55 89.5 55.67 90.93 55.06C92.36 54.44 94.03 54.14 95.94 54.14C98.9 54.14 101.28 54.83 103.07 56.2C104.86 57.58 105.87 59.5 106.08 61.96H101.76C101.68 60.62 101.14 59.58 100.13 58.82C99.12 58.06 97.76 57.68 96.06 57.68C94.36 57.68 93.15 58.03 92.21 58.72C91.27 59.41 90.79 60.36 90.79 61.57C90.79 62.59 91.14 63.46 91.85 64.18C92.56 64.9 93.55 65.39 94.84 65.65L99.44 66.63C101.67 67.1 103.42 68.08 104.71 69.56C106 71.04 106.65 72.82 106.68 74.89C106.68 76.51 106.27 77.94 105.46 79.15C104.65 80.37 103.47 81.3 101.94 81.94C100.41 82.58 98.61 82.9 96.54 82.9C93.24 82.9 90.59 82.11 88.6 80.54H88.59Z" fill="#252322"/>
<path d="M113.41 81.54C111.85 80.64 110.63 79.39 109.75 77.81C108.87 76.23 108.43 74.44 108.43 72.44C108.43 70.44 108.87 68.66 109.75 67.07C110.63 65.48 111.85 64.24 113.41 63.34C114.97 62.44 116.72 61.98 118.66 61.98C121.04 61.98 123.06 62.65 124.69 63.98C126.32 65.31 127.28 67.09 127.54 69.29H123.53C123.35 68.03 122.79 67.02 121.86 66.26C120.93 65.5 119.81 65.12 118.5 65.12C117.32 65.12 116.27 65.43 115.34 66.06C114.41 66.69 113.68 67.56 113.16 68.67C112.64 69.78 112.37 71.04 112.37 72.42C112.37 73.8 112.64 75.06 113.18 76.17C113.72 77.28 114.46 78.16 115.4 78.78C116.34 79.4 117.4 79.72 118.58 79.72C119.92 79.72 121.04 79.34 121.96 78.58C122.88 77.82 123.41 76.81 123.57 75.55H127.54C127.28 77.75 126.33 79.52 124.69 80.86C123.05 82.2 121.04 82.86 118.66 82.86C116.72 82.86 114.97 82.41 113.41 81.5V81.54Z" fill="#252322"/>
<path d="M146.72 78.73V82.27H130.13V78.73H146.72ZM138.98 62.62V66.16H131.31V62.62H138.98ZM136.07 62.62H138.98V68.56H140V82.28H136.07V62.63V62.62ZM139.49 66.86C140.09 65.52 140.93 64.48 142.01 63.74C143.08 62.99 144.3 62.62 145.67 62.62H149.88V66.16H145.67C143.94 66.16 142.56 66.93 141.54 68.46C140.52 69.99 140.01 72.06 140.01 74.65L138.59 71.39C138.59 69.71 138.89 68.21 139.49 66.87V66.86Z" fill="#252322"/>
<path d="M156.67 81.54C155.1 80.64 153.86 79.39 152.96 77.81C152.06 76.23 151.6 74.44 151.6 72.44C151.6 70.44 152.05 68.66 152.96 67.07C153.87 65.48 155.1 64.24 156.67 63.34C158.24 62.44 160.02 61.98 162.02 61.98C164.02 61.98 165.79 62.43 167.37 63.34C168.94 64.24 170.18 65.49 171.08 67.07C171.98 68.66 172.44 70.44 172.44 72.44C172.44 74.44 171.99 76.22 171.08 77.81C170.18 79.4 168.94 80.64 167.37 81.54C165.8 82.44 164.01 82.9 162.02 82.9C160.03 82.9 158.25 82.45 156.67 81.54ZM165.36 78.81C166.36 78.18 167.13 77.31 167.68 76.2C168.23 75.09 168.51 73.84 168.51 72.45C168.51 71.06 168.23 69.81 167.68 68.7C167.13 67.59 166.36 66.71 165.36 66.09C164.36 65.46 163.25 65.15 162.02 65.15C160.79 65.15 159.67 65.46 158.68 66.09C157.68 66.72 156.91 67.59 156.36 68.7C155.81 69.81 155.53 71.07 155.53 72.45C155.53 73.83 155.8 75.09 156.36 76.2C156.91 77.31 157.68 78.19 158.68 78.81C159.68 79.44 160.79 79.75 162.02 79.75C163.25 79.75 164.37 79.44 165.36 78.81Z" fill="#252322"/>
<path d="M179.27 53.97V57.51H171.6V53.97H179.27ZM180.61 81.58C179.72 81.12 179.02 80.49 178.51 79.67C178 78.85 177.74 77.94 177.74 76.92V53.96H181.67V76.52C181.67 77.28 181.96 77.9 182.55 78.39C183.14 78.88 183.89 79.12 184.81 79.12H189.53V82.26H183.63C182.5 82.26 181.49 82.03 180.6 81.57L180.61 81.58Z" fill="#252322"/>
<path d="M197.35 53.97V57.51H189.68V53.97H197.35ZM198.69 81.58C197.8 81.12 197.1 80.49 196.59 79.67C196.08 78.85 195.82 77.94 195.82 76.92V53.96H199.75V76.52C199.75 77.28 200.04 77.9 200.63 78.39C201.22 78.88 201.97 79.12 202.89 79.12H207.61V82.26H201.71C200.58 82.26 199.57 82.03 198.68 81.57L198.69 81.58Z" fill="#252322"/>
<path d="M49.21 51.42L28.86 51.5L28.75 5.17L39.38 9.06L49.1 5.09L49.21 51.42Z" fill="#E94F51"/>
<path d="M49.63 27C49.63 27 41.49 33.11 39.56 41.94C39.56 41.94 37.36 33.62 28.1 27L29.38 54.64H49.58L49.19 40.92L49.63 28.8V27Z" fill="#AA3C41"/>
<path d="M27.95 52.43C27.71 52.19 27.57 51.87 27.56 51.51L27.45 5.18C27.45 4.46 28.58 3.53 29.3 3.53L39.31 6.98L48.78 3.53C49.5 3.53 50.4 4.37 50.4 5.09L50.51 51.42C50.51 51.77 50.38 52.1 50.13 52.34C49.88 52.58 49.56 52.72 49.21 52.73L28.86 52.81C28.5 52.81 28.17 52.67 27.94 52.43H27.95ZM30.06 6.46L30.16 50.19L47.91 50.12L47.81 6.39L39.31 9.57L30.06 6.46Z" fill="#161515"/>
<path d="M57.12 23.86C50.47 28.62 39.56 39.17 39.56 57.28C39.56 39.7 28.49 29.24 21.29 24.29C11.41 30.42 4.82001 41.33 4.82001 53.8C4.82001 72.99 20.38 88.54 39.56 88.54C58.74 88.54 74.3 72.98 74.3 53.8C74.3 41.03 67.39 29.89 57.11 23.86H57.12Z" fill="#FACC8E"/>
<mask id="mask0_3_93" style="mask-type:luminance" maskUnits="userSpaceOnUse" x="-38" y="-17" width="144" height="145">
<path d="M105.7 -16.45H-37.28V127.7H105.7V-16.45Z" fill="white"/>
</mask>
<g mask="url(#mask0_3_93)">
<path d="M39.42 89.85C19.54 89.85 3.37 73.68 3.37 53.8C3.37 41.27 9.76 29.82 20.46 23.18C20.9 22.91 21.46 22.92 21.89 23.21C27.48 27.05 36.07 34.68 39.37 46.87C42.51 34.37 50.82 26.64 56.22 22.79C56.64 22.49 57.2 22.47 57.64 22.73C68.64 29.19 75.47 41.1 75.47 53.8C75.47 73.68 59.3 89.85 39.42 89.85ZM21.12 25.86C11.63 32.08 5.98 42.46 5.98 53.8C5.98 72.24 20.98 87.24 39.42 87.24C57.86 87.24 72.86 72.24 72.86 53.8C72.86 42.3 66.82 31.51 57.05 25.42C50.64 30.19 40.73 40.32 40.73 57.28C40.73 58 40.15 58.58 39.43 58.58C38.71 58.58 38.13 58 38.13 57.28C38.13 40.69 27.79 30.62 21.13 25.86H21.12Z" fill="#161515"/>
<path d="M39.42 83.38C32.33 83.38 25.5 80.8 20.19 76.12C19.65 75.64 19.6 74.82 20.07 74.28C20.55 73.74 21.37 73.69 21.91 74.16C26.75 78.42 32.96 80.77 39.42 80.77C44.11 80.77 48.73 79.53 52.75 77.18C53.37 76.82 54.17 77.03 54.53 77.65C54.89 78.27 54.68 79.07 54.06 79.43C49.63 82.02 44.57 83.38 39.41 83.38H39.42ZM57.64 76.58C57.28 76.58 56.91 76.43 56.66 76.13C56.19 75.59 56.25 74.76 56.79 74.29C57.21 73.93 57.61 73.55 58.01 73.17C58.53 72.67 59.35 72.68 59.85 73.19C60.35 73.7 60.35 74.53 59.83 75.04C59.4 75.46 58.95 75.87 58.49 76.27C58.24 76.48 57.94 76.59 57.64 76.59V76.58ZM17.48 72.66C17.09 72.66 16.71 72.49 16.45 72.16C16.08 71.68 15.72 71.19 15.38 70.69C14.97 70.1 15.13 69.29 15.72 68.88C16.32 68.47 17.12 68.63 17.53 69.22C17.84 69.68 18.17 70.12 18.51 70.56C18.95 71.13 18.85 71.95 18.29 72.39C18.05 72.58 17.77 72.67 17.49 72.67L17.48 72.66ZM62.27 71.42C62.01 71.42 61.75 71.35 61.53 71.19C60.94 70.78 60.79 69.97 61.2 69.37C64.29 64.93 65.92 59.71 65.91 54.28C65.91 48.49 64.07 43 60.6 38.39C60.17 37.82 60.28 37 60.86 36.57C61.43 36.13 62.25 36.25 62.68 36.83C66.5 41.89 68.52 47.93 68.52 54.29C68.52 60.25 66.73 65.99 63.34 70.87C63.09 71.23 62.68 71.43 62.27 71.43V71.42ZM13.94 66.7C13.44 66.7 12.96 66.41 12.75 65.92C11.15 62.24 10.33 58.33 10.33 54.29C10.33 46.06 13.85 38.18 20 32.67C20.53 32.19 21.36 32.23 21.84 32.77C22.32 33.31 22.28 34.13 21.74 34.61C16.14 39.63 12.94 46.8 12.94 54.29C12.94 57.97 13.68 61.54 15.14 64.88C15.43 65.54 15.13 66.31 14.47 66.6C14.3 66.67 14.12 66.71 13.95 66.71L13.94 66.7ZM58.13 35.07C57.82 35.07 57.5 34.96 57.25 34.73C56.96 34.47 56.67 34.21 56.37 33.96C55.82 33.5 55.74 32.68 56.2 32.12C56.66 31.57 57.48 31.49 58.04 31.95C58.37 32.22 58.69 32.51 59.01 32.8C59.54 33.29 59.58 34.11 59.1 34.64C58.84 34.92 58.49 35.07 58.14 35.07H58.13ZM42.89 44.23C40.51 49.5 40.17 58.66 41.57 64.35C41.75 65.06 41.3 65.75 40.58 65.9C39.86 66.05 39.11 65.6 38.95 64.88C37.22 56.83 37.79 51.46 39.17 47.28" fill="#161515"/>
</g>
<path d="M35.61 16.46L35.68 18.94C35.68 19.17 35.86 19.45 36.04 19.59C36.23 19.74 36.53 19.84 36.77 19.8C37.01 19.76 37.27 19.65 37.42 19.44L37.56 19.21C37.63 19.05 37.65 18.88 37.63 18.7L37.56 16.22C37.56 15.99 37.38 15.71 37.2 15.57C37.01 15.42 36.71 15.32 36.47 15.36C36.23 15.4 35.97 15.51 35.82 15.72L35.68 15.95C35.61 16.11 35.59 16.28 35.61 16.46Z" fill="#231815"/>
<path d="M40.44 16.43L40.41 18.91C40.41 19.14 40.57 19.42 40.74 19.57C40.92 19.73 41.22 19.84 41.47 19.81C41.72 19.78 41.97 19.68 42.13 19.48L42.28 19.26C42.36 19.1 42.39 18.93 42.38 18.75L42.41 16.27C42.41 16.04 42.25 15.76 42.08 15.61C41.9 15.45 41.6 15.34 41.35 15.37C41.1 15.4 40.85 15.5 40.69 15.7L40.54 15.92C40.46 16.08 40.43 16.25 40.44 16.43Z" fill="#231815"/>
<path d="M34.56 22.4C35.27 24.37 37.26 25.73 39.36 25.65C41.46 25.57 43.21 24.03 43.82 22.07C43.98 21.56 43.5 21.01 43.03 20.93C42.45 20.83 42.05 21.22 41.89 21.72C41.95 21.53 41.86 21.78 41.85 21.82C41.81 21.91 41.78 21.99 41.73 22.07C41.68 22.15 41.64 22.23 41.59 22.31C41.68 22.16 41.56 22.36 41.53 22.4C41.43 22.54 41.32 22.67 41.2 22.79C41.18 22.81 40.99 22.99 41.06 22.93C41.14 22.86 40.96 23.01 40.94 23.02C40.79 23.13 40.63 23.23 40.47 23.33C40.23 23.48 40.62 23.28 40.36 23.39C40.27 23.43 40.19 23.46 40.1 23.5C40.01 23.54 39.92 23.56 39.83 23.59C39.81 23.59 39.58 23.65 39.68 23.63C39.76 23.61 39.52 23.65 39.48 23.66C39.39 23.67 39.29 23.68 39.2 23.68C39.12 23.68 39.04 23.68 38.96 23.68C39.14 23.68 38.87 23.66 38.84 23.66C38.65 23.63 38.47 23.59 38.28 23.54C38.45 23.59 38.21 23.51 38.17 23.5C38.08 23.46 37.99 23.43 37.91 23.38C37.84 23.35 37.77 23.31 37.7 23.27C37.66 23.25 37.62 23.22 37.58 23.2C37.65 23.25 37.66 23.26 37.6 23.21C37.46 23.11 37.32 23 37.19 22.88C37.12 22.82 37.05 22.75 36.98 22.68C36.78 22.48 37.07 22.81 36.9 22.58C36.79 22.43 36.68 22.27 36.58 22.11C36.49 21.97 36.58 22.13 36.54 22.04C36.49 21.94 36.45 21.84 36.42 21.73C36.24 21.23 35.67 20.95 35.17 21.13C34.67 21.31 34.39 21.88 34.57 22.38L34.56 22.4Z" fill="#231815"/>
<path d="M52.12 31.95C50.15 34.06 48.5 36.54 47.07 39.03C44.19 44.07 42.27 49.76 42.35 55.62C42.36 56.63 43.94 56.63 43.92 55.62C43.84 49.95 45.72 44.48 48.54 39.62C49.88 37.31 51.4 35.02 53.23 33.06C53.92 32.32 52.81 31.21 52.12 31.95Z" fill="#FCF7EF"/>
<path d="M18.19 30.12C16.18 31.69 14.49 33.8 13.05 35.89C9.77001 40.62 7.82001 46.19 7.46001 51.94C7.17001 56.47 7.90001 61.02 9.29001 65.33C9.60001 66.29 11.12 65.88 10.81 64.91C8.61001 58.06 8.27001 50.76 10.69 43.92C12.13 39.85 14.48 36.06 17.48 32.95C18.06 32.35 18.66 31.75 19.32 31.24C20.12 30.62 19 29.51 18.21 30.13L18.19 30.12Z" fill="#FCF7EF"/>
</g>
<defs>
<clipPath id="clip0_3_93">
<rect width="240.56" height="92.99" fill="white"/>
</clipPath>
</defs>
</svg>
