<svg width="60" height="67" viewBox="0 0 60 67" fill="none" xmlns="http://www.w3.org/2000/svg">
<g id="menu icon01 1" clip-path="url(#clip0_141_13614)">
<g id="Group">
<g id="Bingo">
<g id="Group_2">
<path id="Vector" d="M16.4375 11.73C14.9981 12.7601 12.6369 15.0461 12.6369 18.9689C12.6369 15.1637 10.238 12.8965 8.6811 11.8241C6.54093 13.1505 5.11572 15.5117 5.11572 18.2163C5.11572 22.3697 8.48355 25.7422 12.6416 25.7422C16.7996 25.7422 20.1675 22.3744 20.1675 18.2163C20.1675 15.4506 18.6717 13.0376 16.4469 11.73H16.4375Z" fill="#BCBCBC"/>
<g id="Clip path group">
<mask id="mask0_141_13614" style="mask-type:luminance" maskUnits="userSpaceOnUse" x="-4" y="3" width="31" height="32">
<g id="clippath">
<path id="Vector_2" d="M26.9595 3H-4V34.2136H26.9595V3Z" fill="white"/>
</g>
</mask>
<g mask="url(#mask0_141_13614)">
<g id="Group_3">
<g id="Group_4">
<path id="Vector_3" d="M12.6087 26.0197C8.30483 26.0197 4.8053 22.5202 4.8053 18.2163C4.8053 15.5023 6.18818 13.0235 8.50708 11.5841C8.60116 11.523 8.72345 11.5277 8.81753 11.5935C10.0264 12.4261 11.889 14.0771 12.604 16.7158C13.2813 14.0112 15.0828 12.3367 16.254 11.4995C16.3434 11.4336 16.4657 11.4289 16.5598 11.4854C18.9398 12.8824 20.4215 15.4647 20.4215 18.2116C20.4215 22.5155 16.9219 26.015 12.6181 26.015L12.6087 26.0197ZM8.64349 12.1627C6.58799 13.5079 5.36503 15.7563 5.36503 18.2116C5.36503 22.205 8.61527 25.4553 12.6087 25.4553C16.6021 25.4553 19.8523 22.205 19.8523 18.2116C19.8523 15.7234 18.5447 13.3856 16.4281 12.0639C15.0405 13.0987 12.8956 15.2906 12.8956 18.9642C12.8956 19.1194 12.7686 19.2464 12.6134 19.2464C12.4582 19.2464 12.3312 19.1194 12.3312 18.9642C12.3312 15.3706 10.0922 13.1928 8.6482 12.1627H8.64349Z" fill="#161515"/>
<path id="Vector_4" d="M12.6087 24.618C11.0753 24.618 9.59365 24.0583 8.44596 23.047C8.32836 22.9435 8.31896 22.7648 8.42244 22.6472C8.52592 22.5296 8.70466 22.5202 8.82225 22.6236C9.87117 23.5456 11.2164 24.0536 12.6134 24.0536C13.6294 24.0536 14.6266 23.7854 15.5015 23.2775C15.6379 23.1975 15.8072 23.2445 15.8872 23.3809C15.9671 23.5173 15.9201 23.6867 15.7837 23.7666C14.8241 24.3264 13.7282 24.6227 12.6134 24.6227L12.6087 24.618ZM16.5551 23.1457C16.4751 23.1457 16.3999 23.1128 16.3434 23.047C16.2399 22.9294 16.254 22.7506 16.3716 22.6472C16.461 22.5672 16.5504 22.4872 16.635 22.4026C16.7479 22.2944 16.9267 22.2944 17.0349 22.4026C17.143 22.5155 17.143 22.6942 17.0349 22.8024C16.9408 22.8918 16.8467 22.9811 16.7432 23.0705C16.6915 23.1175 16.6256 23.141 16.5598 23.141L16.5551 23.1457ZM7.858 22.2944C7.77333 22.2944 7.68867 22.2568 7.63692 22.1862C7.55696 22.0827 7.477 21.9745 7.40644 21.8664C7.31707 21.7394 7.35 21.5606 7.4817 21.4759C7.6087 21.3866 7.78744 21.4195 7.87211 21.5512C7.93796 21.65 8.00851 21.7488 8.08377 21.8428C8.17785 21.9651 8.15903 22.1439 8.03674 22.2379C7.985 22.2803 7.92385 22.2991 7.8627 22.2991L7.858 22.2944ZM17.5523 22.0263C17.4958 22.0263 17.4394 22.0122 17.3923 21.9745C17.2653 21.8852 17.2324 21.7111 17.3218 21.5794C17.9897 20.6152 18.3425 19.4863 18.3425 18.3104C18.3425 17.0592 17.9427 15.8692 17.1901 14.872C17.096 14.7497 17.1195 14.571 17.2465 14.4769C17.3688 14.3828 17.5476 14.4063 17.6416 14.5333C18.4695 15.6293 18.9069 16.9369 18.9069 18.3151C18.9069 19.6086 18.5212 20.8457 17.7874 21.904C17.731 21.9839 17.6463 22.0263 17.557 22.0263H17.5523ZM7.0866 21.0056C6.97841 21.0056 6.87493 20.9444 6.82789 20.8362C6.47982 20.0413 6.30579 19.1947 6.30579 18.3151C6.30579 16.5324 7.06778 14.825 8.39892 13.6349C8.51651 13.5314 8.69055 13.5409 8.79873 13.6584C8.90221 13.776 8.8928 13.9548 8.77521 14.0583C7.56167 15.1448 6.87023 16.697 6.87023 18.3198C6.87023 19.1194 7.03015 19.8908 7.3453 20.6152C7.40644 20.7563 7.3453 20.9256 7.19948 20.9868C7.16185 21.0009 7.12422 21.0103 7.0866 21.0103V21.0056ZM16.6586 14.157C16.5927 14.157 16.5222 14.1335 16.4704 14.0818C16.4093 14.0253 16.3434 13.9689 16.2776 13.9171C16.16 13.8184 16.1412 13.6396 16.2399 13.522C16.3387 13.3997 16.5175 13.3856 16.6397 13.4844C16.7103 13.5456 16.7809 13.6067 16.8514 13.6679C16.969 13.7713 16.9737 13.9501 16.8702 14.0677C16.8138 14.1288 16.7385 14.1617 16.6633 14.1617L16.6586 14.157ZM13.3613 16.142C12.8439 17.285 12.7733 19.2652 13.0744 20.4976C13.112 20.6528 13.0179 20.8033 12.858 20.8315C12.7028 20.8645 12.5381 20.7657 12.5052 20.6105C12.1289 18.8654 12.2559 17.7036 12.5523 16.8005" fill="#161515"/>
</g>
</g>
</g>
</g>
<path id="Vector_5" d="M15.3556 13.4797C14.9323 13.936 14.5701 14.4722 14.2644 15.0131C13.6388 16.1044 13.2248 17.3368 13.2437 18.6067C13.2437 18.8278 13.587 18.8278 13.5823 18.6067C13.5635 17.3791 13.9727 16.1938 14.5842 15.1401C14.8758 14.6415 15.2051 14.143 15.6002 13.7196C15.7507 13.5597 15.5108 13.3198 15.3603 13.4797H15.3556Z" fill="#FCF7EF"/>
<path id="Vector_6" d="M8.01318 13.0847C7.57573 13.4234 7.21355 13.8843 6.89841 14.3359C6.18815 15.3613 5.76482 16.5654 5.68486 17.8119C5.62371 18.795 5.77893 19.778 6.07997 20.7094C6.14582 20.9163 6.47508 20.827 6.40922 20.62C5.93415 19.1383 5.85889 17.5532 6.381 16.0763C6.69144 15.192 7.19944 14.3735 7.85325 13.7009C7.98025 13.5692 8.10725 13.4422 8.25306 13.3293C8.4271 13.1929 8.18251 12.953 8.01318 13.0894V13.0847Z" fill="#FCF7EF"/>
</g>
<g id="Group_5">
<path id="Vector_7" d="M33.2107 11.73C31.7714 12.7601 29.4101 15.0461 29.4101 18.9689C29.4101 15.1637 27.0113 12.8965 25.4544 11.8241C23.3142 13.1505 21.889 15.5117 21.889 18.2163C21.889 22.3697 25.2568 25.7422 29.4148 25.7422C33.5729 25.7422 36.9407 22.3744 36.9407 18.2163C36.9407 15.4506 35.445 13.0376 33.2201 11.73H33.2107Z" fill="#FACC8E"/>
<g id="Clip path group_2">
<mask id="mask1_141_13614" style="mask-type:luminance" maskUnits="userSpaceOnUse" x="12" y="3" width="32" height="32">
<g id="clippath-1">
<path id="Vector_8" d="M43.7281 3H12.7686V34.2136H43.7281V3Z" fill="white"/>
</g>
</mask>
<g mask="url(#mask1_141_13614)">
<g id="Group_6">
<g id="Group_7">
<path id="Vector_9" d="M29.3772 26.0197C25.0734 26.0197 21.5739 22.5202 21.5739 18.2163C21.5739 15.5023 22.9567 13.0235 25.2756 11.5841C25.3697 11.523 25.492 11.5277 25.5861 11.5935C26.7949 12.4261 28.6576 14.0771 29.3725 16.7158C30.0499 14.0112 31.8514 12.3367 33.0226 11.4995C33.1119 11.4336 33.2342 11.4289 33.3283 11.4854C35.7084 12.8824 37.19 15.4647 37.19 18.2116C37.19 22.5155 33.6905 26.015 29.3866 26.015L29.3772 26.0197ZM25.4167 12.1627C23.3612 13.5079 22.1383 15.7563 22.1383 18.2116C22.1383 22.205 25.3885 25.4553 29.3819 25.4553C33.3754 25.4553 36.6256 22.205 36.6256 18.2116C36.6256 15.7234 35.318 13.3856 33.2013 12.0639C31.8137 13.0987 29.6689 15.2906 29.6689 18.9642C29.6689 19.1194 29.5419 19.2464 29.3866 19.2464C29.2314 19.2464 29.1044 19.1194 29.1044 18.9642C29.1044 15.3706 26.8655 13.1928 25.4215 12.1627H25.4167Z" fill="#161515"/>
<path id="Vector_10" d="M29.3773 24.618C27.8439 24.618 26.3622 24.0583 25.2145 23.047C25.0969 22.9435 25.0875 22.7648 25.191 22.6472C25.2945 22.5296 25.4732 22.5202 25.5908 22.6236C26.6397 23.5456 27.985 24.0536 29.382 24.0536C30.3979 24.0536 31.3951 23.7854 32.27 23.2775C32.4064 23.1975 32.5757 23.2445 32.6557 23.3809C32.7357 23.5173 32.6886 23.6867 32.5522 23.7666C31.5927 24.3264 30.4967 24.6227 29.382 24.6227L29.3773 24.618ZM33.3236 23.1457C33.2437 23.1457 33.1684 23.1128 33.112 23.047C33.0085 22.9294 33.0226 22.7506 33.1402 22.6472C33.2296 22.5672 33.3189 22.4872 33.4036 22.4026C33.5165 22.2944 33.6952 22.2944 33.8034 22.4026C33.9116 22.5155 33.9116 22.6942 33.8034 22.8024C33.7093 22.8918 33.6153 22.9811 33.5118 23.0705C33.46 23.1175 33.3942 23.141 33.3283 23.141L33.3236 23.1457ZM24.6265 22.2944C24.5419 22.2944 24.4572 22.2568 24.4055 22.1862C24.3255 22.0827 24.2455 21.9745 24.175 21.8664C24.0856 21.7394 24.1186 21.5606 24.2503 21.4759C24.3773 21.3866 24.556 21.4195 24.6407 21.5512C24.7065 21.65 24.7771 21.7488 24.8523 21.8428C24.9464 21.9651 24.9276 22.1439 24.8053 22.2379C24.7535 22.2803 24.6924 22.2991 24.6313 22.2991L24.6265 22.2944ZM34.3255 22.0263C34.2691 22.0263 34.2126 22.0122 34.1656 21.9745C34.0386 21.8852 34.0057 21.7111 34.095 21.5794C34.763 20.6152 35.1157 19.4863 35.1157 18.3104C35.1157 17.0592 34.7159 15.8692 33.9633 14.872C33.8693 14.7497 33.8928 14.571 34.0198 14.4769C34.1421 14.3828 34.3208 14.4063 34.4149 14.5333C35.2427 15.6293 35.6802 16.9369 35.6802 18.3151C35.6802 19.6086 35.2945 20.8457 34.5607 21.904C34.5043 21.9839 34.4196 22.0263 34.3302 22.0263H34.3255ZM23.8598 21.0056C23.7517 21.0056 23.6482 20.9444 23.6011 20.8362C23.2531 20.0413 23.079 19.1947 23.079 18.3151C23.079 16.5324 23.841 14.825 25.1722 13.6349C25.2898 13.5314 25.4638 13.5409 25.572 13.6584C25.6755 13.776 25.6661 13.9548 25.5485 14.0583C24.3349 15.1448 23.6435 16.697 23.6435 18.3198C23.6435 19.1194 23.8034 19.8908 24.1186 20.6152C24.1797 20.7563 24.1186 20.9256 23.9727 20.9868C23.9351 21.0009 23.8975 21.0103 23.8598 21.0103V21.0056ZM33.4318 14.157C33.366 14.157 33.2954 14.1335 33.2437 14.0818C33.1825 14.0253 33.1167 13.9689 33.0508 13.9171C32.9332 13.8184 32.9144 13.6396 33.0132 13.522C33.112 13.3997 33.2907 13.3856 33.413 13.4844C33.4836 13.5456 33.5541 13.6067 33.6247 13.6679C33.7423 13.7713 33.747 13.9501 33.6435 14.0677C33.587 14.1288 33.5118 14.1617 33.4365 14.1617L33.4318 14.157ZM30.1298 16.142C29.6124 17.285 29.5419 19.2652 29.8429 20.4976C29.8805 20.6528 29.7865 20.8033 29.6265 20.8315C29.4713 20.8645 29.3067 20.7657 29.2738 20.6105C28.8975 18.8654 29.0245 17.7036 29.3208 16.8005" fill="#161515"/>
</g>
</g>
</g>
</g>
<path id="Vector_11" d="M32.1289 13.4797C31.7055 13.936 31.3433 14.4722 31.0376 15.0131C30.412 16.1044 29.9981 17.3368 30.0169 18.6067C30.0169 18.8278 30.3603 18.8278 30.3556 18.6067C30.3368 17.3791 30.746 16.1938 31.3575 15.1401C31.6491 14.6415 31.9783 14.143 32.3735 13.7196C32.524 13.5597 32.2841 13.3198 32.1336 13.4797H32.1289Z" fill="#FCF7EF"/>
<path id="Vector_12" d="M24.7817 13.0847C24.3443 13.4234 23.9821 13.8843 23.667 14.3359C22.9567 15.3613 22.5334 16.5654 22.4534 17.8119C22.3923 18.795 22.5475 19.778 22.8485 20.7094C22.9144 20.9163 23.2436 20.827 23.1778 20.62C22.7027 19.1383 22.6274 17.5532 23.1496 16.0763C23.46 15.192 23.968 14.3735 24.6218 13.7009C24.7488 13.5692 24.8758 13.4422 25.0216 13.3293C25.1957 13.1929 24.9511 12.953 24.7817 13.0894V13.0847Z" fill="#FCF7EF"/>
</g>
<g id="Group_8">
<path id="Vector_13" d="M49.984 11.73C48.5446 12.7601 46.1834 15.0461 46.1834 18.9689C46.1834 15.1637 43.7845 12.8965 42.2276 11.8241C40.0874 13.1505 38.6622 15.5117 38.6622 18.2163C38.6622 22.3697 42.0301 25.7422 46.1881 25.7422C50.3461 25.7422 53.714 22.3744 53.714 18.2163C53.714 15.4506 52.2182 13.0376 49.9934 11.73H49.984Z" fill="#BCBCBC"/>
<g id="Clip path group_3">
<g id="Group_9">
<g id="Group_10">
<path id="Vector_14" d="M46.1505 26.0197C41.8466 26.0197 38.3471 22.5202 38.3471 18.2163C38.3471 15.5023 39.73 13.0235 42.0489 11.5841C42.143 11.523 42.2653 11.5277 42.3593 11.5935C43.5682 12.4261 45.4308 14.0771 46.1458 16.7158C46.8231 14.0112 48.6246 12.3367 49.7958 11.4995C49.8852 11.4336 50.0075 11.4289 50.1016 11.4854C52.4816 12.8824 53.9633 15.4647 53.9633 18.2116C53.9633 22.5155 50.4638 26.015 46.1599 26.015L46.1505 26.0197ZM42.1853 12.1627C40.1298 13.5079 38.9068 15.7563 38.9068 18.2116C38.9068 22.205 42.1571 25.4553 46.1505 25.4553C50.1439 25.4553 53.3941 22.205 53.3941 18.2116C53.3941 15.7234 52.0865 13.3856 49.9699 12.0639C48.5823 13.0987 46.4374 15.2906 46.4374 18.9642C46.4374 19.1194 46.3104 19.2464 46.1552 19.2464C46 19.2464 45.873 19.1194 45.873 18.9642C45.873 15.3706 43.634 13.1928 42.19 12.1627H42.1853Z" fill="#161515"/>
<path id="Vector_15" d="M46.1505 24.618C44.6171 24.618 43.1355 24.0583 41.9878 23.047C41.8702 22.9435 41.8608 22.7648 41.9642 22.6472C42.0677 22.5296 42.2465 22.5202 42.3641 22.6236C43.413 23.5456 44.7582 24.0536 46.1552 24.0536C47.1712 24.0536 48.1684 23.7854 49.0433 23.2775C49.1797 23.1975 49.349 23.2445 49.429 23.3809C49.5089 23.5173 49.4619 23.6867 49.3255 23.7666C48.3659 24.3264 47.27 24.6227 46.1552 24.6227L46.1505 24.618ZM50.0969 23.1457C50.0169 23.1457 49.9417 23.1128 49.8852 23.047C49.7817 22.9294 49.7959 22.7506 49.9134 22.6472C50.0028 22.5672 50.0922 22.4872 50.1768 22.4026C50.2897 22.2944 50.4685 22.2944 50.5767 22.4026C50.6848 22.5155 50.6848 22.6942 50.5767 22.8024C50.4826 22.8918 50.3885 22.9811 50.285 23.0705C50.2333 23.1175 50.1674 23.141 50.1016 23.141L50.0969 23.1457ZM41.3998 22.2944C41.3151 22.2944 41.2305 22.2568 41.1787 22.1862C41.0988 22.0827 41.0188 21.9745 40.9483 21.8664C40.8589 21.7394 40.8918 21.5606 41.0235 21.4759C41.1505 21.3866 41.3292 21.4195 41.4139 21.5512C41.4798 21.65 41.5503 21.7488 41.6256 21.8428C41.7196 21.9651 41.7008 22.1439 41.5785 22.2379C41.5268 22.2803 41.4657 22.2991 41.4045 22.2991L41.3998 22.2944ZM51.0988 22.0263C51.0423 22.0263 50.9859 22.0122 50.9388 21.9745C50.8118 21.8852 50.7789 21.7111 50.8683 21.5794C51.5362 20.6152 51.889 19.4863 51.889 18.3104C51.889 17.0592 51.4892 15.8692 50.7366 14.872C50.6425 14.7497 50.666 14.571 50.793 14.4769C50.9153 14.3828 51.0941 14.4063 51.1881 14.5333C52.016 15.6293 52.4534 16.9369 52.4534 18.3151C52.4534 19.6086 52.0677 20.8457 51.3339 21.904C51.2775 21.9839 51.1928 22.0263 51.1035 22.0263H51.0988ZM40.6331 21.0056C40.5249 21.0056 40.4214 20.9444 40.3744 20.8362C40.0263 20.0413 39.8523 19.1947 39.8523 18.3151C39.8523 16.5324 40.6143 14.825 41.9454 13.6349C42.063 13.5314 42.2371 13.5409 42.3452 13.6584C42.4487 13.776 42.4393 13.9548 42.3217 14.0583C41.1082 15.1448 40.4167 16.697 40.4167 18.3198C40.4167 19.1194 40.5767 19.8908 40.8918 20.6152C40.953 20.7563 40.8918 20.9256 40.746 20.9868C40.7084 21.0009 40.6707 21.0103 40.6331 21.0103V21.0056ZM50.2004 14.157C50.1345 14.157 50.064 14.1335 50.0122 14.0818C49.9511 14.0253 49.8852 13.9689 49.8194 13.9171C49.7018 13.8184 49.683 13.6396 49.7817 13.522C49.8805 13.3997 50.0593 13.3856 50.1816 13.4844C50.2521 13.5456 50.3227 13.6067 50.3932 13.6679C50.5108 13.7713 50.5155 13.9501 50.412 14.0677C50.3556 14.1288 50.2803 14.1617 50.2051 14.1617L50.2004 14.157ZM46.9031 16.142C46.3857 17.285 46.3151 19.2652 46.6162 20.4976C46.6538 20.6528 46.5597 20.8033 46.3998 20.8315C46.2446 20.8645 46.08 20.7657 46.047 20.6105C45.6707 18.8654 45.7977 17.7036 46.0941 16.8005" fill="#161515"/>
</g>
</g>
</g>
<path id="Vector_16" d="M48.8974 13.4797C48.4741 13.936 48.1119 14.4722 47.8062 15.0131C47.1806 16.1044 46.7667 17.3368 46.7855 18.6067C46.7855 18.8278 47.1288 18.8278 47.1241 18.6067C47.1053 17.3791 47.5145 16.1938 48.126 15.1401C48.4176 14.6415 48.7469 14.143 49.142 13.7196C49.2925 13.5597 49.0526 13.3198 48.9021 13.4797H48.8974Z" fill="#FCF7EF"/>
<path id="Vector_17" d="M41.555 13.0846C41.1175 13.4233 40.7554 13.8842 40.4402 14.3358C39.73 15.3612 39.3066 16.5653 39.2267 17.8118C39.1655 18.7949 39.3207 19.7779 39.6218 20.7092C39.6876 20.9162 40.0169 20.8268 39.951 20.6199C39.476 19.1382 39.4007 17.5531 39.9228 16.0761C40.2333 15.1918 40.7412 14.3734 41.3951 13.7008C41.5221 13.5691 41.6491 13.4421 41.7949 13.3292C41.9689 13.1928 41.7243 12.9529 41.555 13.0893V13.0846Z" fill="#FCF7EF"/>
</g>
<g id="Group_11">
<path id="Vector_18" d="M16.4375 27.0499C14.9981 28.08 12.6369 30.366 12.6369 34.2889C12.6369 30.4836 10.238 28.2164 8.6811 27.144C6.54093 28.4704 5.11572 30.8317 5.11572 33.5363C5.11572 37.6896 8.48355 41.0622 12.6416 41.0622C16.7996 41.0622 20.1675 37.6943 20.1675 33.5363C20.1675 30.7705 18.6717 28.3575 16.4469 27.0499H16.4375Z" fill="#E5AB38"/>
<g id="Clip path group_4">
<mask id="mask2_141_13614" style="mask-type:luminance" maskUnits="userSpaceOnUse" x="-4" y="18" width="31" height="32">
<g id="clippath-3">
<path id="Vector_19" d="M26.9595 18.3246H-4V49.5381H26.9595V18.3246Z" fill="white"/>
</g>
</mask>
<g mask="url(#mask2_141_13614)">
<g id="Group_12">
<g id="Group_13">
<path id="Vector_20" d="M12.6087 41.3397C8.30483 41.3397 4.8053 37.8401 4.8053 33.5363C4.8053 30.8222 6.18818 28.3434 8.50708 26.9041C8.60116 26.8429 8.72345 26.8476 8.81753 26.9135C10.0264 27.746 11.889 29.397 12.604 32.0358C13.2813 29.3312 15.0828 27.6567 16.254 26.8194C16.3434 26.7536 16.4657 26.7489 16.5598 26.8053C18.9398 28.2023 20.4215 30.7846 20.4215 33.5316C20.4215 37.8354 16.9219 41.3349 12.6181 41.3349L12.6087 41.3397ZM8.64349 27.4826C6.58799 28.8279 5.36503 31.0762 5.36503 33.5316C5.36503 37.525 8.61527 40.7752 12.6087 40.7752C16.6021 40.7752 19.8523 37.525 19.8523 33.5316C19.8523 31.0433 18.5447 28.7056 16.4281 27.3839C15.0405 28.4187 12.8956 30.6106 12.8956 34.2841C12.8956 34.4394 12.7686 34.5664 12.6134 34.5664C12.4582 34.5664 12.3312 34.4394 12.3312 34.2841C12.3312 30.6905 10.0922 28.5127 8.6482 27.4826H8.64349Z" fill="#161515"/>
<path id="Vector_21" d="M12.6087 39.9426C11.0753 39.9426 9.59365 39.3829 8.44596 38.3716C8.32836 38.2681 8.31896 38.0894 8.42244 37.9718C8.52592 37.8542 8.70466 37.8448 8.82225 37.9483C9.87117 38.8702 11.2164 39.3782 12.6134 39.3782C13.6294 39.3782 14.6266 39.1101 15.5015 38.6021C15.6379 38.5221 15.8072 38.5692 15.8872 38.7056C15.9671 38.842 15.9201 39.0113 15.7837 39.0913C14.8241 39.651 13.7282 39.9473 12.6134 39.9473L12.6087 39.9426ZM16.5551 38.4657C16.4751 38.4657 16.3999 38.4328 16.3434 38.3669C16.2399 38.2493 16.254 38.0706 16.3716 37.9671C16.461 37.8871 16.5504 37.8072 16.635 37.7225C16.7479 37.6143 16.9267 37.6143 17.0349 37.7225C17.143 37.8354 17.143 38.0141 17.0349 38.1223C16.9408 38.2117 16.8467 38.3011 16.7432 38.3904C16.6915 38.4375 16.6256 38.461 16.5598 38.461L16.5551 38.4657ZM7.858 37.619C7.77333 37.619 7.68867 37.5814 7.63692 37.5108C7.55696 37.4074 7.477 37.2992 7.40644 37.191C7.31707 37.064 7.35 36.8853 7.4817 36.8006C7.6087 36.7112 7.78744 36.7442 7.87211 36.8759C7.93796 36.9746 8.00851 37.0734 8.08377 37.1675C8.17785 37.2898 8.15903 37.4685 8.03674 37.5626C7.985 37.6049 7.92385 37.6237 7.8627 37.6237L7.858 37.619ZM17.5523 37.3509C17.4958 37.3509 17.4394 37.3368 17.3923 37.2992C17.2653 37.2098 17.2324 37.0358 17.3218 36.9041C17.9897 35.9398 18.3425 34.8109 18.3425 33.635C18.3425 32.3838 17.9427 31.1938 17.1901 30.1966C17.096 30.0743 17.1195 29.8956 17.2465 29.8015C17.3688 29.7075 17.5476 29.731 17.6416 29.858C18.4695 30.9539 18.9069 32.2616 18.9069 33.6397C18.9069 34.9332 18.5212 36.1703 17.7874 37.2286C17.731 37.3086 17.6463 37.3509 17.557 37.3509H17.5523ZM7.0866 36.3302C6.97841 36.3302 6.87493 36.2691 6.82789 36.1609C6.47982 35.366 6.30579 34.5193 6.30579 33.6397C6.30579 31.857 7.06778 30.1496 8.39892 28.9596C8.51651 28.8561 8.69055 28.8655 8.79873 28.9831C8.90221 29.1007 8.8928 29.2794 8.77521 29.3829C7.56167 30.4695 6.87023 32.0217 6.87023 33.6444C6.87023 34.4441 7.03015 35.2155 7.3453 35.9398C7.40644 36.0809 7.3453 36.2503 7.19948 36.3114C7.16185 36.3255 7.12422 36.3349 7.0866 36.3349V36.3302ZM16.6586 29.477C16.5927 29.477 16.5222 29.4535 16.4704 29.4017C16.4093 29.3453 16.3434 29.2888 16.2776 29.2371C16.16 29.1383 16.1412 28.9596 16.2399 28.842C16.3387 28.7197 16.5175 28.7056 16.6397 28.8044C16.7103 28.8655 16.7809 28.9267 16.8514 28.9878C16.969 29.0913 16.9737 29.27 16.8702 29.3876C16.8138 29.4488 16.7385 29.4817 16.6633 29.4817L16.6586 29.477ZM13.3613 31.4619C12.8439 32.6049 12.7733 34.5852 13.0744 35.8175C13.112 35.9727 13.0179 36.1233 12.858 36.1515C12.7028 36.1844 12.5381 36.0856 12.5052 35.9304C12.1289 34.1854 12.2559 33.0235 12.5523 32.1204" fill="#161515"/>
</g>
</g>
</g>
</g>
<path id="Vector_22" d="M15.3556 28.8043C14.9323 29.2606 14.5701 29.7968 14.2644 30.3377C13.6388 31.429 13.2248 32.6613 13.2437 33.9313C13.2437 34.1524 13.587 34.1524 13.5823 33.9313C13.5635 32.7037 13.9727 31.5183 14.5842 30.4647C14.8758 29.9661 15.2051 29.4675 15.6002 29.0442C15.7507 28.8843 15.5108 28.6444 15.3603 28.8043H15.3556Z" fill="#FCF7EF"/>
<path id="Vector_23" d="M8.01318 28.4093C7.57573 28.748 7.21355 29.2089 6.89841 29.6605C6.18815 30.6859 5.76482 31.89 5.68486 33.1365C5.62371 34.1196 5.77893 35.1026 6.07997 36.034C6.14582 36.2409 6.47508 36.1515 6.40922 35.9446C5.93415 34.4629 5.85889 32.8778 6.381 31.4008C6.69144 30.5165 7.19944 29.6981 7.85325 29.0255C7.98025 28.8938 8.10725 28.7668 8.25306 28.6539C8.4271 28.5175 8.18251 28.2776 8.01318 28.414V28.4093Z" fill="#FCF7EF"/>
</g>
<g id="Group_14">
<path id="Vector_24" d="M33.2107 27.0499C31.7714 28.08 29.4101 30.366 29.4101 34.2889C29.4101 30.4836 27.0113 28.2164 25.4544 27.144C23.3142 28.4704 21.889 30.8317 21.889 33.5363C21.889 37.6896 25.2568 41.0622 29.4148 41.0622C33.5729 41.0622 36.9407 37.6943 36.9407 33.5363C36.9407 30.7705 35.445 28.3575 33.2201 27.0499H33.2107Z" fill="#E5AB38"/>
<g id="Clip path group_5">
<mask id="mask3_141_13614" style="mask-type:luminance" maskUnits="userSpaceOnUse" x="12" y="18" width="32" height="32">
<g id="clippath-4">
<path id="Vector_25" d="M43.7281 18.3246H12.7686V49.5381H43.7281V18.3246Z" fill="white"/>
</g>
</mask>
<g mask="url(#mask3_141_13614)">
<g id="Group_15">
<g id="Group_16">
<path id="Vector_26" d="M29.3772 41.3397C25.0734 41.3397 21.5739 37.8401 21.5739 33.5363C21.5739 30.8222 22.9567 28.3434 25.2756 26.9041C25.3697 26.8429 25.492 26.8476 25.5861 26.9135C26.7949 27.746 28.6576 29.397 29.3725 32.0358C30.0499 29.3312 31.8514 27.6567 33.0226 26.8194C33.1119 26.7536 33.2342 26.7489 33.3283 26.8053C35.7084 28.2023 37.19 30.7846 37.19 33.5316C37.19 37.8354 33.6905 41.3349 29.3866 41.3349L29.3772 41.3397ZM25.4167 27.4826C23.3612 28.8279 22.1383 31.0762 22.1383 33.5316C22.1383 37.525 25.3885 40.7752 29.3819 40.7752C33.3754 40.7752 36.6256 37.525 36.6256 33.5316C36.6256 31.0433 35.318 28.7056 33.2013 27.3839C31.8137 28.4187 29.6689 30.6106 29.6689 34.2841C29.6689 34.4394 29.5419 34.5664 29.3866 34.5664C29.2314 34.5664 29.1044 34.4394 29.1044 34.2841C29.1044 30.6905 26.8655 28.5127 25.4215 27.4826H25.4167Z" fill="#161515"/>
<path id="Vector_27" d="M29.3773 39.9426C27.8439 39.9426 26.3622 39.3829 25.2145 38.3716C25.0969 38.2681 25.0875 38.0894 25.191 37.9718C25.2945 37.8542 25.4732 37.8448 25.5908 37.9483C26.6397 38.8702 27.985 39.3782 29.382 39.3782C30.3979 39.3782 31.3951 39.1101 32.27 38.6021C32.4064 38.5221 32.5757 38.5692 32.6557 38.7056C32.7357 38.842 32.6886 39.0113 32.5522 39.0913C31.5927 39.651 30.4967 39.9473 29.382 39.9473L29.3773 39.9426ZM33.3236 38.4657C33.2437 38.4657 33.1684 38.4328 33.112 38.3669C33.0085 38.2493 33.0226 38.0706 33.1402 37.9671C33.2296 37.8871 33.3189 37.8072 33.4036 37.7225C33.5165 37.6143 33.6952 37.6143 33.8034 37.7225C33.9116 37.8354 33.9116 38.0141 33.8034 38.1223C33.7093 38.2117 33.6153 38.3011 33.5118 38.3904C33.46 38.4375 33.3942 38.461 33.3283 38.461L33.3236 38.4657ZM24.6265 37.619C24.5419 37.619 24.4572 37.5814 24.4055 37.5108C24.3255 37.4074 24.2455 37.2992 24.175 37.191C24.0856 37.064 24.1186 36.8853 24.2503 36.8006C24.3773 36.7112 24.556 36.7442 24.6407 36.8759C24.7065 36.9746 24.7771 37.0734 24.8523 37.1675C24.9464 37.2898 24.9276 37.4685 24.8053 37.5626C24.7535 37.6049 24.6924 37.6237 24.6313 37.6237L24.6265 37.619ZM34.3255 37.3509C34.2691 37.3509 34.2126 37.3368 34.1656 37.2992C34.0386 37.2098 34.0057 37.0358 34.095 36.9041C34.763 35.9398 35.1157 34.8109 35.1157 33.635C35.1157 32.3838 34.7159 31.1938 33.9633 30.1966C33.8693 30.0743 33.8928 29.8956 34.0198 29.8015C34.1421 29.7075 34.3208 29.731 34.4149 29.858C35.2427 30.9539 35.6802 32.2616 35.6802 33.6397C35.6802 34.9332 35.2945 36.1703 34.5607 37.2286C34.5043 37.3086 34.4196 37.3509 34.3302 37.3509H34.3255ZM23.8598 36.3302C23.7517 36.3302 23.6482 36.2691 23.6011 36.1609C23.2531 35.366 23.079 34.5193 23.079 33.6397C23.079 31.857 23.841 30.1496 25.1722 28.9596C25.2898 28.8561 25.4638 28.8655 25.572 28.9831C25.6755 29.1007 25.6661 29.2794 25.5485 29.3829C24.3349 30.4695 23.6435 32.0217 23.6435 33.6444C23.6435 34.4441 23.8034 35.2155 24.1186 35.9398C24.1797 36.0809 24.1186 36.2503 23.9727 36.3114C23.9351 36.3255 23.8975 36.3349 23.8598 36.3349V36.3302ZM33.4318 29.477C33.366 29.477 33.2954 29.4535 33.2437 29.4017C33.1825 29.3453 33.1167 29.2888 33.0508 29.2371C32.9332 29.1383 32.9144 28.9596 33.0132 28.842C33.112 28.7197 33.2907 28.7056 33.413 28.8044C33.4836 28.8655 33.5541 28.9267 33.6247 28.9878C33.7423 29.0913 33.747 29.27 33.6435 29.3876C33.587 29.4488 33.5118 29.4817 33.4365 29.4817L33.4318 29.477ZM30.1298 31.4619C29.6124 32.6049 29.5419 34.5852 29.8429 35.8175C29.8805 35.9727 29.7865 36.1233 29.6265 36.1515C29.4713 36.1844 29.3067 36.0856 29.2738 35.9304C28.8975 34.1854 29.0245 33.0235 29.3208 32.1204" fill="#161515"/>
</g>
</g>
</g>
</g>
<path id="Vector_28" d="M32.1289 28.8043C31.7055 29.2606 31.3433 29.7968 31.0376 30.3377C30.412 31.429 29.9981 32.6613 30.0169 33.9313C30.0169 34.1524 30.3603 34.1524 30.3556 33.9313C30.3368 32.7037 30.746 31.5183 31.3575 30.4647C31.6491 29.9661 31.9783 29.4675 32.3735 29.0442C32.524 28.8843 32.2841 28.6444 32.1336 28.8043H32.1289Z" fill="#FCF7EF"/>
<path id="Vector_29" d="M24.7817 28.4093C24.3443 28.748 23.9821 29.2089 23.667 29.6605C22.9567 30.6859 22.5334 31.89 22.4534 33.1365C22.3923 34.1196 22.5475 35.1026 22.8485 36.034C22.9144 36.2409 23.2436 36.1515 23.1778 35.9446C22.7027 34.4629 22.6274 32.8778 23.1496 31.4008C23.46 30.5165 23.968 29.6981 24.6218 29.0255C24.7488 28.8938 24.8758 28.7668 25.0216 28.6539C25.1957 28.5175 24.9511 28.2776 24.7817 28.414V28.4093Z" fill="#FCF7EF"/>
</g>
<g id="Group_17">
<path id="Vector_30" d="M49.984 27.0499C48.5446 28.08 46.1834 30.366 46.1834 34.2889C46.1834 30.4836 43.7845 28.2164 42.2276 27.144C40.0874 28.4704 38.6622 30.8317 38.6622 33.5363C38.6622 37.6896 42.0301 41.0622 46.1881 41.0622C50.3461 41.0622 53.714 37.6943 53.714 33.5363C53.714 30.7705 52.2182 28.3575 49.9934 27.0499H49.984Z" fill="#E5AB38"/>
<g id="Clip path group_6">
<g id="Group_18">
<g id="Group_19">
<path id="Vector_31" d="M46.1505 41.3397C41.8466 41.3397 38.3471 37.8401 38.3471 33.5363C38.3471 30.8222 39.73 28.3434 42.0489 26.9041C42.143 26.8429 42.2653 26.8476 42.3593 26.9135C43.5682 27.746 45.4308 29.397 46.1458 32.0358C46.8231 29.3312 48.6246 27.6567 49.7958 26.8194C49.8852 26.7536 50.0075 26.7489 50.1016 26.8053C52.4816 28.2023 53.9633 30.7846 53.9633 33.5316C53.9633 37.8354 50.4638 41.3349 46.1599 41.3349L46.1505 41.3397ZM42.1853 27.4826C40.1298 28.8279 38.9068 31.0762 38.9068 33.5316C38.9068 37.525 42.1571 40.7752 46.1505 40.7752C50.1439 40.7752 53.3941 37.525 53.3941 33.5316C53.3941 31.0433 52.0865 28.7056 49.9699 27.3839C48.5823 28.4187 46.4374 30.6106 46.4374 34.2841C46.4374 34.4394 46.3104 34.5664 46.1552 34.5664C46 34.5664 45.873 34.4394 45.873 34.2841C45.873 30.6905 43.634 28.5127 42.19 27.4826H42.1853Z" fill="#161515"/>
<path id="Vector_32" d="M46.1505 39.9426C44.6171 39.9426 43.1355 39.3829 41.9878 38.3716C41.8702 38.2681 41.8608 38.0894 41.9642 37.9718C42.0677 37.8542 42.2465 37.8448 42.3641 37.9483C43.413 38.8702 44.7582 39.3782 46.1552 39.3782C47.1712 39.3782 48.1684 39.1101 49.0433 38.6021C49.1797 38.5221 49.349 38.5692 49.429 38.7056C49.5089 38.842 49.4619 39.0113 49.3255 39.0913C48.3659 39.651 47.27 39.9473 46.1552 39.9473L46.1505 39.9426ZM50.0969 38.4657C50.0169 38.4657 49.9417 38.4328 49.8852 38.3669C49.7817 38.2493 49.7959 38.0706 49.9134 37.9671C50.0028 37.8871 50.0922 37.8072 50.1768 37.7225C50.2897 37.6143 50.4685 37.6143 50.5767 37.7225C50.6848 37.8354 50.6848 38.0141 50.5767 38.1223C50.4826 38.2117 50.3885 38.3011 50.285 38.3904C50.2333 38.4375 50.1674 38.461 50.1016 38.461L50.0969 38.4657ZM41.3998 37.619C41.3151 37.619 41.2305 37.5814 41.1787 37.5108C41.0988 37.4074 41.0188 37.2992 40.9483 37.191C40.8589 37.064 40.8918 36.8853 41.0235 36.8006C41.1505 36.7112 41.3292 36.7442 41.4139 36.8759C41.4798 36.9746 41.5503 37.0734 41.6256 37.1675C41.7196 37.2898 41.7008 37.4685 41.5785 37.5626C41.5268 37.6049 41.4657 37.6237 41.4045 37.6237L41.3998 37.619ZM51.0988 37.3509C51.0423 37.3509 50.9859 37.3368 50.9388 37.2992C50.8118 37.2098 50.7789 37.0358 50.8683 36.9041C51.5362 35.9398 51.889 34.8109 51.889 33.635C51.889 32.3838 51.4892 31.1938 50.7366 30.1966C50.6425 30.0743 50.666 29.8956 50.793 29.8015C50.9153 29.7075 51.0941 29.731 51.1881 29.858C52.016 30.9539 52.4534 32.2616 52.4534 33.6397C52.4534 34.9332 52.0677 36.1703 51.3339 37.2286C51.2775 37.3086 51.1928 37.3509 51.1035 37.3509H51.0988ZM40.6331 36.3302C40.5249 36.3302 40.4214 36.2691 40.3744 36.1609C40.0263 35.366 39.8523 34.5193 39.8523 33.6397C39.8523 31.857 40.6143 30.1496 41.9454 28.9596C42.063 28.8561 42.2371 28.8655 42.3452 28.9831C42.4487 29.1007 42.4393 29.2794 42.3217 29.3829C41.1082 30.4695 40.4167 32.0217 40.4167 33.6444C40.4167 34.4441 40.5767 35.2155 40.8918 35.9398C40.953 36.0809 40.8918 36.2503 40.746 36.3114C40.7084 36.3255 40.6707 36.3349 40.6331 36.3349V36.3302ZM50.2004 29.477C50.1345 29.477 50.064 29.4535 50.0122 29.4017C49.9511 29.3453 49.8852 29.2888 49.8194 29.2371C49.7018 29.1383 49.683 28.9596 49.7817 28.842C49.8805 28.7197 50.0593 28.7056 50.1816 28.8044C50.2521 28.8655 50.3227 28.9267 50.3932 28.9878C50.5108 29.0913 50.5155 29.27 50.412 29.3876C50.3556 29.4488 50.2803 29.4817 50.2051 29.4817L50.2004 29.477ZM46.9031 31.4619C46.3857 32.6049 46.3151 34.5852 46.6162 35.8175C46.6538 35.9727 46.5597 36.1233 46.3998 36.1515C46.2446 36.1844 46.08 36.0856 46.047 35.9304C45.6707 34.1854 45.7977 33.0235 46.0941 32.1204" fill="#161515"/>
</g>
</g>
</g>
<path id="Vector_33" d="M48.8974 28.8043C48.4741 29.2606 48.1119 29.7968 47.8062 30.3377C47.1806 31.429 46.7667 32.6613 46.7855 33.9313C46.7855 34.1524 47.1288 34.1524 47.1241 33.9313C47.1053 32.7037 47.5145 31.5183 48.126 30.4647C48.4176 29.9661 48.7469 29.4675 49.142 29.0442C49.2925 28.8843 49.0526 28.6444 48.9021 28.8043H48.8974Z" fill="#FCF7EF"/>
<path id="Vector_34" d="M41.555 28.4093C41.1175 28.748 40.7554 29.2089 40.4402 29.6605C39.73 30.6859 39.3066 31.89 39.2267 33.1365C39.1655 34.1196 39.3207 35.1026 39.6218 36.034C39.6876 36.2409 40.0169 36.1515 39.951 35.9446C39.476 34.4629 39.4007 32.8778 39.9228 31.4008C40.2333 30.5165 40.7412 29.6981 41.3951 29.0255C41.5221 28.8938 41.6491 28.7668 41.7949 28.6539C41.9689 28.5175 41.7243 28.2776 41.555 28.414V28.4093Z" fill="#FCF7EF"/>
</g>
<g id="Group_20">
<path id="Vector_35" d="M16.4375 42.7977C14.9981 43.8278 12.6369 46.1138 12.6369 50.0367C12.6369 46.2314 10.238 43.9642 8.6811 42.8918C6.54093 44.2182 5.11572 46.5795 5.11572 49.2841C5.11572 53.4374 8.48355 56.81 12.6416 56.81C16.7996 56.81 20.1675 53.4421 20.1675 49.2841C20.1675 46.5183 18.6717 44.1053 16.4469 42.7977H16.4375Z" fill="#BCBCBC"/>
<g id="Clip path group_7">
<mask id="mask4_141_13614" style="mask-type:luminance" maskUnits="userSpaceOnUse" x="-4" y="34" width="31" height="32">
<g id="clippath-6">
<path id="Vector_36" d="M26.9595 34.0677H-4V65.2813H26.9595V34.0677Z" fill="white"/>
</g>
</mask>
<g mask="url(#mask4_141_13614)">
<g id="Group_21">
<g id="Group_22">
<path id="Vector_37" d="M12.6087 57.0876C8.30483 57.0876 4.8053 53.588 4.8053 49.2842C4.8053 46.5702 6.18818 44.0913 8.50708 42.652C8.60116 42.5909 8.72345 42.5956 8.81753 42.6614C10.0264 43.494 11.889 45.145 12.604 47.7837C13.2813 45.0791 15.0828 43.4046 16.254 42.5673C16.3434 42.5015 16.4657 42.4968 16.5598 42.5532C18.9398 43.9502 20.4215 46.5325 20.4215 49.2795C20.4215 53.5833 16.9219 57.0829 12.6181 57.0829L12.6087 57.0876ZM8.64349 43.2306C6.58799 44.5758 5.36503 46.8242 5.36503 49.2795C5.36503 53.2729 8.61527 56.5231 12.6087 56.5231C16.6021 56.5231 19.8523 53.2729 19.8523 49.2795C19.8523 46.7912 18.5447 44.4535 16.4281 43.1318C15.0405 44.1666 12.8956 46.3585 12.8956 50.0321C12.8956 50.1873 12.7686 50.3143 12.6134 50.3143C12.4582 50.3143 12.3312 50.1873 12.3312 50.0321C12.3312 46.4385 10.0922 44.2607 8.6482 43.2306H8.64349Z" fill="#161515"/>
<path id="Vector_38" d="M12.6087 55.6859C11.0753 55.6859 9.59365 55.1261 8.44596 54.1148C8.32836 54.0114 8.31896 53.8326 8.42244 53.715C8.52592 53.5974 8.70466 53.588 8.82225 53.6915C9.87117 54.6134 11.2164 55.1214 12.6134 55.1214C13.6294 55.1214 14.6266 54.8533 15.5015 54.3453C15.6379 54.2654 15.8072 54.3124 15.8872 54.4488C15.9671 54.5852 15.9201 54.7545 15.7837 54.8345C14.8241 55.3942 13.7282 55.6906 12.6134 55.6906L12.6087 55.6859ZM16.5551 54.2136C16.4751 54.2136 16.3999 54.1807 16.3434 54.1148C16.2399 53.9973 16.254 53.8185 16.3716 53.715C16.461 53.6351 16.5504 53.5551 16.635 53.4704C16.7479 53.3623 16.9267 53.3623 17.0349 53.4704C17.143 53.5833 17.143 53.7621 17.0349 53.8703C16.9408 53.9596 16.8467 54.049 16.7432 54.1384C16.6915 54.1854 16.6256 54.2089 16.5598 54.2089L16.5551 54.2136ZM7.858 53.3623C7.77333 53.3623 7.68867 53.3246 7.63692 53.2541C7.55696 53.1506 7.477 53.0424 7.40644 52.9342C7.31707 52.8072 7.35 52.6285 7.4817 52.5438C7.6087 52.4544 7.78744 52.4874 7.87211 52.6191C7.93796 52.7179 8.00851 52.8166 8.08377 52.9107C8.17785 53.033 8.15903 53.2117 8.03674 53.3058C7.985 53.3481 7.92385 53.367 7.8627 53.367L7.858 53.3623ZM17.5523 53.0989C17.4958 53.0989 17.4394 53.0847 17.3923 53.0471C17.2653 52.9577 17.2324 52.7837 17.3218 52.652C17.9897 51.6877 18.3425 50.5589 18.3425 49.383C18.3425 48.1318 17.9427 46.9417 17.1901 45.9446C17.096 45.8223 17.1195 45.6435 17.2465 45.5495C17.3688 45.4554 17.5476 45.4789 17.6416 45.6059C18.4695 46.7019 18.9069 48.0095 18.9069 49.3877C18.9069 50.6812 18.5212 51.9182 17.7874 52.9766C17.731 53.0565 17.6463 53.0989 17.557 53.0989H17.5523ZM7.0866 52.0735C6.97841 52.0735 6.87493 52.0123 6.82789 51.9041C6.47982 51.1092 6.30579 50.2625 6.30579 49.383C6.30579 47.6003 7.06778 45.8928 8.39892 44.7028C8.51651 44.5993 8.69055 44.6087 8.79873 44.7263C8.90221 44.8439 8.8928 45.0226 8.77521 45.1261C7.56167 46.2127 6.87023 47.7649 6.87023 49.3877C6.87023 50.1873 7.03015 50.9587 7.3453 51.683C7.40644 51.8242 7.3453 51.9935 7.19948 52.0546C7.16185 52.0687 7.12422 52.0782 7.0866 52.0782V52.0735ZM16.6586 45.2249C16.5927 45.2249 16.5222 45.2014 16.4704 45.1496C16.4093 45.0932 16.3434 45.0368 16.2776 44.985C16.16 44.8862 16.1412 44.7075 16.2399 44.5899C16.3387 44.4676 16.5175 44.4535 16.6397 44.5523C16.7103 44.6134 16.7809 44.6746 16.8514 44.7357C16.969 44.8392 16.9737 45.0179 16.8702 45.1355C16.8138 45.1967 16.7385 45.2296 16.6633 45.2296L16.6586 45.2249ZM13.3613 47.2099C12.8439 48.3528 12.7733 50.3331 13.0744 51.5655C13.112 51.7207 13.0179 51.8712 12.858 51.8994C12.7028 51.9323 12.5381 51.8336 12.5052 51.6783C12.1289 49.9333 12.2559 48.7715 12.5523 47.8684" fill="#161515"/>
</g>
</g>
</g>
</g>
<path id="Vector_39" d="M15.3556 44.5523C14.9323 45.0085 14.5701 45.5447 14.2644 46.0856C13.6388 47.1769 13.2248 48.4093 13.2437 49.6793C13.2437 49.9003 13.587 49.9003 13.5823 49.6793C13.5635 48.4516 13.9727 47.2663 14.5842 46.2126C14.8758 45.7141 15.2051 45.2155 15.6002 44.7921C15.7507 44.6322 15.5108 44.3923 15.3603 44.5523H15.3556Z" fill="#FCF7EF"/>
<path id="Vector_40" d="M8.01318 44.1525C7.57573 44.4911 7.21355 44.9521 6.89841 45.4036C6.18815 46.429 5.76482 47.6332 5.68486 48.8797C5.62371 49.8627 5.77893 50.8458 6.07997 51.7771C6.14582 51.9841 6.47508 51.8947 6.40922 51.6877C5.93415 50.2061 5.85889 48.621 6.381 47.144C6.69144 46.2597 7.19944 45.4413 7.85325 44.7686C7.98025 44.6369 8.10725 44.5099 8.25306 44.3971C8.4271 44.2607 8.18251 44.0208 8.01318 44.1572V44.1525Z" fill="#FCF7EF"/>
</g>
<g id="Group_23">
<path id="Vector_41" d="M33.2107 42.7977C31.7714 43.8278 29.4101 46.1138 29.4101 50.0367C29.4101 46.2314 27.0113 43.9642 25.4544 42.8918C23.3142 44.2182 21.889 46.5795 21.889 49.2841C21.889 53.4374 25.2568 56.81 29.4148 56.81C33.5729 56.81 36.9407 53.4421 36.9407 49.2841C36.9407 46.5183 35.445 44.1053 33.2201 42.7977H33.2107Z" fill="#13948D"/>
<g id="Clip path group_8">
<mask id="mask5_141_13614" style="mask-type:luminance" maskUnits="userSpaceOnUse" x="12" y="34" width="32" height="32">
<g id="clippath-7">
<path id="Vector_42" d="M43.7281 34.0677H12.7686V65.2813H43.7281V34.0677Z" fill="white"/>
</g>
</mask>
<g mask="url(#mask5_141_13614)">
<g id="Group_24">
<g id="Group_25">
<path id="Vector_43" d="M29.3772 57.0876C25.0734 57.0876 21.5739 53.588 21.5739 49.2842C21.5739 46.5702 22.9567 44.0913 25.2756 42.652C25.3697 42.5909 25.492 42.5956 25.5861 42.6614C26.7949 43.494 28.6576 45.145 29.3725 47.7837C30.0499 45.0791 31.8514 43.4046 33.0226 42.5673C33.1119 42.5015 33.2342 42.4968 33.3283 42.5532C35.7084 43.9502 37.19 46.5325 37.19 49.2795C37.19 53.5833 33.6905 57.0829 29.3866 57.0829L29.3772 57.0876ZM25.4167 43.2306C23.3612 44.5758 22.1383 46.8242 22.1383 49.2795C22.1383 53.2729 25.3885 56.5231 29.3819 56.5231C33.3754 56.5231 36.6256 53.2729 36.6256 49.2795C36.6256 46.7912 35.318 44.4535 33.2013 43.1318C31.8137 44.1666 29.6689 46.3585 29.6689 50.0321C29.6689 50.1873 29.5419 50.3143 29.3866 50.3143C29.2314 50.3143 29.1044 50.1873 29.1044 50.0321C29.1044 46.4385 26.8655 44.2607 25.4215 43.2306H25.4167Z" fill="#161515"/>
<path id="Vector_44" d="M29.3773 55.6859C27.8439 55.6859 26.3622 55.1261 25.2145 54.1148C25.0969 54.0114 25.0875 53.8326 25.191 53.715C25.2945 53.5974 25.4732 53.588 25.5908 53.6915C26.6397 54.6134 27.985 55.1214 29.382 55.1214C30.3979 55.1214 31.3951 54.8533 32.27 54.3453C32.4064 54.2654 32.5757 54.3124 32.6557 54.4488C32.7357 54.5852 32.6886 54.7545 32.5522 54.8345C31.5927 55.3942 30.4967 55.6906 29.382 55.6906L29.3773 55.6859ZM33.3236 54.2136C33.2437 54.2136 33.1684 54.1807 33.112 54.1148C33.0085 53.9973 33.0226 53.8185 33.1402 53.715C33.2296 53.6351 33.3189 53.5551 33.4036 53.4704C33.5165 53.3623 33.6952 53.3623 33.8034 53.4704C33.9116 53.5833 33.9116 53.7621 33.8034 53.8703C33.7093 53.9596 33.6153 54.049 33.5118 54.1384C33.46 54.1854 33.3942 54.2089 33.3283 54.2089L33.3236 54.2136ZM24.6265 53.3623C24.5419 53.3623 24.4572 53.3246 24.4055 53.2541C24.3255 53.1506 24.2455 53.0424 24.175 52.9342C24.0856 52.8072 24.1186 52.6285 24.2503 52.5438C24.3773 52.4544 24.556 52.4874 24.6407 52.6191C24.7065 52.7179 24.7771 52.8166 24.8523 52.9107C24.9464 53.033 24.9276 53.2117 24.8053 53.3058C24.7535 53.3481 24.6924 53.367 24.6313 53.367L24.6265 53.3623ZM34.3255 53.0989C34.2691 53.0989 34.2126 53.0847 34.1656 53.0471C34.0386 52.9577 34.0057 52.7837 34.095 52.652C34.763 51.6877 35.1157 50.5589 35.1157 49.383C35.1157 48.1318 34.7159 46.9417 33.9633 45.9446C33.8693 45.8223 33.8928 45.6435 34.0198 45.5495C34.1421 45.4554 34.3208 45.4789 34.4149 45.6059C35.2427 46.7019 35.6802 48.0095 35.6802 49.3877C35.6802 50.6812 35.2945 51.9182 34.5607 52.9766C34.5043 53.0565 34.4196 53.0989 34.3302 53.0989H34.3255ZM23.8598 52.0735C23.7517 52.0735 23.6482 52.0123 23.6011 51.9041C23.2531 51.1092 23.079 50.2625 23.079 49.383C23.079 47.6003 23.841 45.8928 25.1722 44.7028C25.2898 44.5993 25.4638 44.6087 25.572 44.7263C25.6755 44.8439 25.6661 45.0226 25.5485 45.1261C24.3349 46.2127 23.6435 47.7649 23.6435 49.3877C23.6435 50.1873 23.8034 50.9587 24.1186 51.683C24.1797 51.8242 24.1186 51.9935 23.9727 52.0546C23.9351 52.0687 23.8975 52.0782 23.8598 52.0782V52.0735ZM33.4318 45.2249C33.366 45.2249 33.2954 45.2014 33.2437 45.1496C33.1825 45.0932 33.1167 45.0368 33.0508 44.985C32.9332 44.8862 32.9144 44.7075 33.0132 44.5899C33.112 44.4676 33.2907 44.4535 33.413 44.5523C33.4836 44.6134 33.5541 44.6746 33.6247 44.7357C33.7423 44.8392 33.747 45.0179 33.6435 45.1355C33.587 45.1967 33.5118 45.2296 33.4365 45.2296L33.4318 45.2249ZM30.1298 47.2099C29.6124 48.3528 29.5419 50.3331 29.8429 51.5655C29.8805 51.7207 29.7865 51.8712 29.6265 51.8994C29.4713 51.9323 29.3067 51.8336 29.2738 51.6783C28.8975 49.9333 29.0245 48.7715 29.3208 47.8684" fill="#161515"/>
</g>
</g>
</g>
</g>
<path id="Vector_45" d="M32.1289 44.5523C31.7055 45.0085 31.3433 45.5447 31.0376 46.0856C30.412 47.1769 29.9981 48.4093 30.0169 49.6793C30.0169 49.9003 30.3603 49.9003 30.3556 49.6793C30.3368 48.4516 30.746 47.2663 31.3575 46.2126C31.6491 45.7141 31.9783 45.2155 32.3735 44.7921C32.524 44.6322 32.2841 44.3923 32.1336 44.5523H32.1289Z" fill="#FCF7EF"/>
<path id="Vector_46" d="M24.7817 44.1525C24.3443 44.4911 23.9821 44.9521 23.667 45.4036C22.9567 46.429 22.5334 47.6332 22.4534 48.8797C22.3923 49.8627 22.5475 50.8458 22.8485 51.7771C22.9144 51.9841 23.2436 51.8947 23.1778 51.6877C22.7027 50.2061 22.6274 48.621 23.1496 47.144C23.46 46.2597 23.968 45.4413 24.6218 44.7686C24.7488 44.6369 24.8758 44.5099 25.0216 44.3971C25.1957 44.2607 24.9511 44.0208 24.7817 44.1572V44.1525Z" fill="#FCF7EF"/>
</g>
<g id="Group_26">
<path id="Vector_47" d="M49.984 42.7977C48.5447 43.8278 46.1835 46.1138 46.1835 50.0367C46.1835 46.2314 43.7846 43.9642 42.2277 42.8918C40.0875 44.2182 38.6623 46.5795 38.6623 49.2841C38.6623 53.4374 42.0301 56.81 46.1882 56.81C50.3462 56.81 53.714 53.4421 53.714 49.2841C53.714 46.5183 52.2183 44.1053 49.9934 42.7977H49.984Z" fill="#BCBCBC"/>
<g id="Clip path group_9">
<mask id="mask6_141_13614" style="mask-type:luminance" maskUnits="userSpaceOnUse" x="29" y="34" width="32" height="32">
<g id="clippath-8">
<path id="Vector_48" d="M60.5014 34.0677H29.5419V65.2813H60.5014V34.0677Z" fill="white"/>
</g>
</mask>
<g mask="url(#mask6_141_13614)">
<g id="Group_27">
<g id="Group_28">
<path id="Vector_49" d="M46.1506 57.0876C41.8467 57.0876 38.3472 53.588 38.3472 49.2842C38.3472 46.5702 39.73 44.0913 42.049 42.652C42.143 42.5909 42.2653 42.5956 42.3594 42.6614C43.5682 43.494 45.4309 45.145 46.1458 47.7837C46.8232 45.0791 48.6247 43.4046 49.7959 42.5673C49.8853 42.5015 50.0076 42.4968 50.1016 42.5532C52.4817 43.9502 53.9633 46.5325 53.9633 49.2795C53.9633 53.5833 50.4638 57.0829 46.16 57.0829L46.1506 57.0876ZM42.1854 43.2306C40.1299 44.5758 38.9069 46.8242 38.9069 49.2795C38.9069 53.2729 42.1571 56.5231 46.1506 56.5231C50.144 56.5231 53.3942 53.2729 53.3942 49.2795C53.3942 46.7912 52.0866 44.4535 49.9699 43.1318C48.5824 44.1666 46.4375 46.3585 46.4375 50.0321C46.4375 50.1873 46.3105 50.3143 46.1553 50.3143C46 50.3143 45.873 50.1873 45.873 50.0321C45.873 46.4385 43.6341 44.2607 42.1901 43.2306H42.1854Z" fill="#161515"/>
<path id="Vector_50" d="M46.1506 55.6859C44.6172 55.6859 43.1355 55.1261 41.9878 54.1148C41.8702 54.0114 41.8608 53.8326 41.9643 53.715C42.0678 53.5974 42.2465 53.588 42.3641 53.6915C43.413 54.6134 44.7583 55.1214 46.1553 55.1214C47.1713 55.1214 48.1684 54.8533 49.0433 54.3453C49.1797 54.2654 49.3491 54.3124 49.429 54.4488C49.509 54.5852 49.462 54.7545 49.3255 54.8345C48.366 55.3942 47.27 55.6906 46.1553 55.6906L46.1506 55.6859ZM50.0969 54.2136C50.017 54.2136 49.9417 54.1807 49.8853 54.1148C49.7818 53.9973 49.7959 53.8185 49.9135 53.715C50.0029 53.6351 50.0922 53.5551 50.1769 53.4704C50.2898 53.3623 50.4685 53.3623 50.5767 53.4704C50.6849 53.5833 50.6849 53.7621 50.5767 53.8703C50.4826 53.9596 50.3886 54.049 50.2851 54.1384C50.2334 54.1854 50.1675 54.2089 50.1017 54.2089L50.0969 54.2136ZM41.3999 53.3623C41.3152 53.3623 41.2305 53.3246 41.1788 53.2541C41.0988 53.1506 41.0189 53.0424 40.9483 52.9342C40.8589 52.8072 40.8919 52.6285 41.0236 52.5438C41.1506 52.4544 41.3293 52.4874 41.414 52.6191C41.4798 52.7179 41.5504 52.8166 41.6256 52.9107C41.7197 53.033 41.7009 53.2117 41.5786 53.3058C41.5269 53.3481 41.4657 53.367 41.4046 53.367L41.3999 53.3623ZM51.0988 53.0989C51.0424 53.0989 50.9859 53.0847 50.9389 53.0471C50.8119 52.9577 50.779 52.7837 50.8683 52.652C51.5363 51.6877 51.889 50.5589 51.889 49.383C51.889 48.1318 51.4892 46.9417 50.7366 45.9446C50.6426 45.8223 50.6661 45.6435 50.7931 45.5495C50.9154 45.4554 51.0941 45.4789 51.1882 45.6059C52.016 46.7019 52.4535 48.0095 52.4535 49.3877C52.4535 50.6812 52.0678 51.9182 51.334 52.9766C51.2776 53.0565 51.1929 53.0989 51.1035 53.0989H51.0988ZM40.6332 52.0735C40.525 52.0735 40.4215 52.0123 40.3745 51.9041C40.0264 51.1092 39.8524 50.2625 39.8524 49.383C39.8524 47.6003 40.6143 45.8928 41.9455 44.7028C42.0631 44.5993 42.2371 44.6087 42.3453 44.7263C42.4488 44.8439 42.4394 45.0226 42.3218 45.1261C41.1082 46.2127 40.4168 47.7649 40.4168 49.3877C40.4168 50.1873 40.5767 50.9587 40.8919 51.683C40.953 51.8242 40.8919 51.9935 40.7461 52.0546C40.7084 52.0687 40.6708 52.0782 40.6332 52.0782V52.0735ZM50.2004 45.2249C50.1346 45.2249 50.064 45.2014 50.0123 45.1496C49.9511 45.0932 49.8853 45.0368 49.8194 44.985C49.7018 44.8862 49.683 44.7075 49.7818 44.5899C49.8806 44.4676 50.0593 44.4535 50.1816 44.5523C50.2522 44.6134 50.3227 44.6746 50.3933 44.7357C50.5109 44.8392 50.5156 45.0179 50.4121 45.1355C50.3556 45.1967 50.2804 45.2296 50.2051 45.2296L50.2004 45.2249ZM46.9032 47.2099C46.3858 48.3528 46.3152 50.3331 46.6162 51.5655C46.6539 51.7207 46.5598 51.8712 46.3999 51.8994C46.2446 51.9323 46.08 51.8336 46.0471 51.6783C45.6708 49.9333 45.7978 48.7715 46.0941 47.8684" fill="#161515"/>
</g>
</g>
</g>
</g>
<path id="Vector_51" d="M48.8975 44.5523C48.4741 45.0085 48.112 45.5447 47.8062 46.0856C47.1806 47.1769 46.7667 48.4093 46.7855 49.6793C46.7855 49.9003 47.1289 49.9003 47.1242 49.6793C47.1054 48.4516 47.5146 47.2663 48.1261 46.2126C48.4177 45.7141 48.747 45.2155 49.1421 44.7921C49.2926 44.6322 49.0527 44.3923 48.9022 44.5523H48.8975Z" fill="#FCF7EF"/>
<path id="Vector_52" d="M41.555 44.1525C41.1176 44.4911 40.7554 44.9521 40.4403 45.4036C39.73 46.429 39.3067 47.6332 39.2267 48.8797C39.1656 49.8627 39.3208 50.8458 39.6218 51.7771C39.6877 51.9841 40.0169 51.8947 39.9511 51.6877C39.476 50.2061 39.4008 48.621 39.9229 47.144C40.2333 46.2597 40.7413 45.4413 41.3951 44.7686C41.5221 44.6369 41.6491 44.5099 41.7949 44.3971C41.969 44.2607 41.7244 44.0208 41.555 44.1572V44.1525Z" fill="#FCF7EF"/>
</g>
</g>
</g>
</g>
<defs>
<clipPath id="clip0_141_13614">
<rect width="60" height="66.6651" fill="white"/>
</clipPath>
</defs>
</svg>
