<svg width="60" height="67" viewBox="0 0 60 67" fill="none" xmlns="http://www.w3.org/2000/svg">
<g id="menu icon01 1">
<g id="Group">
<g id="History">
<g id="Group_2">
<path id="Vector" d="M51.7262 12.6528H21.3593C19.2188 12.6528 17.4835 14.3881 17.4835 16.5287V18.6923C17.4835 20.8329 19.2188 22.5682 21.3593 22.5682H51.7262C53.8668 22.5682 55.6021 20.8329 55.6021 18.6923V16.5287C55.6021 14.3881 53.8668 12.6528 51.7262 12.6528Z" fill="#F4DBBD"/>
<path id="Vector_2" d="M51.7263 22.0319H37.1308C31.9003 22.0319 26.6651 22.0695 21.4299 22.0319C19.5108 22.0178 18.048 20.5361 18.0198 18.6265C18.0104 17.9397 18.0057 17.2483 18.0198 16.5615C18.0386 15.3621 18.6265 14.2614 19.6708 13.65C20.4374 13.1984 21.2465 13.1937 22.0931 13.1937H51.4205C52.8269 13.1937 54.1298 13.7864 54.7554 15.1175C55.127 15.9124 55.0659 16.7638 55.0659 17.6152C55.0659 18.523 55.127 19.4167 54.6849 20.2492C54.0969 21.3546 52.968 22.0084 51.7263 22.0366C51.0348 22.0507 51.0348 23.1232 51.7263 23.1091C54.2756 23.0573 56.1289 21.0206 56.1383 18.5136C56.1383 17.7469 56.1853 16.9661 56.1242 16.2041C56.0254 14.967 55.4186 13.824 54.445 13.0573C52.794 11.7638 50.3622 12.1166 48.3867 12.1166H27.3942C25.4092 12.1166 23.429 12.1025 21.444 12.1166C19.4591 12.1307 17.5917 13.4383 17.0837 15.4327C16.8768 16.2464 16.9473 17.1213 16.9473 17.9538C16.9473 18.9463 16.9944 19.887 17.4741 20.7854C18.2832 22.3047 19.8683 23.0996 21.5475 23.1043C22.3095 23.1043 23.0668 23.1043 23.8288 23.1043H51.7263C52.4177 23.1043 52.4177 22.0319 51.7263 22.0319Z" fill="#050101"/>
</g>
<g id="Group_3">
<path id="Vector_3" d="M10.4797 21.8814C13.0281 21.8814 15.094 19.8155 15.094 17.2671C15.094 14.7187 13.0281 12.6528 10.4797 12.6528C7.93131 12.6528 5.86542 14.7187 5.86542 17.2671C5.86542 19.8155 7.93131 21.8814 10.4797 21.8814Z" fill="#F7F8F8"/>
<path id="Vector_4" d="M14.459 17.2672C14.4355 18.9182 13.4195 20.4421 11.8485 21.0066C10.2775 21.571 8.44775 21.0818 7.38001 19.7695C6.31228 18.4572 6.21821 16.6369 7.06016 15.2211C7.90212 13.8053 9.58133 13.0386 11.19 13.3443C13.0762 13.7065 14.4261 15.3481 14.4543 17.2625C14.4637 18.0809 15.7337 18.0809 15.7243 17.2625C15.6961 15.0706 14.3509 13.1232 12.2953 12.3424C10.2398 11.5616 7.82216 12.2154 6.43928 13.9088C5.0564 15.6021 4.82592 18.048 5.95951 19.9483C7.09309 21.8485 9.30381 22.8081 11.4628 22.4177C13.9275 21.9755 15.6867 19.7319 15.7196 17.2625C15.729 16.444 14.459 16.444 14.4496 17.2625L14.459 17.2672Z" fill="#050101"/>
</g>
<path id="Vector_5" d="M4.19095 13.8523C5.82783 15.8466 7.16367 17.3424 8.79584 19.3367C9.36499 20.0282 10.5174 18.9934 10.8184 18.4901C12.5494 15.5973 14.285 12.7046 16.016 9.8118L16.7639 8.56533C17.0414 8.10437 16.3076 7.51641 15.8325 7.56344C15.2258 7.62459 15.0799 8.28311 14.7695 8.80051C13.0386 11.6933 11.3029 14.586 9.57195 17.4788L8.82406 18.7253L10.8466 17.8786L5.94071 11.9002C5.32924 11.1523 3.47129 11.4816 3.68766 13.1937L4.18625 13.857L4.19095 13.8523Z" fill="#050101"/>
<path id="Vector_6" d="M3.98399 12.6858C5.52209 14.5202 7.06019 16.3546 8.59829 18.1843C9.12981 18.8193 10.2211 17.8692 10.5033 17.4082C12.1355 14.746 13.7629 12.0837 15.3951 9.42141L16.0959 8.27371C16.3546 7.85038 16.0301 7.4929 15.5879 7.53994C15.0141 7.59638 14.5108 8.01501 14.2239 8.49008C12.5917 11.1524 10.9642 13.8146 9.33207 16.4769L8.63122 17.6246L10.5362 16.8485L5.92191 11.3499C5.34806 10.6632 3.44778 12.0461 3.9887 12.6905L3.98399 12.6858Z" fill="#13948D"/>
<path id="Vector_7" d="M23.6265 16.5662C23.015 17.1307 22.4929 17.8691 22.7234 18.7487C22.9398 19.5719 23.6688 19.9011 24.459 19.9105C26.0818 19.9341 27.5305 19.1109 28.5042 17.8503L27.507 18.2548C27.4459 18.2031 27.3847 18.1467 27.3236 18.0902C27.3659 18.1843 27.38 18.2031 27.3659 18.1514C27.38 18.2454 27.4459 18.3536 27.4835 18.443C27.6199 18.777 27.7798 19.0827 28.0903 19.2897C28.9322 19.8541 29.6895 19.1532 30.4515 18.8146C30.8184 18.6547 30.9783 18.6829 31.3029 18.8898C31.651 19.1109 32.0225 19.2991 32.4224 19.4025C33.316 19.633 34.1956 19.5013 35.0235 19.125C35.4562 18.9275 35.5644 18.3019 35.3386 17.9162C35.0799 17.4693 34.5672 17.3988 34.1298 17.601C33.7441 17.7798 33.2972 17.8033 32.888 17.7045C32.3988 17.5822 32.0414 17.22 31.571 17.0507C31.0677 16.872 30.5127 16.9096 30.0188 17.093C29.5249 17.2765 29.0357 17.7139 28.5277 17.7845H28.9981C29.0545 17.7939 29.1298 17.9538 29.1815 17.9444C29.1674 17.9444 29.1251 17.8409 29.1204 17.8315C29.0639 17.6528 28.984 17.4505 28.8899 17.2859C28.697 16.9331 28.3772 16.6321 27.9727 16.5568C27.5399 16.4816 27.2389 16.6227 26.9755 16.9613C26.5428 17.5258 25.8843 17.9021 25.2022 18.0667C25.094 18.0949 24.2944 18.1702 24.2944 18.1608L24.4167 18.2831C24.4073 18.3818 24.4167 18.3865 24.4355 18.2878C24.5437 18.2454 24.7648 17.9115 24.8683 17.8174C25.7008 17.046 24.4543 15.7995 23.6218 16.5709L23.6265 16.5662Z" fill="#050101"/>
<path id="Vector_8" d="M37.8786 19.1674C38.5607 19.1956 39.2192 18.8099 39.5626 18.222H38.0386C38.8758 19.5108 40.7432 19.7507 41.8815 18.7159C42.2248 18.4054 42.2201 17.7798 41.8815 17.4694C41.5146 17.1354 40.9972 17.1354 40.635 17.4694C40.4704 17.6199 40.7761 17.3847 40.6491 17.4647C40.6021 17.4929 40.555 17.5258 40.508 17.5494C40.3293 17.6434 40.6068 17.5211 40.5503 17.5352C40.5033 17.5493 40.461 17.5682 40.4139 17.5823C40.3622 17.5964 40.3057 17.6011 40.2493 17.6199C40.4139 17.6011 40.4516 17.5964 40.3575 17.6058C40.3293 17.6058 40.301 17.6058 40.2728 17.6105C40.174 17.6152 40.08 17.6058 39.9812 17.6011C40.2728 17.6105 40.0941 17.6152 40.0094 17.5964C39.9671 17.587 39.9294 17.5776 39.8871 17.5635C39.8024 17.5352 39.6707 17.4412 39.9012 17.5776C39.8542 17.5493 39.8024 17.5305 39.7507 17.5023C39.7131 17.4835 39.6801 17.46 39.6472 17.4365C39.5249 17.3612 39.826 17.5964 39.6613 17.4459C39.619 17.4082 39.5861 17.3659 39.5437 17.3283C39.445 17.2248 39.6801 17.5258 39.5579 17.3377C39.2051 16.7921 38.3772 16.745 38.0339 17.3377C38.015 17.3706 37.9304 17.4882 38.0245 17.3706C38.1138 17.2577 38.0386 17.3518 38.015 17.3706C37.9069 17.4788 38.015 17.3518 38.0668 17.3424C38.0339 17.3471 37.9962 17.3894 37.9633 17.4082C37.9351 17.4223 37.8269 17.4741 37.9633 17.4129C38.0997 17.3518 37.9633 17.4035 37.9304 17.4129C37.7987 17.46 38.0245 17.3894 38.0245 17.4035C38.0245 17.4129 37.8881 17.4035 37.8786 17.4035C37.4177 17.3847 36.9755 17.8222 36.9944 18.2878C37.0179 18.7817 37.3801 19.1486 37.8786 19.1721V19.1674Z" fill="#050101"/>
<path id="Vector_9" d="M44.5908 18.4619C45.2728 18.8993 46.0019 19.3085 46.8297 19.3367C47.6011 19.365 48.4149 18.9887 48.8335 18.3302C49.0075 18.062 49.0875 17.7516 49.1439 17.4459C49.1722 17.2953 49.1016 17.5258 49.0499 17.5729L48.175 17.6246C48.2079 17.6622 48.2408 17.6999 48.2738 17.7375C48.3961 17.8739 48.5466 17.9915 48.6971 18.0903C49.365 18.5277 50.2587 18.5183 50.9407 18.1373C51.3453 17.9115 51.5099 17.3236 51.2559 16.9285C51.0019 16.5334 50.4798 16.3734 50.047 16.6133C49.8636 16.7168 50.1976 16.5945 49.9906 16.6415C49.9624 16.6462 49.7695 16.6698 49.8918 16.6651C50.0188 16.6651 49.8166 16.6556 49.7883 16.6556C49.8871 16.6745 49.9059 16.6745 49.8401 16.6651C49.8025 16.6604 49.7695 16.6509 49.7319 16.6415C49.5767 16.6133 49.7789 16.6839 49.7037 16.6415C49.6519 16.6086 49.5955 16.5851 49.5485 16.5475C49.6472 16.618 49.5908 16.5757 49.5343 16.5145C49.492 16.4675 49.4544 16.4158 49.4121 16.3734C49.0499 16.0112 48.4619 15.8701 48.0104 16.1524C47.6811 16.3546 47.4977 16.7027 47.413 17.0696C47.3895 17.1731 47.3518 17.2906 47.3377 17.3941C47.3283 17.4929 47.3989 17.2624 47.3236 17.4082C47.4036 17.2624 47.3236 17.3941 47.2813 17.4459C47.1778 17.5541 47.3377 17.4271 47.2578 17.46C47.2013 17.4788 47.1496 17.5211 47.0978 17.5446C47.2813 17.46 47.0555 17.5446 47.0273 17.5541C46.8674 17.6058 47.1025 17.5635 47.0038 17.5635C46.9426 17.5635 46.8815 17.5635 46.8203 17.5682C46.6416 17.5729 46.9144 17.6058 46.7027 17.5493C46.6416 17.5352 46.5804 17.5211 46.5193 17.5023C46.5193 17.5023 46.27 17.4082 46.3782 17.4553C46.0583 17.3189 45.762 17.1213 45.4657 16.9332C45.0753 16.6839 44.4732 16.8391 44.2568 17.2483C44.0263 17.6858 44.1581 18.189 44.572 18.4572L44.5908 18.4619Z" fill="#050101"/>
<g id="Group_4">
<path id="Vector_10" d="M51.7262 26.7639H21.3593C19.2188 26.7639 17.4835 28.4992 17.4835 30.6397V32.8034C17.4835 34.944 19.2188 36.6793 21.3593 36.6793H51.7262C53.8668 36.6793 55.6021 34.944 55.6021 32.8034V30.6397C55.6021 28.4992 53.8668 26.7639 51.7262 26.7639Z" fill="#E2E2E1"/>
<path id="Vector_11" d="M51.7263 36.143H37.1308C31.9003 36.143 26.6651 36.1806 21.4299 36.143C19.5108 36.1289 18.048 34.6472 18.0198 32.7375C18.0104 32.0508 18.0057 31.3594 18.0198 30.6726C18.0386 29.4732 18.6265 28.3725 19.6708 27.7611C20.4374 27.3095 21.2465 27.3048 22.0931 27.3048H51.4205C52.8269 27.3048 54.1298 27.8975 54.7554 29.2286C55.127 30.0235 55.0659 30.8749 55.0659 31.7262C55.0659 32.6341 55.127 33.5278 54.6849 34.3603C54.0969 35.4657 52.968 36.1195 51.7263 36.1477C51.0348 36.1618 51.0348 37.2342 51.7263 37.2201C54.2756 37.1684 56.1289 35.1317 56.1383 32.6247C56.1383 31.858 56.1853 31.0771 56.1242 30.3151C56.0254 29.0781 55.4186 27.9351 54.445 27.1684C52.794 25.8749 50.3622 26.2277 48.3867 26.2277H27.3942C25.4092 26.2277 23.429 26.2135 21.444 26.2277C19.4591 26.2418 17.5917 27.5494 17.0837 29.5437C16.8768 30.3575 16.9473 31.2324 16.9473 32.0649C16.9473 33.0574 16.9944 33.9981 17.4741 34.8965C18.2832 36.4158 19.8683 37.2107 21.5475 37.2154C22.3095 37.2154 23.0668 37.2154 23.8288 37.2154H51.7263C52.4177 37.2154 52.4177 36.143 51.7263 36.143Z" fill="#050101"/>
</g>
<g id="Group_5">
<path id="Vector_12" d="M10.4797 35.9924C13.0281 35.9924 15.094 33.9265 15.094 31.3781C15.094 28.8297 13.0281 26.7638 10.4797 26.7638C7.93131 26.7638 5.86542 28.8297 5.86542 31.3781C5.86542 33.9265 7.93131 35.9924 10.4797 35.9924Z" fill="#F7F8F8"/>
<path id="Vector_13" d="M14.459 31.3781C14.4355 33.0291 13.4195 34.5531 11.8485 35.1176C10.2775 35.682 8.44775 35.1928 7.38001 33.8805C6.31228 32.5682 6.21821 30.7478 7.06016 29.332C7.90212 27.9162 9.58133 27.1495 11.19 27.4553C13.0762 27.8175 14.4261 29.459 14.4543 31.3734C14.4637 32.1919 15.7337 32.1919 15.7243 31.3734C15.6961 29.1815 14.3509 27.2342 12.2953 26.4534C10.2398 25.6726 7.82216 26.3264 6.43928 28.0197C5.0564 29.713 4.82592 32.1589 5.95951 34.0592C7.09309 35.9595 9.30381 36.9191 11.4628 36.5287C13.9275 36.0865 15.6867 33.8429 15.7196 31.3734C15.729 30.555 14.459 30.555 14.4496 31.3734L14.459 31.3781Z" fill="#050101"/>
</g>
<path id="Vector_14" d="M4.19095 27.9632C5.82783 29.9576 7.16367 31.4533 8.79584 33.4477C9.36499 34.1391 10.5174 33.1043 10.8184 32.601C12.5494 29.7083 14.285 26.8155 16.016 23.9228L16.7639 22.6763C17.0414 22.2153 16.3076 21.6274 15.8325 21.6744C15.2258 21.7356 15.0799 22.3941 14.7695 22.9115C13.0386 25.8042 11.3029 28.697 9.57195 31.5897L8.82406 32.8362L10.8466 31.9896L5.94071 26.0112C5.32924 25.2633 3.47129 25.5926 3.68766 27.3047L4.18625 27.9679L4.19095 27.9632Z" fill="#050101"/>
<path id="Vector_15" d="M21.4205 31.7356C21.5287 32.1542 21.6839 32.5634 21.8815 32.9538C22.079 33.3443 22.3283 33.777 22.7328 33.9792C23.0433 34.1392 23.3961 34.1627 23.7206 34.0263C23.9605 33.9275 24.1486 33.7629 24.3509 33.603C24.6896 33.3348 25.0235 33.0667 25.3622 32.7939L25.508 32.6763L25.4563 32.714C25.6491 32.5964 25.508 32.6058 25.0282 32.7375C24.7366 32.5352 24.6472 32.4835 24.7554 32.5917C24.5814 32.4082 24.6755 32.4741 24.7084 32.5493C24.7272 32.5964 24.7554 32.6434 24.7789 32.6904C24.9389 33.0244 25.1976 33.316 25.5644 33.4195C26.1289 33.5841 26.6087 33.2596 26.9144 32.8174C26.9473 32.7704 27.0649 32.634 26.9144 32.808C27.0226 32.6998 26.952 32.7375 26.6933 32.9209C26.5381 32.9303 26.5099 32.935 26.6087 32.935C26.3688 32.9256 26.1665 32.8033 26.1571 32.4694C26.1712 32.9303 26.5522 33.3725 27.0414 33.3537C27.5306 33.3348 27.9398 32.968 27.9257 32.4694C27.9116 31.9708 27.6529 31.5427 27.206 31.3264C26.7215 31.0865 26.1054 31.1241 25.7103 31.5192C25.6162 31.6133 25.5409 31.7215 25.4657 31.8297C25.428 31.8814 25.3104 32.0084 25.4704 31.8391C25.3199 31.9896 25.4563 31.9426 25.8796 31.7027C26.063 31.7027 26.2136 31.7685 26.3358 31.8908C26.2371 31.8015 26.4252 32.0837 26.3782 31.9426C26.2982 31.7074 26.1336 31.4581 25.9549 31.2982C25.7526 31.11 25.4704 30.9971 25.1929 31.0018C24.8495 31.0065 24.5955 31.1712 24.3368 31.3781C23.9981 31.6462 23.6642 31.9143 23.3255 32.1872C23.2549 32.2436 23.1797 32.3047 23.1091 32.3612C23.0621 32.3988 23.0151 32.4364 22.9633 32.4788C23.1091 32.3236 23.3114 32.3094 23.5701 32.4364C23.6171 32.4694 23.7394 32.6434 23.6548 32.5023C23.5983 32.4082 23.5372 32.3141 23.4854 32.2201C23.4478 32.1495 23.4102 32.0743 23.3725 31.999C23.349 31.9473 23.3255 31.9002 23.302 31.8485C23.3302 31.919 23.3349 31.9284 23.3114 31.8673C23.2455 31.6697 23.175 31.4769 23.1232 31.2746C23.0104 30.8278 22.4835 30.5126 22.0367 30.6585C21.5898 30.8043 21.2982 31.2652 21.4205 31.745V31.7356Z" fill="#050101"/>
<path id="Vector_16" d="M30.5973 32.6152C30.9595 32.0461 31.2982 31.4581 31.6039 30.8561H30.0799C30.3669 31.4111 30.6585 31.9661 30.9454 32.5212C31.19 32.9915 31.3922 33.5889 31.778 33.9652C32.2718 34.445 32.9821 34.3556 33.4807 33.9464C33.8193 33.6642 34.0169 33.3208 34.4543 33.1797C35.428 32.8598 36.3264 33.476 37.2859 33.4619C37.888 33.4525 38.4854 33.1279 38.6829 32.5306C38.857 32.0038 38.7253 31.3923 38.3019 31.0254L37.6764 32.5306C37.6764 32.5306 37.7516 32.5729 37.761 32.587C38.0432 32.9727 38.5277 33.1609 38.9699 32.9022C39.3509 32.6811 39.5672 32.0837 39.285 31.6933C38.8711 31.1242 38.3772 30.842 37.6764 30.762C36.9238 30.6773 36.5004 31.7921 37.0508 32.2672C36.9238 32.1543 37.1542 31.5663 37.2671 31.6933C37.2812 31.7074 37.1872 31.6933 37.1684 31.6886C36.999 31.6087 36.7497 31.5804 36.5663 31.5334C36.0207 31.4017 35.4421 31.2982 34.8777 31.3264C34.365 31.3547 33.8664 31.4723 33.4054 31.7074C33.1655 31.8297 32.9351 31.9944 32.7422 32.1825C32.6622 32.2578 32.5964 32.3424 32.5211 32.4224L32.4318 32.5212C32.2389 32.6764 32.3236 32.6764 32.6764 32.5212L33.0668 32.7469C33.1044 32.7799 33.0056 32.6529 32.9821 32.6152C32.9162 32.4882 32.8504 32.3612 32.7845 32.2342C32.6528 31.9802 32.5211 31.731 32.3894 31.477C32.126 30.9737 31.8673 30.4657 31.6039 29.9624C31.3076 29.3932 30.3763 29.3838 30.0799 29.9624C29.7836 30.5409 29.4402 31.1524 29.0733 31.7215C28.4619 32.6811 29.9859 33.5654 30.5973 32.6105V32.6152Z" fill="#050101"/>
<path id="Vector_17" d="M40.8749 31.8062C40.7996 32.3048 40.889 32.6576 41.2088 33.0527C41.5287 33.4478 42.1307 33.3443 42.4553 33.0527C42.5823 32.9351 42.714 32.8175 42.841 32.7046C42.9068 32.6482 42.968 32.587 43.0338 32.5306L43.0997 32.4741C43.2267 32.3659 43.1797 32.3895 42.9539 32.5447H42.4835C42.4271 32.5353 42.2107 32.3048 42.3048 32.4506C42.3377 32.4976 42.3847 32.5447 42.4224 32.587C42.5117 32.6905 42.6011 32.794 42.6905 32.8975C42.8316 33.0621 42.968 33.2502 43.1326 33.3913C43.7065 33.8852 44.4308 33.7582 44.8965 33.2032C44.9388 33.1515 44.9953 33.1515 44.9153 33.1703C44.873 33.2126 44.8165 33.2361 44.7507 33.2361C44.6989 33.269 44.6425 33.2785 44.5861 33.2596C44.5296 33.2502 44.5249 33.2502 44.5766 33.2596C44.6002 33.2643 44.6284 33.2738 44.6519 33.2832C44.666 33.2879 44.8165 33.3443 44.7319 33.3114C44.6472 33.2785 44.9153 33.3913 44.9482 33.4008C44.9953 33.4196 45.0423 33.4384 45.0893 33.4525C45.2399 33.4995 45.4045 33.5183 45.5644 33.5325C46.1383 33.5795 46.6651 33.3443 47.0978 32.9915C47.46 32.6999 47.4224 32.0414 47.0978 31.7451C46.7168 31.3923 46.2323 31.4346 45.8513 31.7451C45.9454 31.6698 45.8984 31.6886 45.8278 31.7451C45.7526 31.8062 45.9972 31.7027 45.8137 31.7498C45.7996 31.7498 45.6867 31.7921 45.6773 31.7827C45.7855 31.7686 45.8043 31.7686 45.7385 31.7733C45.7149 31.7733 45.6914 31.7733 45.6679 31.7733C45.635 31.7733 45.5973 31.7733 45.5644 31.7686L45.6585 31.778C45.6256 31.7968 45.5174 31.7356 45.4892 31.7262C45.4421 31.7074 45.4421 31.7074 45.4892 31.7262C45.5926 31.7686 45.5315 31.7451 45.3104 31.651C45.2587 31.6322 45.2116 31.6087 45.1599 31.5898C44.7789 31.4534 44.3368 31.4628 43.984 31.6698C43.8617 31.7404 43.7488 31.8391 43.65 31.9426C43.6171 31.9802 43.5795 32.0132 43.5512 32.0555L43.5089 32.0978C43.6312 31.9708 43.7864 31.9614 43.9793 32.0696C44.4496 32.1261 44.4214 32.1872 44.285 32.0414C44.238 31.9897 44.1909 31.9332 44.1439 31.8815C44.0451 31.7686 43.9464 31.651 43.8476 31.5381C43.6312 31.2841 43.4337 31.0207 43.1185 30.889C42.333 30.555 41.7262 31.3264 41.2041 31.8015H42.4506C42.5776 31.9332 42.6199 32.0931 42.5729 32.2719C42.6387 31.8156 42.46 31.3029 41.9567 31.1853C41.5381 31.0913 40.9454 31.3123 40.8702 31.8015L40.8749 31.8062Z" fill="#050101"/>
<path id="Vector_18" d="M49.8683 33.2596C50.4374 33.2878 51.0066 32.9021 51.2559 32.4036C51.3734 32.1731 51.4487 31.9332 51.4957 31.6792C51.5287 31.491 51.5569 31.3029 51.6321 31.1289L51.5428 31.3405C51.5804 31.2606 51.698 31.143 51.5193 31.3405C51.5851 31.2794 51.5569 31.2982 51.4346 31.4017C51.4581 31.3876 51.4769 31.3782 51.5004 31.3687L51.2888 31.4581C51.3264 31.444 51.3593 31.4393 51.397 31.4346L51.1618 31.4675C51.1994 31.4675 51.237 31.4675 51.2747 31.4675L51.0395 31.4346C51.1053 31.444 51.1665 31.4581 51.2276 31.4816L51.016 31.3923C51.063 31.4158 51.11 31.4487 51.1571 31.4675C51.0348 31.3687 51.0066 31.3452 51.0724 31.4064C51.0865 31.4205 51.1006 31.4346 51.1147 31.4487C51.1618 31.5004 51.1383 31.4675 51.0395 31.3452C51.0583 31.3734 51.0771 31.397 51.0912 31.4252C51.1242 31.4816 51.1524 31.5381 51.1759 31.5992L51.0865 31.3876C51.2323 31.745 51.3029 32.1213 51.4863 32.4647C51.7027 32.8786 52.0884 33.2267 52.5494 33.3396C53.0103 33.4525 53.5277 33.1985 53.6359 32.7234C53.7441 32.2483 53.4995 31.7544 53.0197 31.6369C52.9774 31.6274 52.9398 31.6133 52.9021 31.5992L53.1138 31.6886C53.0903 31.6792 53.0668 31.6651 53.0432 31.651C52.968 31.6039 52.9962 31.6227 53.1232 31.7168C53.1044 31.698 53.0809 31.6792 53.0621 31.6604C53.0009 31.5945 53.0197 31.6227 53.1185 31.7403C53.0621 31.6369 52.9962 31.5475 52.9492 31.4393L53.0385 31.651C52.8927 31.2841 52.8222 30.8843 52.6152 30.5409C52.3471 30.094 51.9097 29.7883 51.3923 29.7225C50.7714 29.6378 50.2116 29.9906 49.9718 30.5597C49.8212 30.9172 49.8118 31.3029 49.6707 31.6651L49.7601 31.4534C49.7413 31.4957 49.7225 31.5334 49.6989 31.5757C49.6848 31.5992 49.6707 31.6227 49.6519 31.6463C49.746 31.5287 49.7695 31.5004 49.7225 31.5475C49.6942 31.571 49.5719 31.6792 49.7036 31.5757C49.8353 31.4722 49.6895 31.5757 49.6519 31.5898L49.8636 31.5004C49.8259 31.5146 49.7883 31.524 49.7507 31.5334L49.9859 31.5004C49.9435 31.5052 49.9059 31.5052 49.8636 31.5004C49.4026 31.4769 48.9605 31.9238 48.9793 32.38C49.0028 32.8786 49.365 33.2361 49.8636 33.2643L49.8683 33.2596Z" fill="#050101"/>
<g id="Group_6">
<path id="Vector_19" d="M51.7262 41.3452H21.3593C19.2188 41.3452 17.4835 43.0805 17.4835 45.221V47.3847C17.4835 49.5253 19.2188 51.2606 21.3593 51.2606H51.7262C53.8668 51.2606 55.6021 49.5253 55.6021 47.3847V45.221C55.6021 43.0805 53.8668 41.3452 51.7262 41.3452Z" fill="#E2E2E1"/>
<path id="Vector_20" d="M51.7263 50.7243H37.1308C31.9003 50.7243 26.6651 50.7619 21.4299 50.7243C19.5108 50.7102 18.048 49.2285 18.0198 47.3188C18.0104 46.6321 18.0057 45.9407 18.0198 45.2539C18.0386 44.0545 18.6265 42.9538 19.6708 42.3424C20.4374 41.8908 21.2465 41.8861 22.0931 41.8861H51.4205C52.8269 41.8861 54.1298 42.4788 54.7554 43.8099C55.127 44.6048 55.0659 45.4562 55.0659 46.3075C55.0659 47.2154 55.127 48.1091 54.6849 48.9416C54.0969 50.047 52.968 50.7008 51.7263 50.729C51.0348 50.7431 51.0348 51.8155 51.7263 51.8014C54.2756 51.7497 56.1289 49.713 56.1383 47.2059C56.1383 46.4393 56.1853 45.6584 56.1242 44.8964C56.0254 43.6594 55.4186 42.5164 54.445 41.7497C52.794 40.4562 50.3622 40.809 48.3867 40.809H27.3942C25.4092 40.809 23.429 40.7948 21.444 40.809C19.4591 40.8231 17.5917 42.1307 17.0837 44.125C16.8768 44.9388 16.9473 45.8137 16.9473 46.6462C16.9473 47.6387 16.9944 48.5794 17.4741 49.4778C18.2832 50.9971 19.8683 51.792 21.5475 51.7967C22.3095 51.7967 23.0668 51.7967 23.8288 51.7967H51.7263C52.4177 51.7967 52.4177 50.7243 51.7263 50.7243Z" fill="#050101"/>
</g>
<g id="Group_7">
<path id="Vector_21" d="M10.4797 50.5738C13.0281 50.5738 15.094 48.5079 15.094 45.9595C15.094 43.4111 13.0281 41.3452 10.4797 41.3452C7.93131 41.3452 5.86542 43.4111 5.86542 45.9595C5.86542 48.5079 7.93131 50.5738 10.4797 50.5738Z" fill="#F7F8F8"/>
<path id="Vector_22" d="M14.459 45.9596C14.4355 47.6105 13.4195 49.1345 11.8485 49.699C10.2775 50.2634 8.44775 49.7742 7.38001 48.4619C6.31228 47.1496 6.21821 45.3293 7.06016 43.9135C7.90212 42.4977 9.58133 41.731 11.19 42.0367C13.0762 42.3989 14.4261 44.0405 14.4543 45.9548C14.4637 46.7733 15.7337 46.7733 15.7243 45.9548C15.6961 43.7629 14.3509 41.8156 12.2953 41.0348C10.2398 40.254 7.82216 40.9078 6.43928 42.6011C5.0564 44.2945 4.82592 46.7404 5.95951 48.6406C7.09309 50.5409 9.30381 51.5005 11.4628 51.1101C13.9275 50.6679 15.6867 48.4243 15.7196 45.9548C15.729 45.1364 14.459 45.1364 14.4496 45.9548L14.459 45.9596Z" fill="#050101"/>
</g>
<path id="Vector_23" d="M53.3725 54.9388H18.9087C17.6774 54.9388 16.6792 55.937 16.6792 57.1684C16.6792 58.3997 17.6774 59.3979 18.9087 59.3979H53.3725C54.6039 59.3979 55.6021 58.3997 55.6021 57.1684C55.6021 55.937 54.6039 54.9388 53.3725 54.9388Z" fill="#050101"/>
<path id="Vector_24" d="M10.6444 59.0875C11.79 59.0875 12.7187 58.1588 12.7187 57.0132C12.7187 55.8675 11.79 54.9388 10.6444 54.9388C9.49877 54.9388 8.57007 55.8675 8.57007 57.0132C8.57007 58.1588 9.49877 59.0875 10.6444 59.0875Z" fill="#050101"/>
<path id="Vector_25" d="M21.8062 47.3377C22.1449 48.1185 23.1656 48.1373 23.8241 47.8081C23.9793 47.7281 24.1157 47.6105 24.2521 47.5023C24.3039 47.46 24.3509 47.4177 24.4026 47.38C24.6049 47.2154 24.2709 47.4835 24.4732 47.333C24.6002 47.2389 24.412 47.333 24.4967 47.3142C24.572 47.2954 24.3509 47.286 24.3086 47.286C24.2474 47.2577 24.2568 47.2624 24.3274 47.3048L24.2615 47.2577C24.2615 47.2577 24.4262 47.4553 24.318 47.3095C24.5155 47.587 24.6802 47.8927 24.9341 48.1185C25.301 48.4478 25.7902 48.6359 26.2841 48.5136C26.4581 48.4713 26.6275 48.3913 26.7827 48.3019C26.8532 48.2596 26.9191 48.2173 26.9944 48.1797C26.8862 48.2361 27.0038 48.1797 27.0602 48.1608C27.1261 48.142 27.1966 48.1232 27.2672 48.1138C27.0884 48.1373 27.333 48.1232 27.3706 48.1232C27.5917 48.1232 27.2625 48.0762 27.4694 48.1373C27.5494 48.1608 27.6294 48.1844 27.7093 48.2173C28.1373 48.3866 28.6971 48.0338 28.7959 47.6011C28.9135 47.0931 28.6406 46.698 28.1797 46.5146C27.4976 46.2464 26.7074 46.3311 26.0677 46.6745C26.0113 46.7074 25.9501 46.7403 25.8937 46.778C25.7949 46.8485 25.8467 46.8015 25.936 46.7921C26.0113 46.7827 26.0677 46.8015 26.1336 46.825C26.2418 46.8673 26.1477 46.8391 26.096 46.7874C26.0536 46.745 25.9878 46.6369 26.0536 46.7403C26.0113 46.6745 25.969 46.6086 25.9266 46.5475C25.8278 46.4017 25.7244 46.2559 25.6115 46.1241C25.0941 45.5268 24.2521 45.4045 23.5842 45.8231C23.4337 45.9172 23.2926 46.0348 23.1562 46.1477C23.095 46.1947 23.0386 46.2511 22.9727 46.2982C23.0621 46.2323 23.0433 46.2512 22.9586 46.2888C22.9163 46.3123 22.921 46.3076 22.9774 46.2841C23.0433 46.2559 23.0386 46.2559 22.9633 46.2841L22.9022 46.2982C23.0245 46.2841 23.0527 46.2794 22.9868 46.2841C22.9163 46.2841 22.9445 46.2888 23.0762 46.3029L23.1844 46.3546C23.2314 46.3829 23.3866 46.6133 23.3255 46.4722C23.1421 46.0489 22.4882 45.9172 22.1167 46.1571C21.6745 46.4393 21.604 46.9097 21.8015 47.3659L21.8062 47.3377Z" fill="#050101"/>
<path id="Vector_26" d="M30.3198 47.7705C30.6256 48.095 31.0583 48.2173 31.491 48.1091C31.6463 48.0715 31.8203 47.9962 31.9567 47.9069C32.0649 47.8363 32.2671 47.6058 32.38 47.5776H31.9097L31.9379 47.5917L31.6227 47.2766C32.0414 47.8269 32.4459 48.2879 33.2173 48.128C33.8617 47.9962 34.3132 47.4694 34.3179 46.8109L32.9915 47.5729C34.1486 48.1562 35.7102 48.0527 36.5898 47.0132C37.0367 46.4864 37.1025 45.6773 36.571 45.1693C36.0395 44.6613 35.1458 44.7789 34.7648 45.4186C34.031 46.6604 35.2634 47.9727 36.3593 48.3867C36.9426 48.6077 37.7093 48.7394 38.3349 48.6877C39.1815 48.6218 39.5484 47.8316 39.9576 47.2013L38.5748 47.3801C39.5296 48.4807 40.9266 47.8034 41.8156 47.0273L40.4327 46.8486C40.6726 47.2437 40.9501 47.5212 41.317 47.7987C41.6839 48.0762 42.3048 47.8598 42.5258 47.4835C42.7893 47.032 42.5917 46.5663 42.2107 46.2747C42.1025 46.19 42.0273 46.0724 41.9614 45.9596C41.6557 45.4469 41.0019 45.4092 40.5785 45.7808C40.4233 45.9172 40.0235 46.35 39.8353 46.1336C39.4449 45.682 38.7394 45.8702 38.4525 46.3123C38.2784 46.5804 38.1138 46.9191 37.8739 47.1308L38.2643 46.905C37.9257 47.0273 37.2248 46.8439 36.8909 46.7027C36.7356 46.6369 36.571 46.5381 36.4675 46.4064C36.2135 46.096 36.4769 46.2041 36.2747 46.3735L35.8843 46.5993L35.8654 46.6134L35.4186 46.4911L35.4092 46.5052L35.1834 46.1148C35.301 45.8702 35.3057 45.809 35.1975 45.9313L35.0658 46.0113C34.9435 46.0819 34.8118 46.1336 34.6707 46.1571C34.4026 46.2041 34.1345 46.1665 33.8899 46.0442C33.2972 45.7479 32.5682 46.1054 32.5635 46.8062L32.8598 46.4017L33.2925 46.5899C33.2925 46.5899 33.095 46.3076 33.0809 46.2888C32.888 46.0677 32.6717 45.9313 32.3847 45.8655C32.0978 45.7996 31.8156 45.8608 31.5616 45.9878C31.4205 46.0583 31.2982 46.1571 31.1806 46.2559C31.1383 46.2888 31.0959 46.3264 31.0536 46.3641C30.9219 46.4676 30.9924 46.4723 31.2606 46.3641L31.651 46.5899L31.571 46.5052C30.7902 45.6773 29.5437 46.9238 30.3245 47.7517L30.3198 47.7705Z" fill="#050101"/>
<path id="Vector_27" d="M44.9012 48.1138C45.3575 47.5258 45.7761 46.919 46.1053 46.2511C46.4346 45.5832 46.6698 44.8024 46.2464 44.0874C45.9078 43.5183 45.0611 43.5136 44.7225 44.0874C44.4261 44.586 44.3932 45.1787 44.365 45.7431C44.3368 46.3076 44.3932 46.9285 44.6472 47.4741C45.0893 48.4336 46.0912 48.9228 47.079 49.1204C48.1608 49.3367 49.4449 49.4825 50.3575 48.7347C51.2135 48.0385 51.3923 46.7826 50.6538 45.9407C50.3386 45.5832 49.7272 45.6208 49.4073 45.9407C49.0451 46.3029 49.1016 46.8203 49.4073 47.1872C49.8306 47.7046 50.4609 48.1232 51.1571 48.0291C51.4957 47.9821 51.7921 47.8269 52.032 47.5823C52.1072 47.507 52.1684 47.4223 52.2342 47.3377C52.4036 47.1354 52.3283 47.253 52.079 47.2812C52.5541 47.2295 52.9633 46.9143 52.9633 46.3969C52.9633 45.9595 52.5588 45.4656 52.079 45.5126C51.5428 45.5691 51.237 45.7949 50.9031 46.1947C50.8937 46.2088 50.7479 46.3546 50.7526 46.364C50.7338 46.3217 50.9642 46.2935 50.9689 46.2746C50.9689 46.2746 50.6867 45.9783 50.6491 45.936L49.4026 47.1824C49.3791 47.1542 49.3744 47.1307 49.3603 47.1025C49.3979 47.1824 49.3509 47.2013 49.365 47.1307C49.4026 46.9708 49.2944 47.333 49.3415 47.2248C49.3038 47.3094 49.2944 47.3424 49.1815 47.4223C49.2286 47.3894 49.0075 47.4741 48.9558 47.4882C48.4148 47.6152 47.7422 47.4741 47.2107 47.3377C46.7639 47.2201 46.3452 47.0555 46.19 46.618C46.0912 46.3405 46.11 46.0301 46.1242 45.7431C46.1383 45.4891 46.1242 45.1787 46.2417 44.9764H44.7178C44.7836 45.0893 44.4496 45.6161 44.3791 45.7384C44.1627 46.1288 43.9228 46.5145 43.65 46.8626C43.3584 47.2389 43.2831 47.7422 43.65 48.1091C43.9558 48.4148 44.6049 48.4854 44.8965 48.1091L44.9012 48.1138Z" fill="#050101"/>
</g>
</g>
</g>
</svg>
