<svg width="60" height="67" viewBox="0 0 60 67" fill="none" xmlns="http://www.w3.org/2000/svg">
<g id="menu icon01 1">
<g id="Group">
<g id="Home">
<g id="&#235;&#160;&#136;&#236;&#157;&#180;&#236;&#150;&#180;_7">
<path id="Vector" d="M57.9257 43.8241H52.6247L48.1656 40.6444L46.1806 45.047C46.1806 45.047 26.8768 58.4948 19.3603 43.8241L15.3857 45.6726L12.9727 41.0348L8.51367 43.8194L3.01038 43.9652C3.01038 43.9652 6.85798 53.3678 11.7404 57.4271L10.969 50.7526C10.969 50.7526 16.9568 57.1025 24.9248 59.4591C27.4036 60.1929 35.8091 60.8184 42.1872 57.1684C48.5654 53.5184 50.4187 50.7526 50.4187 50.7526L49.4309 56.905C49.4309 56.905 57.9304 48.857 57.9304 43.8194L57.9257 43.8241Z" fill="#F8B62D"/>
<path id="Vector_2" d="M50.0377 50.3386C50.0377 50.3386 48.1327 53.142 46.7545 54.1956L49.4262 57.0461L50.0236 56.3264C50.0236 56.3264 50.381 51.6651 50.0377 50.3386Z" fill="#956134"/>
<path id="Vector_3" d="M14.7272 54.3226L11.7028 57.1401C11.7028 57.1401 11.0207 53.5089 10.9643 50.762L14.7272 54.3226Z" fill="#956134"/>
</g>
<g id="Group_2">
<path id="Vector_4" d="M57.6858 43.2597C55.9925 43.382 54.3086 43.4008 52.6435 43.3161C51.35 42.2672 50 41.3124 48.6124 40.4516C48.3867 40.3152 48.1091 40.2728 47.8693 40.3387C47.6247 40.3998 47.4412 40.5551 47.3707 40.762C46.8203 42.3378 46.0395 43.8288 45.0659 45.1882L42.5165 43.3679C42.4742 43.3349 42.4271 43.3114 42.3848 43.2879C42.3754 43.2832 42.366 43.2785 42.3566 43.2738C42.3189 43.255 42.2813 43.2409 42.2484 43.2268C42.239 43.2268 42.2296 43.2173 42.2202 43.2173C42.1778 43.2032 42.1355 43.1891 42.0885 43.1797C42.079 43.1797 42.0696 43.1797 42.0555 43.175C42.0226 43.1703 41.9944 43.1656 41.9615 43.1609C41.9473 43.1609 41.9332 43.1609 41.9144 43.1609C41.8862 43.1609 41.8627 43.1609 41.8345 43.1609C41.8203 43.1609 41.8109 43.1609 41.7968 43.1609C41.7639 43.1656 41.731 43.175 41.698 43.1844C41.6698 43.1938 41.6416 43.2079 41.6134 43.2268C41.6087 43.2268 41.5993 43.2315 41.5899 43.2362C41.5616 43.255 41.5381 43.2785 41.5193 43.302C41.5193 43.302 41.5146 43.3067 41.5099 43.3114C40.3105 44.8636 38.7677 46.1618 37.0414 47.0791C34.873 48.2362 32.4224 48.7818 29.9295 48.6689C27.46 48.5607 25.0659 47.7893 23.0057 46.4347C21.7169 45.5927 20.5692 44.5297 19.6237 43.3114C19.6002 43.2832 19.572 43.255 19.5438 43.2362C19.5391 43.2362 19.5297 43.2315 19.5249 43.2268C19.4967 43.2126 19.4685 43.1938 19.4403 43.1844C19.4074 43.175 19.3744 43.1656 19.3415 43.1609C19.3274 43.1609 19.318 43.1609 19.3039 43.1609C19.2757 43.1609 19.2521 43.1609 19.2239 43.1609C19.2098 43.1609 19.1957 43.1609 19.1769 43.1609C19.144 43.1609 19.1157 43.1656 19.0828 43.175C19.0734 43.175 19.064 43.175 19.0499 43.1797C19.0075 43.1891 18.9652 43.2032 18.9182 43.2173C18.9088 43.2173 18.8994 43.2268 18.89 43.2315C18.8523 43.2456 18.8147 43.2597 18.7818 43.2785C18.7724 43.2832 18.763 43.2879 18.7535 43.2926C18.7065 43.3161 18.6642 43.3443 18.6218 43.3726L16.0725 45.1929C15.1035 43.8335 14.318 42.3425 13.7677 40.7667C13.6971 40.5598 13.5137 40.4045 13.2691 40.3434C13.0245 40.2823 12.747 40.3199 12.5259 40.4563C11.1336 41.3171 9.78835 42.2719 8.49484 43.3208C6.83445 43.4055 5.15053 43.3867 3.45251 43.2644C3.1797 43.2456 2.93511 43.3867 2.794 43.6548C2.65289 43.9229 2.64348 44.2898 2.76107 44.6331C3.61243 47.0602 4.78835 49.3697 6.23238 51.4864C7.68111 53.603 9.40265 55.5268 11.3453 57.2014C11.4676 57.3095 11.604 57.3895 11.7404 57.4459C11.7404 57.4459 11.7404 57.4459 11.7451 57.4459C11.7874 57.4648 11.8297 57.4789 11.8721 57.4883C11.8815 57.4883 11.8909 57.493 11.9003 57.4977C11.9426 57.5071 11.985 57.5165 12.0273 57.5212C12.0367 57.5212 12.0461 57.5212 12.0555 57.5212C12.0884 57.5212 12.1214 57.5259 12.159 57.5259C12.1684 57.5259 12.1825 57.5259 12.1919 57.5259C12.2343 57.5259 12.2719 57.5212 12.3095 57.5165C12.3142 57.5165 12.3189 57.5165 12.3236 57.5165C12.3613 57.5118 12.3942 57.5024 12.4271 57.4883C12.4318 57.4883 12.4365 57.4883 12.4459 57.4836C12.5212 57.4554 12.587 57.4177 12.6482 57.3707C12.6529 57.3707 12.6576 57.3613 12.6623 57.3566C12.6905 57.3331 12.7187 57.3048 12.7423 57.2719L14.7178 54.7931C15.3293 55.2823 15.9643 55.7432 16.6228 56.1712C18.5137 57.413 20.5739 58.4008 22.7329 59.0969C24.8871 59.7931 27.1402 60.1976 29.3979 60.2964C31.651 60.3998 33.9229 60.2023 36.1383 59.7084C38.349 59.2145 40.4939 58.4196 42.493 57.3566C43.8711 56.6228 45.1835 55.762 46.4017 54.7931L48.3773 57.2719C48.4008 57.3048 48.429 57.3284 48.4572 57.3566C48.4619 57.3566 48.4666 57.366 48.4713 57.3707C48.5325 57.4177 48.5983 57.4601 48.6736 57.4836C48.6783 57.4836 48.683 57.4836 48.6924 57.4883C48.7253 57.4977 48.763 57.5071 48.7959 57.5165C48.8006 57.5165 48.8053 57.5165 48.81 57.5165C48.8476 57.5212 48.89 57.5259 48.9276 57.5259C48.937 57.5259 48.9511 57.5259 48.9605 57.5259C48.9934 57.5259 49.0264 57.5259 49.064 57.5212C49.0734 57.5212 49.0828 57.5212 49.0922 57.5212C49.1345 57.5165 49.1769 57.5071 49.2192 57.4977C49.2286 57.4977 49.238 57.493 49.2474 57.4883C49.2898 57.4742 49.3321 57.4648 49.3744 57.4459C49.3744 57.4459 49.3744 57.4459 49.3791 57.4459C49.5108 57.3942 49.6425 57.3142 49.7601 57.2155C49.7601 57.2155 49.7695 57.2108 49.7742 57.2061C51.7169 55.5316 53.4384 53.6125 54.8871 51.4911C56.3359 49.3744 57.5071 47.0649 58.3584 44.6379C58.4807 44.2945 58.4666 43.9276 58.3255 43.6595C58.1844 43.3914 57.9398 43.2503 57.667 43.2691L57.6858 43.2597ZM29.4403 59.445C27.2578 59.3462 25.08 58.9558 22.9963 58.2832C20.9125 57.6106 18.9182 56.6557 17.0884 55.4563C14.7978 53.9558 12.7658 52.0744 11.0913 49.9154L11.604 49.5203C12.0979 50.16 12.6388 50.7903 13.2079 51.3876C13.2926 51.477 13.4008 51.5193 13.5137 51.5193C13.6171 51.5193 13.7206 51.4817 13.8053 51.4017C13.9746 51.2418 13.9793 50.9737 13.8194 50.8044C13.2691 50.2258 12.747 49.619 12.2672 49.0029L12.8128 48.5795C13.2738 49.1769 13.7818 49.7649 14.318 50.3293C14.4027 50.4187 14.5108 50.461 14.6237 50.461C14.7272 50.461 14.8307 50.4234 14.9154 50.3434C15.0847 50.1835 15.0894 49.9154 14.9295 49.746C14.4121 49.2051 13.9276 48.636 13.4807 48.0621L14.0264 47.6388C14.4591 48.1985 14.9295 48.7442 15.4281 49.271C15.5127 49.3603 15.6209 49.4027 15.7338 49.4027C15.8373 49.4027 15.9408 49.365 16.0254 49.2851C16.1947 49.1252 16.1995 48.857 16.0395 48.6877C15.5598 48.1844 15.1082 47.6576 14.6943 47.1214L15.2399 46.6981C15.6397 47.2155 16.0772 47.7235 16.5381 48.2079C16.6228 48.2973 16.731 48.3396 16.8439 48.3396C16.9473 48.3396 17.0508 48.302 17.1355 48.222C17.3048 48.0621 17.3095 47.794 17.1496 47.6247C16.7074 47.159 16.2888 46.6698 15.9078 46.1807L16.4535 45.7573C16.8203 46.2324 17.2249 46.7028 17.6482 47.1496C17.7329 47.239 17.841 47.2813 17.9539 47.2813C18.0574 47.2813 18.1609 47.2437 18.2456 47.1637C18.4149 47.0038 18.4196 46.7357 18.2597 46.5664C17.8504 46.1383 17.4694 45.6915 17.1214 45.2399L17.667 44.8166C18.001 45.2493 18.3725 45.6774 18.763 46.0913C18.8476 46.1807 18.9558 46.223 19.0687 46.223C19.1722 46.223 19.2757 46.1854 19.3603 46.1054C19.5297 45.9455 19.5344 45.6774 19.3744 45.508C19.0028 45.1176 18.6548 44.7131 18.3349 44.2992L18.9511 43.8241C19.953 45.1176 21.1712 46.2418 22.5353 47.1355C24.7225 48.5701 27.2625 49.3933 29.8824 49.5062C32.5212 49.6284 35.127 49.0452 37.4271 47.8175C39.2615 46.8439 40.8937 45.4704 42.1684 43.8194L42.7846 44.2945C42.4647 44.7084 42.1214 45.1082 41.7686 45.4798C41.6087 45.6491 41.6134 45.9173 41.7827 46.0772C41.8627 46.1524 41.9709 46.1948 42.0743 46.1948C42.1872 46.1948 42.2954 46.1524 42.3801 46.0631C42.7564 45.668 43.1186 45.2446 43.4525 44.8119L43.9981 45.2352C43.6454 45.6868 43.2691 46.1289 42.8787 46.5381C42.7187 46.7075 42.7234 46.9756 42.8928 47.1355C42.9727 47.2108 43.0809 47.2531 43.1844 47.2531C43.2973 47.2531 43.4055 47.2108 43.4901 47.1214C43.8994 46.6887 44.2945 46.2277 44.6661 45.7526L45.2117 46.176C44.8307 46.6698 44.4215 47.1496 43.9934 47.5965C43.8335 47.7658 43.8382 48.0339 44.0075 48.1938C44.0875 48.2691 44.1957 48.3114 44.2992 48.3114C44.4121 48.3114 44.5202 48.2691 44.6049 48.1797C45.0518 47.7093 45.4798 47.2108 45.8796 46.6934L46.4252 47.1167C46.0113 47.6529 45.5692 48.1703 45.1082 48.6548C44.9483 48.8241 44.953 49.0922 45.1223 49.2522C45.2023 49.3274 45.3105 49.3697 45.4139 49.3697C45.5268 49.3697 45.635 49.3274 45.7197 49.238C46.1995 48.73 46.6651 48.1891 47.0932 47.6341L47.6388 48.0574C47.1919 48.6313 46.7169 49.191 46.2183 49.7131C46.0583 49.8824 46.0631 50.1506 46.2324 50.3105C46.3123 50.3857 46.4205 50.4281 46.524 50.4281C46.6369 50.4281 46.7451 50.3857 46.8298 50.2964C47.3472 49.7507 47.841 49.1722 48.3067 48.5748L48.8523 48.9982C48.3773 49.6143 47.8646 50.2117 47.333 50.7714C47.1731 50.9408 47.1778 51.2089 47.3472 51.3688C47.4271 51.4441 47.5353 51.4864 47.6388 51.4864C47.7517 51.4864 47.8599 51.4441 47.9445 51.3547C48.4949 50.7714 49.0264 50.1553 49.5202 49.5156L50.033 49.9154C47.9022 52.6717 45.1788 54.9718 42.0979 56.604C40.1646 57.6294 38.0903 58.4008 35.9549 58.8759C33.8194 59.3556 31.6181 59.5438 29.4403 59.445ZM8.85232 44.2051C10.1646 43.048 11.5428 41.9897 12.968 41.0395C13.5466 42.6905 14.365 44.2522 15.381 45.6774L10.5221 49.144C10.3998 49.2286 10.3105 49.3509 10.2587 49.4873C10.2587 49.492 10.2587 49.5014 10.254 49.5062C10.2446 49.525 10.2399 49.5485 10.2352 49.5673C10.2352 49.5767 10.2305 49.5861 10.2258 49.6002C10.2258 49.619 10.2164 49.6379 10.2164 49.6567C10.2164 49.6708 10.2164 49.6802 10.2164 49.6943C10.2164 49.7131 10.2164 49.7319 10.2117 49.7507C10.2117 49.7554 10.2117 49.7601 10.2117 49.7649C10.2023 49.9906 10.2023 50.2164 10.1976 50.4422C10.1176 50.334 10.0376 50.2305 9.95768 50.1223C9.82128 49.9342 9.55317 49.8966 9.36973 50.033C9.18158 50.1694 9.14395 50.4375 9.28036 50.6209C9.58139 51.0301 9.90124 51.4347 10.2305 51.8298C10.2493 52.1637 10.2728 52.4977 10.3058 52.8363C9.77894 52.2437 9.27095 51.6228 8.79588 50.9831C8.65947 50.795 8.39136 50.7573 8.20792 50.8937C8.01977 51.0348 7.98214 51.2982 8.11855 51.4817C8.8288 52.4412 9.60491 53.3585 10.4233 54.2098C10.4422 54.2286 10.461 54.2427 10.4798 54.2569C10.5409 54.652 10.6068 55.0471 10.6868 55.4422C7.50237 52.366 5.03294 48.5419 3.56069 44.3462C5.34809 44.4121 7.11667 44.365 8.85703 44.2051H8.85232ZM11.8956 56.5522C11.4299 54.7602 11.1759 52.9869 11.1101 51.27C11.985 52.3048 12.9398 53.2691 13.9652 54.1487L11.8956 56.5522ZM50.0235 51.2653C49.9577 52.9822 49.7037 54.7554 49.238 56.5522L47.1684 54.1487C48.1938 53.2644 49.1487 52.3001 50.0235 51.2653ZM50.4563 55.4422C50.5362 55.0471 50.6021 54.652 50.6632 54.2569C50.6821 54.2427 50.7009 54.2286 50.7197 54.2098C51.5381 53.3585 52.3142 52.4412 53.0245 51.4817C53.1656 51.2935 53.1233 51.0301 52.9351 50.8937C52.747 50.7526 52.4836 50.795 52.3472 50.9831C51.8721 51.6228 51.3641 52.2437 50.8373 52.8411C50.8702 52.5024 50.8937 52.1684 50.9125 51.8345C51.2418 51.4394 51.5616 51.0348 51.8674 50.6256C52.0038 50.4375 51.9662 50.1741 51.778 50.0377C51.5899 49.9013 51.3265 49.9389 51.1901 50.127C51.1101 50.2352 51.0301 50.3434 50.9455 50.4516C50.9455 50.2258 50.9408 50 50.9313 49.7743C50.9313 49.7649 50.9313 49.7601 50.9313 49.7554C50.9313 49.7413 50.9313 49.7272 50.9313 49.7131C50.9313 49.699 50.9313 49.6802 50.9266 49.6661C50.9266 49.652 50.9219 49.6379 50.9172 49.6237C50.9172 49.6096 50.9125 49.5955 50.9078 49.5814C50.9078 49.5626 50.8984 49.5485 50.8937 49.5297C50.8937 49.5203 50.889 49.5109 50.8843 49.4967C50.8749 49.4732 50.8655 49.4497 50.8514 49.4262C50.8514 49.4262 50.8514 49.4215 50.8514 49.4168C50.7996 49.3133 50.7197 49.2239 50.6256 49.1534L45.7667 45.6868C46.7827 44.2616 47.6012 42.6999 48.1797 41.049C49.6049 42.0038 50.9831 43.0574 52.2954 44.2145C54.0358 44.3744 55.8044 44.4262 57.5917 44.3556C56.1242 48.5513 53.6548 52.3754 50.4704 55.4516L50.4563 55.4422Z" fill="#040000"/>
<g id="Group_3">
<path id="Vector_5" d="M40.7055 7.11197C40.4892 7.0226 40.2446 7.12608 40.1552 7.34245L38.4713 11.4111C38.3819 11.6275 38.4854 11.8721 38.7018 11.9615C38.7535 11.985 38.8099 11.9944 38.8617 11.9944C39.0263 11.9944 39.1862 11.8956 39.2521 11.7357L40.936 7.667C41.0254 7.45063 40.9219 7.20604 40.7055 7.11667V7.11197Z" fill="#C9A063"/>
<path id="Vector_6" d="M37.6059 13.4949L37.1825 14.5203C37.0932 14.7366 37.1966 14.9812 37.413 15.0706C37.4647 15.0941 37.5212 15.1035 37.5729 15.1035C37.7376 15.1035 37.8975 15.0047 37.9633 14.8448L38.3867 13.8194C38.476 13.603 38.3726 13.3584 38.1562 13.2691C37.9398 13.1797 37.6952 13.2832 37.6059 13.4996V13.4949Z" fill="#C9A063"/>
<path id="Vector_7" d="M45.889 16.6887C45.9972 16.6887 46.1054 16.6463 46.1853 16.5664L49.2991 13.4525C49.4638 13.2879 49.4638 13.0198 49.2991 12.8552C49.1345 12.6905 48.8664 12.6905 48.7018 12.8552L45.5879 15.969C45.4233 16.1336 45.4233 16.4017 45.5879 16.5664C45.6726 16.651 45.7761 16.6887 45.8843 16.6887H45.889Z" fill="#C9A063"/>
<path id="Vector_8" d="M43.9981 17.5635L43.2126 18.349C43.048 18.5137 43.048 18.7818 43.2126 18.9464C43.2972 19.0311 43.4007 19.0687 43.5089 19.0687C43.6171 19.0687 43.7253 19.0264 43.8052 18.9464L44.5908 18.1609C44.7554 17.9963 44.7554 17.7282 44.5908 17.5635C44.4261 17.3989 44.158 17.3989 43.9934 17.5635H43.9981Z" fill="#C9A063"/>
<path id="Vector_9" d="M50.5879 23.7207C50.6397 23.7207 50.6961 23.7113 50.7479 23.6878L54.8165 22.0039C55.0329 21.9145 55.1317 21.6699 55.047 21.4535C54.9576 21.2372 54.7131 21.1337 54.4967 21.2231L50.428 22.907C50.2116 22.9963 50.1129 23.2409 50.1975 23.4573C50.2634 23.6219 50.4233 23.716 50.5879 23.716V23.7207Z" fill="#C9A063"/>
<path id="Vector_10" d="M47.4789 25.0094C47.5306 25.0094 47.587 25 47.6388 24.9765L48.6642 24.5532C48.8806 24.4638 48.9793 24.2192 48.8947 24.0028C48.8053 23.7865 48.5607 23.6877 48.3443 23.7724L47.3189 24.1957C47.1026 24.2851 47.0038 24.5296 47.0885 24.746C47.1543 24.9106 47.3142 25.0047 47.4789 25.0047V25.0094Z" fill="#C9A063"/>
<path id="Vector_11" d="M10.5457 23.7206C10.7103 23.7206 10.8702 23.6219 10.9361 23.4619C11.0254 23.2456 10.922 23.001 10.7056 22.9116L6.63691 21.2277C6.42054 21.1383 6.17595 21.2418 6.08658 21.4582C5.99721 21.6745 6.10069 21.9191 6.31706 22.0085L10.3857 23.6924C10.4375 23.7159 10.4939 23.7253 10.5457 23.7253V23.7206Z" fill="#C9A063"/>
<path id="Vector_12" d="M12.4647 24.5532L13.4901 24.9766C13.5418 25.0001 13.5983 25.0095 13.65 25.0095C13.8147 25.0095 13.9746 24.9107 14.0404 24.7508C14.1298 24.5344 14.0263 24.2898 13.81 24.2005L12.7846 23.7771C12.5682 23.6878 12.3236 23.7912 12.2342 24.0076C12.1449 24.224 12.2483 24.4686 12.4647 24.5579V24.5532Z" fill="#C9A063"/>
<path id="Vector_13" d="M15.2399 16.6887C15.3481 16.6887 15.4562 16.6463 15.5362 16.5664C15.7008 16.4017 15.7008 16.1336 15.5362 15.969L12.4224 12.8552C12.2577 12.6905 11.9896 12.6905 11.825 12.8552C11.6604 13.0198 11.6604 13.2879 11.825 13.4525L14.9388 16.5664C15.0235 16.651 15.127 16.6887 15.2352 16.6887H15.2399Z" fill="#C9A063"/>
<path id="Vector_14" d="M16.5381 17.5635C16.3735 17.7282 16.3735 17.9963 16.5381 18.1609L17.3236 18.9464C17.4083 19.0311 17.5117 19.0687 17.6199 19.0687C17.7281 19.0687 17.8363 19.0264 17.9163 18.9464C18.0809 18.7818 18.0809 18.5137 17.9163 18.349L17.1307 17.5635C16.9661 17.3989 16.698 17.3989 16.5334 17.5635H16.5381Z" fill="#C9A063"/>
<path id="Vector_15" d="M22.2718 11.9944C22.3236 11.9944 22.38 11.985 22.4318 11.9614C22.6481 11.8721 22.7469 11.6275 22.6623 11.4111L20.9783 7.34244C20.889 7.12607 20.6444 7.02729 20.428 7.11196C20.2116 7.20133 20.1129 7.44592 20.1975 7.66229L21.8814 11.731C21.9473 11.8956 22.1072 11.9897 22.2718 11.9897V11.9944Z" fill="#C9A063"/>
<path id="Vector_16" d="M22.9727 13.2644C22.7564 13.3537 22.6576 13.5983 22.7423 13.8147L23.1656 14.8401C23.2315 15.0047 23.3914 15.0988 23.556 15.0988C23.6077 15.0988 23.6642 15.0894 23.7159 15.0659C23.9323 14.9765 24.0311 14.7319 23.9464 14.5155L23.5231 13.4901C23.4337 13.2738 23.1891 13.175 22.9727 13.2597V13.2644Z" fill="#C9A063"/>
<path id="Vector_17" d="M30.9878 5.51745C30.9878 5.28226 30.7996 5.09412 30.5644 5.09412C30.3293 5.09412 30.1411 5.28226 30.1411 5.51745V9.92478C30.1411 10.16 30.3293 10.3481 30.5644 10.3481C30.7996 10.3481 30.9878 10.16 30.9878 9.92478V5.51745Z" fill="#C9A063"/>
<path id="Vector_18" d="M30.5644 11.7545C30.3293 11.7545 30.1411 11.9427 30.1411 12.1778V13.2879C30.1411 13.5231 30.3293 13.7112 30.5644 13.7112C30.7996 13.7112 30.9878 13.5231 30.9878 13.2879V12.1778C30.9878 11.9427 30.7996 11.7545 30.5644 11.7545Z" fill="#C9A063"/>
<path id="Vector_19" d="M35.2069 10.4187L36.0677 6.09601C36.1148 5.86553 35.9642 5.64446 35.7385 5.60212C35.508 5.55509 35.2869 5.7056 35.2446 5.93138L34.3838 10.2541C34.3368 10.4845 34.4873 10.7056 34.7131 10.7479C34.7413 10.7526 34.7695 10.7573 34.7977 10.7573C34.9953 10.7573 35.1693 10.6162 35.2116 10.4187H35.2069Z" fill="#C9A063"/>
<path id="Vector_20" d="M34.4355 12.1354C34.2098 12.0884 33.984 12.2389 33.9417 12.4647L33.7253 13.5513C33.6783 13.7817 33.8288 14.0028 34.0546 14.0451C34.0828 14.0498 34.111 14.0545 34.1392 14.0545C34.3368 14.0545 34.5108 13.9134 34.5531 13.7159L34.7695 12.6293C34.8165 12.3989 34.666 12.1778 34.4403 12.1354H34.4355Z" fill="#C9A063"/>
<path id="Vector_21" d="M45.2869 9.55787C45.0941 9.42617 44.8307 9.48261 44.7037 9.67546L42.2578 13.3396C42.1261 13.5325 42.1825 13.7959 42.3753 13.9229C42.4459 13.9699 42.5306 13.9934 42.6105 13.9934C42.7469 13.9934 42.8786 13.9276 42.9633 13.8053L45.4092 10.1411C45.5409 9.94827 45.4845 9.68487 45.2916 9.55787H45.2869Z" fill="#C9A063"/>
<path id="Vector_22" d="M40.5033 16.7215C40.5738 16.7686 40.6585 16.7921 40.7385 16.7921C40.8749 16.7921 41.0066 16.7262 41.0912 16.6039L41.7074 15.682C41.8391 15.4892 41.7827 15.2258 41.5898 15.0988C41.397 14.9671 41.1336 15.0235 41.0066 15.2164L40.3904 16.1383C40.2587 16.3311 40.3151 16.5945 40.508 16.7215H40.5033Z" fill="#C9A063"/>
<path id="Vector_23" d="M52.5965 16.8721C52.4648 16.6793 52.2061 16.6275 52.0132 16.7545L48.349 19.2004C48.1562 19.3321 48.1045 19.5908 48.2315 19.7837C48.3114 19.906 48.4478 19.9718 48.5842 19.9718C48.6642 19.9718 48.7442 19.9483 48.8194 19.9013L52.4836 17.4554C52.6764 17.3237 52.7282 17.065 52.6012 16.8721H52.5965Z" fill="#C9A063"/>
<path id="Vector_24" d="M45.7855 21.8439C45.8655 21.8439 45.9454 21.8204 46.0207 21.7733L46.9426 21.1572C47.1355 21.0255 47.1872 20.7667 47.0602 20.5739C46.9285 20.381 46.6698 20.3293 46.477 20.4563L45.555 21.0725C45.3622 21.2042 45.3104 21.4629 45.4374 21.6557C45.5174 21.778 45.6538 21.8439 45.7902 21.8439H45.7855Z" fill="#C9A063"/>
<path id="Vector_25" d="M51.8203 27.7847C51.8485 27.7847 51.8768 27.7847 51.905 27.7752L56.2277 26.9145C56.4581 26.8674 56.6039 26.6464 56.5569 26.4206C56.5099 26.1901 56.2888 26.0443 56.063 26.0913L51.7403 26.9521C51.5099 26.9991 51.3641 27.2202 51.4111 27.446C51.4487 27.6482 51.6275 27.7847 51.825 27.7847H51.8203Z" fill="#C9A063"/>
<path id="Vector_26" d="M5.07056 26.0913C4.84478 26.0442 4.61901 26.1947 4.57667 26.4205C4.52964 26.651 4.68015 26.8721 4.90593 26.9144L9.2286 27.7752C9.25682 27.7799 9.28504 27.7846 9.31327 27.7846C9.51082 27.7846 9.68486 27.6435 9.72719 27.4459C9.77423 27.2154 9.62371 26.9944 9.39793 26.952L5.07526 26.0913H5.07056Z" fill="#C9A063"/>
<path id="Vector_27" d="M12.5447 19.9718C12.6811 19.9718 12.8128 19.906 12.8975 19.7837C13.0292 19.5908 12.9727 19.3274 12.7799 19.2004L9.11573 16.7545C8.92288 16.6228 8.65948 16.6793 8.53248 16.8721C8.40077 17.065 8.45722 17.3284 8.65007 17.4554L12.3142 19.9013C12.3848 19.9483 12.4694 19.9718 12.5494 19.9718H12.5447Z" fill="#C9A063"/>
<path id="Vector_28" d="M14.1863 21.1572L15.1082 21.7733C15.1787 21.8204 15.2634 21.8439 15.3434 21.8439C15.4798 21.8439 15.6115 21.778 15.6961 21.6557C15.8278 21.4629 15.7714 21.1995 15.5785 21.0725L14.6566 20.4563C14.4638 20.3246 14.2004 20.381 14.0734 20.5739C13.9417 20.7667 13.9981 21.0302 14.191 21.1572H14.1863Z" fill="#C9A063"/>
<path id="Vector_29" d="M18.5278 13.9934C18.6077 13.9934 18.6877 13.9699 18.7629 13.9229C18.9558 13.7912 19.0075 13.5325 18.8805 13.3396L16.4346 9.67546C16.3029 9.48261 16.0442 9.43087 15.8514 9.55787C15.6585 9.68957 15.6068 9.94827 15.7338 10.1411L18.1797 13.8053C18.2596 13.9276 18.3961 13.9934 18.5325 13.9934H18.5278Z" fill="#C9A063"/>
<path id="Vector_30" d="M19.5437 15.0988C19.3509 15.2305 19.2992 15.4892 19.4262 15.682L20.0423 16.6039C20.1223 16.7262 20.2587 16.7921 20.3951 16.7921C20.4751 16.7921 20.555 16.7686 20.6303 16.7215C20.8231 16.5898 20.8749 16.3311 20.7479 16.1383L20.1317 15.2164C20 15.0235 19.7413 14.9718 19.5485 15.0988H19.5437Z" fill="#C9A063"/>
<path id="Vector_31" d="M26.7498 10.254L25.889 5.93133C25.842 5.70085 25.6209 5.55504 25.3951 5.60207C25.1647 5.64911 25.0188 5.87018 25.0659 6.09596L25.9266 10.4186C25.9643 10.6209 26.143 10.7573 26.3406 10.7573C26.3688 10.7573 26.397 10.7573 26.4252 10.7479C26.6557 10.7009 26.8015 10.4798 26.7545 10.254H26.7498Z" fill="#C9A063"/>
<path id="Vector_32" d="M26.5805 13.7206C26.6181 13.9229 26.7968 14.0593 26.9944 14.0593C27.0226 14.0593 27.0508 14.0593 27.0791 14.0498C27.3095 14.0028 27.4553 13.7817 27.4083 13.556L27.1919 12.4694C27.1449 12.2389 26.9238 12.0931 26.6981 12.1402C26.4676 12.1872 26.3218 12.4083 26.3688 12.634L26.5852 13.7206H26.5805Z" fill="#C9A063"/>
</g>
</g>
<g id="&#235;&#160;&#136;&#236;&#157;&#180;&#236;&#150;&#180;_6">
<path id="Vector_33" d="M42.9116 17.4366C42.9116 17.4366 43.048 17.4225 43.2596 17.4225C43.9464 17.4272 45.461 17.5918 46.1007 18.8665C46.9426 20.541 47.8786 23.3538 47.1684 25.0801C46.4581 26.8063 46.3076 28.0481 45.1646 28.335C44.0216 28.6219 42.8692 28.6407 42.9069 28.335C42.9445 28.0293 41.7168 26.6699 41.9379 25.6962C42.159 24.7226 42.5494 23.6172 42.5494 23.6172L38.3255 23.5279C38.3255 23.5279 37.8128 22.6436 38.7488 20.5598C39.6848 18.4761 41.5569 17.5918 41.5569 17.5918L43.0386 17.4131" fill="#A48B78"/>
<path id="Vector_34" d="M38.1938 23.335H42.2154C42.2154 23.335 40.8796 26.5429 43.4054 28.4055L38.7065 28.5043C38.7065 28.5043 37.4976 25.7479 38.1938 23.3397V23.335Z" fill="#C9A063"/>
<path id="Vector_35" d="M38.1938 43.97H16.3782C16.3782 43.97 13.7065 45.2023 14.1486 47.2578C14.5908 49.3133 15.4704 50.7574 17.3754 51.3406C19.2803 51.9239 39.285 51.3406 39.285 51.3406C39.285 51.3406 35.2446 48.9888 38.3961 44.191" fill="#F4C99B"/>
<path id="Vector_36" d="M40.2728 17.4366L19.1439 17.526C19.1439 17.526 15.2399 18.6642 15.0706 21.2748C14.9012 23.8853 14.5579 26.8486 17.1402 31.2842C19.7225 35.7198 23.1279 41.4347 23.0856 43.6407L38.6265 43.97C38.6265 43.97 34.5108 47.7517 38.7159 50.7574C42.921 53.763 45.7855 49.2193 45.889 47.653C45.9925 46.0866 46.9944 43.7489 44.6049 39.3933C42.2154 35.0377 38.3537 28.9135 37.9821 25.9126C37.6105 22.9117 36.7074 21.4723 40.2775 17.4319L40.2728 17.4366Z" fill="#F4DBBD"/>
<path id="Vector_37" d="M36.7874 18.6737C36.7874 18.6737 35.8843 18.8054 35.2258 19.9672H18.0433C18.0433 19.9672 18.0433 19.0829 19.6754 18.7584C20.6679 18.5608 36.7874 18.6737 36.7874 18.6737Z" fill="white"/>
<path id="Vector_38" d="M30.9877 45.1694C30.9877 45.1694 30.5832 45.4046 30.5597 46.1854H15.889C15.889 46.1854 15.7102 45.2353 16.9708 45.2353C17.7704 45.2353 30.9877 45.1694 30.9877 45.1694Z" fill="white"/>
</g>
<g id="Group_4">
<g id="Group_5">
<path id="path5230" d="M37.1308 46.1854H41.4394C41.1948 44.8825 40.2681 43.9605 39.2286 43.9746C38.2126 43.9888 37.4224 44.826 37.1308 46.1854Z" fill="#ADD0D9"/>
<path id="Vector_39" d="M41.4393 51.9238H18.5889C15.5362 51.9238 13.8523 50.508 13.5889 47.7093C13.4666 46.4252 13.8617 45.1411 14.6425 44.2757C15.1552 43.7112 15.7667 43.3961 16.3735 43.3867H22.4647C21.9756 40.5362 20.3481 37.8363 18.6313 34.9953C16.571 31.5758 14.4356 28.0433 14.3227 24.0875C14.2568 21.8156 14.9436 19.826 16.2465 18.4854C17.2672 17.4365 18.6265 16.8533 20.0659 16.8533H42.9163C46.096 16.8533 47.874 19.1534 47.921 23.3255C47.9398 24.8307 47.5353 27.0179 46.3359 28.2267C45.7902 28.7818 45.1176 29.0734 44.3885 29.0734H39.5767C40.3669 30.8937 41.4299 32.6576 42.4788 34.3933C44.8683 38.349 47.3377 42.4412 46.4346 47.032C45.9925 49.2898 44.4168 51.9238 41.4393 51.9238ZM37.6106 46.7639C37.5729 47.0367 37.5682 47.3189 37.5964 47.6012C37.8034 49.7837 38.9887 50.762 41.4393 50.762C43.7065 50.762 44.9154 48.7206 45.2916 46.8109C46.1054 42.6623 43.8617 38.9417 41.4817 35C40.2587 32.9775 39.0122 30.9125 38.1797 28.7441C38.1703 28.7206 38.1562 28.6924 38.1515 28.6689C37.5917 27.1966 37.2249 25.6821 37.1778 24.0922C37.1731 23.8335 37.1778 23.5795 37.1825 23.3302C37.1825 23.3161 37.1825 23.302 37.1825 23.2879C37.2813 21.3547 37.9492 19.6708 39.0969 18.4901C39.2615 18.3208 39.4309 18.1656 39.6096 18.0245H20.0612C18.9229 18.0245 17.8881 18.4666 17.079 19.3039C15.9925 20.4187 15.4281 22.1073 15.4845 24.0593C15.588 27.714 17.6388 31.1148 19.6237 34.4027C21.3594 37.2766 23.1515 40.2446 23.6407 43.3961H39.2474C40.1035 43.3961 41.5757 43.7536 42.0132 46.0819C42.0461 46.2512 41.9991 46.4252 41.8909 46.5616C41.778 46.6933 41.6181 46.7733 41.444 46.7733H37.6153L37.6106 46.7639ZM16.3782 44.5532C16.1101 44.5532 15.7902 44.7366 15.5033 45.0565C14.9389 45.6868 14.6519 46.6369 14.746 47.6012C14.953 49.7837 16.1383 50.762 18.5889 50.762H37.7752C37.0132 50.0612 36.5663 49.0405 36.4393 47.714C36.3876 47.1496 36.4299 46.5899 36.5663 46.0584C36.5663 46.0442 36.571 46.0301 36.5757 46.016C36.7169 45.4751 36.952 44.9765 37.2672 44.5532H16.3829H16.3782ZM38.3961 22.7517H42.9163C43.1797 22.7517 43.4102 22.9304 43.4807 23.1844C43.5466 23.4384 43.4337 23.7065 43.2079 23.8382C42.4365 24.2757 42.3989 25.3152 42.6011 26.0725C42.8363 26.9568 43.4995 27.9116 44.3979 27.9116C44.8166 27.9116 45.1835 27.747 45.5174 27.413C46.397 26.524 46.7827 24.6802 46.7639 23.3396C46.7357 20.9125 46.0489 18.0198 42.921 18.0198C41.7827 18.0198 40.7479 18.4619 39.9389 19.2992C39.1063 20.1599 38.5748 21.3594 38.4055 22.7564L38.3961 22.7517ZM39.111 27.9116H42.2154C41.8627 27.4553 41.6087 26.9144 41.4676 26.3688C41.2277 25.461 41.2935 24.5955 41.6181 23.9135H38.3302C38.3302 23.9605 38.3302 24.0076 38.3302 24.0499C38.3678 25.3669 38.6595 26.651 39.1063 27.9069L39.111 27.9116Z" fill="#161515"/>
<path id="Vector_40" d="M34.2757 22.4412H18.7959C18.4761 22.4412 18.2126 22.1825 18.2126 21.8579C18.2126 21.5334 18.4713 21.2747 18.7959 21.2747H34.2757C34.5955 21.2747 34.8589 21.5334 34.8589 21.8579C34.8589 22.1825 34.6002 22.4412 34.2757 22.4412Z" fill="#161515"/>
<path id="Vector_41" d="M34.3462 26.8627H18.8665C18.5466 26.8627 18.2832 26.604 18.2832 26.2794C18.2832 25.9549 18.5419 25.6962 18.8665 25.6962H34.3462C34.6661 25.6962 34.9295 25.9549 34.9295 26.2794C34.9295 26.604 34.6708 26.8627 34.3462 26.8627Z" fill="#161515"/>
<path id="Vector_42" d="M36.0113 31.2842H20.5316C20.2117 31.2842 19.9483 31.0255 19.9483 30.7009C19.9483 30.3764 20.207 30.1177 20.5316 30.1177H36.0113C36.3312 30.1177 36.5946 30.3764 36.5946 30.7009C36.5946 31.0255 36.3359 31.2842 36.0113 31.2842Z" fill="#161515"/>
<path id="Vector_43" d="M38.5513 35.7103H23.0715C22.7517 35.7103 22.4883 35.4516 22.4883 35.1271C22.4883 34.8025 22.747 34.5438 23.0715 34.5438H38.5513C38.8712 34.5438 39.1346 34.8025 39.1346 35.1271C39.1346 35.4516 38.8759 35.7103 38.5513 35.7103Z" fill="#161515"/>
<path id="Vector_44" d="M40.9831 40.1317H25.5033C25.1835 40.1317 24.92 39.873 24.92 39.5485C24.92 39.2239 25.1787 38.9652 25.5033 38.9652H40.9831C41.3029 38.9652 41.5663 39.2239 41.5663 39.5485C41.5663 39.873 41.3076 40.1317 40.9831 40.1317Z" fill="#161515"/>
</g>
<path id="Vector_45" d="M40.8796 45.7997C40.8796 45.7997 39.6331 43.5843 38.3302 45.7997H40.8796Z" fill="#00A29A"/>
</g>
</g>
</g>
</g>
</svg>
