<svg width="60" height="67" viewBox="0 0 60 67" fill="none" xmlns="http://www.w3.org/2000/svg">
<g id="menu icon01 1">
<g id="Group">
<g id="Group_2">
<g id="Badge">
<g id="Group_3">
<path id="Vector" d="M51.2674 46.2277L43.2758 47.9539C43.2758 47.9539 43.0548 48.4431 44.2918 49.6378C45.5289 50.8326 45.6277 51.4581 45.6277 51.4581V54.7742L51.2674 53.2691L50.115 50.207L51.2674 46.2324V46.2277Z" fill="#DDA73B"/>
<path id="Vector_2" d="M17.7725 47.9962L9.36237 46.2277L10.7735 50.2023L9.36237 53.4854L15.2608 54.7695V50.9172L17.7725 47.9962Z" fill="#DDA73B"/>
<path id="Vector_3" d="M45.1197 51.0301C45.1197 51.0301 37.6503 53.0903 30.877 52.7563C30.877 52.7563 19.1978 52.3565 15.7406 51.0301L15.2608 58.269C15.2608 58.269 26.1404 60.0705 30.4442 60.1928C34.7481 60.3151 45.6277 58.1326 45.6277 58.1326V51.4534L45.1244 51.0254L45.1197 51.0301Z" fill="#F1D8BB"/>
<path id="Vector_4" d="M50.3596 50.16L52.0717 46.2559C52.1423 46.1007 52.1187 45.9173 52.0153 45.7808C51.9118 45.6444 51.7377 45.5786 51.5731 45.6021C48.7979 46.0207 46.0134 46.6322 43.2805 47.4083C44.48 46.1807 44.7622 44.5014 45.0162 43.0151C45.1479 42.2202 45.2749 41.4723 45.5195 40.8937C45.7406 40.3575 46.1686 39.7649 46.6201 39.1393C47.5232 37.8834 48.5486 36.4629 48.5486 34.652C48.5486 32.8411 47.5232 31.4205 46.6201 30.1647C46.1686 29.5391 45.7406 28.9464 45.5195 28.4102C45.2796 27.8269 45.1526 27.0791 45.0162 26.2888C44.7622 24.7884 44.4753 23.0856 43.2429 21.858C42.0152 20.6303 40.3125 20.3387 38.8121 20.0847C38.0171 19.953 37.2692 19.826 36.6907 19.5814C36.1545 19.3603 35.5618 18.9323 34.9362 18.4807C33.6804 17.5776 32.2598 16.5522 30.4489 16.5522C28.638 16.5522 27.2175 17.5776 25.9616 18.4807C25.336 18.9323 24.7434 19.3603 24.2072 19.5814C23.6286 19.8213 22.876 19.9483 22.0858 20.0847C20.5853 20.3387 18.8826 20.6256 17.6502 21.858C16.4226 23.0856 16.131 24.7884 15.877 26.2935C15.7453 27.0838 15.6183 27.8363 15.3737 28.4149C15.1526 28.9511 14.7246 29.5438 14.273 30.1694C13.3699 31.4252 12.3445 32.8458 12.3445 34.6567C12.3445 36.4676 13.3699 37.8881 14.273 39.144C14.7246 39.7696 15.1526 40.3622 15.3737 40.8984C15.6136 41.477 15.7406 42.2296 15.877 43.0198C16.1263 44.5062 16.4132 46.1901 17.6126 47.413C14.8798 46.6369 12.0999 46.0254 9.32005 45.6068C9.15072 45.5833 8.98138 45.6491 8.8779 45.7856C8.77442 45.922 8.7509 46.1054 8.82146 46.2606L10.5336 50.1647L8.84027 53.2362C8.76501 53.3726 8.76031 53.5325 8.83087 53.6689C8.89672 53.8053 9.02842 53.9041 9.17894 53.9276C11.0651 54.2239 12.9607 54.6096 14.828 55.0753V58.2032C14.828 58.4196 14.9786 58.6125 15.1902 58.6642C20.2514 59.8589 25.3502 60.461 30.4489 60.461C35.5477 60.461 40.6465 59.8636 45.7076 58.6642C45.9193 58.6125 46.0698 58.4243 46.0698 58.2032V55.0753C47.9372 54.6096 49.8327 54.2239 51.7189 53.9276C51.8694 53.9041 52.0011 53.8053 52.067 53.6689C52.1328 53.5325 52.1328 53.3679 52.0576 53.2362L50.3643 50.1647L50.3596 50.16ZM18.7885 48.2832C19.8233 48.8335 20.9993 49.0358 22.0764 49.2192C22.8713 49.3509 23.6192 49.4779 24.1978 49.7225C24.734 49.9436 25.3266 50.3716 25.9522 50.8232C26.5778 51.2747 27.2504 51.7592 27.9889 52.1261C24.861 52.0085 21.7377 51.6604 18.6239 51.0819L18.7838 48.2832H18.7885ZM42.0999 48.2832L42.2598 51.0819C39.146 51.6604 36.0228 52.0038 32.8948 52.1261C33.6333 51.7592 34.3059 51.2747 34.9315 50.8232C35.5571 50.3716 36.1498 49.9436 36.686 49.7225C37.2645 49.4826 38.0171 49.3556 38.8073 49.2192C39.8845 49.0358 41.0604 48.8335 42.0952 48.2832H42.0999ZM30.4442 21.0113C37.9607 21.0113 44.0755 27.1261 44.0755 34.6426C44.0755 42.159 37.9607 48.2738 30.4442 48.2738C22.9278 48.2738 16.813 42.159 16.813 34.6426C16.813 27.1261 22.9278 21.0113 30.4442 21.0113ZM9.98327 53.1045L11.4649 50.414C11.5355 50.287 11.5449 50.1317 11.4837 49.9953L10.0256 46.6651C12.4903 47.0697 14.9597 47.6247 17.3821 48.3161L14.9739 50.5127C14.9739 50.5127 14.9692 50.5221 14.9645 50.5268C14.9221 50.5645 14.8892 50.6115 14.8657 50.6633C14.8657 50.6633 14.8657 50.6727 14.861 50.6774C14.8422 50.7244 14.828 50.7761 14.8233 50.8279C14.8233 50.8373 14.8233 50.842 14.8233 50.8514C14.8233 50.8561 14.8233 50.8608 14.8233 50.8655V54.1063C13.2241 53.7159 11.6013 53.3773 9.98327 53.1045ZM45.1197 57.8316C35.3784 60.08 25.5054 60.08 15.7641 57.8316V51.4582C16.5402 51.6369 17.3163 51.7921 18.0971 51.9427C18.0971 51.9427 18.1018 51.9427 18.1065 51.9427C26.305 53.5043 34.5787 53.5043 42.7725 51.9427C42.7725 51.9427 42.7772 51.9427 42.7819 51.9427C43.5581 51.7921 44.3389 51.6369 45.115 51.4582V57.8316H45.1197ZM46.0651 54.1016V50.8608C46.0651 50.8608 46.0651 50.8514 46.0651 50.8467C46.0651 50.8373 46.0651 50.8326 46.0651 50.8232C46.0651 50.7714 46.051 50.7197 46.0275 50.6727C46.0275 50.6727 46.0275 50.6633 46.0228 50.6586C45.9993 50.6068 45.9663 50.5645 45.924 50.5221C45.924 50.5221 45.9193 50.5127 45.9146 50.508L43.5063 48.3114C45.9334 47.62 48.3981 47.0649 50.8629 46.6604L49.4047 49.9906C49.3436 50.127 49.353 50.2776 49.4235 50.4093L50.9052 53.0998C49.2871 53.3726 47.6691 53.7065 46.0651 54.1016Z" fill="#231815"/>
<path id="Vector_5" d="M30.4442 49.8306C38.8168 49.8306 45.6277 43.0197 45.6277 34.6472C45.6277 26.2747 38.8168 19.4637 30.4442 19.4637C22.0717 19.4637 15.2608 26.2747 15.2608 34.6472C15.2608 43.0197 22.0717 49.8306 30.4442 49.8306Z" fill="#DDA73B"/>
<g id="Group_4">
<path id="Vector_6" d="M30.4443 46.8815C37.1893 46.8815 42.6832 41.3923 42.6832 34.6425C42.6832 27.8927 37.194 22.4036 30.4443 22.4036C23.6945 22.4036 18.2053 27.8927 18.2053 34.6425C18.2053 41.3923 23.6945 46.8815 30.4443 46.8815Z" fill="#F1D8BB"/>
<path id="Vector_7" d="M30.4443 47.587C23.3088 47.587 17.4998 41.7827 17.4998 34.6425C17.4998 27.5023 23.3041 21.698 30.4443 21.698C37.5844 21.698 43.3888 27.5023 43.3888 34.6425C43.3888 41.7827 37.5844 47.587 30.4443 47.587ZM30.4443 23.1138C24.0849 23.1138 18.9109 28.2878 18.9109 34.6472C18.9109 41.0066 24.0849 46.1806 30.4443 46.1806C36.8036 46.1806 41.9777 41.0066 41.9777 34.6472C41.9777 28.2878 36.8036 23.1138 30.4443 23.1138Z" fill="#231815"/>
</g>
<g id="Group_5">
<path id="Vector_8" d="M27.8102 15.1788C27.5609 15.1788 27.321 15.0988 27.1187 14.953C26.7095 14.6567 26.5355 14.1298 26.6954 13.6454L27.3445 11.6416L25.6418 10.4045C25.2279 10.1082 25.0585 9.5814 25.2185 9.09692C25.3737 8.61245 25.8205 8.28789 26.3332 8.28789H28.4405L29.0943 6.28413C29.2495 5.79965 29.6964 5.4751 30.2091 5.4751C30.7218 5.4751 31.1686 5.79965 31.3238 6.28413L31.9729 8.28789H34.0802C34.5882 8.28789 35.0397 8.61245 35.1949 9.09692C35.3502 9.5814 35.1808 10.1082 34.7669 10.4045L33.0642 11.6416L33.7133 13.6454C33.8732 14.1298 33.6992 14.6567 33.2853 14.953C33.0877 15.0988 32.8478 15.1741 32.5985 15.1741C32.3492 15.1741 32.1093 15.0941 31.9071 14.9483L30.2044 13.7112L28.4969 14.9483C28.2947 15.0941 28.0595 15.1741 27.8102 15.1741V15.1788Z" fill="#F1D8BB"/>
<path id="Vector_9" d="M30.2043 5.94073C30.5101 5.94073 30.7782 6.13829 30.8723 6.42521L31.6295 8.75353H34.0802C34.3859 8.75353 34.654 8.95108 34.7481 9.23801C34.8422 9.52493 34.7387 9.84478 34.4941 10.0188L32.5138 11.4581L33.2711 13.7865C33.3652 14.0734 33.2617 14.3932 33.0171 14.5673C32.8948 14.6566 32.749 14.7037 32.6079 14.7037C32.4668 14.7037 32.321 14.6566 32.1987 14.5673L30.2137 13.1279L28.2335 14.5673C28.1112 14.6566 27.9654 14.7037 27.8243 14.7037C27.6832 14.7037 27.5374 14.6566 27.4151 14.5673C27.1705 14.3885 27.067 14.0734 27.1611 13.7865L27.9184 11.4581L25.9381 10.0188C25.6935 9.84008 25.59 9.52493 25.6841 9.23801C25.7782 8.95108 26.0463 8.75353 26.352 8.75353H28.8026L29.5599 6.42521C29.654 6.13829 29.9221 5.94073 30.2279 5.94073M30.2043 5C29.4894 5 28.8638 5.45626 28.6427 6.13829L28.0971 7.8175H26.3332C25.6183 7.8175 24.9927 8.27375 24.7716 8.95579C24.5505 9.63311 24.7904 10.3716 25.369 10.7902L26.7942 11.825L26.2486 13.5042C26.0275 14.1816 26.2674 14.92 26.8459 15.3387C27.1234 15.5409 27.4574 15.6491 27.8102 15.6491C28.1629 15.6491 28.4969 15.5409 28.7791 15.334L30.2043 14.2992L31.6342 15.3387C31.9118 15.5409 32.2504 15.6538 32.5985 15.6538C32.9466 15.6538 33.2852 15.5456 33.5675 15.3387C34.1413 14.9247 34.3812 14.1863 34.1601 13.5042L33.6145 11.825L35.0444 10.7855C35.623 10.3669 35.8629 9.62841 35.6418 8.95108C35.4254 8.27375 34.7951 7.8175 34.0802 7.8175H32.3116L31.766 6.13829C31.5496 5.46096 30.9193 5.0047 30.2043 5.0047V5Z" fill="#231815"/>
</g>
<g id="Group_6">
<path id="Vector_10" d="M37.9513 16.2841C37.7632 16.2841 37.5891 16.2277 37.4386 16.1148C37.1329 15.8937 37.0059 15.5033 37.1235 15.1412L37.4527 14.1299L36.592 13.5043C36.2862 13.2832 36.1592 12.8928 36.2768 12.5306C36.3944 12.1731 36.7237 11.9285 37.1047 11.9285H38.1677L38.497 10.9173C38.6145 10.5551 38.9485 10.3152 39.3248 10.3152C39.7011 10.3152 40.0398 10.5598 40.1526 10.9173L40.4819 11.9238H41.5449C41.9259 11.9238 42.2599 12.1684 42.3728 12.5259C42.4904 12.8834 42.3634 13.2785 42.0529 13.4996L41.1969 14.1205L41.5261 15.1317C41.6437 15.4939 41.5167 15.8843 41.2063 16.1054C41.0605 16.2136 40.8817 16.27 40.6936 16.27C40.5054 16.27 40.3314 16.2136 40.1809 16.1007L39.3248 15.4751L38.464 16.1007C38.3135 16.2089 38.1395 16.2653 37.9513 16.2653V16.2841Z" fill="#F4C88C"/>
<path id="Vector_11" d="M39.3201 10.7902C39.4941 10.7902 39.6493 10.9031 39.7011 11.0677L40.1338 12.4036H41.5355C41.7095 12.4036 41.8648 12.5165 41.9165 12.6811C41.9682 12.8457 41.9165 13.0292 41.7707 13.1279L40.6371 13.9511L41.0698 15.2869C41.1216 15.4516 41.0698 15.635 40.924 15.7338C40.8535 15.7855 40.7688 15.809 40.6888 15.809C40.6089 15.809 40.5242 15.7855 40.4537 15.7338L39.3201 14.9106L38.1865 15.7338C38.1159 15.7855 38.0313 15.809 37.9513 15.809C37.8713 15.809 37.7867 15.7855 37.7161 15.7338C37.575 15.6303 37.5186 15.4516 37.5703 15.2869L38.003 13.9511L36.8695 13.1279C36.7284 13.0245 36.6719 12.8457 36.7236 12.6811C36.7754 12.5165 36.9306 12.4036 37.1046 12.4036H38.5063L38.9391 11.0677C38.9908 10.9031 39.146 10.7902 39.3201 10.7902ZM39.3201 9.84949C38.7368 9.84949 38.2241 10.2211 38.0407 10.7808L37.8196 11.4628H37.0999C36.5167 11.4628 36.004 11.8344 35.8205 12.3942C35.6418 12.9492 35.8347 13.5513 36.3097 13.8946L36.8883 14.318L36.6672 15.0047C36.4885 15.5597 36.6813 16.1618 37.1564 16.5052C37.3822 16.6698 37.655 16.7592 37.9419 16.7592C38.2288 16.7592 38.5016 16.6698 38.7321 16.5005L39.3107 16.0771L39.8939 16.5005C40.1197 16.6698 40.3972 16.7592 40.6841 16.7592C40.9711 16.7592 41.2439 16.6698 41.4744 16.5005C41.9447 16.1618 42.1423 15.5597 41.9588 15L41.7378 14.318L42.321 13.8946C42.7914 13.556 42.9889 12.9492 42.8102 12.3942C42.6315 11.8391 42.1188 11.4675 41.5355 11.4675H40.8158L40.5948 10.7808C40.416 10.2258 39.9033 9.85419 39.3201 9.85419V9.84949Z" fill="#231815"/>
</g>
<g id="Group_7">
<path id="Vector_12" d="M22.4574 16.2841C22.2693 16.2841 22.0952 16.2276 21.9447 16.1148L21.0887 15.4892L20.2279 16.1148C20.0774 16.2229 19.9033 16.2794 19.7152 16.2794C19.527 16.2794 19.353 16.2229 19.2025 16.11C18.8967 15.889 18.7697 15.4986 18.8873 15.1364L19.2166 14.1251L18.3558 13.4995C18.0501 13.2784 17.9231 12.888 18.0407 12.5259C18.1583 12.1684 18.4875 11.9238 18.8685 11.9238H19.9316L20.2608 10.9125C20.3784 10.5503 20.7124 10.3104 21.0887 10.3104C21.4649 10.3104 21.8036 10.555 21.9165 10.9125L22.2458 11.9191H23.3088C23.6898 11.9191 24.0237 12.1637 24.1366 12.5211C24.2542 12.8833 24.1272 13.2737 23.8168 13.4948L22.9607 14.1157L23.29 15.127C23.4076 15.4892 23.2806 15.8796 22.9701 16.1006C22.8243 16.2088 22.6456 16.2653 22.4574 16.2653V16.2841Z" fill="#F4C88C"/>
<path id="Vector_13" d="M21.0887 10.7902C21.2627 10.7902 21.4179 10.9031 21.4696 11.0677L21.9024 12.4036H23.3041C23.4781 12.4036 23.6333 12.5165 23.6851 12.6811C23.7368 12.8457 23.6804 13.0292 23.5393 13.1279L22.4057 13.9511L22.8384 15.2869C22.8902 15.4516 22.8337 15.635 22.6926 15.7338C22.622 15.7855 22.5374 15.809 22.4574 15.809C22.3775 15.809 22.2928 15.7855 22.2222 15.7338L21.0887 14.9106L19.9551 15.7338C19.8845 15.7855 19.7998 15.809 19.7199 15.809C19.6399 15.809 19.5553 15.7855 19.4847 15.7338C19.3436 15.6303 19.2871 15.4516 19.3389 15.2869L19.7716 13.9511L18.638 13.1279C18.4969 13.0245 18.4405 12.8457 18.4922 12.6811C18.544 12.5165 18.6992 12.4036 18.8732 12.4036H20.2749L20.7077 11.0677C20.7594 10.9031 20.9146 10.7902 21.0887 10.7902ZM21.0887 9.84949C20.5054 9.84949 19.9927 10.2211 19.8093 10.7808L19.5882 11.4628H18.8685C18.2853 11.4628 17.7726 11.8344 17.5891 12.3942C17.4104 12.9492 17.6079 13.5513 18.0783 13.8946L18.6569 14.318L18.4358 15.0047C18.257 15.5597 18.4499 16.1618 18.925 16.5052C19.1507 16.6698 19.4236 16.7592 19.7105 16.7592C19.9974 16.7592 20.2702 16.6698 20.5007 16.5005L21.0792 16.0771L21.6625 16.5005C21.893 16.6698 22.1658 16.7592 22.4527 16.7592C22.7396 16.7592 23.0125 16.6698 23.2429 16.5005C23.7133 16.1618 23.9109 15.5597 23.7274 15L23.5063 14.318L24.0896 13.8946C24.56 13.556 24.7575 12.9492 24.5788 12.3942C24.4 11.8391 23.8873 11.4675 23.3041 11.4675H22.5844L22.3633 10.7808C22.1846 10.2258 21.6719 9.85419 21.0887 9.85419V9.84949Z" fill="#231815"/>
</g>
<g id="Group_8">
<path id="Vector_14" d="M51.0275 33.1938C50.8629 33.1938 50.7076 33.1421 50.5759 33.048C50.3078 32.8552 50.1949 32.5118 50.2984 32.1966L50.5101 31.5475L49.955 31.1477C49.6869 30.9549 49.574 30.6115 49.6775 30.2964C49.781 29.9812 50.0726 29.7695 50.4019 29.7695H51.0839L51.2956 29.1204C51.3991 28.8053 51.6907 28.5936 52.02 28.5936C52.3492 28.5936 52.6455 28.8053 52.7443 29.1251L52.956 29.7742H53.638C53.972 29.7742 54.2636 29.9859 54.3624 30.3058C54.4659 30.6209 54.353 30.9643 54.0849 31.1571L53.5345 31.5569L53.7462 32.206C53.8497 32.5212 53.7368 32.8646 53.4687 33.0621C53.3417 33.1562 53.1818 33.2079 53.0218 33.2079C52.8619 33.2079 52.702 33.1562 52.5703 33.0621L52.02 32.6623L51.4649 33.0621C51.3332 33.1562 51.178 33.2079 51.0181 33.2079L51.0275 33.1938Z" fill="#168E87"/>
<path id="Vector_15" d="M52.0294 29.0499C52.1564 29.0499 52.2693 29.1298 52.3069 29.2521L52.6221 30.2258H53.6475C53.7745 30.2258 53.8873 30.3057 53.925 30.428C53.9626 30.5503 53.925 30.682 53.8168 30.7573L52.9889 31.3594L53.3041 32.333C53.3417 32.4553 53.3041 32.587 53.1959 32.6623C53.1442 32.6999 53.083 32.7187 53.0219 32.7187C52.9607 32.7187 52.8996 32.6999 52.8478 32.6623L52.02 32.0602L51.1921 32.6623C51.1404 32.6999 51.0792 32.7187 51.0181 32.7187C50.957 32.7187 50.8958 32.6999 50.8441 32.6623C50.7406 32.587 50.6983 32.4553 50.7359 32.333L51.051 31.3594L50.2232 30.7573C50.1197 30.682 50.0774 30.5503 50.115 30.428C50.1526 30.3057 50.2655 30.2258 50.3925 30.2258H51.4179L51.7331 29.2521C51.7707 29.1298 51.8836 29.0499 52.0106 29.0499M52.0294 28.1091C51.4932 28.1091 51.0181 28.4525 50.8535 28.9652L50.75 29.2898H50.4066C49.8704 29.2898 49.3953 29.6331 49.2307 30.1458C49.0661 30.6538 49.2448 31.2088 49.6823 31.524L49.9551 31.7215L49.8516 32.0461C49.687 32.5588 49.8657 33.1138 50.3031 33.429C50.5101 33.5795 50.7641 33.6642 51.0275 33.6642C51.2909 33.6642 51.5449 33.5842 51.7566 33.4243L52.0294 33.2267L52.3069 33.429C52.5186 33.5842 52.7679 33.6642 53.0313 33.6642C53.2947 33.6642 53.5487 33.5842 53.7603 33.4243C54.1931 33.1138 54.3718 32.5588 54.2072 32.0461L54.1037 31.7215L54.3812 31.5193C54.814 31.2041 54.9974 30.6491 54.8281 30.1411C54.6634 29.6331 54.1931 29.2898 53.6569 29.2898H53.3135L53.21 28.9652C53.0454 28.4572 52.575 28.1138 52.0388 28.1138L52.0294 28.1091Z" fill="#231815"/>
</g>
<path id="Vector_16" d="M52.0999 34.3651C51.9447 34.3651 51.8177 34.4921 51.8177 34.6473C51.8177 37.9681 51.0839 41.1524 49.6305 44.1158C49.5599 44.2569 49.6211 44.4262 49.7622 44.4921C49.8045 44.5109 49.8469 44.5203 49.8845 44.5203C49.988 44.5203 50.0915 44.4638 50.1385 44.3604C51.6296 41.3218 52.3822 38.0527 52.3822 34.6426C52.3822 34.4873 52.2552 34.3604 52.0999 34.3604V34.3651Z" fill="#231815"/>
<path id="Vector_17" d="M50.7124 27.8222C50.75 27.9398 50.8629 28.0151 50.9805 28.0151C51.0087 28.0151 51.0416 28.0103 51.0698 28.0009C51.2157 27.9539 51.3003 27.7893 51.2486 27.6435C50.1291 24.2897 48.1865 21.2088 45.623 18.7394C45.5101 18.6312 45.3314 18.6359 45.2232 18.7488C45.115 18.8617 45.1197 19.0405 45.2326 19.1486C47.7255 21.5569 49.6211 24.5579 50.7124 27.8269V27.8222Z" fill="#231815"/>
<g id="Group_9">
<path id="Vector_18" d="M9.86101 33.1938C9.69638 33.1938 9.54116 33.142 9.40946 33.0479L8.85913 32.6481L8.3041 33.0479C8.1771 33.142 8.01717 33.1938 7.85725 33.1938C7.69732 33.1938 7.5374 33.142 7.4057 33.0479C7.13759 32.8551 7.0247 32.5117 7.13288 32.1966L7.34455 31.5475L6.78952 31.1477C6.52141 30.9548 6.40852 30.6114 6.512 30.2916C6.61078 29.9764 6.90711 29.7648 7.23636 29.7648H7.9184L8.13006 29.1157C8.22884 28.8005 8.52517 28.5889 8.85443 28.5889C9.18368 28.5889 9.48001 28.8005 9.57879 29.1157L9.79046 29.7648H10.4725C10.8064 29.7648 11.0981 29.9765 11.1969 30.2963C11.3003 30.6114 11.1874 30.9548 10.9193 31.1477L10.369 31.5475L10.5807 32.1966C10.6842 32.5117 10.5713 32.8551 10.3032 33.0526C10.1762 33.1467 10.0209 33.1985 9.85631 33.1985L9.86101 33.1938Z" fill="#168E87"/>
<path id="Vector_19" d="M8.8591 29.0499C8.9861 29.0499 9.09899 29.1298 9.13662 29.2521L9.45177 30.2258H10.4772C10.6042 30.2258 10.7171 30.3057 10.7547 30.428C10.7923 30.5503 10.7547 30.682 10.6465 30.7573L9.81865 31.3594L10.1338 32.333C10.1714 32.4553 10.1338 32.587 10.0256 32.6623C9.97387 32.6999 9.91272 32.7187 9.85158 32.7187C9.79043 32.7187 9.72928 32.6999 9.67754 32.6623L8.8497 32.0602L8.02185 32.6623C7.97011 32.6999 7.90896 32.7187 7.84781 32.7187C7.78667 32.7187 7.72552 32.6999 7.67378 32.6623C7.5703 32.587 7.52796 32.4553 7.56559 32.333L7.88074 31.3594L7.05289 30.7573C6.94941 30.682 6.90708 30.5503 6.94471 30.428C6.98234 30.3057 7.09523 30.2258 7.22223 30.2258H8.24763L8.56277 29.2521C8.6004 29.1298 8.71329 29.0499 8.84029 29.0499M8.8591 28.1091C8.32288 28.1091 7.84781 28.4525 7.68319 28.9652L7.57971 29.2898H7.23634C6.70012 29.2898 6.22505 29.6331 6.06042 30.1458C5.89579 30.6538 6.07453 31.2088 6.51197 31.524L6.78478 31.7215L6.6813 32.0461C6.51668 32.5588 6.69542 33.1138 7.13286 33.429C7.33982 33.5795 7.59382 33.6642 7.85722 33.6642C8.12063 33.6642 8.37462 33.5842 8.58629 33.4243L8.8591 33.2267L9.13662 33.429C9.34828 33.5842 9.59758 33.6642 9.86098 33.6642C10.1244 33.6642 10.3784 33.5842 10.5901 33.4243C11.0228 33.1138 11.2015 32.5588 11.0369 32.0461L10.9334 31.7215L11.2109 31.5193C11.6437 31.2041 11.8271 30.6491 11.6578 30.1411C11.4932 29.6331 11.0228 29.2898 10.4866 29.2898H10.1432L10.0397 28.9652C9.8751 28.4572 9.40473 28.1138 8.86851 28.1138L8.8591 28.1091Z" fill="#231815"/>
</g>
<path id="Vector_20" d="M11.004 44.5202C11.0463 44.5202 11.0887 44.5108 11.1263 44.492C11.2674 44.4214 11.3238 44.2521 11.258 44.1157C9.80456 41.1571 9.07079 37.968 9.07079 34.6472C9.07079 34.492 8.94379 34.365 8.78857 34.365C8.63335 34.365 8.50635 34.492 8.50635 34.6472C8.50635 38.0574 9.26364 41.3264 10.75 44.365C10.797 44.4638 10.9005 44.5249 11.004 44.5249V44.5202Z" fill="#231815"/>
<path id="Vector_21" d="M9.81863 28.0009C9.84685 28.0103 9.87978 28.015 9.908 28.015C10.0256 28.015 10.1385 27.9397 10.1761 27.8221C11.2674 24.5531 13.1629 21.5522 15.6559 19.1439C15.7688 19.0357 15.7735 18.857 15.6653 18.7441C15.5571 18.6312 15.3784 18.6265 15.2655 18.7347C12.7067 21.2041 10.7594 24.285 9.63989 27.6387C9.58815 27.7845 9.66811 27.9491 9.81863 27.9962V28.0009Z" fill="#231815"/>
<g id="Group_10">
<path id="Vector_22" d="M35.924 38.7723C35.8958 38.7723 35.8723 38.7723 35.8441 38.7629C32.575 38.1373 29.2589 38.1373 25.9899 38.7629C25.877 38.7864 25.7594 38.7629 25.6653 38.6971C25.5713 38.6312 25.5054 38.5324 25.4819 38.4196C25.2985 37.46 25.1197 36.8203 24.9316 36.143C24.7481 35.4798 24.5553 34.793 24.3624 33.7958C24.3248 33.5983 24.4283 33.4054 24.607 33.3208C24.7905 33.2408 25.0021 33.2926 25.1244 33.4478C25.797 34.3085 26.639 34.699 27.4951 34.539C28.7415 34.3085 29.8657 32.9492 30.496 30.9078C30.5525 30.7196 30.7359 30.5974 30.9287 30.6021C31.1263 30.6115 31.2909 30.7526 31.3333 30.9407C31.7566 32.9022 32.8243 34.2944 34.1178 34.5814C35.0586 34.7883 35.9946 34.3744 36.686 33.4525C36.8083 33.2926 37.02 33.2361 37.2081 33.3161C37.3916 33.396 37.4951 33.5936 37.4574 33.7911C37.2693 34.7836 37.0764 35.4751 36.8883 36.1383C36.7002 36.8156 36.5214 37.4553 36.338 38.4149C36.3144 38.5277 36.2533 38.6265 36.1545 38.6924C36.084 38.7394 35.9993 38.7676 35.9099 38.7676L35.924 38.7723Z" fill="#231815"/>
<path id="Vector_23" d="M24.6776 34.1534C25.1737 34.1534 25.576 33.7511 25.576 33.255C25.576 32.7588 25.1737 32.3566 24.6776 32.3566C24.1814 32.3566 23.7792 32.7588 23.7792 33.255C23.7792 33.7511 24.1814 34.1534 24.6776 34.1534Z" fill="#231815"/>
<path id="Vector_24" d="M37.1517 34.1534C37.6479 34.1534 38.0501 33.7511 38.0501 33.255C38.0501 32.7588 37.6479 32.3566 37.1517 32.3566C36.6555 32.3566 36.2533 32.7588 36.2533 33.255C36.2533 33.7511 36.6555 34.1534 37.1517 34.1534Z" fill="#231815"/>
<path id="Vector_25" d="M30.9193 31.3735C31.4155 31.3735 31.8177 30.9712 31.8177 30.4751C31.8177 29.9789 31.4155 29.5767 30.9193 29.5767C30.4232 29.5767 30.0209 29.9789 30.0209 30.4751C30.0209 30.9712 30.4232 31.3735 30.9193 31.3735Z" fill="#231815"/>
</g>
</g>
<path id="Vector_26" d="M22.274 31.5193C22.3257 31.3406 22.3963 31.1665 22.4668 30.9972C22.3963 31.1665 22.5186 30.8843 22.5421 30.8326C22.5938 30.7197 22.6503 30.6068 22.7067 30.4986C22.8337 30.254 22.9701 30.0141 23.1159 29.779C23.9156 28.5137 25.0492 27.4459 26.4179 26.7592C27.4621 26.2371 28.6145 25.9596 29.7763 25.8749C30.5242 25.8185 30.5336 24.6425 29.7763 24.699C27.5985 24.8589 25.5336 25.6115 23.8826 27.0696C22.8619 27.968 22.0294 29.111 21.4744 30.3528C21.3521 30.6303 21.2251 30.9125 21.1404 31.2089C20.9287 31.9379 22.0623 32.2484 22.274 31.5193Z" fill="white"/>
<path id="Vector_27" d="M31.9541 26.2653C32.4139 26.2653 32.7867 25.8926 32.7867 25.4328C32.7867 24.973 32.4139 24.6002 31.9541 24.6002C31.4943 24.6002 31.1216 24.973 31.1216 25.4328C31.1216 25.8926 31.4943 26.2653 31.9541 26.2653Z" fill="white"/>
</g>
</g>
</g>
</g>
</svg>
