<svg width="60" height="67" viewBox="0 0 60 67" fill="none" xmlns="http://www.w3.org/2000/svg">
<g id="menu icon01 1">
<g id="Group">
<g id="Home">
<g id="&#235;&#160;&#136;&#236;&#157;&#180;&#236;&#150;&#180;_7">
<path id="Vector" d="M57.9256 43.8241H52.6246L48.1655 40.6444L46.1806 45.047C46.1806 45.047 26.8767 58.4948 19.3603 43.8241L15.3857 45.6726L12.9727 41.0348L8.51361 43.8194L3.01031 43.9652C3.01031 43.9652 6.85792 53.3678 11.7403 57.4271L10.9689 50.7526C10.9689 50.7526 16.9567 57.1025 24.9247 59.4591C27.4035 60.1929 35.809 60.8184 42.1872 57.1684C48.5653 53.5184 50.4186 50.7526 50.4186 50.7526L49.4308 56.905C49.4308 56.905 57.9304 48.857 57.9304 43.8194L57.9256 43.8241Z" fill="#F8B62D"/>
<path id="Vector_2" d="M50.0376 50.3386C50.0376 50.3386 48.1326 53.142 46.7545 54.1956L49.4261 57.0461L50.0235 56.3264C50.0235 56.3264 50.381 51.6651 50.0376 50.3386Z" fill="#956134"/>
<path id="Vector_3" d="M14.7272 54.3226L11.7027 57.1401C11.7027 57.1401 11.0207 53.5089 10.9642 50.762L14.7272 54.3226Z" fill="#956134"/>
</g>
<g id="Group_2">
<path id="Vector_4" d="M57.6858 43.2597C55.9924 43.382 54.3085 43.4008 52.6434 43.3161C51.3499 42.2672 50 41.3124 48.6124 40.4516C48.3866 40.3152 48.1091 40.2728 47.8692 40.3387C47.6246 40.3998 47.4412 40.5551 47.3706 40.762C46.8203 42.3378 46.0395 43.8288 45.0658 45.1882L42.5164 43.3679C42.4741 43.3349 42.4271 43.3114 42.3847 43.2879C42.3753 43.2832 42.3659 43.2785 42.3565 43.2738C42.3189 43.255 42.2812 43.2409 42.2483 43.2268C42.2389 43.2268 42.2295 43.2173 42.2201 43.2173C42.1778 43.2032 42.1354 43.1891 42.0884 43.1797C42.079 43.1797 42.0696 43.1797 42.0555 43.175C42.0225 43.1703 41.9943 43.1656 41.9614 43.1609C41.9473 43.1609 41.9332 43.1609 41.9144 43.1609C41.8861 43.1609 41.8626 43.1609 41.8344 43.1609C41.8203 43.1609 41.8109 43.1609 41.7968 43.1609C41.7638 43.1656 41.7309 43.175 41.698 43.1844C41.6698 43.1938 41.6415 43.2079 41.6133 43.2268C41.6086 43.2268 41.5992 43.2315 41.5898 43.2362C41.5616 43.255 41.5381 43.2785 41.5192 43.302C41.5192 43.302 41.5145 43.3067 41.5098 43.3114C40.3104 44.8636 38.7676 46.1618 37.0414 47.0791C34.873 48.2362 32.4223 48.7818 29.9294 48.6689C27.46 48.5607 25.0658 47.7893 23.0056 46.4347C21.7168 45.5927 20.5691 44.5297 19.6237 43.3114C19.6001 43.2832 19.5719 43.255 19.5437 43.2362C19.539 43.2362 19.5296 43.2315 19.5249 43.2268C19.4967 43.2126 19.4684 43.1938 19.4402 43.1844C19.4073 43.175 19.3744 43.1656 19.3414 43.1609C19.3273 43.1609 19.3179 43.1609 19.3038 43.1609C19.2756 43.1609 19.2521 43.1609 19.2239 43.1609C19.2097 43.1609 19.1956 43.1609 19.1768 43.1609C19.1439 43.1609 19.1157 43.1656 19.0827 43.175C19.0733 43.175 19.0639 43.175 19.0498 43.1797C19.0075 43.1891 18.9652 43.2032 18.9181 43.2173C18.9087 43.2173 18.8993 43.2268 18.8899 43.2315C18.8523 43.2456 18.8146 43.2597 18.7817 43.2785C18.7723 43.2832 18.7629 43.2879 18.7535 43.2926C18.7064 43.3161 18.6641 43.3443 18.6218 43.3726L16.0724 45.1929C15.1034 43.8335 14.3179 42.3425 13.7676 40.7667C13.697 40.5598 13.5136 40.4045 13.269 40.3434C13.0244 40.2823 12.7469 40.3199 12.5258 40.4563C11.1335 41.3171 9.78829 42.2719 8.49478 43.3208C6.83439 43.4055 5.15047 43.3867 3.45245 43.2644C3.17964 43.2456 2.93505 43.3867 2.79394 43.6548C2.65283 43.9229 2.64342 44.2898 2.76101 44.6331C3.61237 47.0602 4.78829 49.3697 6.23232 51.4864C7.68105 53.603 9.40259 55.5268 11.3452 57.2014C11.4675 57.3095 11.6039 57.3895 11.7403 57.4459C11.7403 57.4459 11.7403 57.4459 11.745 57.4459C11.7874 57.4648 11.8297 57.4789 11.872 57.4883C11.8814 57.4883 11.8908 57.493 11.9002 57.4977C11.9426 57.5071 11.9849 57.5165 12.0272 57.5212C12.0366 57.5212 12.0461 57.5212 12.0555 57.5212C12.0884 57.5212 12.1213 57.5259 12.1589 57.5259C12.1683 57.5259 12.1825 57.5259 12.1919 57.5259C12.2342 57.5259 12.2718 57.5212 12.3095 57.5165C12.3142 57.5165 12.3189 57.5165 12.3236 57.5165C12.3612 57.5118 12.3941 57.5024 12.427 57.4883C12.4318 57.4883 12.4365 57.4883 12.4459 57.4836C12.5211 57.4554 12.587 57.4177 12.6481 57.3707C12.6528 57.3707 12.6575 57.3613 12.6622 57.3566C12.6905 57.3331 12.7187 57.3048 12.7422 57.2719L14.7177 54.7931C15.3292 55.2823 15.9642 55.7432 16.6227 56.1712C18.5136 57.413 20.5738 58.4008 22.7328 59.0969C24.8871 59.7931 27.1401 60.1976 29.3979 60.2964C31.6509 60.3998 33.9228 60.2023 36.1382 59.7084C38.349 59.2145 40.4938 58.4196 42.4929 57.3566C43.8711 56.6228 45.1834 55.762 46.4017 54.7931L48.3772 57.2719C48.4007 57.3048 48.4289 57.3284 48.4572 57.3566C48.4619 57.3566 48.4666 57.366 48.4713 57.3707C48.5324 57.4177 48.5983 57.4601 48.6735 57.4836C48.6782 57.4836 48.6829 57.4836 48.6923 57.4883C48.7253 57.4977 48.7629 57.5071 48.7958 57.5165C48.8005 57.5165 48.8052 57.5165 48.8099 57.5165C48.8476 57.5212 48.8899 57.5259 48.9275 57.5259C48.9369 57.5259 48.951 57.5259 48.9604 57.5259C48.9934 57.5259 49.0263 57.5259 49.0639 57.5212C49.0733 57.5212 49.0827 57.5212 49.0922 57.5212C49.1345 57.5165 49.1768 57.5071 49.2192 57.4977C49.2286 57.4977 49.238 57.493 49.2474 57.4883C49.2897 57.4742 49.332 57.4648 49.3744 57.4459C49.3744 57.4459 49.3744 57.4459 49.3791 57.4459C49.5108 57.3942 49.6425 57.3142 49.7601 57.2155C49.7601 57.2155 49.7695 57.2108 49.7742 57.2061C51.7168 55.5316 53.4383 53.6125 54.8871 51.4911C56.3358 49.3744 57.507 47.0649 58.3584 44.6379C58.4807 44.2945 58.4666 43.9276 58.3255 43.6595C58.1843 43.3914 57.9398 43.2503 57.6669 43.2691L57.6858 43.2597ZM29.4402 59.445C27.2577 59.3462 25.0799 58.9558 22.9962 58.2832C20.9125 57.6106 18.9181 56.6557 17.0884 55.4563C14.7977 53.9558 12.7657 52.0744 11.0912 49.9154L11.6039 49.5203C12.0978 50.16 12.6387 50.7903 13.2079 51.3876C13.2925 51.477 13.4007 51.5193 13.5136 51.5193C13.6171 51.5193 13.7206 51.4817 13.8052 51.4017C13.9746 51.2418 13.9793 50.9737 13.8193 50.8044C13.269 50.2258 12.7469 49.619 12.2671 49.0029L12.8128 48.5795C13.2737 49.1769 13.7817 49.7649 14.3179 50.3293C14.4026 50.4187 14.5108 50.461 14.6237 50.461C14.7271 50.461 14.8306 50.4234 14.9153 50.3434C15.0846 50.1835 15.0893 49.9154 14.9294 49.746C14.412 49.2051 13.9275 48.636 13.4807 48.0621L14.0263 47.6388C14.459 48.1985 14.9294 48.7442 15.428 49.271C15.5127 49.3603 15.6208 49.4027 15.7337 49.4027C15.8372 49.4027 15.9407 49.365 16.0254 49.2851C16.1947 49.1252 16.1994 48.857 16.0395 48.6877C15.5597 48.1844 15.1081 47.6576 14.6942 47.1214L15.2398 46.6981C15.6397 47.2155 16.0771 47.7235 16.5381 48.2079C16.6227 48.2973 16.7309 48.3396 16.8438 48.3396C16.9473 48.3396 17.0508 48.302 17.1354 48.222C17.3048 48.0621 17.3095 47.794 17.1495 47.6247C16.7074 47.159 16.2888 46.6698 15.9078 46.1807L16.4534 45.7573C16.8203 46.2324 17.2248 46.7028 17.6481 47.1496C17.7328 47.239 17.841 47.2813 17.9539 47.2813C18.0573 47.2813 18.1608 47.2437 18.2455 47.1637C18.4148 47.0038 18.4195 46.7357 18.2596 46.5664C17.8504 46.1383 17.4694 45.6915 17.1213 45.2399L17.6669 44.8166C18.0009 45.2493 18.3725 45.6774 18.7629 46.0913C18.8476 46.1807 18.9557 46.223 19.0686 46.223C19.1721 46.223 19.2756 46.1854 19.3603 46.1054C19.5296 45.9455 19.5343 45.6774 19.3744 45.508C19.0028 45.1176 18.6547 44.7131 18.3349 44.2992L18.951 43.8241C19.9529 45.1176 21.1712 46.2418 22.5352 47.1355C24.7224 48.5701 27.2624 49.3933 29.8824 49.5062C32.5211 49.6284 35.127 49.0452 37.4271 47.8175C39.2615 46.8439 40.8937 45.4704 42.1684 43.8194L42.7845 44.2945C42.4647 44.7084 42.1213 45.1082 41.7685 45.4798C41.6086 45.6491 41.6133 45.9173 41.7827 46.0772C41.8626 46.1524 41.9708 46.1948 42.0743 46.1948C42.1872 46.1948 42.2953 46.1524 42.38 46.0631C42.7563 45.668 43.1185 45.2446 43.4525 44.8119L43.9981 45.2352C43.6453 45.6868 43.269 46.1289 42.8786 46.5381C42.7187 46.7075 42.7234 46.9756 42.8927 47.1355C42.9727 47.2108 43.0809 47.2531 43.1843 47.2531C43.2972 47.2531 43.4054 47.2108 43.4901 47.1214C43.8993 46.6887 44.2944 46.2277 44.666 45.7526L45.2116 46.176C44.8306 46.6698 44.4214 47.1496 43.9934 47.5965C43.8335 47.7658 43.8382 48.0339 44.0075 48.1938C44.0874 48.2691 44.1956 48.3114 44.2991 48.3114C44.412 48.3114 44.5202 48.2691 44.6049 48.1797C45.0517 47.7093 45.4797 47.2108 45.8795 46.6934L46.4252 47.1167C46.0112 47.6529 45.5691 48.1703 45.1081 48.6548C44.9482 48.8241 44.9529 49.0922 45.1223 49.2522C45.2022 49.3274 45.3104 49.3697 45.4139 49.3697C45.5268 49.3697 45.635 49.3274 45.7196 49.238C46.1994 48.73 46.6651 48.1891 47.0931 47.6341L47.6387 48.0574C47.1919 48.6313 46.7168 49.191 46.2182 49.7131C46.0583 49.8824 46.063 50.1506 46.2323 50.3105C46.3123 50.3857 46.4205 50.4281 46.524 50.4281C46.6368 50.4281 46.745 50.3857 46.8297 50.2964C47.3471 49.7507 47.841 49.1722 48.3066 48.5748L48.8523 48.9982C48.3772 49.6143 47.8645 50.2117 47.333 50.7714C47.1731 50.9408 47.1778 51.2089 47.3471 51.3688C47.4271 51.4441 47.5352 51.4864 47.6387 51.4864C47.7516 51.4864 47.8598 51.4441 47.9445 51.3547C48.4948 50.7714 49.0263 50.1553 49.5202 49.5156L50.0329 49.9154C47.9021 52.6717 45.1787 54.9718 42.0978 56.604C40.1646 57.6294 38.0903 58.4008 35.9548 58.8759C33.8193 59.3556 31.618 59.5438 29.4402 59.445ZM8.85226 44.2051C10.1646 43.048 11.5428 41.9897 12.968 41.0395C13.5465 42.6905 14.365 44.2522 15.381 45.6774L10.5221 49.144C10.3998 49.2286 10.3104 49.3509 10.2587 49.4873C10.2587 49.492 10.2587 49.5014 10.254 49.5062C10.2445 49.525 10.2398 49.5485 10.2351 49.5673C10.2351 49.5767 10.2304 49.5861 10.2257 49.6002C10.2257 49.619 10.2163 49.6379 10.2163 49.6567C10.2163 49.6708 10.2163 49.6802 10.2163 49.6943C10.2163 49.7131 10.2163 49.7319 10.2116 49.7507C10.2116 49.7554 10.2116 49.7601 10.2116 49.7649C10.2022 49.9906 10.2022 50.2164 10.1975 50.4422C10.1175 50.334 10.0376 50.2305 9.95762 50.1223C9.82122 49.9342 9.55311 49.8966 9.36967 50.033C9.18152 50.1694 9.14389 50.4375 9.28029 50.6209C9.58133 51.0301 9.90118 51.4347 10.2304 51.8298C10.2493 52.1637 10.2728 52.4977 10.3057 52.8363C9.77888 52.2437 9.27089 51.6228 8.79582 50.9831C8.65941 50.795 8.3913 50.7573 8.20786 50.8937C8.01971 51.0348 7.98208 51.2982 8.11849 51.4817C8.82874 52.4412 9.60485 53.3585 10.4233 54.2098C10.4421 54.2286 10.4609 54.2427 10.4797 54.2569C10.5409 54.652 10.6067 55.0471 10.6867 55.4422C7.50231 52.366 5.03288 48.5419 3.56063 44.3462C5.34803 44.4121 7.11661 44.365 8.85697 44.2051H8.85226ZM11.8955 56.5522C11.4299 54.7602 11.1759 52.9869 11.11 51.27C11.9849 52.3048 12.9397 53.2691 13.9651 54.1487L11.8955 56.5522ZM50.0235 51.2653C49.9576 52.9822 49.7036 54.7554 49.238 56.5522L47.1684 54.1487C48.1938 53.2644 49.1486 52.3001 50.0235 51.2653ZM50.4562 55.4422C50.5362 55.0471 50.602 54.652 50.6632 54.2569C50.682 54.2427 50.7008 54.2286 50.7196 54.2098C51.5381 53.3585 52.3142 52.4412 53.0244 51.4817C53.1655 51.2935 53.1232 51.0301 52.9351 50.8937C52.7469 50.7526 52.4835 50.795 52.3471 50.9831C51.872 51.6228 51.364 52.2437 50.8372 52.8411C50.8701 52.5024 50.8937 52.1684 50.9125 51.8345C51.2417 51.4394 51.5616 51.0348 51.8673 50.6256C52.0037 50.4375 51.9661 50.1741 51.778 50.0377C51.5898 49.9013 51.3264 49.9389 51.19 50.127C51.11 50.2352 51.0301 50.3434 50.9454 50.4516C50.9454 50.2258 50.9407 50 50.9313 49.7743C50.9313 49.7649 50.9313 49.7601 50.9313 49.7554C50.9313 49.7413 50.9313 49.7272 50.9313 49.7131C50.9313 49.699 50.9313 49.6802 50.9266 49.6661C50.9266 49.652 50.9219 49.6379 50.9172 49.6237C50.9172 49.6096 50.9125 49.5955 50.9078 49.5814C50.9078 49.5626 50.8984 49.5485 50.8937 49.5297C50.8937 49.5203 50.889 49.5109 50.8843 49.4967C50.8748 49.4732 50.8654 49.4497 50.8513 49.4262C50.8513 49.4262 50.8513 49.4215 50.8513 49.4168C50.7996 49.3133 50.7196 49.2239 50.6255 49.1534L45.7667 45.6868C46.7827 44.2616 47.6011 42.6999 48.1796 41.049C49.6049 42.0038 50.983 43.0574 52.2954 44.2145C54.0357 44.3744 55.8043 44.4262 57.5917 44.3556C56.1241 48.5513 53.6547 52.3754 50.4703 55.4516L50.4562 55.4422Z" fill="#040000"/>
<g id="Group_3">
<path id="Vector_5" d="M40.7055 7.11197C40.4891 7.0226 40.2445 7.12608 40.1551 7.34245L38.4712 11.4111C38.3819 11.6275 38.4853 11.8721 38.7017 11.9615C38.7534 11.985 38.8099 11.9944 38.8616 11.9944C39.0263 11.9944 39.1862 11.8956 39.252 11.7357L40.9359 7.667C41.0253 7.45063 40.9218 7.20604 40.7055 7.11667V7.11197Z" fill="#C9A063"/>
<path id="Vector_6" d="M37.6058 13.4949L37.1825 14.5203C37.0931 14.7366 37.1966 14.9812 37.4129 15.0706C37.4647 15.0941 37.5211 15.1035 37.5729 15.1035C37.7375 15.1035 37.8974 15.0047 37.9633 14.8448L38.3866 13.8194C38.476 13.603 38.3725 13.3584 38.1561 13.2691C37.9398 13.1797 37.6952 13.2832 37.6058 13.4996V13.4949Z" fill="#C9A063"/>
<path id="Vector_7" d="M45.8889 16.6887C45.9971 16.6887 46.1053 16.6463 46.1853 16.5664L49.2991 13.4525C49.4637 13.2879 49.4637 13.0198 49.2991 12.8552C49.1345 12.6905 48.8663 12.6905 48.7017 12.8552L45.5879 15.969C45.4233 16.1336 45.4233 16.4017 45.5879 16.5664C45.6726 16.651 45.776 16.6887 45.8842 16.6887H45.8889Z" fill="#C9A063"/>
<path id="Vector_8" d="M43.9981 17.5635L43.2126 18.349C43.048 18.5137 43.048 18.7818 43.2126 18.9464C43.2972 19.0311 43.4007 19.0687 43.5089 19.0687C43.6171 19.0687 43.7253 19.0264 43.8052 18.9464L44.5908 18.1609C44.7554 17.9963 44.7554 17.7282 44.5908 17.5635C44.4261 17.3989 44.158 17.3989 43.9934 17.5635H43.9981Z" fill="#C9A063"/>
<path id="Vector_9" d="M50.5879 23.7207C50.6396 23.7207 50.6961 23.7113 50.7478 23.6878L54.8165 22.0039C55.0328 21.9145 55.1316 21.6699 55.047 21.4535C54.9576 21.2372 54.713 21.1337 54.4966 21.2231L50.4279 22.907C50.2116 22.9963 50.1128 23.2409 50.1975 23.4573C50.2633 23.6219 50.4232 23.716 50.5879 23.716V23.7207Z" fill="#C9A063"/>
<path id="Vector_10" d="M47.4788 25.0094C47.5305 25.0094 47.587 25 47.6387 24.9765L48.6641 24.5532C48.8805 24.4638 48.9793 24.2192 48.8946 24.0028C48.8052 23.7865 48.5606 23.6877 48.3443 23.7724L47.3189 24.1957C47.1025 24.2851 47.0037 24.5296 47.0884 24.746C47.1543 24.9106 47.3142 25.0047 47.4788 25.0047V25.0094Z" fill="#C9A063"/>
<path id="Vector_11" d="M10.5456 23.7206C10.7102 23.7206 10.8701 23.6219 10.936 23.4619C11.0254 23.2456 10.9219 23.001 10.7055 22.9116L6.63685 21.2277C6.42048 21.1383 6.17589 21.2418 6.08652 21.4582C5.99715 21.6745 6.10063 21.9191 6.317 22.0085L10.3857 23.6924C10.4374 23.7159 10.4939 23.7253 10.5456 23.7253V23.7206Z" fill="#C9A063"/>
<path id="Vector_12" d="M12.4646 24.5532L13.49 24.9766C13.5418 25.0001 13.5982 25.0095 13.65 25.0095C13.8146 25.0095 13.9745 24.9107 14.0404 24.7508C14.1297 24.5344 14.0263 24.2898 13.8099 24.2005L12.7845 23.7771C12.5681 23.6878 12.3235 23.7912 12.2342 24.0076C12.1448 24.224 12.2483 24.4686 12.4646 24.5579V24.5532Z" fill="#C9A063"/>
<path id="Vector_13" d="M15.2398 16.6887C15.348 16.6887 15.4562 16.6463 15.5361 16.5664C15.7008 16.4017 15.7008 16.1336 15.5361 15.969L12.4223 12.8552C12.2577 12.6905 11.9896 12.6905 11.8249 12.8552C11.6603 13.0198 11.6603 13.2879 11.8249 13.4525L14.9388 16.5664C15.0234 16.651 15.1269 16.6887 15.2351 16.6887H15.2398Z" fill="#C9A063"/>
<path id="Vector_14" d="M16.538 17.5635C16.3734 17.7282 16.3734 17.9963 16.538 18.1609L17.3235 18.9464C17.4082 19.0311 17.5117 19.0687 17.6199 19.0687C17.728 19.0687 17.8362 19.0264 17.9162 18.9464C18.0808 18.7818 18.0808 18.5137 17.9162 18.349L17.1307 17.5635C16.9661 17.3989 16.6979 17.3989 16.5333 17.5635H16.538Z" fill="#C9A063"/>
<path id="Vector_15" d="M22.2718 11.9944C22.3235 11.9944 22.38 11.985 22.4317 11.9614C22.6481 11.8721 22.7469 11.6275 22.6622 11.4111L20.9783 7.34244C20.8889 7.12607 20.6443 7.02729 20.4279 7.11196C20.2116 7.20133 20.1128 7.44592 20.1975 7.66229L21.8814 11.731C21.9472 11.8956 22.1072 11.9897 22.2718 11.9897V11.9944Z" fill="#C9A063"/>
<path id="Vector_16" d="M22.9727 13.2644C22.7563 13.3537 22.6575 13.5983 22.7422 13.8147L23.1655 14.8401C23.2314 15.0047 23.3913 15.0988 23.5559 15.0988C23.6077 15.0988 23.6641 15.0894 23.7159 15.0659C23.9322 14.9765 24.031 14.7319 23.9463 14.5155L23.523 13.4901C23.4336 13.2738 23.1891 13.175 22.9727 13.2597V13.2644Z" fill="#C9A063"/>
<path id="Vector_17" d="M30.9877 5.51745C30.9877 5.28226 30.7996 5.09412 30.5644 5.09412C30.3292 5.09412 30.1411 5.28226 30.1411 5.51745V9.92478C30.1411 10.16 30.3292 10.3481 30.5644 10.3481C30.7996 10.3481 30.9877 10.16 30.9877 9.92478V5.51745Z" fill="#C9A063"/>
<path id="Vector_18" d="M30.5644 11.7545C30.3292 11.7545 30.1411 11.9427 30.1411 12.1778V13.2879C30.1411 13.5231 30.3292 13.7112 30.5644 13.7112C30.7996 13.7112 30.9877 13.5231 30.9877 13.2879V12.1778C30.9877 11.9427 30.7996 11.7545 30.5644 11.7545Z" fill="#C9A063"/>
<path id="Vector_19" d="M35.2069 10.4187L36.0677 6.09601C36.1147 5.86553 35.9642 5.64446 35.7384 5.60212C35.5079 5.55509 35.2868 5.7056 35.2445 5.93138L34.3837 10.2541C34.3367 10.4845 34.4872 10.7056 34.713 10.7479C34.7412 10.7526 34.7694 10.7573 34.7977 10.7573C34.9952 10.7573 35.1693 10.6162 35.2116 10.4187H35.2069Z" fill="#C9A063"/>
<path id="Vector_20" d="M34.4355 12.1354C34.2097 12.0884 33.9839 12.2389 33.9416 12.4647L33.7252 13.5513C33.6782 13.7817 33.8287 14.0028 34.0545 14.0451C34.0827 14.0498 34.1109 14.0545 34.1392 14.0545C34.3367 14.0545 34.5107 13.9134 34.5531 13.7159L34.7694 12.6293C34.8165 12.3989 34.666 12.1778 34.4402 12.1354H34.4355Z" fill="#C9A063"/>
<path id="Vector_21" d="M45.2869 9.55787C45.094 9.42617 44.8306 9.48261 44.7036 9.67546L42.2577 13.3396C42.126 13.5325 42.1824 13.7959 42.3753 13.9229C42.4458 13.9699 42.5305 13.9934 42.6105 13.9934C42.7469 13.9934 42.8786 13.9276 42.9632 13.8053L45.4092 10.1411C45.5409 9.94827 45.4844 9.68487 45.2916 9.55787H45.2869Z" fill="#C9A063"/>
<path id="Vector_22" d="M40.5032 16.7215C40.5738 16.7686 40.6584 16.7921 40.7384 16.7921C40.8748 16.7921 41.0065 16.7262 41.0912 16.6039L41.7074 15.682C41.8391 15.4892 41.7826 15.2258 41.5898 15.0988C41.3969 14.9671 41.1335 15.0235 41.0065 15.2164L40.3903 16.1383C40.2586 16.3311 40.3151 16.5945 40.5079 16.7215H40.5032Z" fill="#C9A063"/>
<path id="Vector_23" d="M52.5963 16.8721C52.4646 16.6793 52.2059 16.6275 52.0131 16.7545L48.3489 19.2004C48.1561 19.3321 48.1043 19.5908 48.2313 19.7837C48.3113 19.906 48.4477 19.9718 48.5841 19.9718C48.6641 19.9718 48.744 19.9483 48.8193 19.9013L52.4834 17.4554C52.6763 17.3237 52.728 17.065 52.601 16.8721H52.5963Z" fill="#C9A063"/>
<path id="Vector_24" d="M45.7855 21.8439C45.8654 21.8439 45.9454 21.8204 46.0206 21.7733L46.9426 21.1572C47.1354 21.0255 47.1872 20.7667 47.0602 20.5739C46.9285 20.381 46.6697 20.3293 46.4769 20.4563L45.555 21.0725C45.3621 21.2042 45.3104 21.4629 45.4374 21.6557C45.5173 21.778 45.6538 21.8439 45.7902 21.8439H45.7855Z" fill="#C9A063"/>
<path id="Vector_25" d="M51.8202 27.7847C51.8485 27.7847 51.8767 27.7847 51.9049 27.7752L56.2276 26.9145C56.4581 26.8674 56.6039 26.6464 56.5568 26.4206C56.5098 26.1901 56.2887 26.0443 56.063 26.0913L51.7403 26.9521C51.5098 26.9991 51.364 27.2202 51.411 27.446C51.4487 27.6482 51.6274 27.7847 51.825 27.7847H51.8202Z" fill="#C9A063"/>
<path id="Vector_26" d="M5.0705 26.0913C4.84472 26.0442 4.61894 26.1947 4.57661 26.4205C4.52957 26.651 4.68009 26.8721 4.90587 26.9144L9.22854 27.7752C9.25676 27.7799 9.28498 27.7846 9.31321 27.7846C9.51076 27.7846 9.6848 27.6435 9.72713 27.4459C9.77417 27.2154 9.62365 26.9944 9.39787 26.952L5.0752 26.0913H5.0705Z" fill="#C9A063"/>
<path id="Vector_27" d="M12.5446 19.9718C12.6811 19.9718 12.8128 19.906 12.8974 19.7837C13.0291 19.5908 12.9727 19.3274 12.7798 19.2004L9.11567 16.7545C8.92282 16.6228 8.65942 16.6793 8.53242 16.8721C8.40071 17.065 8.45716 17.3284 8.65001 17.4554L12.3142 19.9013C12.3847 19.9483 12.4694 19.9718 12.5493 19.9718H12.5446Z" fill="#C9A063"/>
<path id="Vector_28" d="M14.1862 21.1572L15.1081 21.7733C15.1787 21.8204 15.2633 21.8439 15.3433 21.8439C15.4797 21.8439 15.6114 21.778 15.6961 21.6557C15.8278 21.4629 15.7713 21.1995 15.5785 21.0725L14.6566 20.4563C14.4637 20.3246 14.2003 20.381 14.0733 20.5739C13.9416 20.7667 13.9981 21.0302 14.1909 21.1572H14.1862Z" fill="#C9A063"/>
<path id="Vector_29" d="M18.5277 13.9934C18.6077 13.9934 18.6876 13.9699 18.7629 13.9229C18.9557 13.7912 19.0075 13.5325 18.8805 13.3396L16.4346 9.67546C16.3029 9.48261 16.0442 9.43087 15.8513 9.55787C15.6585 9.68957 15.6067 9.94827 15.7337 10.1411L18.1796 13.8053C18.2596 13.9276 18.396 13.9934 18.5324 13.9934H18.5277Z" fill="#C9A063"/>
<path id="Vector_30" d="M19.5437 15.0988C19.3508 15.2305 19.2991 15.4892 19.4261 15.682L20.0423 16.6039C20.1222 16.7262 20.2586 16.7921 20.3951 16.7921C20.475 16.7921 20.555 16.7686 20.6302 16.7215C20.8231 16.5898 20.8748 16.3311 20.7478 16.1383L20.1316 15.2164C19.9999 15.0235 19.7412 14.9718 19.5484 15.0988H19.5437Z" fill="#C9A063"/>
<path id="Vector_31" d="M26.7497 10.254L25.889 5.93133C25.8419 5.70085 25.6209 5.55504 25.3951 5.60207C25.1646 5.64911 25.0188 5.87018 25.0658 6.09596L25.9266 10.4186C25.9642 10.6209 26.143 10.7573 26.3405 10.7573C26.3687 10.7573 26.397 10.7573 26.4252 10.7479C26.6557 10.7009 26.8015 10.4798 26.7544 10.254H26.7497Z" fill="#C9A063"/>
<path id="Vector_32" d="M26.5804 13.7206C26.618 13.9229 26.7968 14.0593 26.9943 14.0593C27.0225 14.0593 27.0508 14.0593 27.079 14.0498C27.3095 14.0028 27.4553 13.7817 27.4082 13.556L27.1919 12.4694C27.1448 12.2389 26.9238 12.0931 26.698 12.1402C26.4675 12.1872 26.3217 12.4083 26.3687 12.634L26.5851 13.7206H26.5804Z" fill="#C9A063"/>
</g>
</g>
<g id="&#235;&#160;&#136;&#236;&#157;&#180;&#236;&#150;&#180;_6">
<path id="Vector_33" d="M42.9115 17.4366C42.9115 17.4366 43.0479 17.4225 43.2596 17.4225C43.9463 17.4272 45.4609 17.5918 46.1006 18.8665C46.9425 20.541 47.8786 23.3538 47.1683 25.0801C46.4581 26.8063 46.3075 28.0481 45.1646 28.335C44.0216 28.6219 42.8692 28.6407 42.9068 28.335C42.9444 28.0293 41.7168 26.6699 41.9378 25.6962C42.1589 24.7226 42.5493 23.6172 42.5493 23.6172L38.3254 23.5279C38.3254 23.5279 37.8127 22.6436 38.7488 20.5598C39.6848 18.4761 41.5568 17.5918 41.5568 17.5918L43.0385 17.4131" fill="#A48B78"/>
<path id="Vector_34" d="M38.1937 23.335H42.2154C42.2154 23.335 40.8795 26.5429 43.4054 28.4055L38.7064 28.5043C38.7064 28.5043 37.4976 25.7479 38.1937 23.3397V23.335Z" fill="#C9A063"/>
<path id="Vector_35" d="M38.1937 43.97H16.3781C16.3781 43.97 13.7064 45.2023 14.1486 47.2578C14.5907 49.3133 15.4703 50.7574 17.3753 51.3406C19.2803 51.9239 39.285 51.3406 39.285 51.3406C39.285 51.3406 35.2445 48.9888 38.396 44.191" fill="#F4C99B"/>
<path id="Vector_36" d="M40.2728 17.4366L19.1439 17.526C19.1439 17.526 15.2398 18.6642 15.0705 21.2748C14.9012 23.8853 14.5578 26.8486 17.1401 31.2842C19.7224 35.7198 23.1279 41.4347 23.0855 43.6407L38.6265 43.97C38.6265 43.97 34.5108 47.7517 38.7158 50.7574C42.9209 53.763 45.7855 49.2193 45.8889 47.653C45.9924 46.0866 46.9943 43.7489 44.6048 39.3933C42.2154 35.0377 38.3537 28.9135 37.9821 25.9126C37.6105 22.9117 36.7074 21.4723 40.2775 17.4319L40.2728 17.4366Z" fill="#F4DBBD"/>
<path id="Vector_37" d="M36.7873 18.6737C36.7873 18.6737 35.8842 18.8054 35.2257 19.9672H18.0432C18.0432 19.9672 18.0432 19.0829 19.6754 18.7584C20.6679 18.5608 36.7873 18.6737 36.7873 18.6737Z" fill="white"/>
<path id="Vector_38" d="M30.9877 45.1694C30.9877 45.1694 30.5832 45.4046 30.5597 46.1854H15.8889C15.8889 46.1854 15.7102 45.2353 16.9708 45.2353C17.7704 45.2353 30.9877 45.1694 30.9877 45.1694Z" fill="white"/>
</g>
<g id="Group_4">
<g id="Group_5">
<path id="path5230" d="M37.1307 46.1854H41.4393C41.1947 44.8825 40.2681 43.9605 39.2286 43.9746C38.2126 43.9888 37.4224 44.826 37.1307 46.1854Z" fill="#ADD0D9"/>
<path id="Vector_39" d="M41.4393 51.9238H18.5889C15.5362 51.9238 13.8523 50.508 13.5889 47.7093C13.4666 46.4252 13.8617 45.1411 14.6425 44.2757C15.1552 43.7112 15.7667 43.3961 16.3734 43.3867H22.4647C21.9755 40.5362 20.348 37.8363 18.6312 34.9953C16.571 31.5758 14.4355 28.0433 14.3226 24.0875C14.2568 21.8156 14.9435 19.826 16.2464 18.4854C17.2671 17.4365 18.6265 16.8533 20.0658 16.8533H42.9162C46.0959 16.8533 47.8739 19.1534 47.9209 23.3255C47.9397 24.8307 47.5352 27.0179 46.3358 28.2267C45.7902 28.7818 45.1175 29.0734 44.3885 29.0734H39.5766C40.3668 30.8937 41.4299 32.6576 42.4788 34.3933C44.8683 38.349 47.3377 42.4412 46.4346 47.032C45.9924 49.2898 44.4167 51.9238 41.4393 51.9238ZM37.6105 46.7639C37.5729 47.0367 37.5682 47.3189 37.5964 47.6012C37.8033 49.7837 38.9887 50.762 41.4393 50.762C43.7064 50.762 44.9153 48.7206 45.2916 46.8109C46.1053 42.6623 43.8617 38.9417 41.4816 35C40.2587 32.9775 39.0122 30.9125 38.1796 28.7441C38.1702 28.7206 38.1561 28.6924 38.1514 28.6689C37.5917 27.1966 37.2248 25.6821 37.1778 24.0922C37.1731 23.8335 37.1778 23.5795 37.1825 23.3302C37.1825 23.3161 37.1825 23.302 37.1825 23.2879C37.2812 21.3547 37.9492 19.6708 39.0969 18.4901C39.2615 18.3208 39.4308 18.1656 39.6096 18.0245H20.0611C18.9228 18.0245 17.888 18.4666 17.079 19.3039C15.9924 20.4187 15.428 22.1073 15.4844 24.0593C15.5879 27.714 17.6387 31.1148 19.6237 34.4027C21.3593 37.2766 23.1514 40.2446 23.6406 43.3961H39.2474C40.1034 43.3961 41.5757 43.7536 42.0131 46.0819C42.0461 46.2512 41.999 46.4252 41.8908 46.5616C41.7779 46.6933 41.618 46.7733 41.444 46.7733H37.6152L37.6105 46.7639ZM16.3781 44.5532C16.11 44.5532 15.7902 44.7366 15.5033 45.0565C14.9388 45.6868 14.6519 46.6369 14.746 47.6012C14.9529 49.7837 16.1382 50.762 18.5889 50.762H37.7751C37.0131 50.0612 36.5663 49.0405 36.4393 47.714C36.3875 47.1496 36.4299 46.5899 36.5663 46.0584C36.5663 46.0442 36.571 46.0301 36.5757 46.016C36.7168 45.4751 36.952 44.9765 37.2671 44.5532H16.3828H16.3781ZM38.396 22.7517H42.9162C43.1796 22.7517 43.4101 22.9304 43.4807 23.1844C43.5465 23.4384 43.4336 23.7065 43.2079 23.8382C42.4365 24.2757 42.3988 25.3152 42.6011 26.0725C42.8363 26.9568 43.4995 27.9116 44.3979 27.9116C44.8165 27.9116 45.1834 27.747 45.5174 27.413C46.3969 26.524 46.7826 24.6802 46.7638 23.3396C46.7356 20.9125 46.0489 18.0198 42.9209 18.0198C41.7826 18.0198 40.7478 18.4619 39.9388 19.2992C39.1063 20.1599 38.5747 21.3594 38.4054 22.7564L38.396 22.7517ZM39.111 27.9116H42.2154C41.8626 27.4553 41.6086 26.9144 41.4675 26.3688C41.2276 25.461 41.2935 24.5955 41.618 23.9135H38.3302C38.3302 23.9605 38.3302 24.0076 38.3302 24.0499C38.3678 25.3669 38.6594 26.651 39.1063 27.9069L39.111 27.9116Z" fill="#161515"/>
<path id="Vector_40" d="M34.2756 22.4412H18.7958C18.476 22.4412 18.2126 22.1825 18.2126 21.8579C18.2126 21.5334 18.4713 21.2747 18.7958 21.2747H34.2756C34.5955 21.2747 34.8589 21.5334 34.8589 21.8579C34.8589 22.1825 34.6002 22.4412 34.2756 22.4412Z" fill="#161515"/>
<path id="Vector_41" d="M34.3462 26.8627H18.8664C18.5465 26.8627 18.2831 26.604 18.2831 26.2794C18.2831 25.9549 18.5418 25.6962 18.8664 25.6962H34.3462C34.666 25.6962 34.9294 25.9549 34.9294 26.2794C34.9294 26.604 34.6707 26.8627 34.3462 26.8627Z" fill="#161515"/>
<path id="Vector_42" d="M36.0113 31.2842H20.5315C20.2116 31.2842 19.9482 31.0255 19.9482 30.7009C19.9482 30.3764 20.2069 30.1177 20.5315 30.1177H36.0113C36.3311 30.1177 36.5945 30.3764 36.5945 30.7009C36.5945 31.0255 36.3358 31.2842 36.0113 31.2842Z" fill="#161515"/>
<path id="Vector_43" d="M38.5512 35.7103H23.0715C22.7516 35.7103 22.4882 35.4516 22.4882 35.1271C22.4882 34.8025 22.7469 34.5438 23.0715 34.5438H38.5512C38.8711 34.5438 39.1345 34.8025 39.1345 35.1271C39.1345 35.4516 38.8758 35.7103 38.5512 35.7103Z" fill="#161515"/>
<path id="Vector_44" d="M40.983 40.1317H25.5032C25.1834 40.1317 24.92 39.873 24.92 39.5485C24.92 39.2239 25.1787 38.9652 25.5032 38.9652H40.983C41.3029 38.9652 41.5663 39.2239 41.5663 39.5485C41.5663 39.873 41.3076 40.1317 40.983 40.1317Z" fill="#161515"/>
</g>
<path id="Vector_45" d="M40.8795 45.7997C40.8795 45.7997 39.6331 43.5843 38.3301 45.7997H40.8795Z" fill="#00A29A"/>
</g>
</g>
<g id="Task">
<path id="Vector_46" d="M45.3904 20.889L35.301 27.4507L7.06018 32.3895L17.7422 25.7667L45.3904 20.889Z" fill="#A48B78"/>
<path id="Vector_47" d="M52.1542 35.2023L41.2511 41.905L13.0103 46.8486L23.6923 40.2211L52.1542 35.2023Z" fill="#A48B78"/>
<path id="Vector_48" d="M47.1872 41.1477L11.8391 47.333L11.8062 57.9351L18.5513 57.1308L47.2484 51.6416L47.1872 41.1477Z" fill="#F4DBBD"/>
<path id="Vector_49" d="M47.3189 9.67078L12.1731 15.7667V26.1854L17.2625 25.8514L47.6246 20.4939L47.3189 9.67078Z" fill="#F4DBBD"/>
<path id="Vector_50" d="M53.4807 24.271L6.36874 32.5118L5.97833 42.9257L17.2624 41.5805L53.0338 34.732L53.4807 24.271Z" fill="#F4DBBD"/>
<path id="Vector_51" d="M41.8956 52.6624L46.8862 51.9991L42.8316 56.684H41.8956V52.6624Z" fill="#A48B78"/>
<path id="Vector_52" d="M54.238 43.8994L52.7281 49.5438L54.238 54.445L42.8316 56.684L47.0884 51.6699L47.6246 44.9766L54.238 43.8994Z" fill="#A48B78"/>
<path id="Vector_53" d="M16.1194 10.9454L4.83533 13.1656L5.97832 17.9257L4.83533 23.6689L11.8062 22.5306V15.7479L17.2013 14.4873V11.2559L16.1194 10.9454Z" fill="#A48B78"/>
<path id="Vector_54" d="M47.6246 44.9766L54.238 43.8994L54.3979 44.4356L52.8363 49.8825L54.238 54.445L43.0338 56.684L46.6321 52.4225L47.4741 51.8204L47.6246 44.9766Z" fill="#0B9B93"/>
<path id="Vector_55" d="M15.4609 11.0725L4.83533 13.1656L6.36872 18.0857L4.83533 23.6689L11.8062 22.5306L11.6792 16.1054L15.4609 11.0725Z" fill="#EEB033"/>
<path id="Vector_56" d="M37.1166 26.557L47.3048 20.8091C47.333 20.7903 47.3612 20.7715 47.3894 20.7526C47.3941 20.7526 47.4036 20.7432 47.4083 20.7385C47.4318 20.7197 47.4553 20.7009 47.4788 20.6774C47.4788 20.6774 47.4835 20.6727 47.4882 20.668C47.5117 20.6445 47.5306 20.6209 47.5541 20.5927C47.5588 20.588 47.5635 20.5786 47.5682 20.5739C47.587 20.5504 47.6058 20.5222 47.6199 20.4939C47.6387 20.4657 47.6528 20.4328 47.667 20.4046C47.667 20.3999 47.6717 20.3905 47.6764 20.3858C47.6999 20.3246 47.7187 20.2588 47.7281 20.1929C47.7281 20.1835 47.7281 20.1788 47.7281 20.1694C47.7281 20.1365 47.7328 20.1035 47.7328 20.0659V9.98594C47.7328 9.95302 47.7328 9.91539 47.7281 9.88246C47.7281 9.87305 47.7281 9.85894 47.7234 9.84954C47.7234 9.82602 47.714 9.8025 47.7093 9.77898C47.7093 9.76487 47.7046 9.75546 47.6999 9.74135C47.6952 9.72254 47.6858 9.69902 47.6811 9.6802C47.6811 9.66609 47.6717 9.65669 47.667 9.64257C47.6576 9.62376 47.6481 9.60024 47.6387 9.58143C47.634 9.57202 47.6293 9.56261 47.6246 9.5532C47.6105 9.52969 47.5917 9.50146 47.5729 9.47795C47.5729 9.47795 47.5729 9.46854 47.5635 9.46854C47.5447 9.44032 47.5211 9.4168 47.4976 9.39328C47.4882 9.38387 47.4788 9.37917 47.4741 9.36976C47.46 9.35565 47.4506 9.34624 47.4365 9.33213C47.4365 9.33213 47.4318 9.33213 47.4271 9.32743C47.3941 9.29921 47.3565 9.27569 47.3189 9.25217C47.3189 9.25217 47.3095 9.25217 47.3048 9.24747C47.2671 9.22865 47.2342 9.20984 47.1966 9.19573C47.1825 9.19102 47.1731 9.18632 47.159 9.18162C47.126 9.17221 47.0978 9.1628 47.0649 9.1581C47.0508 9.1581 47.0414 9.15339 47.0273 9.14869C46.9849 9.14399 46.9379 9.13928 46.8956 9.13928C46.8532 9.13928 46.8062 9.13928 46.7639 9.14869C46.7591 9.14869 46.7544 9.14869 46.7497 9.14869L17.4741 14.3086V11.2606C17.4741 11.223 17.4741 11.1807 17.4647 11.143C17.4647 11.1336 17.4647 11.1195 17.46 11.1101C17.4553 11.0819 17.4459 11.0537 17.4412 11.0255C17.4412 11.016 17.4365 11.0066 17.4318 10.9972C17.4224 10.9596 17.4083 10.9267 17.3894 10.8938C17.3894 10.889 17.38 10.8796 17.38 10.8749C17.3659 10.8467 17.3518 10.8232 17.333 10.795C17.3283 10.7856 17.3189 10.7762 17.3142 10.7668C17.2954 10.7432 17.2766 10.715 17.2577 10.6915C17.253 10.6868 17.2483 10.6821 17.2436 10.6774C17.2201 10.6539 17.1966 10.6303 17.1684 10.6068C17.1684 10.6068 17.1637 10.6068 17.159 10.6021C17.1213 10.5739 17.0837 10.5457 17.0414 10.5222C17.0414 10.5222 17.0414 10.5222 17.0367 10.5222C16.999 10.5033 16.9614 10.4845 16.9238 10.4704C16.9238 10.4704 16.9144 10.4704 16.9097 10.4704C16.905 10.4704 16.9003 10.4704 16.8956 10.4657C16.8532 10.4516 16.8109 10.4375 16.7639 10.4328C16.7639 10.4328 16.7591 10.4328 16.7544 10.4328C16.7074 10.4234 16.6604 10.4187 16.6133 10.4187C16.5663 10.4187 16.524 10.4234 16.4769 10.4328C16.4769 10.4328 16.4675 10.4328 16.4628 10.4328L4.99998 12.4554C4.75539 12.4977 4.54372 12.6435 4.41672 12.8552C4.28972 13.0668 4.2568 13.3208 4.33206 13.556L5.76197 18.1045L4.32735 23.1797C4.24739 23.462 4.31794 23.7677 4.5155 23.9841C4.68013 24.1628 4.91061 24.2663 5.15049 24.2663C5.19753 24.2663 5.24927 24.2663 5.30101 24.2522L11.3264 23.1891V26.1995C11.3264 26.2371 11.3264 26.2795 11.3358 26.3171C11.3358 26.3265 11.3358 26.3406 11.3405 26.35C11.3452 26.3782 11.3546 26.4065 11.3593 26.4347C11.3593 26.4441 11.364 26.4535 11.3687 26.4629C11.3782 26.5005 11.3923 26.5335 11.4111 26.5664C11.4111 26.5711 11.4205 26.5805 11.4205 26.5852C11.4346 26.6134 11.4487 26.6416 11.4675 26.6652C11.4722 26.6746 11.4816 26.684 11.4863 26.6934C11.5052 26.7169 11.524 26.7404 11.5428 26.7639C11.5475 26.7686 11.5522 26.7733 11.5569 26.7827C11.5804 26.8063 11.6039 26.8298 11.6321 26.8533C11.6321 26.8533 11.6369 26.8533 11.6416 26.858C11.6792 26.8862 11.7168 26.9144 11.7544 26.938C11.7544 26.938 11.7639 26.938 11.7686 26.9427C11.8015 26.9615 11.8344 26.9803 11.872 26.9944C11.872 26.9944 11.8814 26.9944 11.8861 26.9944C11.8909 26.9944 11.8956 26.9944 11.905 26.9991C11.9473 27.0132 11.9896 27.0273 12.0367 27.032C12.0367 27.032 12.0414 27.032 12.0461 27.032C12.0931 27.0414 12.1401 27.0462 12.1872 27.0462C12.2342 27.0462 12.2766 27.0414 12.3236 27.032C12.3236 27.032 12.333 27.032 12.3377 27.032L16.1571 26.3594L5.96893 32.1073C5.94071 32.1261 5.91249 32.1449 5.88427 32.1637C5.87956 32.1637 5.87016 32.1732 5.86545 32.1779C5.84193 32.1967 5.81841 32.2155 5.7949 32.239C5.7949 32.239 5.79019 32.2437 5.78549 32.2484C5.76197 32.2719 5.74316 32.2954 5.71964 32.3237C5.71493 32.3284 5.71023 32.3378 5.70553 32.3425C5.68671 32.366 5.6679 32.3942 5.65379 32.4224C5.63497 32.4507 5.62086 32.4836 5.60675 32.5118C5.60675 32.5165 5.60205 32.5259 5.59734 32.5306C5.57382 32.5918 5.55501 32.6576 5.5456 32.7235C5.5456 32.7329 5.5456 32.7376 5.5456 32.747C5.5456 32.7799 5.5409 32.8128 5.5409 32.8505V42.9304C5.5409 42.9634 5.5409 43.001 5.5456 43.0339C5.5456 43.0433 5.5456 43.0574 5.55031 43.0668C5.55031 43.0904 5.55971 43.1139 5.56442 43.1374C5.56442 43.1515 5.56912 43.1609 5.57382 43.175C5.57853 43.1986 5.58794 43.2174 5.59734 43.2362C5.59734 43.2503 5.60675 43.2597 5.61145 43.2691C5.62086 43.2926 5.63027 43.3114 5.64438 43.3303C5.64908 43.3397 5.65379 43.3491 5.65849 43.3585C5.6726 43.3867 5.69142 43.4102 5.71023 43.4384C5.71023 43.4384 5.71023 43.4384 5.71023 43.4431C5.72905 43.4714 5.75256 43.4949 5.77608 43.5231C5.78079 43.5325 5.79019 43.5372 5.7996 43.5419C5.81371 43.556 5.82782 43.5701 5.84193 43.5795C5.84193 43.5795 5.85134 43.5843 5.85134 43.589C5.88427 43.6172 5.9219 43.6407 5.95953 43.6642C5.96423 43.6642 5.96893 43.6689 5.97364 43.6736C6.00656 43.6924 6.04419 43.7113 6.08182 43.7254C6.09593 43.7301 6.11004 43.7348 6.11945 43.7395C6.15238 43.7489 6.1806 43.7583 6.21352 43.763C6.22763 43.763 6.24175 43.7677 6.25115 43.7724C6.29349 43.7771 6.34052 43.7818 6.38286 43.7818C6.42519 43.7818 6.47223 43.7771 6.51456 43.7724C6.51926 43.7724 6.52397 43.7724 6.52867 43.7724L21.9614 41.049L11.7639 46.8016C11.7356 46.8204 11.7074 46.8392 11.6792 46.858C11.6745 46.858 11.6698 46.8674 11.6604 46.8721C11.6369 46.8909 11.6133 46.9097 11.5898 46.9333C11.5898 46.9333 11.5851 46.9333 11.5804 46.9427C11.5569 46.9662 11.5334 46.9897 11.5146 47.0179C11.5099 47.0226 11.5052 47.032 11.5004 47.0367C11.4816 47.065 11.4628 47.0885 11.444 47.1167C11.4252 47.1449 11.4111 47.1779 11.397 47.2061C11.397 47.2108 11.3923 47.2202 11.3876 47.2249C11.364 47.286 11.3452 47.3519 11.3358 47.4177C11.3358 47.4271 11.3358 47.4319 11.3358 47.4413C11.3358 47.4742 11.3311 47.5071 11.3311 47.5447V57.6247C11.3311 57.6576 11.3311 57.6953 11.3358 57.7282C11.3358 57.7376 11.3358 57.7517 11.3405 57.7611C11.3405 57.7846 11.3499 57.8081 11.3546 57.8317C11.3546 57.8458 11.3593 57.8552 11.364 57.8693C11.3687 57.8881 11.3782 57.9116 11.3829 57.9304C11.3829 57.9446 11.3923 57.954 11.397 57.9681C11.4064 57.9916 11.4158 58.0104 11.4252 58.0292C11.4299 58.0386 11.4346 58.048 11.4393 58.0574C11.4534 58.0857 11.4722 58.1092 11.491 58.1327C11.491 58.1327 11.491 58.1374 11.4957 58.1421C11.5146 58.1703 11.5381 58.1938 11.5616 58.2221C11.571 58.2315 11.5757 58.2362 11.5851 58.2409C11.5992 58.255 11.6133 58.2644 11.6274 58.2785C11.6274 58.2785 11.6369 58.2832 11.6369 58.2879C11.6698 58.3161 11.7074 58.3397 11.745 58.3632C11.7497 58.3632 11.7544 58.3679 11.7591 58.3726C11.7921 58.3914 11.8297 58.4102 11.8673 58.4243C11.8814 58.429 11.8956 58.4337 11.905 58.4384C11.9379 58.4478 11.9661 58.4573 11.999 58.462C12.0131 58.462 12.0226 58.4667 12.0367 58.4714C12.079 58.4761 12.126 58.4808 12.1684 58.4808C12.2107 58.4808 12.2577 58.4808 12.3001 58.4714C12.3048 58.4714 12.3095 58.4714 12.3142 58.4714L41.5898 53.3114V56.3594C41.5898 56.397 41.5898 56.4394 41.5992 56.477C41.5992 56.4864 41.5992 56.5005 41.6039 56.5099C41.6086 56.5382 41.618 56.5664 41.6227 56.5946C41.6227 56.604 41.6274 56.6134 41.6322 56.6228C41.6416 56.6604 41.6557 56.6934 41.6745 56.7263C41.6745 56.731 41.6839 56.7404 41.6839 56.7451C41.698 56.7733 41.7121 56.7969 41.7309 56.8251C41.7356 56.8345 41.745 56.8439 41.7497 56.8533C41.7686 56.8768 41.7874 56.9003 41.8062 56.9239C41.8109 56.9286 41.8156 56.938 41.8203 56.9427C41.8438 56.9662 41.8673 56.9897 41.8956 57.0132C41.8956 57.0132 41.9003 57.0132 41.905 57.0179C41.9426 57.0462 41.9802 57.0744 42.0226 57.0979C42.0602 57.1167 42.0978 57.1355 42.1354 57.1543C42.1354 57.1543 42.1449 57.1543 42.1496 57.1543C42.1543 57.1543 42.159 57.1543 42.1637 57.159C42.206 57.1731 42.2483 57.1873 42.2954 57.192C42.2954 57.192 42.3001 57.192 42.3048 57.192C42.3518 57.2014 42.3988 57.2061 42.4459 57.2061C42.4929 57.2061 42.5353 57.2014 42.5823 57.192C42.5823 57.192 42.5917 57.192 42.5964 57.192L54.0639 55.1694C54.3085 55.1271 54.5202 54.9812 54.6472 54.7696C54.7742 54.5579 54.8071 54.3039 54.7319 54.0687L53.302 49.5203L54.7413 44.445C54.8212 44.1628 54.7507 43.8571 54.5531 43.6407C54.3885 43.4573 54.158 43.3585 53.9181 43.3585C53.8711 43.3585 53.8194 43.3585 53.7676 43.3726L47.7422 44.4356V41.4253C47.7422 41.3876 47.7422 41.3453 47.7328 41.3077C47.7328 41.2983 47.7328 41.2842 47.7281 41.2747C47.7234 41.2465 47.714 41.2183 47.7093 41.1901C47.7093 41.1807 47.7046 41.1713 47.6999 41.1619C47.6905 41.1242 47.6764 41.0913 47.6576 41.0584C47.6576 41.0537 47.6481 41.0443 47.6481 41.0396C47.634 41.0113 47.6199 40.9878 47.6011 40.9596C47.5964 40.9502 47.587 40.9408 47.5823 40.9314C47.5635 40.9079 47.5447 40.8843 47.5258 40.8608C47.5211 40.8561 47.5164 40.8467 47.5117 40.842C47.4882 40.8185 47.4647 40.795 47.4365 40.7715C47.4365 40.7715 47.4365 40.7715 47.4318 40.7715C47.3941 40.7432 47.3565 40.715 47.3142 40.6915C47.3142 40.6915 47.3095 40.6915 47.3048 40.6915C47.2719 40.6727 47.2342 40.6539 47.1966 40.6398C47.1966 40.6398 47.1872 40.6398 47.1825 40.6351C47.1778 40.6351 47.1731 40.635 47.1684 40.6303C47.126 40.6162 47.0837 40.6021 47.0367 40.5974C47.0367 40.5974 47.032 40.5974 47.0273 40.5974C46.9802 40.588 46.9332 40.5833 46.8862 40.5833C46.8391 40.5833 46.7968 40.588 46.7497 40.5974C46.7497 40.5974 46.7403 40.5974 46.7356 40.5974L42.9492 41.2653L53.1467 35.5128C53.175 35.4939 53.2032 35.4751 53.2314 35.4563C53.2361 35.4563 53.2408 35.4469 53.2502 35.4422C53.2737 35.4234 53.2972 35.4046 53.3208 35.3811C53.3208 35.3811 53.3255 35.3811 53.3302 35.3716C53.3537 35.3481 53.3772 35.3246 53.396 35.2964C53.4007 35.2917 53.4054 35.2823 53.4101 35.2776C53.429 35.2493 53.4478 35.2258 53.4666 35.1976C53.4854 35.1694 53.4995 35.1365 53.5136 35.1082C53.5136 35.1035 53.5183 35.0941 53.523 35.0894C53.5465 35.0283 53.5654 34.9624 53.5748 34.8966C53.5748 34.8872 53.5748 34.8825 53.5748 34.8731C53.5748 34.8401 53.5795 34.8072 53.5795 34.7696V24.6896C53.5795 24.6567 53.5795 24.6191 53.5748 24.5861C53.5748 24.5767 53.5748 24.5626 53.5701 24.5532C53.5701 24.5297 53.5607 24.5062 53.556 24.4827C53.556 24.4685 53.5512 24.4591 53.5465 24.445C53.5418 24.4215 53.5324 24.4027 53.523 24.3839C53.523 24.3698 53.5136 24.3604 53.5089 24.3509C53.4995 24.3274 53.4901 24.3086 53.476 24.2898C53.4713 24.2804 53.4666 24.271 53.4619 24.2616C53.4478 24.2334 53.429 24.2098 53.4101 24.1863C53.4101 24.1863 53.4101 24.1816 53.4054 24.1769C53.3866 24.1487 53.3631 24.1252 53.3396 24.1017C53.3302 24.0922 53.3255 24.0875 53.3161 24.0781C53.302 24.064 53.2925 24.0546 53.2784 24.0405C53.2784 24.0405 53.2737 24.0405 53.269 24.0311C53.2361 24.0029 53.1985 23.9794 53.1608 23.9558C53.1561 23.9558 53.1514 23.9511 53.1467 23.9464C53.1138 23.9276 53.0762 23.9088 53.0385 23.8947C53.0244 23.89 53.015 23.8853 53.0009 23.8806C52.968 23.8712 52.9398 23.8618 52.9068 23.8571C52.8927 23.8571 52.8833 23.8524 52.8692 23.8477C52.8269 23.843 52.7798 23.8382 52.7375 23.8382C52.6952 23.8382 52.6481 23.8382 52.6058 23.8477C52.6011 23.8477 52.5964 23.8477 52.5917 23.8477L37.126 26.5758L37.1166 26.557ZM52.4083 49.5391L53.9134 54.3321L43.8288 56.1101L44.5814 55.287C44.5814 55.287 44.6002 55.287 44.6049 55.287L47.413 54.7931C47.6434 54.7508 47.7987 54.5297 47.761 54.2992C47.7187 54.0687 47.4976 53.9088 47.2671 53.9511L45.5268 54.2569L46.1806 53.5466L47.4177 53.3303C47.6481 53.2879 47.8034 53.0668 47.7657 52.8364C47.7234 52.6059 47.5023 52.4507 47.2719 52.4883L47.126 52.5118L47.5164 52.0838C47.5164 52.0838 47.5211 52.0791 47.5258 52.0744C47.54 52.0603 47.5494 52.0462 47.5588 52.032C47.5635 52.0273 47.5682 52.0179 47.5729 52.0132C47.5823 51.9991 47.5917 51.985 47.6011 51.9709C47.6011 51.9662 47.6105 51.9568 47.6152 51.9521C47.6246 51.938 47.634 51.9192 47.6434 51.905C47.6434 51.9003 47.6481 51.8909 47.6528 51.8862C47.6623 51.8674 47.667 51.8486 47.6764 51.8298C47.6764 51.8251 47.6764 51.8204 47.6811 51.8157C47.6905 51.7969 47.6952 51.7733 47.6999 51.7545C47.6999 51.7545 47.6999 51.7451 47.6999 51.7404C47.7046 51.7169 47.7093 51.6981 47.714 51.6746C47.714 51.6746 47.714 51.6699 47.714 51.6652C47.714 51.6416 47.7234 51.6181 47.7234 51.5946C47.7234 51.5946 47.7234 51.5946 47.7234 51.5899C47.7234 51.5617 47.7234 51.5382 47.7234 51.5099V45.3105L53.8993 44.2239L52.3941 49.5485L52.4083 49.5391ZM42.4506 53.1515L45.9407 52.5353L45.7102 52.7893C45.6491 52.827 45.602 52.8834 45.5691 52.9446L42.4506 56.35V53.1515ZM46.8862 41.4206V42.2108C46.8626 42.2108 46.8391 42.2108 46.8109 42.2155L44.5531 42.6153C44.3227 42.6576 44.1674 42.8787 44.2051 43.1092C44.2427 43.3161 44.4214 43.462 44.6237 43.462C44.6472 43.462 44.6754 43.462 44.6989 43.4573L46.8814 43.0716V43.7677C46.8579 43.7677 46.8344 43.7677 46.8062 43.7724L44.5484 44.1722C44.3179 44.2145 44.1627 44.4356 44.2004 44.6661C44.238 44.8731 44.4167 45.0189 44.619 45.0189C44.6425 45.0189 44.6707 45.0189 44.6942 45.0142L46.8767 44.6285V45.3246C46.8532 45.3246 46.8297 45.3246 46.8015 45.3293L44.5437 45.7291C44.3132 45.7715 44.158 45.9925 44.1956 46.223C44.2333 46.43 44.412 46.5758 44.6143 46.5758C44.6378 46.5758 44.666 46.5758 44.6895 46.5711L46.872 46.1854V46.8815C46.8485 46.8815 46.825 46.8815 46.7968 46.8862L44.539 47.286C44.3085 47.3284 44.1533 47.5494 44.1909 47.7799C44.2286 47.9869 44.4073 48.1327 44.6096 48.1327C44.6331 48.1327 44.6613 48.1327 44.6848 48.128L46.8673 47.7423V48.4384C46.8438 48.4384 46.8203 48.4384 46.7921 48.4431L44.5343 48.843C44.3038 48.8853 44.1486 49.1064 44.1862 49.3368C44.2239 49.5438 44.4026 49.6896 44.6049 49.6896C44.6284 49.6896 44.6566 49.6896 44.6801 49.6849L46.8626 49.2992V49.9954C46.8391 49.9954 46.8156 49.9954 46.7874 50.0001L44.5296 50.3999C44.2991 50.4422 44.1439 50.6633 44.1815 50.8938C44.2192 51.1007 44.3979 51.2465 44.6002 51.2465C44.6237 51.2465 44.6519 51.2465 44.6754 51.2418L46.8579 50.8561V51.5052L12.1448 57.6247V56.9709C12.1448 56.9709 12.1684 56.9709 12.1778 56.9709L14.4355 56.5711C14.666 56.5287 14.8212 56.3077 14.7836 56.0772C14.7413 55.8467 14.5202 55.6868 14.2897 55.7291L12.1448 56.1054V55.414C12.1448 55.414 12.1684 55.414 12.1778 55.414L14.4355 55.0142C14.666 54.9718 14.8212 54.7508 14.7836 54.5203C14.7413 54.2898 14.5202 54.1346 14.2897 54.1722L12.1448 54.5485V53.8571C12.1448 53.8571 12.1684 53.8571 12.1778 53.8571L14.4355 53.4573C14.666 53.4149 14.8212 53.1938 14.7836 52.9634C14.7413 52.7329 14.5202 52.5777 14.2897 52.6153L12.1448 52.9916V52.3002C12.1448 52.3002 12.1684 52.3002 12.1778 52.3002L14.4355 51.9003C14.666 51.858 14.8212 51.6369 14.7836 51.4065C14.7413 51.176 14.5202 51.0208 14.2897 51.0584L12.1448 51.4347V50.7432C12.1448 50.7432 12.1684 50.7432 12.1778 50.7432L14.4355 50.3434C14.666 50.3011 14.8212 50.08 14.7836 49.8495C14.7413 49.6191 14.5202 49.4638 14.2897 49.5015L12.1448 49.8778V49.1863C12.1448 49.1863 12.1684 49.1863 12.1778 49.1863L14.4355 48.7865C14.666 48.7442 14.8212 48.5231 14.7836 48.2926C14.7413 48.0621 14.5202 47.9022 14.2897 47.9446L12.1448 48.3209V47.54L46.8579 41.4206H46.8862ZM14.412 46.2795L24.4826 40.6021L50.4892 36.016L40.4186 41.6934L14.412 46.2795ZM6.64626 18.0715L5.14109 13.2785L15.2258 11.5005L14.4732 12.3237C14.4732 12.3237 14.4544 12.3237 14.4449 12.3237L11.6369 12.8176C11.4064 12.8599 11.2512 13.081 11.2888 13.3114C11.3264 13.5184 11.5052 13.6642 11.7074 13.6642C11.7309 13.6642 11.7591 13.6642 11.7827 13.6595L13.5277 13.3538L12.8739 14.0687L11.6321 14.2898C11.4017 14.3321 11.2464 14.5532 11.2841 14.7837C11.3217 14.9906 11.5004 15.1365 11.7027 15.1365C11.7262 15.1365 11.7544 15.1365 11.778 15.1318L11.9238 15.1082L11.5334 15.5363C11.5334 15.5363 11.524 15.5457 11.524 15.5504C11.5146 15.5598 11.5052 15.5739 11.4957 15.5833C11.4863 15.5927 11.4816 15.6021 11.4769 15.6115C11.4675 15.6209 11.4581 15.635 11.4534 15.6492C11.4487 15.6586 11.4393 15.668 11.4346 15.6774C11.4252 15.6915 11.4205 15.7056 11.4111 15.715C11.4064 15.7244 11.4017 15.7338 11.397 15.7432C11.3876 15.7573 11.3829 15.7715 11.3782 15.7903C11.3782 15.7997 11.3687 15.8044 11.3687 15.8138C11.364 15.8326 11.3546 15.8467 11.3499 15.8655C11.3499 15.8749 11.3452 15.8796 11.3452 15.889C11.3405 15.9079 11.3358 15.9267 11.3311 15.9455C11.3311 15.9502 11.3311 15.9596 11.3311 15.9643C11.3311 15.9831 11.3264 16.0066 11.3217 16.0255C11.3217 16.0302 11.3217 16.0349 11.3217 16.0396C11.3217 16.0678 11.3217 16.0913 11.3217 16.1195V22.319L5.14579 23.4055L6.65096 18.081L6.64626 18.0715ZM16.6086 14.4544L13.1185 15.0706L13.3537 14.8119C13.4054 14.7743 13.4525 14.7272 13.4807 14.6708L16.6039 11.2559V14.4544H16.6086ZM12.1731 26.1854V25.3999C12.1731 25.3999 12.1966 25.3999 12.206 25.3999L14.4638 25.0001C14.6942 24.9577 14.8495 24.7366 14.8118 24.5062C14.7695 24.2757 14.5484 24.1205 14.3179 24.1581L12.1731 24.5344V23.843C12.1731 23.843 12.1966 23.843 12.206 23.843L14.4638 23.4431C14.6942 23.4008 14.8495 23.1797 14.8118 22.9493C14.7695 22.7188 14.5484 22.5636 14.3179 22.6012L12.1731 22.9775V22.286C12.1731 22.286 12.1966 22.286 12.206 22.286L14.4638 21.8862C14.6942 21.8439 14.8495 21.6228 14.8118 21.3923C14.7695 21.1619 14.5484 21.0066 14.3179 21.0443L12.1731 21.4206V20.7291C12.1731 20.7291 12.1966 20.7291 12.206 20.7291L14.4638 20.3293C14.6942 20.287 14.8495 20.0659 14.8118 19.8354C14.7695 19.6049 14.5484 19.4497 14.3179 19.4874L12.1731 19.8636V19.1722C12.1731 19.1722 12.1966 19.1722 12.206 19.1722L14.4638 18.7724C14.6942 18.7301 14.8495 18.509 14.8118 18.2785C14.7695 18.048 14.5484 17.8928 14.3179 17.9304L12.1731 18.3067V17.6153C12.1731 17.6153 12.1966 17.6153 12.206 17.6153L14.4638 17.2155C14.6942 17.1731 14.8495 16.9521 14.8118 16.7216C14.7695 16.4911 14.5484 16.3359 14.3179 16.3735L12.1731 16.7498V16.1007L46.8862 9.98124V10.6398C46.8626 10.6398 46.8391 10.6398 46.8109 10.6445L44.5531 11.0443C44.3227 11.0866 44.1674 11.3077 44.2051 11.5382C44.2427 11.7451 44.4214 11.8909 44.6237 11.8909C44.6472 11.8909 44.6754 11.8909 44.6989 11.8862L46.8814 11.5005V12.1967C46.8579 12.1967 46.8344 12.1967 46.8062 12.2014L44.5484 12.6012C44.3179 12.6435 44.1627 12.8646 44.2004 13.0951C44.238 13.302 44.4167 13.4478 44.619 13.4478C44.6425 13.4478 44.6707 13.4478 44.6942 13.4431L46.8767 13.0574V13.7536C46.8532 13.7536 46.8297 13.7536 46.8015 13.7583L44.5437 14.1581C44.3132 14.2004 44.158 14.4215 44.1956 14.652C44.2333 14.8589 44.412 15.0048 44.6143 15.0048C44.6378 15.0048 44.666 15.0048 44.6895 15.0001L46.872 14.6144V15.3105C46.8485 15.3105 46.825 15.3105 46.7968 15.3152L44.539 15.715C44.3085 15.7573 44.1533 15.9784 44.1909 16.2089C44.2286 16.4159 44.4073 16.5617 44.6096 16.5617C44.6331 16.5617 44.6613 16.5617 44.6848 16.557L46.8673 16.1713V16.8674C46.8438 16.8674 46.8203 16.8674 46.7921 16.8721L44.5343 17.2719C44.3038 17.3143 44.1486 17.5353 44.1862 17.7658C44.2239 17.9728 44.4026 18.1186 44.6049 18.1186C44.6284 18.1186 44.6566 18.1186 44.6801 18.1139L46.8626 17.7282V18.4243C46.8391 18.4243 46.8156 18.4243 46.7874 18.429L44.5296 18.8288C44.2991 18.8712 44.1439 19.0922 44.1815 19.3227C44.2192 19.5297 44.3979 19.6755 44.6002 19.6755C44.6237 19.6755 44.6519 19.6755 44.6754 19.6708L46.8579 19.2851V20.0659L12.1448 26.1854H12.1731ZM44.6472 21.3265L34.5861 27.0038L8.60769 31.5852L18.6688 25.9079L44.6472 21.3265ZM6.36874 42.9257V42.1402C6.36874 42.1402 6.39226 42.1402 6.40167 42.1402L8.65943 41.7404C8.88991 41.6981 9.04513 41.477 9.0075 41.2465C8.96517 41.0161 8.7441 40.8561 8.51362 40.8985L6.36874 41.2747V40.5833C6.36874 40.5833 6.39226 40.5833 6.40167 40.5833L8.65943 40.1835C8.88991 40.1412 9.04513 39.9201 9.0075 39.6896C8.96517 39.4591 8.7441 39.3039 8.51362 39.3415L6.36874 39.7178V39.0264C6.36874 39.0264 6.39226 39.0264 6.40167 39.0264L8.65943 38.6266C8.88991 38.5843 9.04513 38.3632 9.0075 38.1327C8.96517 37.9022 8.7441 37.747 8.51362 37.7846L6.36874 38.1609V37.4695C6.36874 37.4695 6.39226 37.4695 6.40167 37.4695L8.65943 37.0697C8.88991 37.0273 9.04513 36.8063 9.0075 36.5758C8.96517 36.3453 8.7441 36.1901 8.51362 36.2277L6.36874 36.604V35.9126C6.36874 35.9126 6.39226 35.9126 6.40167 35.9126L8.65943 35.5128C8.88991 35.4704 9.04513 35.2493 9.0075 35.0189C8.96517 34.7884 8.7441 34.6332 8.51362 34.6708L6.36874 35.0471V34.3557C6.36874 34.3557 6.39226 34.3557 6.40167 34.3557L8.65943 33.9558C8.88991 33.9135 9.04513 33.6924 9.0075 33.462C8.96517 33.2315 8.7441 33.0763 8.51362 33.1139L6.36874 33.4902V32.8411L52.7281 24.6661V25.3246C52.7046 25.3246 52.6811 25.3246 52.6528 25.3293L50.3951 25.7291C50.1646 25.7715 50.0094 25.9925 50.047 26.223C50.0846 26.43 50.2634 26.5758 50.4656 26.5758C50.4892 26.5758 50.5174 26.5758 50.5409 26.5711L52.7234 26.1854V26.8815C52.6999 26.8815 52.6764 26.8815 52.6481 26.8862L50.3904 27.286C50.1599 27.3284 50.0047 27.5494 50.0423 27.7799C50.0799 27.9869 50.2587 28.1327 50.4609 28.1327C50.4845 28.1327 50.5127 28.1327 50.5362 28.128L52.7187 27.7423V28.4384C52.6952 28.4384 52.6717 28.4384 52.6434 28.4431L50.3857 28.843C50.1552 28.8853 50 29.1064 50.0376 29.3368C50.0752 29.5438 50.254 29.6896 50.4562 29.6896C50.4798 29.6896 50.508 29.6896 50.5315 29.6849L52.714 29.2992V29.9954C52.6905 29.9954 52.667 29.9954 52.6387 30.0001L50.381 30.3999C50.1505 30.4422 49.9953 30.6633 50.0329 30.8938C50.0705 31.1007 50.2493 31.2465 50.4515 31.2465C50.475 31.2465 50.5033 31.2465 50.5268 31.2418L52.7093 30.8561V31.5523C52.6858 31.5523 52.6623 31.5523 52.634 31.557L50.3763 31.9568C50.1458 31.9991 49.9906 32.2202 50.0282 32.4507C50.0658 32.6576 50.2446 32.8034 50.4468 32.8034C50.4703 32.8034 50.4986 32.8034 50.5221 32.7987L52.7046 32.413V33.1092C52.6811 33.1092 52.6576 33.1092 52.6293 33.1139L50.3716 33.5137C50.1411 33.556 49.9859 33.7771 50.0235 34.0076C50.0611 34.2145 50.2399 34.3604 50.4421 34.3604C50.4656 34.3604 50.4939 34.3604 50.5174 34.3557L52.6999 33.97V34.7508L6.36874 42.9257Z" fill="#040000"/>
<path id="Vector_57" d="M17.3424 17.3989C19.7177 16.9991 22.0931 16.5993 24.4685 16.1947C28.2361 15.5597 32.0037 14.9247 35.7714 14.285C36.6416 14.1392 37.5117 13.9934 38.3819 13.8429C39.0545 13.73 38.7676 12.7046 38.0997 12.8175C35.7243 13.2173 33.349 13.6171 30.9736 14.0216C27.206 14.6566 23.4384 15.2916 19.6707 15.9313C18.8005 16.0771 17.9304 16.223 17.0602 16.3735C16.3876 16.4864 16.6745 17.5118 17.3424 17.3989Z" fill="white"/>
<path id="Vector_58" d="M18.5089 33.095C21.7121 32.5541 24.9153 32.0132 28.1185 31.4723L43.4054 28.89C44.5625 28.6924 45.7243 28.4996 46.8814 28.302C47.5541 28.1891 47.2671 27.1637 46.5992 27.2766C43.396 27.8175 40.1928 28.3585 36.9896 28.8994C31.8955 29.7601 26.7968 30.6209 21.7027 31.4817C20.5456 31.6792 19.3838 31.8721 18.2267 32.0696C17.5541 32.1825 17.841 33.2079 18.5089 33.095Z" fill="white"/>
<path id="Vector_59" d="M17.2248 49.3509C19.3791 48.9887 21.5334 48.6219 23.683 48.2597C27.0978 47.6811 30.5174 47.1073 33.9323 46.5287C34.7272 46.397 35.5221 46.2606 36.3123 46.1289C36.985 46.016 36.698 44.9906 36.0301 45.1035C33.8758 45.4657 31.7215 45.8326 29.572 46.1948C26.1571 46.7733 22.7375 47.3472 19.3227 47.9257C18.5278 48.0574 17.7328 48.1938 16.9426 48.3255C16.27 48.4384 16.5569 49.4638 17.2248 49.3509Z" fill="white"/>
<path id="Vector_60" d="M38.8053 45.6491C39.7366 45.4845 40.6632 45.3246 41.5945 45.16L41.9991 45.0894C42.2719 45.0424 42.4506 44.6896 42.3706 44.4356C42.2766 44.1393 42.0132 44.0123 41.7168 44.064C40.7855 44.2286 39.8589 44.3885 38.9276 44.5532L38.523 44.6237C38.2502 44.6708 38.0715 45.0235 38.1515 45.2775C38.2455 45.5739 38.5089 45.7009 38.8053 45.6491Z" fill="white"/>
<path id="Vector_61" d="M14.0169 33.97C14.6378 33.8618 15.2587 33.7536 15.8843 33.6407L16.1524 33.5937C16.4252 33.5466 16.604 33.1939 16.524 32.9399C16.4299 32.6435 16.1665 32.5165 15.8702 32.5683C15.2493 32.6765 14.6284 32.7846 14.0028 32.8975L13.7347 32.9446C13.4619 32.9916 13.2832 33.3444 13.3631 33.5984C13.4572 33.8947 13.7206 34.0217 14.0169 33.97Z" fill="white"/>
</g>
</g>
</g>
</svg>
