<svg width="24" height="26" viewBox="0 0 24 26" fill="none" xmlns="http://www.w3.org/2000/svg">
<g id="Group">
<path id="Vector" d="M9.93734 9.93605C10.9957 8.8778 12.4202 8.26681 13.9164 8.22946C15.4126 8.19211 16.8659 8.73126 17.9757 9.73538L18.1868 9.93605L21.4862 13.2365C22.5607 14.313 23.1723 15.7666 23.1906 17.2874C23.209 18.8083 22.6325 20.2762 21.5842 21.3782C20.5359 22.4802 19.0986 23.1292 17.5788 23.1868C16.0589 23.2445 14.5766 22.7062 13.4478 21.6867L13.2378 21.486L10.7622 19.0104C10.5529 18.8004 10.4315 18.5187 10.4224 18.2224C10.4134 17.9262 10.5174 17.6375 10.7135 17.4152C10.9095 17.1929 11.1828 17.0535 11.4779 17.0254C11.773 16.9973 12.0677 17.0826 12.3022 17.2639L12.4118 17.3607L14.8875 19.8364C15.5293 20.4819 16.3972 20.852 17.3073 20.8682C18.2174 20.8843 19.098 20.5454 19.7623 19.9231C20.4266 19.3008 20.8223 18.4443 20.8656 17.5351C20.9089 16.6259 20.5962 15.7356 19.994 15.053L19.8365 14.8862L16.5372 11.5869C16.2122 11.2618 15.8263 11.004 15.4016 10.828C14.9769 10.6521 14.5218 10.5615 14.0621 10.5615C13.6024 10.5615 13.1472 10.6521 12.7226 10.828C12.2979 11.004 11.912 11.2618 11.587 11.5869C11.3681 11.8056 11.0712 11.9285 10.7618 11.9284C10.4523 11.9283 10.1555 11.8052 9.93675 11.5863C9.71799 11.3674 9.59516 11.0705 9.59527 10.7611C9.59538 10.4516 9.71842 10.1548 9.93734 9.93605ZM2.51267 2.51138C3.57099 1.45313 4.99557 0.842147 6.49174 0.804797C7.98791 0.767447 9.4412 1.30659 10.551 2.31071L10.7622 2.51138L13.2367 4.98821C13.4459 5.19816 13.5674 5.47989 13.5764 5.77616C13.5855 6.07244 13.4814 6.36105 13.2854 6.58337C13.0893 6.8057 12.816 6.94507 12.521 6.97318C12.2259 7.00129 11.9312 6.91603 11.6967 6.73471L11.587 6.63788L9.1125 4.16338C8.46963 3.5247 7.60411 3.16025 6.69801 3.14672C5.79191 3.13318 4.91589 3.47161 4.25423 4.0908C3.59257 4.70999 3.19685 5.56168 3.15034 6.46668C3.10383 7.37168 3.41014 8.25945 4.00484 8.94321L4.16234 9.11121L7.46284 12.4117C8.11918 13.0679 9.00926 13.4365 9.93734 13.4365C10.8654 13.4365 11.7555 13.0679 12.4118 12.4117C12.5202 12.3033 12.6488 12.2173 12.7903 12.1586C12.9319 12.0999 13.0836 12.0697 13.2368 12.0696C13.3901 12.0696 13.5418 12.0997 13.6834 12.1583C13.825 12.2169 13.9537 12.3028 14.0621 12.4111C14.1705 12.5194 14.2565 12.6481 14.3152 12.7896C14.3739 12.9312 14.4041 13.0829 14.4042 13.2361C14.4042 13.3894 14.3741 13.5411 14.3155 13.6827C14.2569 13.8243 14.171 13.953 14.0627 14.0614C13.0044 15.1196 11.5798 15.7306 10.0836 15.768C8.58743 15.8053 7.13414 15.2662 6.02434 14.262L5.812 14.0614L2.51267 10.7609C1.41909 9.66697 0.804749 8.1835 0.804749 6.63671C0.804749 5.08992 1.41909 3.60529 2.51267 2.51138Z" fill="#956134"/>
</g>
</svg>
