<svg width="171" height="180" viewBox="0 0 171 180" fill="none" xmlns="http://www.w3.org/2000/svg">
<path d="M110.3 30.6L109.1 33.5C108.8 34.1 109.1 34.8 109.8 35.1C109.9 35.1 110.1 35.1 110.3 35.1C110.8 35.1 111.2 34.8 111.4 34.4L112.6 31.5C112.9 30.9 112.6 30.2 111.9 29.9C111.3 29.6 110.6 29.9 110.3 30.6Z" fill="#C59D62"/>
<path d="M128.6 42.3L126.3 44.6C125.8 45.1 125.8 45.8 126.3 46.3C126.5 46.5 126.8 46.7001 127.2 46.7001C127.6 46.7001 127.8 46.6 128.1 46.3L130.4 44C130.9 43.5 130.9 42.8 130.4 42.3C129.9 41.8 129.2 41.8 128.7 42.3H128.6Z" fill="#C59D62"/>
<path d="M37.9001 62.4L40.8001 63.6C40.9001 63.6 41.1001 63.6 41.3001 63.6C41.8001 63.6 42.2001 63.3 42.4001 62.9C42.7001 62.3 42.4001 61.6 41.7001 61.3L38.8001 60.1C38.2001 59.8 37.5001 60.1 37.2001 60.8C36.9001 61.4 37.2001 62.1 37.9001 62.4Z" fill="#C59D62"/>
<path d="M45.9001 39.7999C46.2001 39.7999 46.5001 39.7 46.8001 39.4C47.3001 38.9 47.3001 38.2 46.8001 37.7L37.8001 28.7C37.3001 28.2 36.6001 28.2 36.1001 28.7C35.6001 29.2 35.6001 29.9 36.1001 30.4L45.1001 39.4C45.3001 39.6 45.6001 39.7999 46.0001 39.7999H45.9001Z" fill="#C59D62"/>
<path d="M49.7 42.3C49.2 42.8 49.2 43.5 49.7 44L52 46.3C52.2 46.5 52.5 46.7001 52.9 46.7001C53.3 46.7001 53.4999 46.6 53.7999 46.3C54.2999 45.8 54.2999 45.1 53.7999 44.6L51.5 42.3C51 41.8 50.2999 41.8 49.7999 42.3H49.7Z" fill="#C59D62"/>
<path d="M68.1999 29.9999C67.5999 30.2999 67.2999 30.9999 67.4999 31.5999L68.6999 34.4999C68.8999 34.9999 69.2999 35.1999 69.7999 35.1999C70.2999 35.1999 70.0999 35.1999 70.2999 35.1999C70.8999 34.8999 71.1999 34.1999 70.9999 33.5999L69.7999 30.6999C69.4999 30.0999 68.7999 29.7999 68.1999 29.9999Z" fill="#C59D62"/>
<path d="M118.6 39.9001C118.8 40.0001 119 40.1001 119.3 40.1001C119.7 40.1001 120.1 39.9001 120.3 39.6001L122.1 36.9001C122.5 36.3001 122.3 35.6001 121.8 35.2001C121.2 34.8001 120.5 35.0001 120.1 35.5001L118.3 38.2001C117.9 38.8001 118.1 39.5001 118.6 39.9001Z" fill="#C59D62"/>
<path d="M38.2001 49.3C38.6001 49.3 39.0001 49.1 39.2001 48.8C39.6001 48.2 39.4001 47.5 38.9001 47.1L28.4001 40.1C27.8001 39.7 27.1001 39.9 26.7001 40.4C26.3001 41 26.5001 41.7 27.0001 42.1L37.5001 49.1C37.7001 49.2 37.9001 49.3 38.2001 49.3Z" fill="#C59D62"/>
<path d="M42.9 52.7001L45.6 54.5001C45.8 54.6001 46 54.7001 46.3 54.7001C46.7 54.7001 47.1 54.5001 47.3 54.2001C47.7 53.6001 47.5 52.9001 47 52.5001L44.3 50.7001C43.7 50.3001 43 50.5001 42.6 51.0001C42.2 51.6001 42.4 52.3001 42.9 52.7001Z" fill="#C59D62"/>
<path d="M58.3 35.3001C57.7 35.7001 57.6 36.4001 58 37.0001L59.8 39.7001C60 40.1001 60.4 40.2001 60.8 40.2001C61.2 40.2001 61.3 40.2001 61.5 40.0001C62.1 39.6001 62.2 38.9001 61.8 38.3001L60 35.6001C59.6 35.0001 58.9 34.9001 58.3 35.3001Z" fill="#C59D62"/>
<path d="M111.9 118.3H49.2C49.2 118.3 41.5 121.8 42.8 127.8C44.1 133.7 46.6 137.9 52.1 139.5C57.6 141.2 115.1 139.5 115.1 139.5C115.1 139.5 103.5 132.7 112.5 118.9" fill="#EEC599"/>
<path d="M107.9 45.5C107.9 45.5 105.3 45.9 103.4 49.2H54C54 49.2 54 46.7 58.7 45.7C61.6 45.1 107.9 45.5 107.9 45.5Z" fill="white"/>
<path d="M91.2 121.7C91.2 121.7 90 122.4 90 124.6H47.8C47.8 124.6 47.3 121.9 50.9 121.9C54.5 121.9 91.2 121.7 91.2 121.7Z" fill="white"/>
<path d="M108.9 124.7H121.3C120.6 121 117.9 118.3 114.9 118.3C112 118.3 109.7 120.7 108.9 124.7Z" fill="#AACCD4"/>
<path d="M100.7 56.4H56.2C55.3 56.4 54.5 55.7 54.5 54.7C54.5 53.7 55.2 53 56.2 53H100.7C101.6 53 102.4 53.7 102.4 54.7C102.4 55.7 101.7 56.4 100.7 56.4Z" fill="#151515"/>
<path d="M100.9 69.1H56.4C55.5 69.1 54.7 68.4 54.7 67.4C54.7 66.4 55.4 65.7 56.4 65.7H100.9C101.8 65.7 102.6 66.4 102.6 67.4C102.6 68.4 101.9 69.1 100.9 69.1Z" fill="#151515"/>
<path d="M105.7 81.7999H61.2C60.3 81.7999 59.5 81.0999 59.5 80.0999C59.5 79.0999 60.2 78.3999 61.2 78.3999H105.7C106.6 78.3999 107.4 79.0999 107.4 80.0999C107.4 81.0999 106.7 81.7999 105.7 81.7999Z" fill="#151515"/>
<path d="M113 94.5001H68.5C67.6 94.5001 66.8 93.8001 66.8 92.8001C66.8 91.8001 67.5 91.1001 68.5 91.1001H113C113.9 91.1001 114.7 91.8001 114.7 92.8001C114.7 93.8001 114 94.5001 113 94.5001Z" fill="#151515"/>
<path d="M120 107.3H75.5C74.6 107.3 73.8 106.6 73.8 105.6C73.8 104.6 74.5 103.9 75.5 103.9H120C120.9 103.9 121.7 104.6 121.7 105.6C121.7 106.6 121 107.3 120 107.3Z" fill="#151515"/>
<path d="M119.7 123.6C119.7 123.6 116.1 117.2 112.4 123.6H119.7Z" fill="#0E9B94"/>
<path d="M132.6 51.8999L103.6 70.7999L22.3999 84.9999L53.0999 65.9999L132.6 51.9999V51.8999Z" fill="#A28A78"/>
<path d="M152.1 93.1001L120.7 112.4L39.5 126.6L70.2 107.5L152.1 93.1001Z" fill="#A28A78"/>
<path d="M137.8 110.2L36.1001 128V158.5L55.4001 156.2L137.9 140.4L137.7 110.2H137.8Z" fill="#F1D8BC"/>
<path d="M138.2 19.6001L37.1001 37.1001V67.1001L51.7001 66.1001L139 50.7001L138.1 19.6001H138.2Z" fill="#F0EFEF"/>
<path d="M155.9 61.6001L20.4 85.3001L19.3 115.3L51.8 111.4L154.7 91.7001L156 61.6001H155.9Z" fill="#F1D8BC"/>
<path d="M122.6 143.3L137 141.4L125.3 154.9H122.6V143.3Z" fill="#A28A78"/>
<path d="M158.1 118.1L153.8 134.3L158.1 148.4L125.3 154.8L137.5 140.4L139 121.1L158 118L158.1 118.1Z" fill="#A28A78"/>
<path d="M48.5 23.3L16 29.7001L19.3 43.4001L16 59.9001L36.1 56.6V37.1L51.6 33.5V24.2001L48.5 23.3Z" fill="#A28A78"/>
<path d="M139.1 121.2L158.1 118.1L158.6 119.6L154.1 135.3L158.1 148.4L125.9 154.8L136.2 142.5L138.6 140.8L139 121.1L139.1 121.2Z" fill="#17958D"/>
<path d="M46.6 23.7L16 29.7L20.4 43.9L16 60L36.1 56.7L35.7 38.2L46.6 23.7Z" fill="#E5AB39"/>
<path d="M108.9 68.1999L138.2 51.7C138.2 51.7 138.4 51.5999 138.4 51.5C138.4 51.5 138.5 51.3999 138.6 51.2999C138.6 51.2999 138.7 51.1999 138.8 51.0999C138.8 51.0999 138.9 51 138.9 50.9C138.9 50.9 138.9 50.6999 139 50.5999C139 50.3999 139.1 50.2 139.1 50C139.1 49.7999 139.1 49.6999 139.1 49.5999V20.6C139.1 20.6 139.1 20.3999 139.1 20.2999C139.1 20.2999 139.1 20.2 139.1 20.1C139.1 20.1 139.1 20.1 139.1 20C139.1 20 139.1 19.8999 139.1 19.7999C139.1 19.7999 139.1 19.8 139.1 19.7C139.1 19.7 139.1 19.6 139.1 19.5C139.1 19.5 139.1 19.3999 139 19.2999C139 19.2999 138.9 19.2 138.8 19.1C138.8 19.1 138.8 19.1 138.7 19C138.7 19 138.5 18.8999 138.4 18.7999C138.3 18.7999 138.2 18.7 138.1 18.7C138.1 18.7 138.1 18.7 138 18.7C138 18.7 137.8 18.7 137.7 18.7C137.7 18.7 137.7 18.7 137.6 18.7C137.5 18.7 137.3 18.7 137.2 18.7C137.1 18.7 136.9 18.7 136.8 18.7L52.5999 33.5V24.7C52.5999 24.6 52.5999 24.4999 52.5999 24.4V24.2C52.5999 24.1 52.5999 23.9999 52.4999 23.9C52.4999 23.9 52.4999 23.8 52.3999 23.7C52.3999 23.7 52.2999 23.6 52.1999 23.5C52.1999 23.5 52.0999 23.3999 51.9999 23.2999C51.8999 23.2999 51.7999 23.1 51.6999 23.1C51.5999 23.1 51.4999 23 51.3999 23C51.2999 23 51.1999 23 50.9999 23C50.8999 23 50.6999 23 50.5999 23C50.4999 23 50.2999 23 50.1999 23L17.1999 28.7999C16.4999 28.9 15.8999 29.2999 15.4999 29.9C15.0999 30.5 14.9999 31.2 15.2999 31.9L19.3999 45L15.2999 59.5999C15.0999 60.3999 15.2999 61.3 15.7999 61.9C16.2999 62.4 16.8999 62.7 17.5999 62.7C18.2999 62.7 17.8999 62.7 17.9999 62.7L35.2999 59.5999V68.3C35.2999 68.4 35.2999 68.5 35.2999 68.5999V68.8C35.2999 68.9 35.2999 69 35.3999 69.0999C35.3999 69.0999 35.3999 69.3 35.4999 69.3C35.4999 69.3 35.5999 69.4 35.6999 69.5C35.6999 69.5 35.7999 69.5999 35.8999 69.6999C35.9999 69.6999 36.0999 69.9 36.1999 69.9C36.1999 69.9 36.3999 70 36.4999 70C36.5999 70 36.6999 70 36.8999 70C36.9999 70 37.1999 70 37.2999 70C37.3999 70 37.5999 70 37.6999 70L48.6999 68.0999L19.3999 84.5999C19.3999 84.5999 19.1999 84.7 19.1999 84.8C19.1999 84.8 19.0999 84.9 18.9999 85C18.9999 85 18.8999 85.1 18.7999 85.2C18.7999 85.2 18.6999 85.2999 18.6999 85.3999C18.6999 85.3999 18.6999 85.6 18.5999 85.7C18.5999 85.8999 18.4999 86.1 18.4999 86.3C18.4999 86.5 18.4999 86.6 18.4999 86.7V115.7C18.4999 115.7 18.4999 115.9 18.4999 116C18.4999 116 18.4999 116.1 18.4999 116.2C18.4999 116.2 18.4999 116.2 18.4999 116.3C18.4999 116.3 18.4999 116.4 18.4999 116.5C18.4999 116.5 18.4999 116.6 18.4999 116.7C18.4999 116.7 18.4999 116.8 18.5999 116.9C18.5999 116.9 18.6999 117.1 18.7999 117.1C18.7999 117.1 18.7999 117.1 18.8999 117.2C18.8999 117.2 19.0999 117.3 19.1999 117.4C19.1999 117.4 19.3999 117.5 19.4999 117.5C19.4999 117.5 19.4999 117.5 19.5999 117.5C19.5999 117.5 19.7999 117.5 19.8999 117.5C19.8999 117.5 19.8999 117.5 19.9999 117.5C20.0999 117.5 20.2999 117.5 20.3999 117.5C20.4999 117.5 20.6999 117.5 20.7999 117.5L65.1999 109.7L35.8999 126.2C35.8999 126.2 35.6999 126.3 35.6999 126.4C35.6999 126.4 35.5999 126.5 35.4999 126.6C35.4999 126.6 35.3999 126.7 35.2999 126.8C35.2999 126.8 35.1999 126.9 35.0999 127C35.0999 127 35.0999 127.2 34.9999 127.3C34.9999 127.5 34.8999 127.7 34.8999 127.9C34.8999 128.1 34.8999 128.2 34.8999 128.3V157.3C34.8999 157.3 34.8999 157.5 34.8999 157.6C34.8999 157.6 34.8999 157.7 34.8999 157.8C34.8999 157.8 34.8999 157.8 34.8999 157.9C34.8999 157.9 34.8999 158 34.8999 158.1C34.8999 158.1 34.8999 158.1 34.8999 158.2C34.8999 158.2 34.8999 158.3 34.8999 158.4C34.8999 158.6 34.8999 158.6 34.9999 158.7C34.9999 158.7 35.0999 158.8 35.1999 158.9C35.1999 158.9 35.1999 158.9 35.2999 159C35.2999 159 35.4999 159.1 35.5999 159.2C35.5999 159.2 35.7999 159.3 35.8999 159.3C35.8999 159.3 35.8999 159.3 35.9999 159.3C35.9999 159.3 36.1999 159.3 36.2999 159.3C36.2999 159.3 36.2999 159.3 36.3999 159.3C36.4999 159.3 36.6999 159.3 36.7999 159.3C36.8999 159.3 37.0999 159.3 37.1999 159.3L121.4 144.5V153.3C121.4 153.4 121.4 153.5 121.4 153.6V153.8C121.4 153.9 121.4 154 121.5 154.1C121.5 154.1 121.5 154.2 121.6 154.3C121.6 154.3 121.7 154.4 121.8 154.5C121.8 154.5 121.9 154.6 122 154.7C122.1 154.7 122.2 154.9 122.3 154.9C122.4 154.9 122.5 155 122.6 155.1C122.7 155.1 122.8 155.1 123 155.1C123.1 155.1 123.3 155.1 123.4 155.1C123.5 155.1 123.7 155.1 123.8 155.1L156.8 149.3C157.5 149.2 158.1 148.8 158.5 148.2C158.9 147.6 159 146.9 158.7 146.2L154.6 133.1L158.7 118.5C158.9 117.7 158.7 116.8 158.2 116.2C157.7 115.7 157.1 115.4 156.4 115.4C155.7 115.4 156.1 115.4 156 115.4L138.7 118.5V109.8C138.7 109.7 138.7 109.6 138.7 109.5V109.3C138.7 109.2 138.7 109.1 138.6 109C138.6 109 138.6 108.9 138.5 108.8C138.5 108.8 138.4 108.7 138.3 108.6C138.3 108.6 138.2 108.5 138.1 108.4C138 108.4 137.9 108.2 137.8 108.2C137.8 108.2 137.6 108.1 137.5 108.1C137.4 108.1 137.3 108.1 137.1 108.1C137 108.1 136.8 108.1 136.7 108.1C136.6 108.1 136.4 108.1 136.3 108.1L125.4 110L154.7 93.5C154.7 93.5 154.9 93.4 154.9 93.3C154.9 93.3 155 93.1999 155.1 93.0999C155.1 93.0999 155.2 92.9999 155.3 92.8999C155.3 92.8999 155.4 92.7999 155.5 92.7C155.5 92.7 155.5 92.4999 155.6 92.3999C155.6 92.2 155.7 92 155.7 91.8C155.7 91.6 155.7 91.4999 155.7 91.3999V62.4C155.7 62.4 155.7 62.1999 155.7 62.0999C155.7 62.0999 155.7 62 155.7 61.9C155.7 61.9 155.7 61.8999 155.7 61.7999C155.7 61.7999 155.7 61.6999 155.7 61.5999C155.7 61.5999 155.7 61.5 155.7 61.4C155.7 61.4 155.7 61.2999 155.6 61.2C155.6 61.2 155.5 61.0999 155.4 61C155.4 61 155.4 61 155.3 60.9C155.3 60.9 155.1 60.7999 155 60.7C155 60.7 154.8 60.5999 154.7 60.5999C154.7 60.5999 154.7 60.5999 154.6 60.5999C154.6 60.5999 154.4 60.5999 154.3 60.5999C154.3 60.5999 154.3 60.5999 154.2 60.5999C154.1 60.5999 153.9 60.5999 153.8 60.5999C153.7 60.5999 153.5 60.5999 153.4 60.5999L108.9 68.4V68.1999ZM152.8 134.3L157.1 148.1L128.1 153.2L130.3 150.8L138.4 149.4C139.1 149.3 139.5 148.6 139.4 148C139.3 147.3 138.6 146.9 138 147L133 147.9L134.9 145.9L138.5 145.3C139.2 145.2 139.6 144.5 139.5 143.9C139.4 143.2 138.7 142.8 138.1 142.9H137.7L138.8 141.7V141.6C138.8 141.6 138.8 141.6 138.8 141.5C138.8 141.5 138.8 141.5 138.8 141.4C138.8 141.4 138.8 141.3 138.8 141.2C138.8 141.2 138.8 141.1 138.8 141C138.8 140.9 138.8 140.8 138.8 140.8V140.6V122.5L156.6 119.4L152.3 134.7L152.8 134.3ZM124.2 144.7L134.2 142.9L133.5 143.6C133.3 143.7 133.2 143.9 133.1 144L124.1 153.8V144.6L124.2 144.7ZM137 111V113.3C137 113.3 136.9 113.3 136.8 113.3L130.3 114.4C129.6 114.5 129.2 115.2 129.3 115.8C129.4 116.4 129.9 116.8 130.5 116.8C131.1 116.8 130.6 116.8 130.7 116.8L137 115.7V117.7C137 117.7 136.9 117.7 136.8 117.7L130.3 118.8C129.6 118.9 129.2 119.6 129.3 120.2C129.4 120.8 129.9 121.2 130.5 121.2C131.1 121.2 130.6 121.2 130.7 121.2L137 120.1V122.1C137 122.1 136.9 122.1 136.8 122.1L130.3 123.2C129.6 123.3 129.2 124 129.3 124.6C129.4 125.2 129.9 125.6 130.5 125.6C131.1 125.6 130.6 125.6 130.7 125.6L137 124.5V126.5C137 126.5 136.9 126.5 136.8 126.5L130.3 127.6C129.6 127.7 129.2 128.4 129.3 129C129.4 129.6 129.9 130 130.5 130C131.1 130 130.6 130 130.7 130L137 128.9V130.9C137 130.9 136.9 130.9 136.8 130.9L130.3 132.1C129.6 132.2 129.2 132.9 129.3 133.5C129.4 134.1 129.9 134.5 130.5 134.5C131.1 134.5 130.6 134.5 130.7 134.5L137 133.4V135.4C137 135.4 136.9 135.4 136.8 135.4L130.3 136.5C129.6 136.6 129.2 137.3 129.3 137.9C129.4 138.5 129.9 138.9 130.5 138.9C131.1 138.9 130.6 138.9 130.7 138.9L137 137.8V139.7L37.1999 157.3V155.4L43.6999 154.3C44.3999 154.2 44.7999 153.5 44.6999 152.9C44.5999 152.2 43.8999 151.8 43.2999 151.9L37.0999 153V151L43.5999 149.9C44.2999 149.8 44.6999 149.1 44.5999 148.5C44.4999 147.8 43.7999 147.4 43.1999 147.5L36.9999 148.6V146.6L43.4999 145.5C44.1999 145.4 44.5999 144.7 44.4999 144.1C44.3999 143.4 43.6999 143 43.0999 143.1L36.8999 144.2V142.2L43.3999 141C44.0999 140.9 44.4999 140.2 44.3999 139.6C44.2999 138.9 43.5999 138.5 42.9999 138.6L36.7999 139.7V137.7L43.2999 136.6C43.9999 136.5 44.3999 135.8 44.2999 135.2C44.1999 134.5 43.4999 134.1 42.8999 134.2L36.6999 135.3V133.3L43.1999 132.2C43.8999 132.1 44.2999 131.4 44.1999 130.8C44.0999 130.1 43.3999 129.7 42.7999 129.8L36.5999 130.9V128.7L136.4 111.1L137 111ZM43.4999 124.9L72.4999 108.6L147.3 95.3999L118.3 111.7L43.4999 124.9ZM21.1999 43.7999L16.8999 30L45.8999 24.9L43.6999 27.2999L35.5999 28.7C34.8999 28.8 34.4999 29.5 34.5999 30.1C34.6999 30.7 35.1999 31.1 35.7999 31.1C36.3999 31.1 35.8999 31.1 35.9999 31.1L40.9999 30.2L39.0999 32.2999L35.4999 32.9C34.7999 33 34.3999 33.6999 34.4999 34.2999C34.5999 34.9 35.0999 35.2999 35.6999 35.2999C36.2999 35.2999 35.7999 35.2999 35.8999 35.2999H36.2999L35.1999 36.5C35.1999 36.5 35.1999 36.4999 35.1999 36.5999C35.1999 36.5999 35.1999 36.6 35.1999 36.7C35.1999 36.7 35.1999 36.6999 35.1999 36.7999C35.1999 36.7999 35.1999 36.8 35.1999 36.9C35.1999 36.9 35.1999 36.9999 35.1999 37.0999C35.1999 37.1999 35.1999 37.2999 35.1999 37.2999V55.4L17.3999 58.5L21.6999 43.2L21.1999 43.7999ZM49.8999 33.4L39.8999 35.2L40.5999 34.5C40.6999 34.4 40.8999 34.2999 40.9999 34.0999L49.9999 24.2999V33.5L49.8999 33.4ZM37.0999 67.0999V64.8L43.5999 63.7C44.2999 63.6 44.6999 62.8999 44.5999 62.2999C44.4999 61.5999 43.7999 61.2 43.1999 61.2999L36.9999 62.4V60.4L43.4999 59.2C44.1999 59.1 44.5999 58.3999 44.4999 57.7999C44.3999 57.0999 43.6999 56.7 43.0999 56.7999L36.8999 57.9V55.9L43.3999 54.7999C44.0999 54.7 44.4999 54 44.3999 53.4C44.2999 52.7 43.5999 52.3 42.9999 52.4L36.7999 53.5V51.5L43.2999 50.4C43.9999 50.3 44.3999 49.6 44.2999 49C44.1999 48.2999 43.4999 47.9 42.8999 48L36.6999 49.0999V47.0999L43.1999 46C43.8999 45.9 44.2999 45.1999 44.1999 44.5999C44.0999 43.8999 43.3999 43.4999 42.7999 43.5999L36.5999 44.7V42.7L43.0999 41.5999C43.7999 41.4999 44.1999 40.8 44.0999 40.2C43.9999 39.5 43.2999 39.1 42.6999 39.2L36.4999 40.2999V38.4L136.3 20.7999V22.7C136.3 22.7 136.2 22.7 136.1 22.7L129.6 23.7999C128.9 23.8999 128.5 24.6 128.6 25.2C128.7 25.8 129.2 26.2 129.8 26.2C130.4 26.2 129.9 26.2 130 26.2L136.3 25.1V27.1C136.3 27.1 136.2 27.1 136.1 27.1L129.6 28.2C128.9 28.3 128.5 29 128.6 29.6C128.7 30.2 129.2 30.6 129.8 30.6C130.4 30.6 129.9 30.6 130 30.6L136.3 29.5V31.5C136.3 31.5 136.2 31.5 136.1 31.5L129.6 32.5999C128.9 32.6999 128.5 33.4 128.6 34C128.7 34.6 129.2 35 129.8 35C130.4 35 129.9 35 130 35L136.3 33.9V35.9C136.3 35.9 136.2 35.9 136.1 35.9L129.6 37C128.9 37.1 128.5 37.8 128.6 38.4C128.7 39 129.2 39.4 129.8 39.4C130.4 39.4 129.9 39.4 130 39.4L136.3 38.2999V40.2999C136.3 40.2999 136.2 40.2999 136.1 40.2999L129.6 41.4C128.9 41.5 128.5 42.1999 128.6 42.7999C128.7 43.4 129.2 43.7999 129.8 43.7999C130.4 43.7999 129.9 43.7999 130 43.7999L136.3 42.7V44.7C136.3 44.7 136.2 44.7 136.1 44.7L129.6 45.7999C128.9 45.9 128.5 46.6 128.6 47.2C128.7 47.8 129.2 48.2 129.8 48.2C130.4 48.2 129.9 48.2 130 48.2L136.3 47.0999V49.2999L36.4999 66.9L37.0999 67.0999ZM130.5 53.2L101.6 69.5L26.8999 82.6999L55.7999 66.4L130.5 53.2ZM20.3999 115.3V113L26.8999 111.9C27.5999 111.8 27.9999 111.1 27.8999 110.5C27.7999 109.8 27.0999 109.4 26.4999 109.5L20.2999 110.6V108.6L26.7999 107.5C27.4999 107.4 27.8999 106.7 27.7999 106.1C27.6999 105.4 26.9999 105 26.3999 105.1L20.1999 106.2V104.2L26.6999 103.1C27.3999 103 27.7999 102.3 27.6999 101.7C27.5999 101 26.8999 100.6 26.2999 100.7L20.0999 101.8V99.8L26.5999 98.7C27.2999 98.6 27.6999 97.9 27.5999 97.3C27.4999 96.6 26.7999 96.2 26.1999 96.3L19.9999 97.3999V95.3999L26.4999 94.3C27.1999 94.2 27.5999 93.4999 27.4999 92.8999C27.3999 92.2 26.6999 91.7999 26.0999 91.8999L19.8999 93V91L26.3999 89.8C27.0999 89.7 27.4999 88.9999 27.3999 88.3999C27.2999 87.7 26.5999 87.2999 25.9999 87.3999L19.7999 88.5V86.5999L153.1 63.0999V65C153.1 65 153 65 152.9 65L146.4 66.0999C145.7 66.1999 145.3 66.9 145.4 67.5C145.5 68.0999 146 68.5 146.6 68.5C147.2 68.5 146.7 68.5 146.8 68.5L153.1 67.4V69.4C153.1 69.4 153 69.4 152.9 69.4L146.4 70.5C145.7 70.5999 145.3 71.3 145.4 71.9C145.5 72.5 146 72.9 146.6 72.9C147.2 72.9 146.7 72.9 146.8 72.9L153.1 71.8V73.8C153.1 73.8 153 73.8 152.9 73.8L146.4 75C145.7 75.0999 145.3 75.8 145.4 76.4C145.5 77 146 77.4 146.6 77.4C147.2 77.4 146.7 77.4 146.8 77.4L153.1 76.3V78.3C153.1 78.3 153 78.3 152.9 78.3L146.4 79.4C145.7 79.5 145.3 80.2 145.4 80.8C145.5 81.4 146 81.8 146.6 81.8C147.2 81.8 146.7 81.8 146.8 81.8L153.1 80.6999V82.6999C153.1 82.6999 153 82.6999 152.9 82.6999L146.4 83.8C145.7 83.9 145.3 84.6 145.4 85.2C145.5 85.7999 146 86.2 146.6 86.2C147.2 86.2 146.7 86.2 146.8 86.2L153.1 85.0999V87.0999C153.1 87.0999 153 87.0999 152.9 87.0999L146.4 88.2C145.7 88.2999 145.3 88.9999 145.4 89.5999C145.5 90.1999 146 90.5999 146.6 90.5999C147.2 90.5999 146.7 90.5999 146.8 90.5999L153.1 89.5V91.7L20.3999 115.3Z" fill="#070001"/>
<path d="M51.9999 41.9C58.7999 40.8 65.6999 39.6 72.4999 38.4C83.2999 36.6 94.1999 34.7 105 32.9C107.5 32.5 110 32.1 112.5 31.6C114.4 31.3 113.6 28.3 111.7 28.7C104.9 29.8 97.9999 31 91.1999 32.2C80.3999 34 69.4999 35.9 58.6999 37.7C56.1999 38.1 53.6999 38.5 51.1999 39C49.2999 39.3 50.0999 42.3 51.9999 41.9Z" fill="white"/>
<path d="M55.3 87.0001C64.5 85.4001 73.7 83.9001 82.9 82.3001L126.9 74.9001C130.2 74.3001 133.6 73.8001 136.9 73.2001C138.8 72.9001 138 69.9001 136.1 70.3001C126.9 71.9001 117.7 73.4001 108.5 75.0001C93.8 77.5001 79.2 80.0001 64.5 82.4001C61.2 83.0001 57.8 83.5001 54.5 84.1001C52.6 84.4001 53.4 87.4001 55.3 87.0001Z" fill="white"/>
<path d="M51.6 133.8C57.8 132.8 64 131.7 70.2 130.7C80 129 89.9 127.4 99.7 125.7C102 125.3 104.3 124.9 106.5 124.6C108.4 124.3 107.6 121.3 105.7 121.7C99.5 122.7 93.3 123.8 87.1 124.8C77.3 126.5 67.4 128.1 57.6 129.8C55.3 130.2 53 130.6 50.8 130.9C48.9 131.2 49.7 134.2 51.6 133.8Z" fill="white"/>
<path d="M113.7 123.1C116.4 122.6 119 122.2 121.7 121.7L122.9 121.5C123.7 121.4 124.2 120.4 124 119.6C123.7 118.7 123 118.4 122.1 118.5C119.4 119 116.8 119.4 114.1 119.9L112.9 120.1C112.1 120.2 111.6 121.2 111.8 122C112.1 122.9 112.8 123.2 113.7 123.1Z" fill="white"/>
<path d="M42.3999 89.5001C44.1999 89.2001 45.9999 88.9001 47.7999 88.6001H48.5999C49.3999 88.3001 49.8999 87.3001 49.6999 86.6001C49.3999 85.7001 48.6999 85.4001 47.7999 85.5001C45.9999 85.8001 44.1999 86.1001 42.3999 86.4001H41.5999C40.7999 86.7001 40.2999 87.7001 40.4999 88.4001C40.7999 89.3001 41.4999 89.6001 42.3999 89.5001Z" fill="white"/>
<path d="M91.1999 131.6C114.12 131.6 132.7 113.02 132.7 90.1001C132.7 67.1803 114.12 48.6001 91.1999 48.6001C68.2801 48.6001 49.7 67.1803 49.7 90.1001C49.7 113.02 68.2801 131.6 91.1999 131.6Z" fill="white" stroke="#231815" stroke-width="2.2" stroke-miterlimit="10"/>
<path d="M91.1999 127.9C112.076 127.9 129 110.976 129 90.1C129 69.2237 112.076 52.3 91.1999 52.3C70.3235 52.3 53.3999 69.2237 53.3999 90.1C53.3999 110.976 70.3235 127.9 91.1999 127.9Z" fill="white" stroke="#231815" stroke-width="2" stroke-miterlimit="10"/>
<path d="M72.5001 135.6C74.654 135.6 76.4001 133.854 76.4001 131.7C76.4001 129.546 74.654 127.8 72.5001 127.8C70.3462 127.8 68.6001 129.546 68.6001 131.7C68.6001 133.854 70.3462 135.6 72.5001 135.6Z" fill="#FDFBDC" stroke="#171818" stroke-width="2.2" stroke-miterlimit="10"/>
<path d="M67.0815 131.076L76.0708 135.896L59.8151 166.213C59.3425 167.094 58.2595 167.421 57.3782 166.948L51.4734 163.782C50.5921 163.31 50.2651 162.227 50.7377 161.345L66.9934 131.029L67.0815 131.076Z" fill="#E5AB39" stroke="#171818" stroke-width="2.2" stroke-miterlimit="10"/>
<path d="M85.7578 97.2848L96.3988 96.6899L96.9122 105.873L86.2712 106.467L85.7578 97.2848ZM85.9425 85.083L86.3475 84.5727C89.4663 84.1454 91.6357 83.5365 92.8558 82.7458C94.0739 81.9191 94.6508 80.9296 94.5863 79.7773L94.5833 79.7233C94.531 78.787 94.1306 78.0869 93.3822 77.623C92.6678 77.1211 91.6624 76.9064 90.366 76.9789C89.1057 77.0494 87.8084 77.4289 86.4742 78.1176C85.1401 78.8063 83.875 79.762 82.6791 80.9848L76.8789 74.1568C78.4427 72.4077 80.3298 70.9476 82.5401 69.7764C84.7483 68.5693 87.4189 67.8781 90.5518 67.703C92.5324 67.5922 94.366 67.7606 96.0527 68.2082C97.7374 68.6197 99.2011 69.2784 100.444 70.1842C101.686 71.0901 102.671 72.2271 103.398 73.5953C104.161 74.9614 104.591 76.5267 104.69 78.2913L104.696 78.3993C104.791 80.0918 104.603 81.5833 104.133 82.8739C103.662 84.1284 102.983 85.232 102.097 86.1846C101.209 87.1012 100.133 87.8838 98.8687 88.5325C97.6406 89.1791 96.2804 89.7248 94.7881 90.1694L94.3331 93.6627L87.7973 94.0281L85.9425 85.083Z" fill="#7C4C22"/>
<path d="M109.978 87.2775L114.88 89.2382L113.188 93.4684L108.286 91.5077L109.978 87.2775ZM112.616 81.838L112.904 81.6937C114.394 82.1548 115.496 82.3356 116.209 82.236C116.929 82.1199 117.395 81.7964 117.607 81.2656L117.617 81.2407C117.79 80.8094 117.757 80.4112 117.518 80.0463C117.302 79.6714 116.896 79.3645 116.298 79.1256C115.718 78.8934 115.056 78.7922 114.313 78.8221C113.57 78.852 112.801 79.0162 112.009 79.3149L110.834 75.035C111.902 74.5771 113.055 74.3166 114.293 74.2536C115.537 74.1739 116.881 74.4227 118.324 75C119.236 75.3649 120.024 75.8244 120.688 76.3784C121.358 76.9159 121.877 77.518 122.245 78.1849C122.614 78.8518 122.818 79.5684 122.858 80.3348C122.914 81.1078 122.78 81.9008 122.455 82.7136L122.435 82.7634C122.123 83.5431 121.726 84.1735 121.245 84.6546C120.771 85.1191 120.235 85.4724 119.638 85.7146C119.047 85.9402 118.4 86.0663 117.697 86.0929C117.01 86.1261 116.285 86.0863 115.522 85.9735L114.587 87.4466L111.576 86.2423L112.616 81.838Z" fill="#9D685E"/>
<path d="M70.165 96.7273L74.728 94.0716L77.0198 98.0092L72.4567 100.665L70.165 96.7273ZM67.5024 91.3001L67.5664 90.9838C68.8469 90.0938 69.6675 89.3371 70.0282 88.7137C70.3799 88.0749 70.412 87.5084 70.1244 87.0143L70.1109 86.9911C69.8773 86.5896 69.5431 86.3706 69.1084 86.3342C68.6802 86.2733 68.1882 86.4047 67.6323 86.7282C67.0918 87.0428 66.6046 87.5021 66.1706 88.1061C65.7366 88.7101 65.3931 89.4165 65.1403 90.2252L61.0445 88.5158C61.3414 87.3921 61.846 86.3232 62.5582 85.3092C63.2614 84.2797 64.2847 83.3741 65.6281 82.5922C66.4774 82.0979 67.3247 81.7598 68.1698 81.578C69.0059 81.3808 69.8001 81.3424 70.5523 81.4627C71.3046 81.5831 71.9949 81.8635 72.6234 82.3039C73.2673 82.7354 73.8094 83.3294 74.2498 84.0861L74.2767 84.1324C74.6992 84.8582 74.9518 85.5587 75.0347 86.2339C75.1087 86.8938 75.0573 87.5335 74.8805 88.1533C74.6947 88.7575 74.3957 89.345 73.9836 89.9156C73.587 90.4772 73.1093 91.0239 72.5506 91.5558L73.1354 93.2L70.3328 94.8312L67.5024 91.3001Z" fill="#C08561"/>
</svg>
