<svg width="44" height="44" viewBox="0 0 44 44" fill="none" xmlns="http://www.w3.org/2000/svg">
<path d="M28.8017 15.1984C28.6313 15.0265 28.4285 14.8901 28.2051 14.7971C27.9817 14.704 27.742 14.6561 27.5 14.6561C27.258 14.6561 27.0184 14.704 26.795 14.7971C26.5716 14.8901 26.3688 15.0265 26.1984 15.1984L22 19.415L17.8017 15.1984C17.4565 14.8531 16.9882 14.6592 16.5 14.6592C16.0118 14.6592 15.5436 14.8531 15.1984 15.1984C14.8531 15.5436 14.6592 16.0118 14.6592 16.5C14.6592 16.9882 14.8531 17.4565 15.1984 17.8017L19.415 22L15.1984 26.1984C15.0265 26.3688 14.8901 26.5716 14.7971 26.795C14.704 27.0184 14.6561 27.258 14.6561 27.5C14.6561 27.742 14.704 27.9817 14.7971 28.2051C14.8901 28.4285 15.0265 28.6313 15.1984 28.8017C15.3688 28.9735 15.5716 29.1099 15.795 29.203C16.0184 29.2961 16.258 29.344 16.5 29.344C16.742 29.344 16.9817 29.2961 17.2051 29.203C17.4285 29.1099 17.6313 28.9735 17.8017 28.8017L22 24.585L26.1984 28.8017C26.3688 28.9735 26.5716 29.1099 26.795 29.203C27.0184 29.2961 27.258 29.344 27.5 29.344C27.742 29.344 27.9817 29.2961 28.2051 29.203C28.4285 29.1099 28.6313 28.9735 28.8017 28.8017C28.9735 28.6313 29.1099 28.4285 29.203 28.2051C29.2961 27.9817 29.344 27.742 29.344 27.5C29.344 27.258 29.2961 27.0184 29.203 26.795C29.1099 26.5716 28.9735 26.3688 28.8017 26.1984L24.585 22L28.8017 17.8017C28.9735 17.6313 29.1099 17.4285 29.203 17.2051C29.2961 16.9817 29.344 16.742 29.344 16.5C29.344 16.258 29.2961 16.0184 29.203 15.795C29.1099 15.5716 28.9735 15.3688 28.8017 15.1984ZM34.9617 9.03836C33.2705 7.28734 31.2475 5.89066 29.0108 4.92983C26.774 3.969 24.3683 3.46325 21.934 3.4421C19.4998 3.42095 17.0856 3.88481 14.8325 4.80663C12.5794 5.72844 10.5325 7.08975 8.81112 8.81112C7.08975 10.5325 5.72844 12.5794 4.80663 14.8325C3.88481 17.0856 3.42095 19.4998 3.4421 21.934C3.46325 24.3683 3.969 26.774 4.92983 29.0108C5.89066 31.2475 7.28734 33.2705 9.03836 34.9617C10.7295 36.7127 12.7525 38.1094 14.9893 39.0702C17.226 40.0311 19.6317 40.5368 22.066 40.558C24.5003 40.5791 26.9144 40.1152 29.1675 39.1934C31.4206 38.2716 33.4676 36.9103 35.1889 35.1889C36.9103 33.4676 38.2716 31.4206 39.1934 29.1675C40.1152 26.9144 40.5791 24.5003 40.558 22.066C40.5368 19.6317 40.0311 17.226 39.0702 14.9893C38.1094 12.7525 36.7127 10.7295 34.9617 9.03836ZM32.3767 32.3767C29.9788 34.7773 26.8227 36.2722 23.4461 36.6068C20.0696 36.9413 16.6815 36.0948 13.8591 34.2114C11.0368 32.3281 8.95468 29.5244 7.96764 26.2781C6.9806 23.0317 7.14967 19.5436 8.44603 16.408C9.7424 13.2723 12.0859 10.6831 15.0772 9.08155C18.0685 7.47998 21.5225 6.9651 24.8509 7.62462C28.1792 8.28415 31.1759 10.0773 33.3305 12.6985C35.485 15.3198 36.664 18.607 36.6667 22C36.6732 23.9274 36.2974 25.8369 35.5611 27.6181C34.8247 29.3992 33.7423 31.0166 32.3767 32.3767Z" fill="#FCF7EF"/>
</svg>
