<svg width="24" height="24" viewBox="0 0 24 24" fill="none" xmlns="http://www.w3.org/2000/svg">
<path d="M10.232 10.2311C11.1391 9.32399 12.3602 8.80028 13.6426 8.76827C14.925 8.73625 16.1707 9.19838 17.122 10.0591L17.303 10.2311L20.131 13.0601C21.052 13.9827 21.5763 15.2286 21.592 16.5322C21.6077 17.8358 21.1136 19.094 20.215 20.0386C19.3165 20.9832 18.0845 21.5395 16.7818 21.5889C15.479 21.6383 14.2085 21.1769 13.241 20.3031L13.061 20.1311L10.939 18.0091C10.7596 17.8291 10.6555 17.5876 10.6478 17.3337C10.64 17.0797 10.7292 16.8323 10.8972 16.6418C11.0653 16.4512 11.2995 16.3317 11.5525 16.3077C11.8054 16.2836 12.058 16.3566 12.259 16.5121L12.353 16.5951L14.475 18.7171C15.0251 19.2703 15.769 19.5876 16.5491 19.6014C17.3292 19.6153 18.084 19.3247 18.6534 18.7914C19.2228 18.258 19.562 17.5238 19.5991 16.7445C19.6362 15.9652 19.3682 15.2021 18.852 14.6171L18.717 14.4741L15.889 11.6461C15.6104 11.3674 15.2797 11.1464 14.9157 10.9956C14.5516 10.8448 14.1615 10.7672 13.7675 10.7672C13.3735 10.7672 12.9833 10.8448 12.6193 10.9956C12.2553 11.1464 11.9246 11.3674 11.646 11.6461C11.4583 11.8336 11.2039 11.9388 10.9386 11.9388C10.6734 11.9387 10.419 11.8332 10.2315 11.6456C10.044 11.4579 9.93869 11.2035 9.93878 10.9382C9.93888 10.6729 10.0443 10.4186 10.232 10.2311ZM3.86799 3.86705C4.77512 2.95999 5.99618 2.43628 7.27861 2.40427C8.56105 2.37225 9.80673 2.83438 10.758 3.69505L10.939 3.86705L13.06 5.99005C13.2393 6.17001 13.3435 6.41149 13.3512 6.66544C13.359 6.91939 13.2698 7.16677 13.1017 7.35733C12.9337 7.5479 12.6994 7.66736 12.4465 7.69145C12.1936 7.71555 11.941 7.64247 11.74 7.48705L11.646 7.40405L9.52498 5.28305C8.97395 4.73561 8.23207 4.42323 7.45542 4.41163C6.67877 4.40003 5.92789 4.6901 5.36075 5.22084C4.79361 5.75158 4.45443 6.48159 4.41456 7.25731C4.37469 8.03303 4.63725 8.79397 5.14698 9.38005L5.28199 9.52405L8.11098 12.3531C8.67357 12.9155 9.43649 13.2314 10.232 13.2314C11.0275 13.2314 11.7904 12.9155 12.353 12.3531C12.4458 12.2601 12.5561 12.1864 12.6774 12.1361C12.7987 12.0858 12.9288 12.0599 13.0601 12.0599C13.1915 12.0598 13.3216 12.0856 13.4429 12.1359C13.5643 12.1861 13.6746 12.2597 13.7675 12.3526C13.8604 12.4454 13.9341 12.5556 13.9844 12.677C14.0347 12.7983 14.0606 12.9284 14.0607 13.0597C14.0607 13.191 14.0349 13.3211 13.9847 13.4425C13.9345 13.5639 13.8608 13.6741 13.768 13.7671C12.8609 14.6741 11.6398 15.1978 10.3574 15.2298C9.07492 15.2619 7.82925 14.7997 6.87799 13.9391L6.69598 13.7671L3.86799 10.9381C2.93063 10.0004 2.40405 8.72887 2.40405 7.40305C2.40405 6.07723 2.93063 4.80469 3.86799 3.86705Z" fill="#FCF7EF"/>
</svg>
