<svg xmlns="http://www.w3.org/2000/svg" fill="none" viewBox="107.72093023255813 115.05599999999998 172.19027484143763 175.44" style="max-height: 500px" width="172.19027484143763" height="175.44">
<path fill-opacity="0.66" fill="#A48B78" d="M211.75 126.051C200.665 141.172 184.438 171.951 197.377 211.408C184.817 173.105 153.231 158.222 134.011 152.58C116.87 172.993 110.311 201.47 119.22 228.64C132.93 270.451 177.933 293.217 219.711 279.517C261.489 265.818 284.265 220.802 270.562 179.013C261.438 151.19 238.428 131.854 211.728 126.058L211.75 126.051Z"/>
<path fill="#F9C14D" d="M209.874 120.367C199.052 135.13 183.21 165.181 195.842 203.705C183.579 166.308 152.741 151.777 133.976 146.268C117.241 166.198 110.836 194.001 119.534 220.528C132.92 261.349 176.858 283.577 217.647 270.202C258.436 256.826 280.674 212.876 267.295 172.076C258.387 144.911 235.921 126.033 209.853 120.374L209.874 120.367Z"/>
<mask height="408" width="405" y="0" x="-19" maskUnits="userSpaceOnUse" style="mask-type:luminance" id="mask0_44_1532">
<path fill="white" d="M285.07 0.741373L-19 100.449L81.5504 407.088L385.62 307.381L285.07 0.741373Z"/>
</mask>
<g mask="url(#mask0_44_1532)">
<path fill="#161515" d="M218.263 273.086C175.985 286.949 130.318 263.828 116.451 221.539C107.711 194.885 113.313 166.072 131.437 144.486C132.184 143.605 133.382 143.235 134.499 143.552C149.065 147.823 172.656 158.063 188.177 181.693C186.135 152.913 198.416 130.674 207.214 118.719C207.898 117.788 209.075 117.355 210.192 117.601C238.091 123.672 260.924 144.244 269.783 171.26C283.65 213.549 260.541 259.223 218.263 273.086ZM134.71 149.727C118.866 169.576 114.091 195.596 122.001 219.719C134.864 258.945 177.227 280.393 216.443 267.534C255.658 254.675 277.095 212.306 264.232 173.08C256.211 148.617 235.839 129.876 210.814 123.735C200.509 138.351 186.5 166.811 198.33 202.889C198.832 204.42 198.004 206.059 196.472 206.561C194.941 207.063 193.303 206.233 192.801 204.702C181.229 169.411 152.215 155.201 134.731 149.72L134.71 149.727Z"/>
<path fill="#161515" d="M213.75 259.323C198.672 264.267 182.347 263.542 167.79 257.289C166.307 256.645 165.629 254.935 166.252 253.459C166.896 251.975 168.605 251.297 170.081 251.921C183.346 257.607 198.191 258.276 211.93 253.771C221.904 250.5 230.864 244.641 237.774 236.838C238.841 235.64 240.689 235.529 241.887 236.597C243.085 237.665 243.197 239.513 242.129 240.711C234.515 249.31 224.702 255.731 213.729 259.33L213.75 259.323ZM247.755 232.152C246.989 232.403 246.097 232.342 245.357 231.878C243.98 231.057 243.529 229.25 244.35 227.873C244.992 226.815 245.577 225.727 246.163 224.64C246.92 223.214 248.671 222.663 250.09 223.399C251.509 224.136 252.088 225.901 251.338 227.349C250.716 228.542 250.045 229.728 249.346 230.9C248.961 231.521 248.4 231.964 247.762 232.173L247.755 232.152ZM159.614 251.819C158.784 252.091 157.857 251.994 157.074 251.474C155.953 250.711 154.845 249.919 153.773 249.093C152.49 248.124 152.265 246.289 153.234 245.005C154.224 243.715 156.037 243.497 157.32 244.466C158.301 245.229 159.309 245.935 160.339 246.634C161.673 247.539 162.032 249.353 161.148 250.68C160.77 251.251 160.237 251.638 159.642 251.833L159.614 251.819ZM254.002 217.947C253.449 218.128 252.847 218.16 252.267 217.973C250.727 217.513 249.843 215.894 250.296 214.332C253.77 202.732 253.596 190.492 249.787 178.948C245.748 166.631 238.006 156.236 227.41 148.849C226.098 147.936 225.76 146.115 226.694 144.796C227.599 143.463 229.427 143.146 230.746 144.08C242.399 152.18 250.908 163.62 255.344 177.149C259.502 189.827 259.699 203.286 255.894 216.031C255.613 216.971 254.881 217.682 254.009 217.968L254.002 217.947ZM147.928 241.609C146.865 241.958 145.641 241.676 144.853 240.78C138.883 234.068 134.412 226.322 131.594 217.728C125.853 200.221 127.843 181.004 137.078 164.994C137.87 163.603 139.663 163.11 141.061 163.924C142.458 164.738 142.945 166.51 142.132 167.907C133.724 182.491 131.92 199.975 137.145 215.908C139.712 223.736 143.776 230.814 149.21 236.901C150.287 238.103 150.187 239.95 148.985 241.027C148.673 241.294 148.318 241.505 147.956 241.624L147.928 241.609ZM219.842 143.509C219.182 143.725 218.425 143.715 217.733 143.4C216.935 143.049 216.137 142.698 215.325 142.375C213.834 141.78 213.092 140.092 213.68 138.58C214.274 137.089 215.962 136.347 217.474 136.935C218.364 137.279 219.247 137.673 220.13 138.067C221.599 138.739 222.256 140.456 221.605 141.918C221.247 142.695 220.607 143.258 219.863 143.502L219.842 143.509ZM193.842 173.615C192.457 186.485 198.123 206.208 205.069 217.335C205.948 218.72 205.472 220.502 204.045 221.323C202.619 222.144 200.71 221.71 199.867 220.29C190.573 204.372 188.039 192.552 188.059 182.697"/>
</g>
<path fill="#FCF7EF" d="M204.884 141.063C202.166 146.926 200.387 153.352 199.083 159.646C196.474 172.375 196.36 185.818 200.618 198.228C201.343 200.369 204.703 199.268 203.956 197.133C199.831 185.127 200.014 172.18 202.621 159.876C203.859 154.027 205.494 148.096 208.019 142.65C208.97 140.595 205.835 139.008 204.884 141.063Z"/>
<path fill="#FCF7EF" d="M131.471 160.825C128.292 165.566 126.17 171.233 124.565 176.683C120.889 189.032 120.627 202.241 123.873 214.723C126.416 224.562 131.142 233.732 137.105 241.931C138.434 243.757 141.38 241.825 140.044 239.977C130.587 226.94 124.772 211.648 125.148 195.411C125.371 185.749 127.725 176.048 131.936 167.34C132.751 165.659 133.608 163.964 134.656 162.419C135.925 160.542 132.769 158.962 131.521 160.832L131.471 160.825Z"/>
</svg>