<svg width="210" height="223" viewBox="0 0 210 223" fill="none" xmlns="http://www.w3.org/2000/svg">
<g clip-path="url(#clip0_44_1649)">
<path d="M145.956 8.17857C145.086 7.8172 144.09 8.23197 143.73 9.10372L136.921 25.6062C136.561 26.4792 136.973 27.4788 137.843 27.8402C138.056 27.9284 138.277 27.9706 138.494 27.9706C139.162 27.9706 139.796 27.5732 140.069 26.9138L146.877 10.4114C147.237 9.53836 146.825 8.5387 145.956 8.17733V8.17857Z" fill="#BC9D66"/>
<path d="M133.435 34.0543L131.721 38.2094C131.361 39.0824 131.773 40.082 132.642 40.4434C132.855 40.5316 133.077 40.5738 133.293 40.5738C133.961 40.5738 134.596 40.1764 134.868 39.517L136.582 35.3619C136.942 34.4889 136.531 33.4893 135.661 33.1279C134.791 32.7653 133.795 33.1813 133.435 34.053V34.0543Z" fill="#BC9D66"/>
<path d="M166.89 47.0163C167.326 47.0163 167.762 46.8499 168.095 46.5158L180.677 33.8853C181.343 33.2172 181.343 32.1344 180.677 31.4663C180.012 30.7982 178.933 30.7982 178.267 31.4663L165.685 44.0968C165.02 44.7649 165.02 45.8477 165.685 46.5158C166.018 46.8499 166.455 47.0163 166.89 47.0163Z" fill="#BC9D66"/>
<path d="M159.245 50.563L156.077 53.742C155.412 54.4101 155.412 55.493 156.077 56.1611C156.41 56.4951 156.845 56.6615 157.282 56.6615C157.719 56.6615 158.154 56.4951 158.487 56.1611L161.655 52.982C162.321 52.3139 162.321 51.2311 161.655 50.563C160.989 49.8949 159.911 49.8949 159.245 50.563Z" fill="#BC9D66"/>
<path d="M185.865 75.5222C186.083 75.5222 186.303 75.48 186.516 75.3918L202.954 68.5569C203.823 68.1955 204.235 67.1946 203.875 66.3229C203.515 65.4499 202.52 65.0351 201.65 65.3977L185.212 72.2326C184.342 72.594 183.931 73.5949 184.29 74.4667C184.563 75.1248 185.196 75.5235 185.865 75.5235V75.5222Z" fill="#BC9D66"/>
<path d="M173.31 80.7427C173.528 80.7427 173.748 80.7005 173.961 80.6124L178.1 78.8912C178.97 78.5298 179.382 77.5289 179.022 76.6572C178.662 75.7842 177.666 75.3707 176.796 75.732L172.658 77.4532C171.789 77.8146 171.377 78.8155 171.737 79.6872C172.009 80.3454 172.642 80.744 173.312 80.744L173.31 80.7427Z" fill="#BC9D66"/>
<path d="M24.1349 75.5222C24.8029 75.5222 25.4375 75.1248 25.7097 74.4654C26.0696 73.5924 25.6577 72.5927 24.7881 72.2313L8.35016 65.3964C7.48175 65.035 6.48469 65.4498 6.12471 66.3216C5.76473 67.1946 6.17667 68.1942 7.04631 68.5556L23.4842 75.3905C23.697 75.4787 23.9184 75.5209 24.1349 75.5209V75.5222Z" fill="#BC9D66"/>
<path d="M31.8998 78.8912L36.0389 80.6123C36.2517 80.7005 36.4731 80.7427 36.6896 80.7427C37.3576 80.7427 37.9922 80.3453 38.2644 79.6859C38.6244 78.8129 38.2112 77.8133 37.3428 77.4519L33.2036 75.7308C32.3352 75.3694 31.3382 75.7841 30.9782 76.6559C30.6182 77.5289 31.0314 78.5286 31.8998 78.8899V78.8912Z" fill="#BC9D66"/>
<path d="M43.1099 47.0163C43.5453 47.0163 43.982 46.8499 44.3148 46.5158C44.9803 45.8477 44.9803 44.7649 44.3148 44.0968L31.7328 31.4663C31.0672 30.7982 29.9885 30.7982 29.323 31.4663C28.6575 32.1344 28.6575 33.2172 29.323 33.8853L41.905 46.5158C42.2378 46.8499 42.6745 47.0163 43.1099 47.0163Z" fill="#BC9D66"/>
<path d="M48.3451 50.563C47.6796 51.2311 47.6796 52.3139 48.3451 52.982L51.5132 56.1611C51.8459 56.4951 52.2814 56.6615 52.7181 56.6615C53.1547 56.6615 53.5902 56.4951 53.9229 56.1611C54.5885 55.493 54.5885 54.4101 53.9229 53.742L50.7549 50.563C50.0893 49.8949 49.0106 49.8949 48.3451 50.563Z" fill="#BC9D66"/>
<path d="M71.5064 27.9706C71.7241 27.9706 71.9443 27.9284 72.157 27.8402C73.0267 27.4789 73.4386 26.478 73.0786 25.6062L66.2699 9.10374C65.91 8.23075 64.9141 7.81598 64.0445 8.17859C63.1748 8.53996 62.7629 9.54086 63.1229 10.4126L69.9316 26.9151C70.2037 27.5732 70.8371 27.9719 71.5064 27.9719V27.9706Z" fill="#BC9D66"/>
<path d="M74.3392 33.1279C73.4695 33.4893 73.0576 34.4902 73.4176 35.3619L75.1321 39.517C75.4043 40.1752 76.0376 40.5738 76.7069 40.5738C76.9246 40.5738 77.1448 40.5316 77.3576 40.4434C78.2272 40.0821 78.6391 39.0812 78.2792 38.2094L76.5646 34.0543C76.2046 33.1813 75.2088 32.7665 74.3392 33.1292V33.1279Z" fill="#BC9D66"/>
<path d="M106.704 1.70998C106.704 0.764957 105.941 0 105.001 0C104.06 0 103.297 0.766199 103.297 1.70998V19.5722C103.297 20.5173 104.06 21.2822 105.001 21.2822C105.941 21.2822 106.704 20.516 106.704 19.5722V1.70998Z" fill="#BC9D66"/>
<path d="M104.999 27.0057C104.058 27.0057 103.296 27.7719 103.296 28.7157V33.2123C103.296 34.1573 104.059 34.9223 104.999 34.9223C105.94 34.9223 106.703 34.1561 106.703 33.2123V28.7157C106.703 27.7707 105.94 27.0057 104.999 27.0057Z" fill="#BC9D66"/>
<path d="M123.746 21.5939L127.217 4.07566C127.401 3.14927 126.801 2.24896 125.878 2.06392C124.954 1.87889 124.059 2.48117 123.874 3.40757L120.403 20.9258C120.219 21.8522 120.819 22.7525 121.742 22.9376C121.854 22.9599 121.966 22.9711 122.076 22.9711C122.871 22.9711 123.584 22.4086 123.744 21.5939H123.746Z" fill="#BC9D66"/>
<path d="M120.631 28.5505C119.709 28.3667 118.811 28.9678 118.628 29.8942L117.755 34.3051C117.572 35.2315 118.17 36.1318 119.093 36.3156C119.206 36.3379 119.317 36.3491 119.427 36.3491C120.223 36.3491 120.935 35.7866 121.096 34.9719L121.969 30.561C122.152 29.6346 121.554 28.7343 120.631 28.5505Z" fill="#BC9D66"/>
<path d="M164.459 18.1069C163.677 17.5829 162.619 17.794 162.097 18.5788L152.211 33.4297C151.689 34.2145 151.9 35.2775 152.681 35.8015C152.972 35.9965 153.301 36.0896 153.626 36.0896C154.177 36.0896 154.716 35.8226 155.044 35.3296L164.929 20.4788C165.453 19.694 165.241 18.631 164.459 18.1069Z" fill="#BC9D66"/>
<path d="M145.132 47.1443C145.422 47.3393 145.751 47.4324 146.077 47.4324C146.627 47.4324 147.167 47.1654 147.494 46.6724L149.983 42.9333C150.507 42.1472 150.295 41.0855 149.513 40.5614C148.731 40.0362 147.673 40.2485 147.151 41.0333L144.662 44.7724C144.14 45.5585 144.35 46.6203 145.132 47.1443Z" fill="#BC9D66"/>
<path d="M193.986 47.7477C193.464 46.9629 192.405 46.7518 191.624 47.2759L176.83 57.1992C176.047 57.7245 175.836 58.7862 176.36 59.5711C176.689 60.0653 177.228 60.331 177.777 60.331C178.103 60.331 178.432 60.2379 178.722 60.043L193.516 50.1196C194.299 49.5956 194.51 48.5326 193.986 47.7477Z" fill="#BC9D66"/>
<path d="M166.478 67.9111C166.804 67.9111 167.133 67.818 167.423 67.623L171.148 65.1245C171.93 64.5992 172.14 63.5375 171.618 62.7526C171.096 61.9678 170.038 61.7567 169.255 62.2807L165.531 64.7793C164.749 65.3046 164.538 66.3663 165.061 67.1511C165.39 67.6441 165.929 67.9111 166.478 67.9111Z" fill="#BC9D66"/>
<path d="M190.843 92.0048C190.953 92.0048 191.066 91.9936 191.177 91.9712L208.628 88.4867C209.551 88.3029 210.151 87.4026 209.967 86.4762C209.784 85.5498 208.884 84.95 207.964 85.1326L190.513 88.6171C189.59 88.8009 188.99 89.7012 189.174 90.6276C189.335 91.441 190.048 92.0048 190.843 92.0048Z" fill="#BC9D66"/>
<path d="M2.03618 85.1325C1.11458 84.9488 0.216484 85.5498 0.0334011 86.4762C-0.150919 87.4026 0.449049 88.3029 1.37189 88.4867L18.8229 91.9712C18.9355 91.9936 19.0468 92.0047 19.1569 92.0047C19.9523 92.0047 20.6649 91.4422 20.8257 90.6276C21.01 89.7012 20.4101 88.8009 19.4872 88.6171L2.03618 85.1325Z" fill="#BC9D66"/>
<path d="M32.2227 60.3323C32.7732 60.3323 33.3125 60.0653 33.6404 59.5723C34.1624 58.7875 33.9521 57.7245 33.1703 57.2005L18.3752 47.2771C17.5921 46.7519 16.5345 46.9642 16.0124 47.749C15.4904 48.5339 15.7007 49.5968 16.4825 50.1209L31.2776 60.0442C31.5683 60.2392 31.8974 60.3323 32.2227 60.3323Z" fill="#BC9D66"/>
<path d="M38.8519 65.1233L42.5767 67.6218C42.8674 67.8168 43.1965 67.9099 43.5218 67.9099C44.0723 67.9099 44.6116 67.6429 44.9395 67.1499C45.4627 66.3651 45.2512 65.3021 44.4694 64.7781L40.7446 62.2795C39.9628 61.7555 38.9039 61.9666 38.3819 62.7514C37.8586 63.5362 38.0701 64.598 38.8519 65.1233Z" fill="#BC9D66"/>
<path d="M56.3748 36.0896C56.7001 36.0896 57.0292 35.9965 57.3199 35.8015C58.1029 35.2762 58.3132 34.2145 57.79 33.4297L47.9047 18.5788C47.3815 17.794 46.3238 17.5829 45.542 18.1069C44.7589 18.631 44.5486 19.694 45.0719 20.4788L54.9571 35.3296C55.2862 35.8239 55.8255 36.0896 56.3748 36.0896Z" fill="#BC9D66"/>
<path d="M60.4868 40.5602C59.7037 41.0855 59.4934 42.1472 60.0167 42.932L62.5057 46.6711C62.8347 47.1654 63.3741 47.4311 63.9233 47.4311C64.2486 47.4311 64.5777 47.338 64.8684 47.143C65.6515 46.6177 65.8618 45.556 65.3385 44.7712L62.8495 41.0321C62.3263 40.246 61.2686 40.0349 60.4868 40.5602Z" fill="#BC9D66"/>
<path d="M89.5957 20.9271L86.1245 3.40881C85.9415 2.48241 85.0446 1.88137 84.1218 2.06516C83.1989 2.24895 82.599 3.14927 82.7833 4.07566L86.2544 21.5939C86.4153 22.4073 87.1278 22.9711 87.9232 22.9711C88.0333 22.9711 88.1446 22.9599 88.2572 22.9376C89.1801 22.7538 89.78 21.8535 89.5957 20.9271Z" fill="#BC9D66"/>
<path d="M88.9042 34.9732C89.065 35.7865 89.7763 36.3503 90.573 36.3503C90.6831 36.3503 90.7956 36.3392 90.907 36.3168C91.8298 36.133 92.4298 35.2327 92.2455 34.3063L91.3721 29.8954C91.189 28.969 90.2897 28.3679 89.3693 28.5517C88.4465 28.7355 87.8465 29.6358 88.0308 30.5622L88.9042 34.9732Z" fill="#BC9D66"/>
<path d="M64.0433 214.821C64.9129 215.183 65.9087 214.768 66.2687 213.896L73.0774 197.394C73.4374 196.521 73.0255 195.521 72.1558 195.16C71.943 195.072 71.7216 195.029 71.5051 195.029C70.8371 195.029 70.2025 195.427 69.9304 196.086L63.1217 212.589C62.7617 213.462 63.1736 214.461 64.0433 214.823V214.821Z" fill="#BC9D66"/>
<path d="M76.5646 188.946L78.2792 184.791C78.6391 183.918 78.2272 182.918 77.3576 182.557C77.1448 182.468 76.9234 182.426 76.7069 182.426C76.0389 182.426 75.4043 182.824 75.1321 183.483L73.4176 187.638C73.0576 188.511 73.4695 189.511 74.3392 189.872C75.2088 190.235 76.2046 189.819 76.5646 188.947V188.946Z" fill="#BC9D66"/>
<path d="M43.1087 175.982C42.6732 175.982 42.2366 176.149 41.9038 176.483L29.3218 189.113C28.6562 189.781 28.6562 190.864 29.3218 191.532C29.9873 192.201 31.066 192.201 31.7316 191.532L44.3136 178.902C44.9791 178.234 44.9791 177.151 44.3136 176.483C43.9808 176.149 43.5441 175.982 43.1087 175.982Z" fill="#BC9D66"/>
<path d="M50.7549 172.436L53.9229 169.257C54.5885 168.589 54.5885 167.506 53.9229 166.838C53.5902 166.504 53.1547 166.337 52.7181 166.337C52.2814 166.337 51.8459 166.504 51.5132 166.838L48.3451 170.017C47.6796 170.685 47.6796 171.768 48.3451 172.436C49.0106 173.104 50.0893 173.104 50.7549 172.436Z" fill="#BC9D66"/>
<path d="M24.1348 147.477C23.917 147.477 23.6969 147.519 23.4841 147.607L7.04619 154.442C6.17654 154.803 5.76461 155.804 6.12459 156.676C6.48457 157.549 7.48039 157.964 8.35004 157.601L24.7879 150.766C25.6576 150.405 26.0695 149.404 25.7095 148.532C25.4374 147.874 24.804 147.475 24.1348 147.475V147.477Z" fill="#BC9D66"/>
<path d="M36.6896 142.257C36.4718 142.257 36.2516 142.299 36.0389 142.388L31.8997 144.109C31.0301 144.47 30.6181 145.471 30.9781 146.343C31.3381 147.216 32.3339 147.629 33.2036 147.268L37.3415 145.547C38.2111 145.185 38.6231 144.185 38.2631 143.313C37.9909 142.655 37.3576 142.256 36.6883 142.256L36.6896 142.257Z" fill="#BC9D66"/>
<path d="M185.864 147.477C185.196 147.477 184.561 147.874 184.289 148.533C183.929 149.406 184.341 150.406 185.211 150.767L201.649 157.602C202.517 157.964 203.514 157.549 203.874 156.677C204.234 155.804 203.822 154.805 202.952 154.443L186.515 147.608C186.302 147.52 186.08 147.478 185.864 147.478V147.477Z" fill="#BC9D66"/>
<path d="M178.1 144.109L173.961 142.388C173.748 142.3 173.527 142.257 173.31 142.257C172.642 142.257 172.008 142.655 171.736 143.314C171.376 144.187 171.789 145.187 172.657 145.548L176.796 147.269C177.665 147.631 178.662 147.216 179.022 146.344C179.382 145.471 178.969 144.471 178.1 144.11V144.109Z" fill="#BC9D66"/>
<path d="M166.89 175.982C166.455 175.982 166.018 176.149 165.685 176.483C165.02 177.151 165.02 178.234 165.685 178.902L178.267 191.532C178.933 192.201 180.011 192.201 180.677 191.532C181.343 190.864 181.343 189.781 180.677 189.113L168.095 176.483C167.762 176.149 167.326 175.982 166.89 175.982Z" fill="#BC9D66"/>
<path d="M161.654 172.436C162.319 171.768 162.319 170.685 161.654 170.017L158.486 166.838C158.153 166.504 157.717 166.337 157.281 166.337C156.844 166.337 156.409 166.504 156.076 166.838C155.41 167.506 155.41 168.589 156.076 169.257L159.244 172.436C159.909 173.104 160.988 173.104 161.654 172.436Z" fill="#BC9D66"/>
<path d="M138.494 195.028C138.276 195.028 138.056 195.07 137.843 195.158C136.973 195.52 136.561 196.521 136.921 197.393L143.73 213.895C144.09 214.768 145.086 215.183 145.956 214.82C146.825 214.459 147.237 213.458 146.877 212.586L140.069 196.084C139.796 195.425 139.163 195.027 138.494 195.027V195.028Z" fill="#BC9D66"/>
<path d="M135.661 189.872C136.531 189.511 136.942 188.51 136.582 187.638L134.868 183.483C134.596 182.825 133.962 182.426 133.293 182.426C133.075 182.426 132.855 182.468 132.642 182.557C131.773 182.918 131.361 183.919 131.721 184.791L133.435 188.946C133.795 189.819 134.791 190.234 135.661 189.871V189.872Z" fill="#BC9D66"/>
<path d="M103.296 221.289C103.296 222.234 104.059 222.999 104.999 222.999C105.94 222.999 106.703 222.233 106.703 221.289V203.427C106.703 202.482 105.94 201.717 104.999 201.717C104.059 201.717 103.296 202.483 103.296 203.427V221.289Z" fill="#BC9D66"/>
<path d="M104.999 195.994C105.941 195.994 106.703 195.228 106.703 194.284V189.788C106.703 188.843 105.94 188.078 104.999 188.078C104.059 188.078 103.296 188.844 103.296 189.788V194.284C103.296 195.229 104.059 195.994 104.999 195.994Z" fill="#BC9D66"/>
<path d="M86.2532 201.405L82.7821 218.923C82.5977 219.85 83.1977 220.75 84.1205 220.935C85.0446 221.12 85.9402 220.518 86.1246 219.591L89.5957 202.073C89.78 201.147 89.1801 200.246 88.2572 200.061C88.1447 200.039 88.0333 200.028 87.9232 200.028C87.1278 200.028 86.4153 200.59 86.2545 201.405H86.2532Z" fill="#BC9D66"/>
<path d="M89.3693 194.448C90.2909 194.632 91.189 194.031 91.3721 193.105L92.2455 188.694C92.4286 187.767 91.8298 186.867 90.907 186.683C90.7944 186.661 90.6831 186.65 90.573 186.65C89.7776 186.65 89.065 187.212 88.9042 188.027L88.0309 192.438C87.8478 193.364 88.4465 194.264 89.3693 194.448Z" fill="#BC9D66"/>
<path d="M45.5407 204.893C46.3225 205.417 47.3814 205.206 47.9034 204.421L57.7887 189.57C58.3107 188.786 58.1004 187.723 57.3186 187.198C57.0279 187.004 56.6988 186.91 56.3735 186.91C55.823 186.91 55.2837 187.177 54.9558 187.67L45.0706 202.521C44.5473 203.306 44.7589 204.369 45.5407 204.893Z" fill="#BC9D66"/>
<path d="M64.8683 175.856C64.5776 175.661 64.2486 175.568 63.9232 175.568C63.3727 175.568 62.8334 175.835 62.5056 176.328L60.0166 180.067C59.4934 180.853 59.7049 181.915 60.4867 182.439C61.2685 182.964 62.3274 182.752 62.8495 181.967L65.3384 178.228C65.8604 177.442 65.6501 176.38 64.8683 175.856Z" fill="#BC9D66"/>
<path d="M16.0135 175.252C16.5356 176.037 17.5945 176.248 18.3763 175.724L33.1702 165.801C33.9532 165.276 34.1635 164.214 33.6402 163.429C33.3112 162.935 32.7718 162.669 32.2226 162.669C31.8972 162.669 31.5682 162.762 31.2775 162.957L16.4836 172.88C15.7006 173.404 15.4903 174.467 16.0135 175.252Z" fill="#BC9D66"/>
<path d="M43.5205 155.089C43.1952 155.089 42.8661 155.182 42.5754 155.377L38.8507 157.876C38.0689 158.401 37.8586 159.463 38.3806 160.247C38.9026 161.032 39.9603 161.243 40.7433 160.719L44.4681 158.221C45.2499 157.696 45.4602 156.634 44.9382 155.849C44.6091 155.356 44.0698 155.089 43.5205 155.089Z" fill="#BC9D66"/>
<path d="M19.1569 130.995C19.0468 130.995 18.9343 131.006 18.8229 131.029L1.37189 134.513C0.449049 134.697 -0.150919 135.597 0.0334011 136.524C0.216484 137.45 1.11582 138.05 2.03618 137.867L19.4872 134.383C20.4101 134.199 21.01 133.299 20.8257 132.372C20.6649 131.559 19.9523 130.995 19.1569 130.995Z" fill="#BC9D66"/>
<path d="M207.964 137.867C208.885 138.051 209.783 137.45 209.967 136.524C210.151 135.597 209.551 134.697 208.628 134.513L191.177 131.029C191.064 131.006 190.953 130.995 190.843 130.995C190.048 130.995 189.335 131.558 189.174 132.372C188.99 133.299 189.59 134.199 190.513 134.383L207.964 137.867Z" fill="#BC9D66"/>
<path d="M177.777 162.668C177.227 162.668 176.688 162.935 176.36 163.428C175.838 164.213 176.048 165.276 176.83 165.8L191.625 175.723C192.408 176.248 193.466 176.036 193.988 175.251C194.51 174.466 194.299 173.403 193.518 172.879L178.722 162.956C178.432 162.761 178.103 162.668 177.777 162.668Z" fill="#BC9D66"/>
<path d="M171.148 157.877L167.423 155.378C167.133 155.183 166.804 155.09 166.478 155.09C165.928 155.09 165.388 155.357 165.061 155.85C164.537 156.635 164.749 157.698 165.531 158.222L169.255 160.721C170.037 161.245 171.096 161.034 171.618 160.249C172.141 159.464 171.93 158.402 171.148 157.877Z" fill="#BC9D66"/>
<path d="M153.625 186.909C153.3 186.909 152.971 187.002 152.68 187.197C151.897 187.723 151.687 188.784 152.21 189.569L162.095 204.42C162.619 205.205 163.676 205.416 164.458 204.892C165.241 204.368 165.451 203.305 164.928 202.52L155.043 187.669C154.714 187.175 154.174 186.909 153.625 186.909Z" fill="#BC9D66"/>
<path d="M149.512 182.439C150.295 181.913 150.505 180.852 149.982 180.067L147.493 176.328C147.164 175.833 146.625 175.568 146.076 175.568C145.75 175.568 145.421 175.661 145.13 175.856C144.347 176.381 144.137 177.443 144.66 178.228L147.149 181.967C147.673 182.753 148.73 182.964 149.512 182.439Z" fill="#BC9D66"/>
<path d="M120.404 202.073L123.876 219.591C124.059 220.518 124.955 221.119 125.878 220.935C126.801 220.751 127.401 219.851 127.217 218.924L123.746 201.406C123.585 200.593 122.872 200.029 122.077 200.029C121.967 200.029 121.855 200.04 121.743 200.062C120.82 200.246 120.22 201.147 120.404 202.073Z" fill="#BC9D66"/>
<path d="M121.095 188.027C120.934 187.213 120.223 186.65 119.426 186.65C119.316 186.65 119.203 186.661 119.092 186.683C118.169 186.867 117.569 187.767 117.753 188.694L118.627 193.105C118.81 194.031 119.709 194.632 120.63 194.448C121.552 194.264 122.152 193.364 121.968 192.438L121.095 188.027Z" fill="#BC9D66"/>
<path d="M155.266 43.7031C155.266 43.7031 155.821 43.646 156.712 43.6535C159.551 43.6771 165.807 44.3588 168.45 49.644C171.922 56.5894 175.798 68.2439 172.855 75.4004C169.912 82.557 169.306 87.7143 164.582 88.8977C159.856 90.0812 155.094 90.1557 155.266 88.8977C155.438 87.6398 150.35 81.987 151.264 77.9586C152.178 73.9301 153.787 69.3429 153.787 69.3429L136.35 68.9753C136.35 68.9753 134.238 65.3045 138.1 56.6789C141.962 48.0532 149.703 44.3799 149.703 44.3799L155.821 43.6448" fill="#9B8978"/>
<path d="M135.773 68.1495H152.391C152.391 68.1495 146.876 81.4568 157.297 89.1648L137.892 89.5696C137.892 89.5696 132.898 78.1499 135.773 68.1495Z" fill="#BC9D66"/>
<path d="M135.773 153.712H45.6755C45.6755 153.712 34.6447 158.819 36.4657 167.344C38.2866 175.868 41.9334 181.859 49.7948 184.272C57.6563 186.684 140.285 184.272 140.285 184.272C140.285 184.272 123.595 174.517 136.606 154.632" fill="#E7C79A"/>
<path d="M144.37 43.7031L57.1195 44.0757C57.1195 44.0757 40.9958 48.7983 40.287 59.6232C39.5782 70.4493 38.1667 82.7234 48.8288 101.12C59.4909 119.517 73.5611 143.201 73.378 152.338L137.55 153.712C137.55 153.712 120.547 169.39 137.916 181.859C155.284 194.328 167.113 175.478 167.533 168.992C167.954 162.506 172.104 152.816 162.231 134.755C152.359 116.694 136.414 91.313 134.879 78.8601C133.344 66.4072 129.613 60.4602 144.367 43.7044L144.37 43.7031Z" fill="#ECDABC"/>
<path d="M131.389 162.883H149.179C148.179 157.486 144.351 153.653 140.045 153.713C135.851 153.77 132.578 157.247 131.389 162.883Z" fill="#B5CDD6"/>
<path d="M149.179 186.683H54.8074C42.1969 186.683 35.2435 180.806 34.1537 169.217C33.6465 163.896 35.2744 158.571 38.4969 154.977C40.6061 152.628 43.147 151.324 45.6533 151.299H70.8123C68.7935 139.484 62.0689 128.298 54.9757 116.502C46.4573 102.334 37.652 87.6894 37.1832 71.2739C36.9197 61.8622 39.7402 53.6128 45.1312 48.047C49.3496 43.6895 54.9509 41.2903 60.8962 41.2903H155.266C168.396 41.2903 175.738 50.8175 175.934 68.1197C176.006 74.361 174.335 83.43 169.391 88.4469C167.135 90.7406 164.357 91.9526 161.356 91.9526H141.475C144.732 99.4916 149.136 106.817 153.46 114.011C163.326 130.418 173.527 147.385 169.801 166.402C167.968 175.756 161.468 186.682 149.179 186.682V186.683ZM133.364 165.294C133.216 166.425 133.194 167.59 133.307 168.762C134.158 177.819 139.055 181.859 149.178 181.859C158.538 181.859 163.532 173.393 165.082 165.474C168.451 148.281 159.171 132.848 149.345 116.504C144.3 108.117 139.157 99.5574 135.702 90.563C135.655 90.4587 135.611 90.3519 135.579 90.2426C133.27 84.149 131.743 77.853 131.555 71.2751C131.527 70.2072 131.537 69.1553 131.584 68.1209C131.584 68.0576 131.587 67.998 131.593 67.9384C132.003 59.9212 134.757 52.9484 139.498 48.0507C140.171 47.3528 140.881 46.7096 141.62 46.116H60.8974C56.1904 46.116 51.9325 47.9476 48.5776 51.4123C44.0995 56.0368 41.759 63.0419 41.9904 71.136C42.4221 86.2837 50.8959 100.378 59.0913 114.008C66.26 125.93 73.6613 138.237 75.6826 151.299H140.127C143.662 151.299 149.734 152.772 151.542 162.435C151.673 163.142 151.486 163.869 151.029 164.421C150.572 164.974 149.896 165.294 149.179 165.294H133.364ZM45.6755 156.125C44.5708 156.134 43.2472 156.894 42.0708 158.207C39.7303 160.815 38.56 164.76 38.9349 168.761C39.7921 177.818 44.6859 181.857 54.8062 181.857H134.033C130.885 178.949 129.039 174.729 128.519 169.217C128.3 166.884 128.488 164.549 129.041 162.36C129.054 162.303 129.07 162.247 129.085 162.193C129.67 159.959 130.634 157.887 131.932 156.125H45.6755ZM136.606 65.7366H155.266C156.354 65.7366 157.309 66.4743 157.588 67.5298C157.87 68.5878 157.403 69.703 156.454 70.2444C153.278 72.0637 153.116 76.3703 153.942 79.5046C154.912 83.1767 157.647 87.1281 161.356 87.1281C163.092 87.1281 164.6 86.4501 165.975 85.058C169.608 81.3698 171.191 73.7215 171.128 68.1768C171.012 58.1119 168.168 46.116 155.266 46.116C150.559 46.116 146.301 47.9476 142.946 51.4123C139.501 54.9713 137.32 59.9436 136.606 65.7366ZM139.57 87.1294H152.391C150.938 85.2381 149.891 82.9854 149.299 80.7402C148.301 76.9676 148.573 73.3899 149.928 70.5623H136.35C136.354 70.7536 136.356 70.946 136.362 71.1373C136.516 76.5963 137.714 81.9187 139.57 87.1294Z" fill="#1B1B1B"/>
<path d="M119.599 64.4489H55.6709C54.3436 64.4489 53.2673 63.3685 53.2673 62.036C53.2673 60.7035 54.3436 59.6232 55.6709 59.6232H119.599C120.926 59.6232 122.003 60.7035 122.003 62.036C122.003 63.3685 120.926 64.4489 119.599 64.4489Z" fill="#1B1B1B"/>
<path d="M119.884 82.7843H55.9591C54.6318 82.7843 53.5555 81.7039 53.5555 80.3715C53.5555 79.039 54.6318 77.9586 55.9591 77.9586H119.884C121.211 77.9586 122.287 79.039 122.287 80.3715C122.287 81.7039 121.211 82.7843 119.884 82.7843Z" fill="#1B1B1B"/>
<path d="M126.764 101.121H62.8371C61.5097 101.121 60.4335 100.04 60.4335 98.708C60.4335 97.3755 61.5097 96.2952 62.8371 96.2952H126.765C128.093 96.2952 129.169 97.3755 129.169 98.708C129.169 100.04 128.093 101.121 126.765 101.121H126.764Z" fill="#1B1B1B"/>
<path d="M137.257 119.456H73.3261C71.9987 119.456 70.9225 118.376 70.9225 117.043C70.9225 115.711 71.9987 114.631 73.3261 114.631H137.257C138.584 114.631 139.66 115.711 139.66 117.043C139.66 118.376 138.584 119.456 137.257 119.456Z" fill="#1B1B1B"/>
<path d="M147.299 137.792H83.3709C82.0435 137.792 80.9673 136.711 80.9673 135.379C80.9673 134.046 82.0435 132.966 83.3709 132.966H147.299C148.626 132.966 149.703 134.046 149.703 135.379C149.703 136.711 148.626 137.792 147.299 137.792Z" fill="#1B1B1B"/>
<path d="M146.876 161.293C146.876 161.293 141.73 152.116 136.35 161.293H146.876Z" fill="#51A098"/>
<path d="M71.8119 53.7258H118.655C120.811 53.7258 122.98 53.7904 125.136 53.7258C125.166 53.7258 125.197 53.7258 125.226 53.7258C126.392 53.7258 127.507 52.6976 127.453 51.4905C127.399 50.2835 126.475 49.2553 125.226 49.2553H78.383C76.2269 49.2553 74.0583 49.1907 71.9022 49.2553C71.8725 49.2553 71.8415 49.2553 71.8119 49.2553C70.6466 49.2553 69.5307 50.2835 69.5852 51.4905C69.6396 52.6976 70.5637 53.7258 71.8119 53.7258Z" fill="white"/>
<path d="M58.5754 53.7259H64.611C65.7763 53.7259 66.8921 52.6977 66.8376 51.4906C66.7832 50.2836 65.8591 49.2554 64.611 49.2554H58.5754C57.4101 49.2554 56.2943 50.2836 56.3487 51.4906C56.4031 52.6977 57.3272 53.7259 58.5754 53.7259Z" fill="white"/>
<path d="M62.3658 165.027H113.204C115.551 165.027 117.909 165.089 120.257 165.027C120.291 165.027 120.324 165.027 120.357 165.027C121.523 165.027 122.638 163.999 122.584 162.792C122.53 161.585 121.606 160.557 120.357 160.557H69.5197C67.1717 160.557 64.8139 160.495 62.466 160.557C62.4326 160.557 62.3992 160.557 62.3658 160.557C61.2005 160.557 60.0847 161.585 60.1391 162.792C60.1936 163.999 61.1176 165.027 62.3658 165.027Z" fill="white"/>
<path d="M49.1294 165.027H55.1649C56.3302 165.027 57.446 163.999 57.3916 162.792C57.3372 161.585 56.4131 160.557 55.1649 160.557H49.1294C47.9641 160.557 46.8482 161.585 46.9027 162.792C46.9571 163.999 47.8812 165.027 49.1294 165.027Z" fill="white"/>
</g>
<defs>
<clipPath id="clip0_44_1649">
<rect width="210" height="223" fill="white"/>
</clipPath>
</defs>
</svg>
