<svg xmlns="http://www.w3.org/2000/svg" fill="none" viewBox="107.49367088607595 114.77399999999999 171.82700421940928 175.01" style="max-height: 500px" width="171.82700421940928" height="175.01">
<g clip-path="url(#clip0_18_2180)">
<path fill-opacity="0.22" fill="#737373" d="M213.495 127.335C202.297 142.612 185.903 173.708 198.975 213.573C186.285 174.875 154.374 159.838 134.956 154.137C117.638 174.761 111.011 203.532 120.012 230.981C133.863 273.223 179.33 296.224 221.539 282.384C263.747 268.543 286.758 223.063 272.914 180.843C263.696 152.733 240.449 133.198 213.473 127.342L213.495 127.335Z"/>
<g clip-path="url(#clip1_18_2180)">
<path fill="#231815" d="M216.289 274.919C213.603 275.74 210.848 276.432 208.113 276.973C206.808 277.228 205.541 276.378 205.286 275.075C205.031 273.771 205.882 272.504 207.186 272.249C209.766 271.741 212.354 271.093 214.889 270.318L215.593 270.103C215.593 270.103 215.607 270.099 215.613 270.096C216.877 269.71 218.216 270.416 218.616 271.675C219.017 272.941 218.308 274.294 217.041 274.696L216.297 274.924L216.289 274.919ZM225.374 271.529C224.229 271.879 222.973 271.328 222.47 270.201C221.932 268.984 222.477 267.566 223.693 267.021C226.329 265.848 228.924 264.515 231.401 263.06C232.548 262.385 234.026 262.768 234.701 263.914C235.375 265.06 234.992 266.538 233.845 267.212C231.208 268.759 228.452 270.178 225.651 271.423C225.563 271.464 225.466 271.501 225.374 271.529ZM199.499 278.14C199.335 278.19 199.164 278.22 198.99 278.238C195.935 278.489 192.841 278.564 189.779 278.464C188.45 278.425 187.404 277.313 187.451 275.982C187.491 274.653 188.612 273.612 189.935 273.654C192.814 273.745 195.729 273.673 198.603 273.442C199.93 273.331 201.089 274.322 201.2 275.648C201.293 276.8 200.561 277.822 199.501 278.146L199.499 278.14ZM240.777 262.48C239.836 262.768 238.777 262.459 238.146 261.623C237.346 260.558 237.56 259.047 238.619 258.248C240.925 256.514 243.15 254.632 245.236 252.649C246.202 251.735 247.725 251.772 248.639 252.737C249.554 253.703 249.515 255.225 248.55 256.139C246.328 258.243 243.96 260.248 241.508 262.091C241.279 262.262 241.023 262.391 240.767 262.469L240.777 262.48ZM181.651 277.568C181.322 277.669 180.964 277.699 180.595 277.647C177.573 277.204 174.531 276.58 171.57 275.795C170.285 275.454 169.515 274.135 169.856 272.851C170.198 271.567 171.517 270.796 172.802 271.137C175.591 271.874 178.441 272.463 181.29 272.88C182.609 273.074 183.517 274.3 183.32 275.612C183.179 276.562 182.505 277.3 181.643 277.564L181.651 277.568ZM253.736 250.193C252.979 250.425 252.129 250.282 251.478 249.732C250.461 248.878 250.327 247.358 251.183 246.341C253.035 244.134 254.783 241.8 256.381 239.398C257.114 238.289 258.614 237.989 259.723 238.721C260.833 239.454 261.133 240.952 260.399 242.062C258.704 244.616 256.849 247.097 254.879 249.434C254.567 249.802 254.168 250.054 253.74 250.185L253.736 250.193ZM164.394 272.996C163.893 273.149 163.343 273.138 162.814 272.94C159.961 271.826 157.143 270.544 154.433 269.121C153.257 268.502 152.804 267.043 153.424 265.868C154.043 264.693 155.503 264.239 156.678 264.858C159.227 266.201 161.886 267.41 164.567 268.454C165.809 268.937 166.423 270.332 165.938 271.574C165.659 272.285 165.08 272.793 164.396 273.003L164.394 272.996ZM263.615 235.322C263.036 235.499 262.39 235.46 261.81 235.162C260.623 234.554 260.158 233.106 260.768 231.919C262.086 229.358 263.264 226.688 264.283 223.995C264.752 222.751 266.144 222.124 267.389 222.592C268.634 223.06 269.261 224.451 268.792 225.696C267.709 228.559 266.451 231.39 265.052 234.113C264.741 234.719 264.212 235.133 263.613 235.316L263.615 235.322ZM148.593 264.69C147.922 264.896 147.159 264.805 146.532 264.378C143.999 262.663 141.536 260.776 139.213 258.781C138.207 257.916 138.088 256.399 138.952 255.386C139.816 254.374 141.343 254.259 142.349 255.124C144.536 257.002 146.854 258.769 149.235 260.386C150.335 261.136 150.62 262.632 149.876 263.73C149.553 264.203 149.096 264.522 148.589 264.677L148.593 264.69ZM269.928 218.628C269.519 218.753 269.072 218.775 268.633 218.657C267.346 218.331 266.562 217.017 266.889 215.73C267.597 212.938 268.155 210.076 268.544 207.23C268.723 205.909 269.94 204.991 271.255 205.171C272.576 205.35 273.495 206.565 273.314 207.88C272.9 210.906 272.306 213.951 271.556 216.914C271.339 217.758 270.704 218.391 269.921 218.63L269.928 218.628ZM135.047 253.069C134.191 253.331 133.221 253.102 132.577 252.407C130.493 250.159 128.51 247.773 126.7 245.312C125.912 244.243 126.142 242.734 127.211 241.947C128.28 241.159 129.79 241.388 130.578 242.457C132.288 244.776 134.147 247.02 136.104 249.134C137.007 250.11 136.954 251.63 135.979 252.54C135.705 252.796 135.385 252.973 135.049 253.076L135.047 253.069ZM272.345 200.945C272.108 201.018 271.853 201.053 271.585 201.048C270.251 201.017 269.203 199.921 269.228 198.589C269.291 195.713 269.186 192.803 268.927 189.932C268.804 188.61 269.783 187.433 271.107 187.316C272.43 187.192 273.608 188.17 273.724 189.494C274.003 192.546 274.114 195.641 274.048 198.698C274.021 199.764 273.313 200.649 272.345 200.945ZM124.453 238.696C123.4 239.018 122.231 238.584 121.661 237.593C120.138 234.943 118.751 232.173 117.537 229.357C117.013 228.136 117.573 226.72 118.793 226.189C120.012 225.657 121.431 226.224 121.962 227.443C123.102 230.087 124.41 232.694 125.844 235.192C126.505 236.342 126.106 237.816 124.949 238.48C124.79 238.572 124.624 238.644 124.453 238.696ZM270.706 183.179C270.634 183.201 270.561 183.223 270.494 183.237C269.193 183.505 267.916 182.672 267.64 181.368C267.156 179.056 266.561 176.734 265.869 174.471C265.718 173.977 265.567 173.484 265.403 172.994C264.989 171.732 265.68 170.37 266.943 169.955C268.208 169.547 269.569 170.231 269.983 171.493C270.155 172.009 270.316 172.535 270.477 173.061C271.214 175.469 271.846 177.938 272.357 180.386C272.612 181.618 271.885 182.819 270.706 183.179ZM197.056 203.788L192.448 205.197C191.595 202.407 190.612 199.665 189.522 197.041C189.183 196.216 189.326 195.317 189.83 194.659C189.543 193.156 189.294 191.657 189.079 190.154C189.066 190.158 189.059 190.16 189.048 190.171C187.882 190.808 186.417 190.371 185.784 189.198C184.402 186.656 182.878 184.165 181.247 181.8C180.495 180.706 180.77 179.205 181.865 178.453C182.96 177.701 184.462 177.975 185.214 179.069C186.636 181.131 187.978 183.282 189.225 185.476C189.611 184.998 190.177 184.66 190.839 184.587C192.162 184.441 193.353 185.394 193.499 186.716C193.815 189.562 194.275 192.458 194.874 195.311C194.989 195.873 194.9 196.432 194.662 196.901C195.538 199.129 196.334 201.426 197.044 203.748L197.056 203.788ZM117.383 222.31C116.113 222.699 114.763 221.982 114.375 220.712C113.478 217.777 112.743 214.764 112.187 211.769C111.946 210.461 112.807 209.205 114.115 208.963C115.424 208.721 116.68 209.582 116.922 210.889C117.445 213.708 118.14 216.546 118.979 219.311C119.367 220.581 118.649 221.93 117.379 222.319L117.383 222.31ZM265.145 166.217C264.006 166.565 262.761 166.025 262.255 164.913C261.058 162.293 259.692 159.711 258.206 157.251C257.52 156.116 257.887 154.629 259.023 153.944C260.166 153.256 261.646 153.624 262.332 154.759C263.91 157.378 265.361 160.121 266.639 162.911C267.196 164.121 266.662 165.551 265.448 166.102C265.347 166.148 265.25 166.184 265.145 166.217ZM114.127 204.765C113.956 204.817 113.772 204.852 113.589 204.865C112.265 204.96 111.11 203.961 111.019 202.629C110.806 199.579 110.765 196.476 110.903 193.419C110.964 192.091 112.09 191.063 113.417 191.118C114.746 191.179 115.773 192.304 115.718 193.63C115.589 196.504 115.625 199.422 115.825 202.289C115.907 203.429 115.179 204.436 114.125 204.758L114.127 204.765ZM191.281 180.358C191.063 180.424 190.836 180.458 190.601 180.465C189.272 180.476 188.184 179.413 188.165 178.08C188.138 175.024 188.268 171.941 188.549 168.905C188.669 167.58 189.846 166.602 191.173 166.728C192.498 166.848 193.47 168.026 193.35 169.35C193.084 172.223 192.962 175.146 192.99 178.037C192.999 179.127 192.283 180.059 191.289 180.363L191.281 180.358ZM178.475 175.655C177.586 175.926 176.587 175.671 175.941 174.926C174.067 172.751 172.047 170.642 169.933 168.648C168.962 167.736 168.92 166.209 169.829 165.248C170.741 164.278 172.269 164.235 173.23 165.143C175.466 167.25 177.603 169.482 179.587 171.782C180.457 172.789 180.338 174.308 179.33 175.177C179.067 175.402 178.771 175.564 178.469 175.657L178.475 175.655ZM255.915 150.937C254.987 151.221 253.932 150.925 253.299 150.104C251.538 147.829 249.632 145.621 247.619 143.56C246.694 142.605 246.71 141.082 247.666 140.157C248.621 139.231 250.145 139.248 251.07 140.202C253.203 142.399 255.237 144.741 257.108 147.162C257.92 148.216 257.727 149.728 256.672 150.54C256.432 150.721 256.179 150.857 255.909 150.939L255.915 150.937ZM114.924 186.937C114.582 187.042 114.217 187.074 113.838 187.01C112.521 186.801 111.625 185.565 111.843 184.253C112.324 181.235 112.988 178.205 113.814 175.254C114.17 173.973 115.502 173.22 116.78 173.585C118.062 173.941 118.813 175.265 118.45 176.549C117.672 179.327 117.054 182.178 116.597 185.015C116.445 185.954 115.774 186.677 114.918 186.939L114.924 186.937ZM192.928 162.58C192.559 162.692 192.164 162.72 191.759 162.642C190.457 162.386 189.602 161.122 189.857 159.813C190.444 156.835 191.192 153.844 192.078 150.903C192.467 149.633 193.808 148.907 195.085 149.293C196.362 149.68 197.082 151.021 196.695 152.298C195.854 155.08 195.146 157.923 194.59 160.74C194.413 161.644 193.751 162.328 192.928 162.58ZM165.478 163.405C164.761 163.624 163.947 163.506 163.306 163.012C161.038 161.266 158.628 159.6 156.143 158.043C155.013 157.338 154.674 155.852 155.38 154.723C156.085 153.593 157.572 153.253 158.702 153.958C161.311 155.592 163.85 157.349 166.24 159.186C167.293 159.994 167.497 161.507 166.682 162.562C166.362 162.976 165.937 163.257 165.476 163.398L165.478 163.405ZM243.468 138.131C242.724 138.358 241.883 138.22 241.232 137.692C239.004 135.87 236.644 134.153 234.222 132.591C233.101 131.869 232.782 130.376 233.507 129.262C234.23 128.142 235.723 127.822 236.837 128.546C239.41 130.206 241.912 132.031 244.283 133.968C245.311 134.812 245.465 136.326 244.62 137.354C244.305 137.738 243.903 137.998 243.462 138.133L243.468 138.131ZM119.716 169.744C119.209 169.899 118.644 169.885 118.111 169.674C116.878 169.173 116.284 167.772 116.785 166.539C117.935 163.706 119.257 160.898 120.716 158.207C121.351 157.035 122.81 156.603 123.983 157.237C125.156 157.871 125.588 159.329 124.953 160.502C123.583 163.036 122.338 165.676 121.254 168.346C120.971 169.044 120.396 169.543 119.725 169.749L119.716 169.744ZM198.092 145.474C197.579 145.631 197.013 145.617 196.478 145.399C195.245 144.899 194.656 143.489 195.166 142.261C196.312 139.464 197.61 136.671 199.031 133.949C199.642 132.769 201.1 132.309 202.282 132.926C203.462 133.536 203.922 134.993 203.304 136.175C201.959 138.766 200.72 141.426 199.627 144.091C199.344 144.789 198.766 145.275 198.101 145.479L198.092 145.474ZM150.342 153.903C149.762 154.081 149.123 154.039 148.545 153.748C145.98 152.446 143.302 151.221 140.588 150.116C139.355 149.615 138.765 148.205 139.269 146.979C139.77 145.747 141.181 145.157 142.407 145.66C145.246 146.821 148.047 148.094 150.732 149.46C151.917 150.062 152.39 151.514 151.787 152.699C151.476 153.305 150.949 153.725 150.344 153.91L150.342 153.903ZM228.471 128.45C227.905 128.623 227.268 128.588 226.691 128.303C224.11 127.02 221.426 125.87 218.72 124.884C217.473 124.431 216.826 123.046 217.28 121.799C217.734 120.553 219.12 119.906 220.367 120.359C223.243 121.408 226.094 122.63 228.836 123.993C230.025 124.586 230.509 126.028 229.917 127.223C229.61 127.843 229.077 128.265 228.464 128.452L228.471 128.45ZM128.227 154.047C127.542 154.256 126.778 154.159 126.147 153.719C125.058 152.958 124.786 151.459 125.548 150.37C127.274 147.892 129.152 145.49 131.136 143.221L132.166 142.043L133.81 142.548C135.078 142.951 135.78 144.305 135.376 145.573C135.189 146.162 134.798 146.627 134.305 146.922C132.607 148.901 130.996 150.977 129.505 153.117C129.184 153.574 128.734 153.892 128.234 154.045L128.227 154.047ZM206.337 129.614C205.685 129.813 204.956 129.734 204.338 129.34C203.213 128.626 202.887 127.136 203.603 126.018C205.242 123.444 207.011 120.918 208.853 118.513L209.799 117.274L211.561 117.692C212.853 118.009 213.645 119.306 213.329 120.604C213.164 121.288 212.719 121.834 212.145 122.146C210.579 124.23 209.077 126.402 207.671 128.609C207.349 129.11 206.872 129.457 206.346 129.618L206.337 129.614Z"/>
<mask height="411" width="409" y="1" x="-25" maskUnits="userSpaceOnUse" style="mask-type:luminance" id="mask0_18_2180">
<path fill="white" d="M287.225 1.94969L-24.4574 97.2637L71.5769 411.301L383.259 315.987L287.225 1.94969Z"/>
</mask>
<g mask="url(#mask0_18_2180)">
<path fill="#161515" d="M211.964 262.917C196.506 267.644 179.903 266.577 165.195 259.916C163.701 259.243 163.04 257.481 163.72 255.985C164.4 254.49 166.163 253.828 167.652 254.509C181.04 260.574 196.152 261.543 210.227 257.239C220.458 254.111 229.681 248.326 236.898 240.521C238.011 239.31 239.89 239.239 241.094 240.353C242.299 241.467 242.376 243.343 241.261 244.547C233.332 253.13 223.201 259.481 211.964 262.917ZM247.148 235.948C246.358 236.189 245.465 236.095 244.702 235.624C243.313 234.754 242.89 232.926 243.762 231.537C244.429 230.47 245.068 229.382 245.666 228.278C246.456 226.835 248.255 226.314 249.699 227.081C251.14 227.863 251.676 229.663 250.895 231.111C250.235 232.32 249.541 233.511 248.8 234.687C248.409 235.317 247.815 235.751 247.15 235.954L247.148 235.948ZM156.995 254.171C156.146 254.431 155.195 254.311 154.423 253.763C153.289 252.973 152.184 252.138 151.101 251.282C149.823 250.256 149.613 248.392 150.632 247.109C151.663 245.822 153.526 245.627 154.807 246.638C155.789 247.424 156.798 248.181 157.825 248.903C159.171 249.844 159.499 251.693 158.557 253.039C158.161 253.606 157.61 253.99 156.997 254.178L156.995 254.171ZM253.797 221.626C253.237 221.797 252.621 221.806 252.031 221.619C250.472 221.11 249.608 219.439 250.111 217.882C253.879 206.146 253.958 193.69 250.333 181.862C246.478 169.256 238.818 158.518 228.168 150.789C226.838 149.829 226.543 147.969 227.512 146.644C228.473 145.314 230.327 145.02 231.66 145.987C243.362 154.474 251.788 166.279 256.021 180.123C259.995 193.117 259.91 206.799 255.775 219.69C255.465 220.655 254.705 221.348 253.81 221.622L253.797 221.626ZM220.568 145.192C219.883 145.401 219.122 145.36 218.431 145.032C217.633 144.657 216.823 144.293 216.006 143.953C214.496 143.321 213.777 141.584 214.408 140.068C215.038 138.551 216.78 137.845 218.296 138.469C219.203 138.846 220.096 139.249 220.979 139.663C222.461 140.367 223.094 142.131 222.397 143.618C222.025 144.401 221.353 144.959 220.583 145.194L220.568 145.192ZM193.448 175.299C191.767 188.375 197.139 208.554 203.984 220.016C204.839 221.445 204.334 223.255 202.852 224.06C201.373 224.872 199.447 224.389 198.635 222.933C189.503 206.537 187.17 194.458 187.382 184.442"/>
</g>
</g>
<path fill="#FCF7EF" d="M204.884 140.322C202.167 146.184 200.387 152.61 199.083 158.904C196.474 171.634 196.36 185.077 200.618 197.486C201.343 199.628 204.703 198.526 203.956 196.392C199.831 184.386 200.014 171.439 202.621 159.134C203.859 153.286 205.494 147.355 208.019 141.909C208.97 139.854 205.835 138.267 204.884 140.322Z"/>
<path fill="#FCF7EF" d="M131.471 160.083C128.292 164.825 126.17 170.492 124.565 175.942C120.889 188.291 120.627 201.499 123.873 213.982C126.416 223.821 131.142 232.99 137.105 241.189C138.433 243.015 141.38 241.083 140.044 239.236C130.587 226.199 124.772 210.907 125.148 194.669C125.371 185.007 127.725 175.306 131.936 166.599C132.751 164.918 133.608 163.223 134.656 161.678C135.925 159.801 132.769 158.221 131.521 160.091L131.471 160.083Z"/>
</g>
<defs>
<clipPath id="clip0_18_2180">
<rect transform="translate(-19 99.7078) rotate(-18.1549)" fill="white" height="322.704" width="320"/>
</clipPath>
<clipPath id="clip1_18_2180">
<rect transform="translate(-24.4574 97.2637) rotate(-17.0039)" fill="white" height="328.394" width="325.931"/>
</clipPath>
</defs>
</svg>