<svg xmlns="http://www.w3.org/2000/svg" width="18" height="18" viewBox="0 0 18 18" fill="none">
  <path d="M8.71876 1.33533C4.64064 1.33533 1.33651 4.64058 1.33539 8.7187C1.33651 12.7957 4.64064 16.1004 8.71876 16.1026C12.7969 16.1004 16.101 12.7951 16.1016 8.7187C16.1016 4.64058 12.7963 1.33589 8.71876 1.33533ZM8.71876 14.4135C5.57439 14.4073 3.02908 11.8631 3.02345 8.7187C3.02553 7.2088 3.62622 5.76133 4.69384 4.69361C5.76145 3.62589 7.20886 3.02506 8.71876 3.02283C10.2285 3.02521 11.6757 3.62603 12.7431 4.69361C13.8106 5.76119 14.4113 7.20843 14.4135 8.71814C14.4079 11.8625 11.8637 14.4078 8.71876 14.4123V14.4135ZM4.85158 8.7187C4.85158 8.56952 4.79231 8.42645 4.68682 8.32096C4.58133 8.21547 4.43826 8.1562 4.28908 8.1562C4.13989 8.1562 3.99682 8.21547 3.89133 8.32096C3.78584 8.42645 3.72658 8.56952 3.72658 8.7187C3.72658 8.86789 3.78584 9.01096 3.89133 9.11645C3.99682 9.22194 4.13989 9.2812 4.28908 9.2812C4.43826 9.2812 4.58133 9.22194 4.68682 9.11645C4.79231 9.01096 4.85158 8.86789 4.85158 8.7187ZM4.6007 10.4467C4.50432 10.5024 4.42661 10.5854 4.37742 10.6852C4.32823 10.7851 4.30977 10.8973 4.32437 11.0076C4.33897 11.1179 4.38598 11.2215 4.45945 11.3051C4.53291 11.3887 4.62953 11.4486 4.73708 11.4773C4.84462 11.506 4.95826 11.5021 5.0636 11.4662C5.16895 11.4303 5.26126 11.3639 5.32887 11.2755C5.39647 11.187 5.43632 11.0806 5.44338 10.9695C5.45044 10.8584 5.42438 10.7477 5.36851 10.6515C5.2934 10.5227 5.1704 10.4288 5.02636 10.3903C4.88231 10.3519 4.72889 10.3719 4.59958 10.4461L4.6007 10.4467ZM5.1632 6.01645C5.09912 5.97672 5.02771 5.95027 4.95321 5.93869C4.87871 5.9271 4.80263 5.93061 4.72952 5.94901C4.6564 5.96741 4.58772 6.00032 4.52758 6.04579C4.46743 6.09125 4.41704 6.14834 4.37939 6.21367C4.34175 6.279 4.31763 6.35123 4.30845 6.42607C4.29928 6.50091 4.30524 6.57683 4.32599 6.64931C4.34674 6.7218 4.38185 6.78937 4.42924 6.84802C4.47662 6.90667 4.53532 6.95519 4.60183 6.9907C4.73055 7.05822 4.88042 7.07328 5.02001 7.03273C5.1596 6.99218 5.27807 6.89916 5.35059 6.77318C5.42311 6.6472 5.44404 6.49804 5.409 6.35697C5.37396 6.21589 5.28624 6.09386 5.1632 6.01645ZM12.8368 6.9907C12.9042 6.95568 12.9638 6.90738 13.012 6.84872C13.0602 6.79005 13.0961 6.72222 13.1174 6.64933C13.1387 6.57644 13.145 6.5 13.1359 6.4246C13.1269 6.3492 13.1027 6.27642 13.0647 6.21063C13.0268 6.14484 12.976 6.08742 12.9152 6.04181C12.8545 5.99621 12.7852 5.96337 12.7114 5.94528C12.6377 5.92719 12.561 5.92422 12.4861 5.93655C12.4112 5.94888 12.3395 5.97625 12.2755 6.01701C12.1532 6.09482 12.0657 6.21682 12.0311 6.35758C11.9966 6.49833 12.0177 6.64698 12.0901 6.77254C12.1625 6.8981 12.2806 6.99087 12.4197 7.03151C12.5588 7.07216 12.7082 7.05754 12.8368 6.9907ZM6.78433 12.0684C6.65567 12.0017 6.50624 11.9871 6.36713 12.0278C6.22802 12.0684 6.10995 12.1612 6.03748 12.2867C5.96502 12.4122 5.94374 12.5608 5.97807 12.7016C6.01241 12.8424 6.09972 12.9646 6.22183 13.0426C6.35095 13.1161 6.50388 13.1354 6.64722 13.0965C6.79057 13.0576 6.91271 12.9635 6.98698 12.8349C7.06125 12.7063 7.08163 12.5535 7.04366 12.4099C7.00569 12.2663 6.91247 12.1435 6.78433 12.0684ZM6.78433 5.36902C6.91352 5.29442 7.00778 5.17156 7.04639 5.02746C7.085 4.88337 7.06479 4.72983 6.9902 4.60064C6.93469 4.50433 6.85187 4.42665 6.7522 4.37742C6.65254 4.32819 6.54051 4.30963 6.4303 4.32408C6.32008 4.33853 6.21663 4.38534 6.13302 4.45859C6.04941 4.53185 5.98941 4.62825 5.9606 4.73562C5.93179 4.84298 5.93547 4.95647 5.97118 5.06174C6.00688 5.16701 6.07301 5.25932 6.16118 5.32701C6.24936 5.39469 6.35563 5.4347 6.46655 5.44198C6.57747 5.44926 6.68806 5.42347 6.78433 5.36789V5.36902ZM12.8368 10.4467C12.7076 10.3725 12.5543 10.3525 12.4103 10.3909C12.2663 10.4294 12.1435 10.5233 12.0684 10.652C11.9994 10.7808 11.9831 10.9315 12.0231 11.0721C12.0631 11.2127 12.1562 11.3323 12.2827 11.4055C12.4093 11.4787 12.5593 11.4998 12.7011 11.4644C12.843 11.4289 12.9655 11.3397 13.0427 11.2156C13.1172 11.0863 13.1375 10.9327 13.099 10.7885C13.0605 10.6443 12.9664 10.5212 12.8374 10.4461L12.8368 10.4467ZM11.2163 4.3942C11.0875 4.32683 10.9376 4.31187 10.7981 4.35244C10.6585 4.39302 10.54 4.48599 10.4674 4.61191C10.3949 4.73783 10.3738 4.88694 10.4086 5.02805C10.4434 5.16916 10.5315 5.29133 10.6543 5.36902C10.7184 5.40705 10.7894 5.43198 10.8631 5.44236C10.9369 5.45273 11.012 5.44835 11.0841 5.42947C11.1561 5.41059 11.2237 5.37758 11.2829 5.33236C11.3421 5.28714 11.3918 5.23061 11.4289 5.16605C11.4661 5.10149 11.4901 5.0302 11.4995 4.95629C11.5089 4.88239 11.5035 4.80736 11.4837 4.73555C11.4638 4.66374 11.4299 4.59659 11.3839 4.53799C11.3379 4.47939 11.2807 4.43052 11.2157 4.3942H11.2163ZM13.1513 8.1562C13.0021 8.1562 12.859 8.21547 12.7535 8.32096C12.648 8.42645 12.5888 8.56952 12.5888 8.7187C12.5888 8.86789 12.648 9.01096 12.7535 9.11645C12.859 9.22194 13.0021 9.2812 13.1513 9.2812C13.3004 9.2812 13.4435 9.22194 13.549 9.11645C13.6545 9.01096 13.7138 8.86789 13.7138 8.7187C13.7138 8.56952 13.6545 8.42645 13.549 8.32096C13.4435 8.21547 13.3004 8.1562 13.1513 8.1562ZM8.71876 3.72595C8.40939 3.72595 8.15626 3.97795 8.15626 4.28845L7.8947 8.41889L6.20495 9.52139C6.07576 9.59606 5.98152 9.71899 5.94296 9.86314C5.9044 10.0073 5.92469 10.1609 5.99936 10.29C6.07402 10.4192 6.19695 10.5135 6.3411 10.552C6.48526 10.5906 6.63882 10.5703 6.76801 10.4956L8.62764 9.55233C8.65801 9.55627 8.68839 9.56189 8.72045 9.56189C9.18733 9.56189 9.5642 9.18502 9.5642 8.71814L9.28295 4.28789C9.28295 4.13871 9.22369 3.99563 9.1182 3.89014C9.01271 3.78465 8.86963 3.72539 8.72045 3.72539L8.71876 3.72595ZM8.71876 12.587C8.40939 12.587 8.15626 12.8385 8.15626 13.1495C8.15626 13.4606 8.40939 13.712 8.71876 13.712C9.02814 13.712 9.28126 13.4606 9.28126 13.1495C9.28126 12.8385 9.02983 12.587 8.71876 12.587ZM10.6538 12.0684C10.5572 12.1238 10.4793 12.2067 10.4299 12.3064C10.3805 12.4061 10.3618 12.5183 10.3761 12.6287C10.3905 12.739 10.4372 12.8427 10.5105 12.9265C10.5838 13.0103 10.6803 13.0704 10.7878 13.0993C10.8953 13.1283 11.0089 13.1246 11.1143 13.0889C11.2198 13.0532 11.3122 12.9871 11.38 12.8988C11.4478 12.8105 11.4879 12.7041 11.4952 12.593C11.5025 12.482 11.4767 12.3712 11.421 12.2748C11.3841 12.2108 11.335 12.1547 11.2764 12.1097C11.2178 12.0646 11.1509 12.0316 11.0796 12.0124C11.0082 11.9933 10.9338 11.9883 10.8605 11.9979C10.7873 12.0075 10.7166 12.0315 10.6526 12.0684H10.6538Z" fill="#A48B78"/>
</svg>