<svg width="37" height="37" viewBox="0 0 37 37" fill="none" xmlns="http://www.w3.org/2000/svg">
<g id="Open a Scroll img">
<g id="Clip path group">
<mask id="mask0_90_1005" style="mask-type:luminance" maskUnits="userSpaceOnUse" x="0" y="0" width="37" height="37">
<g id="clippath">
<path id="Vector" d="M27.586 -0.000214414L0 8.92529L9.1222 36.3746L36.7082 27.4491L27.586 -0.000214414Z" fill="white"/>
</g>
</mask>
<g mask="url(#mask0_90_1005)">
<g id="Group">
<g id="Group_2">
<path id="Vector_2" d="M21.5251 24.3791C17.6896 25.6202 13.5465 23.5504 12.2885 19.7649C11.4955 17.3789 12.0038 14.7996 13.648 12.8673C13.7158 12.7884 13.8245 12.7554 13.9258 12.7837C15.2473 13.166 17.3875 14.0827 18.7956 16.1979C18.6104 13.6216 19.7245 11.6309 20.5227 10.5607C20.5848 10.4774 20.6916 10.4386 20.7929 10.4606C23.324 11.0041 25.3955 12.8457 26.1992 15.264C27.4572 19.0496 25.3607 23.1381 21.5251 24.3791ZM13.945 13.3364C12.5076 15.1133 12.0744 17.4425 12.792 19.6019C13.959 23.1133 17.8022 25.0333 21.36 23.8821C24.9177 22.731 26.8625 18.9383 25.6956 15.4269C24.9678 13.2371 23.1197 11.5595 20.8493 11.0097C19.9144 12.3182 18.6435 14.8658 19.7168 18.0953C19.7623 18.2324 19.6871 18.3791 19.5482 18.424C19.4093 18.469 19.2607 18.3947 19.2151 18.2576C18.1653 15.0985 15.5331 13.8265 13.9469 13.3358L13.945 13.3364Z" fill="#161515"/>
<path id="Vector_3" d="M21.1157 23.1473C19.7478 23.5899 18.2668 23.525 16.9461 22.9653C16.8116 22.9076 16.75 22.7545 16.8065 22.6224C16.865 22.4896 17.02 22.4289 17.1539 22.4847C18.3573 22.9937 19.7042 23.0536 20.9505 22.6503C21.8554 22.3575 22.6683 21.833 23.2952 21.1346C23.392 21.0273 23.5597 21.0173 23.6684 21.1129C23.7771 21.2085 23.7872 21.374 23.6903 21.4812C22.9995 22.251 22.1093 22.8258 21.1138 23.1479L21.1157 23.1473ZM24.2007 20.715C24.1312 20.7375 24.0504 20.732 23.9831 20.6905C23.8583 20.617 23.8173 20.4552 23.8918 20.332C23.95 20.2373 24.0032 20.1399 24.0563 20.0426C24.125 19.9149 24.2838 19.8656 24.4125 19.9316C24.5413 19.9975 24.5938 20.1555 24.5258 20.2851C24.4694 20.3919 24.4085 20.4981 24.3451 20.6029C24.3101 20.6585 24.2592 20.6982 24.2013 20.7169L24.2007 20.715ZM16.2043 22.4756C16.1291 22.4999 16.045 22.4913 15.9739 22.4447C15.8722 22.3764 15.7717 22.3055 15.6745 22.2315C15.558 22.1448 15.5376 21.9805 15.6255 21.8656C15.7153 21.7501 15.8798 21.7306 15.9963 21.8174C16.0852 21.8856 16.1767 21.9488 16.2701 22.0114C16.3911 22.0925 16.4237 22.2548 16.3435 22.3736C16.3092 22.4248 16.2609 22.4594 16.2069 22.4768L16.2043 22.4756ZM24.7674 19.4434C24.7173 19.4597 24.6627 19.4626 24.6101 19.4458C24.4703 19.4046 24.3901 19.2597 24.4313 19.1199C24.7465 18.0815 24.7306 16.9857 24.3851 15.9524C24.0187 14.8498 23.3162 13.9193 22.355 13.2581C22.236 13.1764 22.2053 13.0133 22.29 12.8953C22.3721 12.7759 22.5379 12.7475 22.6576 12.8311C23.7148 13.5562 24.4868 14.5803 24.8893 15.7914C25.2664 16.9263 25.2843 18.131 24.9391 19.2719C24.9136 19.3561 24.8472 19.4197 24.7681 19.4453L24.7674 19.4434ZM15.1441 21.5616C15.0477 21.5929 14.9367 21.5676 14.8652 21.4874C14.3236 20.8865 13.918 20.1932 13.6623 19.4239C13.1415 17.8567 13.322 16.1364 14.1598 14.7033C14.2317 14.5788 14.3944 14.5346 14.5212 14.6075C14.6479 14.6803 14.6921 14.839 14.6183 14.9641C13.8555 16.2696 13.6919 17.8347 14.1659 19.2609C14.3987 19.9617 14.7674 20.5953 15.2605 21.1402C15.3582 21.2477 15.3491 21.4131 15.2401 21.5095C15.2117 21.5335 15.1795 21.5523 15.1467 21.5629L15.1441 21.5616ZM21.6684 12.78C21.6086 12.7994 21.5398 12.7984 21.4771 12.7702C21.4047 12.7388 21.3323 12.7074 21.2585 12.6785C21.1233 12.6253 21.056 12.4741 21.1093 12.3388C21.1633 12.2053 21.3164 12.1389 21.4536 12.1915C21.5343 12.2224 21.6144 12.2576 21.6945 12.2928C21.8278 12.3531 21.8874 12.5067 21.8283 12.6376C21.7959 12.7072 21.7378 12.7576 21.6703 12.7794L21.6684 12.78ZM19.3096 15.475C19.1839 16.6271 19.698 18.3926 20.3282 19.3887C20.4078 19.5127 20.3647 19.6722 20.2353 19.7457C20.1058 19.8192 19.9327 19.7803 19.8562 19.6532C19.013 18.2283 18.7832 17.1702 18.7849 16.288" fill="#161515"/>
</g>
</g>
</g>
</g>
<path id="Vector_4" d="M20.3114 12.5609C20.0648 13.0857 19.9034 13.661 19.7851 14.2244C19.5484 15.3639 19.538 16.5672 19.9243 17.6781C19.9901 17.8698 20.295 17.7712 20.2272 17.5801C19.853 16.5054 19.8695 15.3464 20.1061 14.245C20.2184 13.7214 20.3668 13.1905 20.5958 12.703C20.6821 12.519 20.3977 12.377 20.3114 12.5609Z" fill="#FCF7EF"/>
<path id="Vector_5" d="M13.6512 14.3298C13.3627 14.7542 13.1702 15.2615 13.0246 15.7494C12.6911 16.8548 12.6674 18.0372 12.9618 19.1546C13.1925 20.0353 13.6213 20.8562 14.1622 21.5901C14.2828 21.7536 14.5501 21.5806 14.4289 21.4152C13.571 20.2482 13.0434 18.8793 13.0775 17.4258C13.0977 16.5609 13.3113 15.6925 13.6933 14.913C13.7672 14.7625 13.845 14.6108 13.9401 14.4725C14.0552 14.3045 13.7688 14.1631 13.6557 14.3304L13.6512 14.3298Z" fill="#FCF7EF"/>
</g>
</svg>
