<svg width="37" height="37" viewBox="0 0 37 37" fill="none" xmlns="http://www.w3.org/2000/svg">
<g id="Open a Scroll img">
<path id="Vector" d="M20.9342 11.5921C19.9286 12.9456 18.4565 15.7009 19.6303 19.233C18.4908 15.8042 15.6253 14.4719 13.8816 13.9668C12.3265 15.7941 11.7314 18.3433 12.5397 20.7755C13.7835 24.5182 17.8663 26.5562 21.6565 25.3299C25.4467 24.1035 27.513 20.0739 26.2698 16.333C25.4421 13.8424 23.3545 12.1115 20.9322 11.5927L20.9342 11.5921Z" fill="#A48B78" fill-opacity="0.66"/>
<path id="Vector_2" d="M20.7641 11.0833C19.7823 12.4049 18.345 15.0949 19.491 18.5434C18.3785 15.1958 15.5808 13.895 13.8784 13.4019C12.3601 15.1859 11.7791 17.6748 12.5682 20.0494C13.7826 23.7036 17.7687 25.6933 21.4693 24.496C25.1698 23.2987 27.1872 19.3644 25.9734 15.7121C25.1653 13.2804 23.1271 11.5905 20.7622 11.0839L20.7641 11.0833Z" fill="#F9C14D"/>
<g id="Clip path group">
<mask id="mask0_90_1021" style="mask-type:luminance" maskUnits="userSpaceOnUse" x="0" y="0" width="37" height="37">
<g id="clippath">
<path id="Vector_3" d="M27.586 0.374786L0 9.30029L9.1222 36.7496L36.7082 27.8241L27.586 0.374786Z" fill="white"/>
</g>
</mask>
<g mask="url(#mask0_90_1021)">
<g id="Group">
<g id="Group_2">
<path id="Vector_4" d="M21.5251 24.7541C17.6896 25.9952 13.5465 23.9254 12.2885 20.1399C11.4955 17.7539 12.0038 15.1746 13.648 13.2423C13.7158 13.1634 13.8245 13.1304 13.9258 13.1587C15.2473 13.541 17.3875 14.4577 18.7956 16.5729C18.6104 13.9966 19.7245 12.0059 20.5227 10.9357C20.5848 10.8524 20.6916 10.8136 20.7929 10.8356C23.324 11.3791 25.3955 13.2207 26.1992 15.639C27.4572 19.4246 25.3607 23.5131 21.5251 24.7541ZM13.945 13.7114C12.5076 15.4883 12.0744 17.8175 12.792 19.9769C13.959 23.4883 17.8022 25.4083 21.36 24.2571C24.9177 23.106 26.8625 19.3133 25.6956 15.8019C24.9678 13.6121 23.1197 11.9345 20.8493 11.3847C19.9144 12.6932 18.6435 15.2408 19.7168 18.4703C19.7623 18.6074 19.6871 18.7541 19.5482 18.799C19.4093 18.844 19.2607 18.7697 19.2151 18.6326C18.1653 15.4735 15.5331 14.2015 13.9469 13.7108L13.945 13.7114Z" fill="#161515"/>
<path id="Vector_5" d="M21.1157 23.5223C19.7478 23.9649 18.2668 23.9 16.9461 23.3403C16.8116 23.2826 16.75 23.1295 16.8065 22.9974C16.865 22.8646 17.02 22.8039 17.1539 22.8597C18.3573 23.3687 19.7042 23.4286 20.9505 23.0253C21.8554 22.7325 22.6683 22.208 23.2952 21.5096C23.392 21.4023 23.5597 21.3923 23.6684 21.4879C23.7771 21.5835 23.7872 21.749 23.6903 21.8562C22.9995 22.626 22.1093 23.2008 21.1138 23.5229L21.1157 23.5223ZM24.2007 21.09C24.1312 21.1125 24.0504 21.107 23.9831 21.0655C23.8583 20.992 23.8173 20.8302 23.8918 20.707C23.95 20.6123 24.0032 20.5149 24.0563 20.4176C24.125 20.2899 24.2838 20.2406 24.4125 20.3066C24.5413 20.3725 24.5938 20.5305 24.5258 20.6601C24.4694 20.7669 24.4085 20.8731 24.3451 20.9779C24.3101 21.0335 24.2592 21.0732 24.2013 21.0919L24.2007 21.09ZM16.2043 22.8506C16.1291 22.8749 16.045 22.8663 15.9739 22.8197C15.8722 22.7514 15.7717 22.6805 15.6745 22.6065C15.558 22.5198 15.5376 22.3555 15.6255 22.2406C15.7153 22.1251 15.8798 22.1056 15.9963 22.1924C16.0852 22.2606 16.1767 22.3238 16.2701 22.3864C16.3911 22.4675 16.4237 22.6298 16.3435 22.7486C16.3092 22.7998 16.2609 22.8344 16.2069 22.8518L16.2043 22.8506ZM24.7674 19.8184C24.7173 19.8347 24.6627 19.8376 24.6101 19.8208C24.4703 19.7796 24.3901 19.6347 24.4313 19.4949C24.7465 18.4565 24.7306 17.3607 24.3851 16.3274C24.0187 15.2248 23.3162 14.2943 22.355 13.6331C22.236 13.5514 22.2053 13.3883 22.29 13.2703C22.3721 13.1509 22.5379 13.1225 22.6576 13.2061C23.7148 13.9312 24.4868 14.9553 24.8893 16.1664C25.2664 17.3013 25.2843 18.506 24.9391 19.6469C24.9136 19.7311 24.8472 19.7947 24.7681 19.8203L24.7674 19.8184ZM15.1441 21.9366C15.0477 21.9679 14.9367 21.9426 14.8652 21.8624C14.3236 21.2615 13.918 20.5682 13.6623 19.7989C13.1415 18.2317 13.322 16.5114 14.1598 15.0783C14.2317 14.9538 14.3944 14.9096 14.5212 14.9825C14.6479 15.0553 14.6921 15.214 14.6183 15.3391C13.8555 16.6446 13.6919 18.2097 14.1659 19.6359C14.3987 20.3367 14.7674 20.9703 15.2605 21.5152C15.3582 21.6227 15.3491 21.7881 15.2401 21.8845C15.2117 21.9085 15.1795 21.9273 15.1467 21.9379L15.1441 21.9366ZM21.6684 13.155C21.6086 13.1744 21.5398 13.1734 21.4771 13.1452C21.4047 13.1138 21.3323 13.0824 21.2585 13.0535C21.1233 13.0003 21.056 12.8491 21.1093 12.7138C21.1633 12.5803 21.3164 12.5139 21.4536 12.5665C21.5343 12.5974 21.6144 12.6326 21.6945 12.6678C21.8278 12.7281 21.8874 12.8817 21.8283 13.0126C21.7959 13.0822 21.7378 13.1326 21.6703 13.1544L21.6684 13.155ZM19.3096 15.85C19.1839 17.0021 19.698 18.7676 20.3282 19.7637C20.4078 19.8877 20.3647 20.0472 20.2353 20.1207C20.1058 20.1942 19.9327 20.1553 19.8562 20.0282C19.013 18.6033 18.7832 17.5452 18.7849 16.663" fill="#161515"/>
</g>
</g>
</g>
</g>
<path id="Vector_6" d="M20.3114 12.9359C20.0648 13.4607 19.9034 14.036 19.7851 14.5994C19.5484 15.7389 19.538 16.9422 19.9243 18.0531C19.9901 18.2448 20.295 18.1462 20.2272 17.9551C19.853 16.8804 19.8695 15.7214 20.1061 14.62C20.2184 14.0964 20.3668 13.5655 20.5958 13.078C20.6821 12.894 20.3977 12.752 20.3114 12.9359Z" fill="#FCF7EF"/>
<path id="Vector_7" d="M13.6512 14.7048C13.3627 15.1292 13.1702 15.6365 13.0246 16.1244C12.6911 17.2298 12.6674 18.4122 12.9618 19.5296C13.1925 20.4103 13.6213 21.2312 14.1622 21.9651C14.2828 22.1286 14.5501 21.9556 14.4289 21.7902C13.571 20.6232 13.0434 19.2543 13.0775 17.8008C13.0977 16.9359 13.3113 16.0675 13.6933 15.288C13.7672 15.1375 13.845 14.9858 13.9401 14.8475C14.0552 14.6795 13.7688 14.5381 13.6557 14.7054L13.6512 14.7048Z" fill="#FCF7EF"/>
</g>
</svg>
